<mxfile host="65bd71144e">
    <diagram id="4_-Ji-kbobd2QVr_yX0H" name="ページ1">
        <mxGraphModel dx="664" dy="522" grid="1" gridSize="10" guides="1" tooltips="1" connect="1" arrows="1" fold="1" page="1" pageScale="1" pageWidth="827" pageHeight="1169" math="0" shadow="0">
            <root>
                <mxCell id="0"/>
                <mxCell id="1" parent="0"/>
                <mxCell id="3" value="" style="shape=image;verticalLabelPosition=bottom;labelBackgroundColor=default;verticalAlign=top;aspect=fixed;imageAspect=0;image=data:image/svg+xml,PHN2ZyB4bWxucz0iaHR0cDovL3d3dy53My5vcmcvMjAwMC9zdmciIGFyaWEtcm9sZWRlc2NyaXB0aW9uPSJmbG93Y2hhcnQtdjIiIHJvbGU9ImdyYXBoaWNzLWRvY3VtZW50IGRvY3VtZW50IiB2aWV3Qm94PSIwIDAgMjcyMS4yODEyNSAzOTkuNSIgc3R5bGU9Im1heC13aWR0aDogMjcyMS4yODEyNXB4OyIgY2xhc3M9ImZsb3djaGFydCIgd2lkdGg9IjEwMCUiIGlkPSJleHBvcnQtc3ZnIj48c3R5bGU+LyogQ29weXJpZ2h0IDIwMTkgVGhlIFJlY3Vyc2l2ZSBQcm9qZWN0IEF1dGhvcnMgKGdpdGh1Yi5jb20vYXJyb3d0eXBlL3JlY3Vyc2l2ZSkKClRoaXMgRm9udCBTb2Z0d2FyZSBpcyBsaWNlbnNlZCB1bmRlciB0aGUgU0lMIE9wZW4gRm9udCBMaWNlbnNlLCBWZXJzaW9uIDEuMS4KVGhpcyBsaWNlbnNlIGlzIGNvcGllZCBiZWxvdywgYW5kIGlzIGFsc28gYXZhaWxhYmxlIHdpdGggYSBGQVEgYXQ6Cmh0dHA6Ly9zY3JpcHRzLnNpbC5vcmcvT0ZMCgoKLS0tLS0tLS0tLS0tLS0tLS0tLS0tLS0tLS0tLS0tLS0tLS0tLS0tLS0tLS0tLS0tLS0tLS0tLS0tLS0KU0lMIE9QRU4gRk9OVCBMSUNFTlNFIFZlcnNpb24gMS4xIC0gMjYgRmVicnVhcnkgMjAwNwotLS0tLS0tLS0tLS0tLS0tLS0tLS0tLS0tLS0tLS0tLS0tLS0tLS0tLS0tLS0tLS0tLS0tLS0tLS0tLQoKUFJFQU1CTEUKVGhlIGdvYWxzIG9mIHRoZSBPcGVuIEZvbnQgTGljZW5zZSAoT0ZMKSBhcmUgdG8gc3RpbXVsYXRlIHdvcmxkd2lkZQpkZXZlbG9wbWVudCBvZiBjb2xsYWJvcmF0aXZlIGZvbnQgcHJvamVjdHMsIHRvIHN1cHBvcnQgdGhlIGZvbnQgY3JlYXRpb24KZWZmb3J0cyBvZiBhY2FkZW1pYyBhbmQgbGluZ3Vpc3RpYyBjb21tdW5pdGllcywgYW5kIHRvIHByb3ZpZGUgYSBmcmVlIGFuZApvcGVuIGZyYW1ld29yayBpbiB3aGljaCBmb250cyBtYXkgYmUgc2hhcmVkIGFuZCBpbXByb3ZlZCBpbiBwYXJ0bmVyc2hpcAp3aXRoIG90aGVycy4KClRoZSBPRkwgYWxsb3dzIHRoZSBsaWNlbnNlZCBmb250cyB0byBiZSB1c2VkLCBzdHVkaWVkLCBtb2RpZmllZCBhbmQKcmVkaXN0cmlidXRlZCBmcmVlbHkgYXMgbG9uZyBhcyB0aGV5IGFyZSBub3Qgc29sZCBieSB0aGVtc2VsdmVzLiBUaGUKZm9udHMsIGluY2x1ZGluZyBhbnkgZGVyaXZhdGl2ZSB3b3JrcywgY2FuIGJlIGJ1bmRsZWQsIGVtYmVkZGVkLApyZWRpc3RyaWJ1dGVkIGFuZC9vciBzb2xkIHdpdGggYW55IHNvZnR3YXJlIHByb3ZpZGVkIHRoYXQgYW55IHJlc2VydmVkCm5hbWVzIGFyZSBub3QgdXNlZCBieSBkZXJpdmF0aXZlIHdvcmtzLiBUaGUgZm9udHMgYW5kIGRlcml2YXRpdmVzLApob3dldmVyLCBjYW5ub3QgYmUgcmVsZWFzZWQgdW5kZXIgYW55IG90aGVyIHR5cGUgb2YgbGljZW5zZS4gVGhlCnJlcXVpcmVtZW50IGZvciBmb250cyB0byByZW1haW4gdW5kZXIgdGhpcyBsaWNlbnNlIGRvZXMgbm90IGFwcGx5CnRvIGFueSBkb2N1bWVudCBjcmVhdGVkIHVzaW5nIHRoZSBmb250cyBvciB0aGVpciBkZXJpdmF0aXZlcy4KCkRFRklOSVRJT05TCiJGb250IFNvZnR3YXJlIiByZWZlcnMgdG8gdGhlIHNldCBvZiBmaWxlcyByZWxlYXNlZCBieSB0aGUgQ29weXJpZ2h0CkhvbGRlcihzKSB1bmRlciB0aGlzIGxpY2Vuc2UgYW5kIGNsZWFybHkgbWFya2VkIGFzIHN1Y2guIFRoaXMgbWF5CmluY2x1ZGUgc291cmNlIGZpbGVzLCBidWlsZCBzY3JpcHRzIGFuZCBkb2N1bWVudGF0aW9uLgoKIlJlc2VydmVkIEZvbnQgTmFtZSIgcmVmZXJzIHRvIGFueSBuYW1lcyBzcGVjaWZpZWQgYXMgc3VjaCBhZnRlciB0aGUKY29weXJpZ2h0IHN0YXRlbWVudChzKS4KCiJPcmlnaW5hbCBWZXJzaW9uIiByZWZlcnMgdG8gdGhlIGNvbGxlY3Rpb24gb2YgRm9udCBTb2Z0d2FyZSBjb21wb25lbnRzIGFzCmRpc3RyaWJ1dGVkIGJ5IHRoZSBDb3B5cmlnaHQgSG9sZGVyKHMpLgoKIk1vZGlmaWVkIFZlcnNpb24iIHJlZmVycyB0byBhbnkgZGVyaXZhdGl2ZSBtYWRlIGJ5IGFkZGluZyB0bywgZGVsZXRpbmcsCm9yIHN1YnN0aXR1dGluZyAtLSBpbiBwYXJ0IG9yIGluIHdob2xlIC0tIGFueSBvZiB0aGUgY29tcG9uZW50cyBvZiB0aGUKT3JpZ2luYWwgVmVyc2lvbiwgYnkgY2hhbmdpbmcgZm9ybWF0cyBvciBieSBwb3J0aW5nIHRoZSBGb250IFNvZnR3YXJlIHRvIGEKbmV3IGVudmlyb25tZW50LgoKIkF1dGhvciIgcmVmZXJzIHRvIGFueSBkZXNpZ25lciwgZW5naW5lZXIsIHByb2dyYW1tZXIsIHRlY2huaWNhbAp3cml0ZXIgb3Igb3RoZXIgcGVyc29uIHdobyBjb250cmlidXRlZCB0byB0aGUgRm9udCBTb2Z0d2FyZS4KClBFUk1JU1NJT04gJmFtcDsgQ09ORElUSU9OUwpQZXJtaXNzaW9uIGlzIGhlcmVieSBncmFudGVkLCBmcmVlIG9mIGNoYXJnZSwgdG8gYW55IHBlcnNvbiBvYnRhaW5pbmcKYSBjb3B5IG9mIHRoZSBGb250IFNvZnR3YXJlLCB0byB1c2UsIHN0dWR5LCBjb3B5LCBtZXJnZSwgZW1iZWQsIG1vZGlmeSwKcmVkaXN0cmlidXRlLCBhbmQgc2VsbCBtb2RpZmllZCBhbmQgdW5tb2RpZmllZCBjb3BpZXMgb2YgdGhlIEZvbnQKU29mdHdhcmUsIHN1YmplY3QgdG8gdGhlIGZvbGxvd2luZyBjb25kaXRpb25zOgoKMSkgTmVpdGhlciB0aGUgRm9udCBTb2Z0d2FyZSBub3IgYW55IG9mIGl0cyBpbmRpdmlkdWFsIGNvbXBvbmVudHMsCmluIE9yaWdpbmFsIG9yIE1vZGlmaWVkIFZlcnNpb25zLCBtYXkgYmUgc29sZCBieSBpdHNlbGYuCgoyKSBPcmlnaW5hbCBvciBNb2RpZmllZCBWZXJzaW9ucyBvZiB0aGUgRm9udCBTb2Z0d2FyZSBtYXkgYmUgYnVuZGxlZCwKcmVkaXN0cmlidXRlZCBhbmQvb3Igc29sZCB3aXRoIGFueSBzb2Z0d2FyZSwgcHJvdmlkZWQgdGhhdCBlYWNoIGNvcHkKY29udGFpbnMgdGhlIGFib3ZlIGNvcHlyaWdodCBub3RpY2UgYW5kIHRoaXMgbGljZW5zZS4gVGhlc2UgY2FuIGJlCmluY2x1ZGVkIGVpdGhlciBhcyBzdGFuZC1hbG9uZSB0ZXh0IGZpbGVzLCBodW1hbi1yZWFkYWJsZSBoZWFkZXJzIG9yCmluIHRoZSBhcHByb3ByaWF0ZSBtYWNoaW5lLXJlYWRhYmxlIG1ldGFkYXRhIGZpZWxkcyB3aXRoaW4gdGV4dCBvcgpiaW5hcnkgZmlsZXMgYXMgbG9uZyBhcyB0aG9zZSBmaWVsZHMgY2FuIGJlIGVhc2lseSB2aWV3ZWQgYnkgdGhlIHVzZXIuCgozKSBObyBNb2RpZmllZCBWZXJzaW9uIG9mIHRoZSBGb250IFNvZnR3YXJlIG1heSB1c2UgdGhlIFJlc2VydmVkIEZvbnQKTmFtZShzKSB1bmxlc3MgZXhwbGljaXQgd3JpdHRlbiBwZXJtaXNzaW9uIGlzIGdyYW50ZWQgYnkgdGhlIGNvcnJlc3BvbmRpbmcKQ29weXJpZ2h0IEhvbGRlci4gVGhpcyByZXN0cmljdGlvbiBvbmx5IGFwcGxpZXMgdG8gdGhlIHByaW1hcnkgZm9udCBuYW1lIGFzCnByZXNlbnRlZCB0byB0aGUgdXNlcnMuCgo0KSBUaGUgbmFtZShzKSBvZiB0aGUgQ29weXJpZ2h0IEhvbGRlcihzKSBvciB0aGUgQXV0aG9yKHMpIG9mIHRoZSBGb250ClNvZnR3YXJlIHNoYWxsIG5vdCBiZSB1c2VkIHRvIHByb21vdGUsIGVuZG9yc2Ugb3IgYWR2ZXJ0aXNlIGFueQpNb2RpZmllZCBWZXJzaW9uLCBleGNlcHQgdG8gYWNrbm93bGVkZ2UgdGhlIGNvbnRyaWJ1dGlvbihzKSBvZiB0aGUKQ29weXJpZ2h0IEhvbGRlcihzKSBhbmQgdGhlIEF1dGhvcihzKSBvciB3aXRoIHRoZWlyIGV4cGxpY2l0IHdyaXR0ZW4KcGVybWlzc2lvbi4KCjUpIFRoZSBGb250IFNvZnR3YXJlLCBtb2RpZmllZCBvciB1bm1vZGlmaWVkLCBpbiBwYXJ0IG9yIGluIHdob2xlLAptdXN0IGJlIGRpc3RyaWJ1dGVkIGVudGlyZWx5IHVuZGVyIHRoaXMgbGljZW5zZSwgYW5kIG11c3Qgbm90IGJlCmRpc3RyaWJ1dGVkIHVuZGVyIGFueSBvdGhlciBsaWNlbnNlLiBUaGUgcmVxdWlyZW1lbnQgZm9yIGZvbnRzIHRvCnJlbWFpbiB1bmRlciB0aGlzIGxpY2Vuc2UgZG9lcyBub3QgYXBwbHkgdG8gYW55IGRvY3VtZW50IGNyZWF0ZWQKdXNpbmcgdGhlIEZvbnQgU29mdHdhcmUuCgpURVJNSU5BVElPTgpUaGlzIGxpY2Vuc2UgYmVjb21lcyBudWxsIGFuZCB2b2lkIGlmIGFueSBvZiB0aGUgYWJvdmUgY29uZGl0aW9ucyBhcmUKbm90IG1ldC4KCkRJU0NMQUlNRVIKVEhFIEZPTlQgU09GVFdBUkUgSVMgUFJPVklERUQgIkFTIElTIiwgV0lUSE9VVCBXQVJSQU5UWSBPRiBBTlkgS0lORCwKRVhQUkVTUyBPUiBJTVBMSUVELCBJTkNMVURJTkcgQlVUIE5PVCBMSU1JVEVEIFRPIEFOWSBXQVJSQU5USUVTIE9GCk1FUkNIQU5UQUJJTElUWSwgRklUTkVTUyBGT1IgQSBQQVJUSUNVTEFSIFBVUlBPU0UgQU5EIE5PTklORlJJTkdFTUVOVApPRiBDT1BZUklHSFQsIFBBVEVOVCwgVFJBREVNQVJLLCBPUiBPVEhFUiBSSUdIVC4gSU4gTk8gRVZFTlQgU0hBTEwgVEhFCkNPUFlSSUdIVCBIT0xERVIgQkUgTElBQkxFIEZPUiBBTlkgQ0xBSU0sIERBTUFHRVMgT1IgT1RIRVIgTElBQklMSVRZLApJTkNMVURJTkcgQU5ZIEdFTkVSQUwsIFNQRUNJQUwsIElORElSRUNULCBJTkNJREVOVEFMLCBPUiBDT05TRVFVRU5USUFMCkRBTUFHRVMsIFdIRVRIRVIgSU4gQU4gQUNUSU9OIE9GIENPTlRSQUNULCBUT1JUIE9SIE9USEVSV0lTRSwgQVJJU0lORwpGUk9NLCBPVVQgT0YgVEhFIFVTRSBPUiBJTkFCSUxJVFkgVE8gVVNFIFRIRSBGT05UIFNPRlRXQVJFIE9SIEZST00KT1RIRVIgREVBTElOR1MgSU4gVEhFIEZPTlQgU09GVFdBUkUuCiAqLwpAZm9udC1mYWNlIHsKICBmb250LWZhbWlseTogJ1JlY3Vyc2l2ZSBWYXJpYWJsZSc7CiAgZm9udC1zdHlsZTogbm9ybWFsOwogIGZvbnQtZGlzcGxheTogc3dhcDsKICBmb250LXdlaWdodDogMzAwIDEwMDA7CiAgc3JjOiB1cmwoImRhdGE6Zm9udC93b2ZmMjtiYXNlNjQsZDA5R01nQUJBQUFBQVBjSUFCVUFBQUFDSlNRQUFQYUtBQUVBQUFBQUFBQUFBQUFBQUFBQUFBQUFBQUFBQUFBQUdvUmRHNEdlR2h5VWFqOUlWa0ZTZ3c0L1RWWkJVb0VRQm1BL1UxUkJWSUZpSnp3QWhUWXZnU2dSQ0FxQ3VWQ0NqVXNMaFI0QU1JU1pXZ0UyQWlRRGlqUUVJQVdOZGdlUFdRd0hXd3NMY2lQVXVGdW5oS2ZiRUFDazJpeHI2cjluRGRzWTZIM3JQRStsSWdiVU5YalRZeW0zWStjcy9HOHMrZi8vVDA0bUkrNjJjbXVycjgvekR3Qm9sQVlxaFY2aUNDOWVhMXRhUmEyTDl6RmFhMjJ0bkxXeW4zdXRFWnd3WVlzVFc2T2J1VEFqaGlCSWRPV0M2Nkt1K3BKQ1ViR0xVUGV1SEtBb2dpZEJyWndKN2h0S0JkT0NhVUZTSTIrcnllSDNhd1RtNm5oa2VhU3NPWTZFcmovWFFYRkRleDJhZ2E3WXNXc0dhZ1FWRjFTSW5yQmxlZWM4cHhYbDgvM3BOeXFOS29tRDBpWGxYMGFlN2NFRm42ZS96RHd1RVRTd0dQYVhKSEhmaDdpQzVhTlBFTXNvY254UnBrL01VQ2FJSW45NEY4V1k4djJMVjRZNGNrUnFuR0EzMVZXU1dzLytOQmlNQzI5bVdFTGFhbkxDVlZwN01yNFFVZDNYUjJSVjkxZ0x2cGt2RUVmZElKMFdOY1RyNXQrOWtRa3hRQWdCR1JFd0FReUliQlVNc21USldDSmltTXVCTEJsYk56aFdkSmNxdXJGSUxTb2pnQ0xZRkFRc1dtWDlmb3NMY1lVUVNkNEF2OXorN1NwMkhlOWQxYnRlWHVRdXRsMnQrcGJGR0NXZ1JBb1dGcEZtTWFLL3duU0lqUjlNYkJDcllQZzYvZjh6UmpLSVhmbUIrdUJtODlOSlVud0lhMkgxekY2NnQyQTQ0UG52eDJqbnZyOXFXUlNZVHZORXRKQlZRbE5Qa2NyR0hUS2hrd2tSM3NBNzFVK083VGkyQmNpV0pka3ljQnh1bTlMR0I0dzZoSS9QK3lLR3ZVRzdka0FsU0JyNC92K1F2RFB6Mzl0RzBvUzJXK3ZZR3ZCNnl2RTlvWUNGSktoL2NLN01NK2tSMFRHbGNHMEtTU2tGSEpDY0h0c0pOeWxldmgxZ2llakhmdmZTTjBrZlRab3NGREdKVkxGTUpSTksxMHhpMklFNjdWL2JMdHN1K01SdnAzN2c4VU0zOFhCSk8wWEtOUEFrbVdDRURKVE1UTVFLQzMvQVAxOW45WVA2aGNnTlpkSk1rMjhXUHUxNTkzWklOUVFQUGZCdDJ2OUR0RTFWMS9TcXkrOHptVzJQbUsxb0dsRkNndWpBS01PSU9PSWhaUDV0YXYvM0RxQmsyWllkV09Ec0krTDJJeFc5TllvREgrajBXR0xKbk0xU3dpWkpGczd3SlpqS1dWVXUwQ0FXa0l2UXJySk1ZcklJTEpOc0xxS3UyTkRTNjBmODNYMFRISDZCdUE5eitwODBHZ0ViNHNSSkh1RUM4L0hhdUw5TkYraTRWMEErQTBIN0FCdXdZMHVuaWxMYnF0cjNnUTB4bkdFaGlNYmE3TDJvSW1hcGthS214cVJPYzFhcFFHQUtFQmJJaWdzQVl4OW8yWCtDdGNBUWtLTy8vdlNkL2s5M3pveDNIVGROQ2lvb2VKSHRFNlN2WjloRXhldFBKMDZmdnhoN2ZId2N4eWRKSEI4ZmYwbWVKRStTeDVOa1BCNnZGU2lLLzBjQUJMaTJpVDRtRm0wNUF5MFJTdUdDWmY3WC9VZW52eVZ0NmxCbTlPbDdxZkdidDRBeFEzUDdMK21WOEg4b0NTclVEZGViK2MwRk9Qbi92ODI4ci9YM29EcENtQlZGSm1zaVNGaWFFRGxiMnFVdXcrL01yMkloS3lTRFI5d0JuVTRKQjRoMmUrNVh1dGYyOW05QUVOQUxTaUZXbHl1NnRPWGRmWHRHcTdVTUxPdUhRRVpLMTZRcXFjcWtxUEkvL3pxdFg0a1dnWnVBd1pRME1DN3ZDV3kvSnlENXZacnE2ZlpXYisrWjJTWTlDZlNrSjJ3aGpDTWtjRUJnaDJaR1NJQ0ZBRU1mUTNCS2RUeXQyVW5tbkpRcFpPclRVL0ZUZ1VnSVhDREpHbkNtZUpJdG50WndxaDF2eWN5V1Z2NWE4V3pOL21YL1puLys5blAydC9UZm56My8rLzIxOFAvUDBtWXorWE8zeis1U3VvcENPSFJlb25EUnF4VFRPUm4rdHU1b3Bha0loOFZZVURteHVLQVVRbkZRZ3YrYldrVlZkdmV1ZTdNMzViN2RqRzRBMnhBQk8zZ0VTcjkrcVZUNktqbTEzYmJWMGVNSjdwN3NTY0VsVDVEVnZTRkZGQ0lLS1FOeUtUMitkNFFjZ0ltd1k4ZmdBWHIydGZsbG9XYURXMzFPY2xucUd3WmF3TDhRZy9EWDlIdEQySkNOODVIK2lYMjlzNW5Yc0tzcjQvRElDSlBDcWo4dit4ekpPcUFvMUxiSWVFVkZLSHFCUlJLb0phRjVIQWhaSHd0Z2s5ME1CNkZwNlF3cGVoUExBaWgva3U1dTh4UlZ5cWNLNGoreHB2L24zSEc2bVRaak5tTU5UUWdTbUNvaUFyS0xCSHgvTlpscWtwREE2WWNyR01zazA2OXQvdi9IMVA5anc0MXA5OXN4TGx5c0lTRFMvNkU4aWYvT3htL2d5cXVLaUlyNjhMaVIvLzJlWlAvdnIrMGxpRWdJUVVSa2tObFN1blg3Sjl2NytEbWVjNUlrU1ZiV0dHc2xwKzU5ODdxdU52TmpqREJPTFZQZWxHdzZaTTRLWHJRdjlyWGQ3RERDMm1Fa2Q2Mld1YXBsV01DZStpOWluRUdVbkFNVjNaWWgrb3JaYzBQekp3UkZFMkFOekFtWEJJRVpkUFVRTmRRL1lCRk1hT1BDZ0F3bVFKZ3p3cFlEVHR4WXJSaXVYTEdPTjN6NUlVZ29Ja1ZEUklSRWFjaTJWWElGSkErUUFrQ0tBQ2wxMmxXcW9kVGFoVDMyeWdHQlV0ZWowaUJkcUVNbU5OVUVTN2JObFV1QmZNMWhwVFhzZGNSS1YwR29HenpscFZ6akxiKzZvNERBeEZRQUlobFNZS0tCUUVJTjFIcFdKaTZZMHNtbkE2U3dHMExUaFFGT0FiRnNhQnd2Z01odWNxU01vd0hIKyttNGUrbi9ic0JNVWRLMHp1UmtyUVJCRkxXcTlsRWJOd1JUa2dtU2hPc0VScDB0cStTOUZyUmUrL1RUVGxMSjVLbVIxRXdyTGNJZGFrTk5Ba2pGcVo3aWgxOXB0c0Q3b1FZT2tFQXhBR3RuNHlTSEo5aEJVcXl1NVFzOFgvbWRQOTNrNFM2Y2I2Rm9HMWw5UDk3RmZWSzNVM2Y3UEpnSkpQdm9qY2ZVY0hrUkRUN1ExUEFMaUJkNURIbUpuVXdXUHh0amh5TmJKRWVKbE1ycW5DRlV4VWdtWkU5ejdaWGp4TDFpTXJtNE9Mb2FBZ0tnQ21RWVFDbDk0L3U0YUlWREQ3SDJYcVlDM081REN3TTM2RUVQQmdaTzJOcGFBYm9mWktncXM3RUdCWWZmQ1FrUVFTUlp0anlsYWgxMDNEbVhOZXJvVDJBQXlOQ2dvd3ByOW5OL2NvbkxYT01XZDJtaGxiWjlFaVFlMDRkMDV6bEVYYlpmMURicWl2Qlo3S1FSKy9aQktxQVFwR3NQdTVsNGlWU0pWRmhaS2JsWkpySlBFeG1VeU0vRmNoc09pRC9GaytKWGNVU0N3MVh4ditpVUtLLzJTUWc4TU1nazRxMlJlT1M5aEM1MTBRNUpicFg0UmladitkSWVWYW50TlZzcnl0SWV4WHJSciszbjRyVTlsSWs3OGFyNHJ1dzdjYXR3UmxvVThnQUE0QTN3TWpoMWw2aW9nczdNTDZ6R0xEZHNBMytWZjNkT2w4Rkg1WCtDNjZIQ3ZNN0FpK1Y2VUs1QTljamw1enZqVmxTOEs2ZnJZNlRZUVUwbCtaOCtvTDQ3VWFHVlh6b0Ntcko3RFdpcjZxMUhac0J6WUU4NW84NUFqL2NOZVVsTkhtUkNQbEQrZnlNTzFqOVFYRmJWSzZxZ0tYamI3OGt2S2xkYURqVFBLTXZVN3pxQi9CVFVDSDJwV0tJNEJBN0FCdjdNcVFiQTdaaUg4WmFLNmh4b09qVFBnYzlId1ExV2xQSU9XKzhxLzF6SEdLWnRDR21DMTZQS0RzbHE3YXBxV2N3SmVsNjllYzFJOVI0WFFNd00wR3dCeUNyN0hzOEhyanJsZWdRc3FRRnc0dzYyYmEwZmxDV0RKYWpKTmpQYjllbkxDcFI3ekRKNVJmVW5rd2hhN1hoeTFXandNSERiNWlGLy9Wc21oRVRIdEM4dzJaRVVHYTZlN0tzZ3pxMEpQbE8zYWNRTEN2K1J4SjJNZ0NLbU5iZDc1MWx2OG9iVVk5UzFGZXE1YjJQVVBWZnM1ZHVyUGlONWp4RHp5ZEdobGIvdEhJV3VMYTBuZ3JXckNJaVhzcU1zOURyME1VejV1aFcxVXkzR1dIVm5LSE9PR2JYaXU4TnA5OXQwdDlVWGNmZlY2OTNBdk1aOXN4UmFjQnRxeTNPZWx2UmQzYVpIYWRJODV0UnZtZzNQRlZaT0Rua1pPQmtMK3BsWkVid3BXbVcxdUJMekhLZDlNUWJleDQ5R1JJNk1hTlRMMVV1eUY5dHV5WW9MNmRDdVU2L2srVVFmV1Evdmd2d2Y5c05hRWpuZnpsQWVURUp2MndpSVlLWHhJekNCNXB5SVh6SFh4OHdsYWxnUno3aGJTcFYzS2U0K296QlFTbHlsaTJQK3ZUeWdoaG85U1BCZ25QTXpoaXp1OGs3UjE0WS9jd3NKdjBrYS92SU1zaGVOWVF5RE9aZHIveG9kZnZibjhDMzA5TmZ2TUxZT1lqcGN0N1BzMlc5Qk03Y0h2d2NlcjRmczVzQnl1MndjNG8rVTVOWFFVZUREL1huY3BOY1Z0U0lxcFJ6WDhhdHJDMFRzS0dtdDB4cXE3UE5nZCt5Z21kdDgzaE51LzV1cGZ2RXpjRjJMdlZlSENBdXFGdTdKN1hpNU5Mdm5CTW95cm1uTXlxdjVkbXNhbjlXbEVlMTRFc1RDdnFJV3g2U09XS1cyMWEydXhrRHdFaDdROTBOUkdBaXVDV010bGxVKzRyZmdtVDM3emY0a3oycjhrb2MwdXVZYld6QXJQdG5iL0JHaE9mOXBYZU1vNWlwSFFoMWZOUXYxanNGY1g0UUpRWXZkODNHSE0wWXNkd1QzUzZEMk5KdmNYSm9aRm92Nk5VdzlIWHJKMndVamZUTXZPQ3NveDJmYk5xS0J0b3Izby9lK04vRmdQV1BFSnZCL24yamIyTFRlQWRJWU4xUy9oZ2tsdmdGcUJxSThxZnM0bmMrd1NibW5QRVR2WTZGakdjM0RzbE41Y0VWU1g0M3c2cXB4V01vZlVjMWxrd1Z0NTFjZ0lyNXJkQmJ4Y2s1N1hHTUYvSklNM3BoMDFLbXd6VWw3dFhuVHVhTm5YQk55aW8xMUN1Tzl2WXU0SXM4anlieUw4SWJLNkdFZjk3TzIyRmVxRlZhVURDZXJjQVFNQWJKdU5vNytuNFF3eTlJaU1RVnBsVjRKeWNhbHA3ajZHbEROcDRCTGlVODU0THU2dnZvd2ZiYTNqMTNZRGRlK0I1QzdEQ3RJSnhvenhDcXpqOXJuZnV2V216Q2VpaStLQTE1NXVTMjJHMVI1cjMzSGJzVWN4WWllbzFWQzhlTW9qMnd6MVNFRExuSmdhKzJ5Qjk2NFh6d25iRCsyQndBSVRwUVVXK01tYjBpTjErMCtlOWdlczZmdHI3M2lLdFZCRXNvTUhDWnVEWVVESmFVeFJKYmdGTExVbGcwYTBQaDF5RDA2ZmZ2OUJ1aU50MjJwUFdwUDJSOXRHUitvNXZqOWp1eTRRQUYwWFBrUlNiTlZVYmlhdTBvM2VVRUJqT1BSellWdkhQZ213RCtCTzV2OFNZN3RKTTdJV2FzQ1ZKR3FlRldtS2s5Vjd1eDFqdDZidnV1Y2N4cWR1ODdEcEJpbzdIL2kvQXRBOUtCUlE3M2RCczNDeHNIRmkwbEl5WURCYStrOER2VXh4QmhyYkxISEVWZUUwOS81bldOTHVldmtndWlYZEtieXU3aHM0bTY0VFhmUnBaUEMveFIyNnpWLzN4Qmc5Rk50dVZNY3cvU2p2aFU1S2pXMlpHci93K1JsOERiZGp3UzEwWVZrS2w0Vy9ldjAzTy94b0NlOTVJMG5pVmUwMkdGZmxFZ3g5cUQ0YXVUZlVYdmRMcDFuZWpGZ25IbXQ5YzZETWF0aW1OZjJCdDZmemRnTGZkSHJlNHY1OXZqZUwyeWlwVzRiNnFsTVVsWVdyM2IxUlYzeEduWnI5NThxbiszRkp0cHJ2dnZzL2hTLzc0dW1BQVZZOGpRbkVSTjhrR0Fob215aUUwbVVKRm1LVkNTazVOaGk2OGp6RkNoU0dxNTh6VFRYeXVYYTY2QmpNNUZrVnJwcXJkeWd2SmI5V3lXOE1xRWlrZHZHbkw1Ri9ZRWxtRXp2aVphN2RoM1hkOE0zZHRQMzlSWWV5ZXBhdkdWYXNUVXdmKzZsUDdmbi95SmViRkxrVmdlMzlPMXV4NWZidmc1M3JOUDkyZ1V2UzNLN0hxQWVkazAzdHI5WnFVN3VTbjhqdW1xbmpxU3NqRFhkM0tKdXFiczk3Sm1ueWp1MjJwMGIwMTQ3Nm50VC82aHNBSWozSnAyOGl6S0hHUlRuWDV0Y1YrbTh2bXBuK0xHY1p5QnRONk5ONlM1NlczQmFQcWtRQkhFYXhUaW9sOFdOdUUzN2hRcXlacWNVZThaVXRrZ2tCNGsxdmxjVGo0WkZOUXlIZXJXWHZVRHhzWFVDU3V2ZXFTSkJWbVNlbW5ZV1V4T2JJclZqVm5nVGxKZ25MY0ZlWUNHcyt1NFgyOVBWNEx1VkdMNXprditGYm9rOTdDemdjNDNORWRtdC9vMWJ1YlZwYmRJRnlMNVEwWWFjdllCYXhGUmJGVU80RnJJenhRRzlFc0tPWDJHbHE3K1FDRFJZRnNXYWtFUnlDaElDNmlUczFNVTJ6Q0pEa2ZHSFkwMEhpeDBWbUtzTXlocVhqOVo3N0lWZHNrRk9JbzE3K3I3d0NBUm1lYURNUVVLdnhad3dpdGxMOHArQVdpcUQwOGV1R3JHaWx6R29zK2RtS0tpRy9OQ1dDSHVIdXBROGlPY3FHNVV3bWtmSnFiQ3BzR296SU5rRXd4SmtHQ2p2QVd4cGUwZXFkRUJYYTYvRVFEREViRVN6QUdXbVdmUFZHTjdZQllPQVVWTy9ySWFlWGdQcFBkVFUxVjBqVFN6VXBWdWZmbEpEUnBEOWloNWI2N2JnZ2lNVGV4ZGhFUnlCQnhWS2xSd3NxOUxLanNvejVQaGFCUU9UUUJEcStlcDBoWlZYelltWEZDcTBJREhMdGNJeVFFby9qekZOTU0rY25zWDBHY3dTNW9BY2I4RjZIdDVWeGI3N29uajdEK2Z3RWI1RVlzU0tFeTlCa253RlI4bmpLSklyYjJza3dvWWJQdkJkTUNZcWkwR3NPUEVTSkMxRnlxY0NqcEpQNHhZbjNyUjM0SkYrTDJNbExyWFhnVTZTRFVMRE5JWnhFeWJKekpHYnA2QTZpTUd3anpaaUJCYWxCTUNpb01TckR0Rkpjc29sNnBUR3hMZ0prMlRteU0xVFVCM0VNL2tzQ2s0aVAybXY4SUh2L0ppLzlRSUVKdklWZzFoeDRpVklrcS9nS1BrMDdqem1DNFJIOUIxNjhlK2xlYS9tcWprQVIyVlZPS3BrWXE0ZEhYVkMwbE5mZ3pTTU1lTW1tb1RNSExsNUNpcEUySkJuUkV0UGhBMWdtQlFkeUVEQUtvb25wcExMMjEwWDdpRGUrRHhON3NuM2UzU3hQOXlWZUtSYnFjZWVxU1VkZ1Iwd2FNUkJvMTQ2NHJWSngvdzNvay83NXVhTUh4VE9VaUhBWGZuUmdGK2pveEVId3NjTHo4UmNKNTZOVUM4NjNrNWIxOHRnbStwTW93SDBkU2J3Q21uYUk5Wld1Nk1PZEpMVTVhNGJmZnBKRzR3M1ZEWk1JeGhyM0pnd1NXYU8zRHdGRmVKbU9QTEhTdFFibzZuV2FvL1FwbDJIVHBLNkluV2pUei9wQnJFaGJWaU1ORlkyTGsxZ2tzd2N1WGtLS3NTendUK1dHOTR3YU5LNlI2enR5aFVkT2tucWN0ZU5QdjJrRGNZYktodW1FWXcxYmt5WUpETkhicDZDQ3ZGZjNDeEhhWVk2R0pyV3d1N1g2dGdqcW8zYXEzV2drNlN1ZU4zbzAwL2FZR0pEWmNQYUNNWWFWeE1tazJHTzNEd0ZGZUw1Rk1iZzhrYWttbE11Sjh3VGdNdWJjQUlBekZNcEp2M05vS21XYXZkWksxenRpcmJhVzNXZ2s2U3VlTjNvMDAvYUlBMlZEZE1JeGhvM0preVNtU00zVDBHRmVGSVFNZ3VOTUxDWk1MVVVENThaQzZzSmxhM09ROU5hY1k5RVcrMmlReWRKWFpHNjBWZS9rbTZRR2lvYmxrYllxRzZzMnJneFlaTE1ITGw1Q3FxRCtESjhqN2R0Z3hiK0hDU1FVVkRSME1kQnV2UXNwczhnZ1h1V2tHMDVKN2F5c2xZVjFTcFpuVmROcGhaSDk3TnFsZHFwQTUwa2RVWHFwcWVxVDM5U0d0U0dTc05HakRVdUpreVNtU00zVDBHRmVMSW9PSEhwa0pCUlVOSFFwODRZMkhHRUxqMkw2V2ZBdUpJSm1XSXBIajR6RmdtQ1daSnRQUHN5QitHWWs3UlNyRTdJWExHMXlvMDdENTY4OG83a0E5LzgrdVdQOVFJRUZneVJtR0lSSjE2Q3BGSWl0cFRYVmI0Q0paWDVxa0RsNnR4ck10MlZma056TFZudXJ4VnFUNm1ET3BXa0xuVHI4YVNubmZUcFR5b05wamRVTnB4aXBKZjBHbThhcXpadVRKanNtNFBNSExuNUZGQWR4T05VY0ZJNUZkT2dNNWdzZG01d251UWpFSXFLYzF1TzlKZjl3WkVXRWpJS0tocjYxRUtiT21PMHFCb1RHalJwWWRHT0hSbFhNaWt6RlV2eDhKbGxIbVRSTWtrUXoxTFpzdWZBc1pXaldtVTFZYTZ0MWdvMzdqeDQ4cG8zOGVITGo3LzFBZ1FLYnRNQVJXTnpJaTBHc2VMRVN5alJMYW5rVW9xMDBrV0dURm5salNwZmdaTEtXbFhNWEtXdXp0TFVYZTAzTk5maTYzNXVyV1h0S1hVWW5TUjFVVGYxNEltbjliWHFGMUpERFVzajBtaWsxK3BOWTQ3R01XR3liNUNaSXplZkFxcURlSndLU2kzVG9ET1lMSFp1SkErK1FDZ1NyeThLQXlOakU5Tmo5ZzR1UnMwUWJxamZ3N0FJa3daTldsaTBzYWZET0hUcFdVeWZBVU5HdUpZd3ppUXhVeXpGdzJmR25JVmxFOEFzUGJKU3kxbGJ3V2EyMXV4VTlsM240SldqeklsYWhkVTUrM0toTlNWaHJtSnRibkRud1pOWDYzTG5yZk14ZlBNYk8zK3NGeUJ3UVZoSXZOQ0JDeFBoSW13UTJVWjNVVjNiRkM5YWJVNGt4U0JXbkhnSkpWSlNLYmtVS1hWcHBhV1hMakpreWlyYlY4NHd0clMxMmphMXZkeFdPeWd2V0g2L0NxUkNxU2lsblZLeFQ4bXR0UHBqR2xDMnhzQll3c1ZMWW11UzkwMU8rU1RLbDFITE5FTm5NRm5zbk1UY1lCNzVLaENLNnJoTGV0Y1ZxVXhlejFkLzdBb3hlTFpuOGlnbnBtYWJXeTFTTEZ0VjJ4YnJkbHJ0K283OWQzQXBPQ1BmREVtUVVWRFIwS2RPR05oeG9FdXZ4ZEJuTUs1a0Vza1VTL0h3bWJHWUFIT0k1d2duSzFzTllhN3UxZ28zN2p4NDhzbzdrZzk4K2ZHM1hvREFCWnRDaHk4TTRTSnNFR21UYUpzVHBSU0RXSEhpSlpSSVNhWGtVa1l0ZGM3U3FxVWJHVEpsbGUyVDA1YVV0bXJiMVBieUVzdDNWQ0FWaVoyVlZKVldwaXBVcnM1WmszYVhma056cmI3YXl6cEVKMGxkd2JxcGh6MVdQU25yamZkVTYvUFZEMm1Ed3pkVU5rd2o5TExWNjJwdmFFeU5tekRwRzVrNWN2TVVWQWZ4aVpYekNlb0RKMWZvRENhTC9XeFRUN21LTHhDS0Zwc2xVdGRJWlhKOWhZR1JzWW1wMmViY2dwYWRXbFhiVnV2YnJyeDRCZWdsU1ozMS93YXBVV25CUURiRjlFcDFwbC96S2tXL0dyUkNVYVJNK2FYaTdjZjI2TlZ2THp0b3FEb2NkdElwWXJjbmxDNzlTNGU5TWRLSmZWbWxGMjJ2K2x6dWo5K3VlZFBsM2pnNGROU3cyY2d3MEVHeHlUQXhrV0ZEaG1QajRCQ2lZQUF1TVhnazRKTzJjakkvaWNPRUdoWUxnR1VaUUhwQURMYUNFUXlISFpUc05vK0RrNEFMS202YnpDckZzTGlBcXd4ODVUWVpWMTRZckxOSmVQUEJWR0ZUOEJNSUl3aGFxc0dTVXRxYmdBVnhKMmlvM3d2WlpEUGFtNE9KNUlDMmJoanFzUVY2WlVISUJwMGNHQm14Tll6YWprNHV1Q2JCTnZVM2pIeUZTQlRaQ2FGNEFGSUNqTks5Q0JVcWFSNHRVUjAybGJ1YTRkelRaY2ZNNW1UMmZSc0RwM1dqSGpiaFRzQjVhbXM2cng4VkthZ011MkMvOWdiT2hNbHcvSXdyZnVTTWsxQ010TWFWQi9LVjN6MUdNODN5ZG5NdFFXbTFjNWhaL2hNSVdtdEhnZlpqQjdRNDZGUnVYK1Vha0FySkllcWFZNVMxdnRHNnlVT1ZwMzZBRzYrUGRETGNKcko0TllWSmhIZmFNSHZFYUJLUktMdzVuN2lvdTBPTWVrZGp2b2ZCWW1pV0RZTmdFb2FrRzRTZVRMREpMNlFIRGNQcW9YR09LcWpRc0F2dFFkQ255VTlyZzJnMEx1by9KMEJKNUs1T2t0M1FQZnFVT2c0ZUNnWTlpekhvZjBqN3VRQktJZEcyQ2FRQnZVUEtHRUo1L00zQ1FrZS9VMmxoUzcwNlU0Y3o0ZDg2anBOQTl1dE9wMGVqOGlRcVdPaDNPa09NenZBUVJxTHYycWlNaFd6WlE1Nk00bndFSTZKK1pKdTA5dTd6dk9pckR3L3FhUUxzRjdNUWtPRVUwck1Zb3dLb3owUURMV2VuOUk3cXpBSVI4L1dqSFowRlVJamF0VVV4RG5XeUFOUUxBNlNKZDl1NE50YXYzNXc2RWtadk0wZ01uRWJSMTJZMWhnYnhUaW5xSlBLKzZqdTZabmttSjdaK3pkVDZUK005c2pZMEIybVBldDU2a3JwMjlUWjd3ZWJWMXBwcDR2WnFia2JxeDNXdGFha2Z0V1pOS2hxb2pqdVN5clpxZjRWWnF1OWZGaGNIbFQzTnFSRVNaZTN6M0Y1akF2NzhzVWJOcTVTeFgvVDFxOWF2Z21iVXNnemc2MGI4L0ZDM3lqbkoxeG1HMjhTNlk2Yk14Ri9kV0JrT3NURlNzYXFQWEtmaDB5M0F2Nk5zRjk0MUFhZ3NTQnNZd2FVS1M4ZW9jVXFxTGFaVlcrdGtwQzJJZlpmdmtJVTJRdnhCUTh5ZHlRdUhjM3Zzcm9DMTkwYnB1TVhUOTBjdW9FcmZ1NEFLQUl6cmhRbExNNjJ5QVJLWWtGNWJ5ZzRBMWNIRFZYZzFVZ0ZHYXk0dmpFVER5Y1lqci9ZY25BaEZsQmtCMytWc1BNOWtNWWFqcGI2QndmVFdpQmJTYTNIaTU0YWZWaHl4ZkdLWkNJVG1OQnUzK1Fwd0c1QnVmL3dHa1A4aGIrNFRxeHJmcGJMczZ5ZkRJd1VTbUNaZU9EejhuTFN1U1JNMWx5QW9lbUx2TEw0dU95ZG5rQkJhakhpQ293RGF3U2VwWGxtSUtGVzBQZTZOQVJyTFp5K3hGR2VTMjhncHBwajM2Q3dlRGhQZkdxL2RiUVNwVzZWUlU4NURkSnk0ZklEMUs1T1dWTTZ0c2swd3NPNmhYOVlKM2N6Slo4UTJaYXg4ZUozZWV1VVJ4SzRHQ1NzMUI1TTBmNGU0L29rOC82anpBOTNFenJFektLMTluMWxFNndsYmh2OStTZTNMVkthOTcwTS9PMkhxOGh3NXJHS2RNREJNOTE3MUlxaEs3L0xBMHUvcHpaZm9LVTdxSHBveHI5R1J4MklJSkc0VjI2UnQ2Y0loYS9YbGRYYlZxNXlDNnFvS2I2VlBsalU2RXJLYk5WM0ZMajBaRllNNkU5Q2hVWDJPT3dxQWRMM3doZDJPTUZxRnFhbmVlN3M0cVR5MTB6OThsVXFGN1Z3S2tLNU5QV1dka3FiRGNoVkdqV1BsUUU1YXZhNk4zaVkwM3M5Nnd1TVJtN2l5cGhqcHU5cFJER0tEbFVxYVJDamtKbGlRbThacU1keDJlODVibWJKYjZveG9KYVlRSDFZY0MxMUdDNGJpRk9iUkRxNUY5QlEyYzBITUZ6UUJTTXZSN0IrMm9jbjZPUUNPUDlVZll5N1pJeXJ4NUhjWUwyS0dLSE9qaUY4SUVudngyMnFRK1poNnRPT1ovY0pKVXM5b0FyQ2FUL0VCaHVPOGoyZXdrRC9zZFMrMGo4Vm04SUc5Q3U0Z0p1bFVoakkwc0g0aWFNUEdqQmpYcXdXZmhoOUt0VUdsUm1HMVF5aW1KOERrSkthVWxGQ0RUb1d0aWtROUd5c09Bb3NVSkFjWkhLMXliZ3BtRkJXSUJyU1M4dWdXd29JWGxaSEcwd2FVVjBjT0l5ZExwMHRRVEJHREJyWHNHa1ZBdUZ6VW1nV1FHUFZwUWpXa1VpY2ZydzRtWVdRbGVqQVdyK0NUMmIyK21rdzkwUExWSjhqVGVPRGYza0RiNjA3VndML1hzNGtLbW4rOUpRUEF6UDAwQVlMVys4K3NBanJFSGovMjdPRU8xUURQSC8vMUFhTlA4d3dNeGxoNnk0dS94MmU4TlpNMlpMdWZLamhrUUxhRzhqd29LMCtGSEdnTmVWRUFSWkNJa2lsN1o1Nk9xMVMxeU1IMGYrZDBXYmZVb2t5QSs0T3V0Vm5aRG9zUE1yZTN3OE1YT3g2ZWFlakV6Q3hrZ1VxZEdqN3pCUCtmdHJzUk1FZ0E1K0JPbU9pWTJMajRoTVF2ckZhUTU2b2VCMXIzcnZsSC9GYkxaL0VJOW5tQUxaaGlCZTZHSzd4ZUxuU0g4aWowc0NDQ1M5eG53TjRuUFZLT0lRUERjMUhZbUZjeVE0VjVPR3JTNGxNTlhnMXI1ZjJwQkduNkZQMzBnZ3ZOOWE5amY3WEhJVjJCMFFGaXhrUXhieW5mVGVyR1pDMnNrVW1zTzl0RUMwamM4bDFGM2FEdkJLKzhzdFY0QWJWbHlhNFhKYWhaVEpDZkJFaXZiN2pGMDc2Vm83V1J1UGE5SmVCNnkwZSs4dGQ2VUtBaUdOOUhhZ0FxVjhEVWMxSDFGWFg1bU9sd0I1czVpaVNBWGhpMFhZSGNQNjVCL2lDUFNhYWFlWDV0b0lJc2Y2Vjc2b3EyY00wd3NYYzR2RW1FV1QrTXd5dzQ5NFIzcFM5b2RPK0tGdnhCWDJNSG40RUVNeUwrSEdyYUlMaWdRcXdWUGRlaGdZMkNBdkNvcEtMV1ptTUk0dUdyRWRUUlR4eDExWE94K2hwb3FGR1BOY09RSWtBcnFnMWFJOS9CKzlDNVFPeTBNeTY2NUJjTmZuVTUvbmQyNW90YzBlaXFhNjY3NGFaYmJydXpadHpxMjVOVjNPSDI2VEhIRStPaCtGcUlKWHF5NTBuY29QcFFLbnkvR3A0S1U2V0tKV0FkWDIwNlJMRFFodXNTalRYUjFLWHkzbkYvVXd1WEtkRHlIZmczWGFHTnR0cTlJejg1L2JYbGFwMTFjYzI3OUVmdThuaTNmdHlpTVJpTFZuQWZNd1Iya0tBaG1KVG1Jc05kSjZOWElBWG9qamlkcHJjamEvREtnbHFzdytZZGpaejhEcUlxOEplT2s5TWdQMDM3SUtUdVl2VXV1SkxmT2FBT3NzOWY3eFNvTC9qZUlkakJEWXV3QzJZN0N5QWxTZjVRSmRyN0lWaURwQ3BEZU1oSldaVGdDL2lFcEZ3eXBEcnYvQlYzZ0JmKzZ6VFg3d3IwUmw3c1RQTjJsMTk4dEZXQ3BpeldEVG5yUEtTZGhmLzRnK2dNWHZMd1RHaElxNGU5MTVjc2NxNGR3dGVhWWVxVXZ2cTZoblZMclJLcndjaUhERVVJNkIvMHdVQStFR1YwQXdZYm1mYm9abXhkM2JwNjVkTDcrTDhObnEwN3o3Y3JiK2Jna3VhV1FIZ05Ua2RaVXg1bEZQSldXa3NCS0VHUjF5ZURBQThaYldhaHJaYU55cmV5c3h5WlI2RnZWNjFVZFRDQVltQlBDaDJpMEFLc1NITm5wZ0d6UzBKcXVwRUc3cm9MQkpWZ2FobTR4U0dobDZYWEVXQXBnRkNlNEwxVldyaWlXR3VqbHloazNHSU9BVk10ZGF3UWxJbUI0VXRBWnRnQnV6YldZWUFCSHd3RnZFV29oVE9RL2tOb2tnaGtRbWcyb0VJQlFvc0pnVHFJMEdwRW9BbUVOaXRzcnFBR29NdUFuMFQyeWdBV0I3QitzK3dwVFRSYnUxKzVaWmVXdCtLRU9pTWsxNzI4Nk5KczFoeGNhcWtGTUR6MWRmcGYyYVVzUjRLWHpuRUNPdFh2dFZWdHdjNzNRN0poTmlVNXF6aWxrMno3emtsL3pFOEIycFdoQlJ6YXZYb01pdUtuQWJSOWxJQ2I4TDdTWWc2QUZDQU5ESncrNzU4eURwZzRBMUR2QWRYRzZwQkhvaDZnWFd4NmpwUjdycXNERjJ2Y01pL1JLUVBLeHkzYnhqQThkb1EvbkFiTzdadE5YYkRRS1ZkZDVLWTFoN2YwaWNiODdGVi9YNytRUG9Fa1VadWNCTlNIZ0lyTGtJeXRGM2FiTlhBS0J5Qm16Rk9PMnRNbHc0ZGY4R2lEQUVBd3M1V08rZVJxU29DMStmaG53VHBRYWplTG4vaUk1QWRWNzl2Sm1USng1U1c0dGhkZ3NWMkM1azV4b1NNQmJHU2YybDJ4akQ2MzN1bXcvYW9INGJPdmNhMVVCeDNVWnd4VVd5WUpnUHljRnNVQ3IyTE1SaWZ5RUpvMldJUkE2UjcxSTU2Rzh5TTJPY3psUjlSL3kydGRMR2RHR0FBZTl5UmFJNHNBY3RRN3RrYVlJTmM2S2RkR05FREJwdVhnRTBBa1haNUtCNGxoSUNDZTNWVEt3ekh6ZUNXVURBNWZ6WkQ4TlJKUWloNTFYUFV3b0doUFg2ZnZlc0wxamt6ZTREdmh4bkJQdUNuVng5eWNhV2pvY2VHQStqb2RYcVZsZGplREg3QzZoR3g3UStpd3Bodjl0dDNkLzZjNFVSdGg4aW5xaG9WT1BaTGc1endxTHFsMWp4Q3VvYW5KdStkeWJzc1FjSVdoZnVqSGZ1WFhnU2lHVWxHVFpENnR3VzNodG5IN1ZWNlZWVjIxMVV3ZHFXdHBydlNHWnF6OXBIWkUxOVNwc3hUb2dNdXN5SzZzTU1RUG92cmlBRTBvSmJWUFpWWHgwMHZWb2ZMZjdUK1htK0lEbUhkc3Z0dmx1b3VkcWp6ZGRlZHI4enBmVG1XcFVPVVBFWUN2ZnA3V25qYWVKcDZtbmJwTzdJd0w4aCtQLzlFWUtsRUpDR0J0a3pQTjgrNXVHUm92cnEvdUdiK3lMMzlwODhCSEQ3MzB5RDB0bnByUTc2NCtRNTc1MDF2Lzk1OUJveExNL2Ywcmh0MzNWWk1mZjF1ZHpqKzgwT29iaEFHZnpQaHMxdDllbWJlZ3doUFRnVUJKamdEZnlQdEczM01iLytCYitrbXNVcSt6empuditmYnRYd29hZEZZcVJBTWRBeE1QbjRCUUVUbUlncEtLMnBkV016R3pnRG1WbUxTV0czY2VQSG5KNDhQZmVnRUNoUWtYWVlOOG04V0lGU2RlZ3Y4cGtDNURwaXpiRk5wT2FLbDJIYnAwa3VnMk9kM2l4RUdQZzlHSGRRS0FkMm12MEdGWFA2YkFROTVEaTNvTThVZllKOEt0RkpWN3VVMzBUb29QLzQrL2w5TG54UGJSQjJsYitNdjhvMVEwSjAyTFBrbVY0V2RIbjZXOTRUOHBMeG9OeWtxaEM2aE5PeHpuWnA2M0lKYi9CSURWL3pXcXRnZWtpOGNTL2h1T24zdE1sa2VGaUdaS1VGcytsaVRSR3ltcThINUdISjM4a1VVQzhlTmYzRUdZU3lPbWIyZEFWdU45aVpRSEdONjk2Q3hMQzRxeE5kWkpoT09mMVpGVkVRRmtTOUFnZ2U4QnRMbFF1ZTMvekZJZWc5UTNIZjRTYVlJc3dsMXljUmJhR3duUlFkejY0YVZNa01DZVBRYU5XMlFHeHcxdzE0OGZPQjI3RGxzOVYzMGtibDd6K0dKM0EycHhaQkgzYU9VT2dQeWZ6dGNqYURLSmJFdUMrUTdhbGxpc2hRUTVTQ1FKZktZSnJFcDkyVVdjWVNJQlo0U0F1WVN3aXBsOWhrSlJSREFpWmFIZExBd09jSWFQMkJHcVVydk5pVzk2cWFmUDBIaVNTclpFODJQWFZpeUpwQ1ZYY1RsMUcrL1lZbkJGUWxGSHlEN3ZlN25IQVVtclhrQVFjWGpNakcwYnB5blNzVEVjUlRzb1NlSStUckJVWVY2NDBqV1V4WTZRWHRyQk96dDdza3lIZUVlV2ZYMEtjSjNkd3ltNitDbG5TNlozc0VJeEZOVjF5M3JoQlpwbEdJeklkVVhCa1djWTFubVJVNTM0V1RoTEZqazg1TkRzVDUxbFpaa25rUmZNRlUrcyt5N0w0d3pITVNqS0lpaUM0NnlFb3I0dkdKRVJMU1VsNXpuOENzV1FERTYyVzdSeGlxSkJTdU4wbjJJcGo0WHA1M0U4RGxFMHd2VVlqUWlkWVh3VHViY082ZE8wU2Zna05iL2dDenVlcy9LaWxSZkxxWFNnV0ttVXVaRVZMSXV3RUFUVHN5V3luL3M1d2E1d0NtaVVDZ2RyNE50cUVHY3FldGNzc2NwWFk4V3JlYkhwSGFLdFk4Rmg2SU5jeFB3dTFnOStzelFsOXJLeTdyTXVjWUtYRWR0R241UjIzK2t2MFJ2U1JzcVM3dEZnWGhHK1FBV05DM1BJUzIvd3VvVENja0ZFS0dFRVFoa2tESFY2TFpOWGpWSUFJek9rVWdCNi9ObXFnVjgzQzdQaVBBYjlGUXAxWjl0cmQweW1BbFBXYTBRQ3ArRlJkczdWSHhtRlY0QXdnam5mQ3gzdUpVQkVtQUtBbVRTbWlwTXN2NzdBVUVhQmw2NHd5MTV2a1pGTlR3VmJ4cDRFZlFFcVNPcmhZYlNwd0lDMGNHQjZIUGlhQUZTRmNkd21PQjRZb2dsR293ZjgwbFZUbUZnUlVmQXgzRGgwK1NYOGVFZ1BNT25PRkpJeHFKNmpaWkI0dUVqZStVTzB3SnY3aEFBWGtMMlljZUQ1aWxId09NNlpSWFdZL1RBSURkeERvZGtsaVY2UXdrSHdlMk92VkhOWm9UVDhMcmJhanZOWXpzUmwxY3lPR016dzhSb3BxeU80SVlwY0NibGlSZDE0QXoxakxaQ3JxeEk4aFdPT01Sd0cranJUaG1Bc0xuTEZjS05LRStFQ0ZZalErRFo2cjJTbWV0Q3pzWXA0NnkrRktZZWlZZmd0c0ZUOWhEd3ltS1J5T05UeFBJZU9jN1ZPN0d4ZU1mRlBEU1pLc0wzbU5DNTlpYVZmR3g5N05hTVZBWmk1UUlwZWRmV1NFTUFGRUorVWpjNUd6K05LZFhSZXgzTVN0anhRQzBUVXJUbFMrOGY0akJYeDJmdHBMRGVGOHVPcHhWNE1WZXB6VUxaM3lHcEZYVHBreEFaWFFDK1VXNGJKUkd6VlZwNVJNSVBWa2VjMEcrc0ZheXZSZk9rOCtGUm14YTZ2SnZPTHFLVElDdzFwakUwQlpESWpKODFkM0lMZTNZRXA1dXV0UHJFeUxKRUJCclFkUDJ2d2RGWm5yWFNVM3NrM2hJRlN2cDViZ3Y1WSs2V1ZjWkRWYUxWSXJsS21aa0lyWjlHV0l1QWN3a08rdUhXQjJFcGZnZGliS0tVYXd5ckkxczlFNVZhcnd6NG5YVGhBeEJONktMK2ZlV2xWNnp4OEFySU5WaFhXN0ZVN2V0blJGb0ZvTXdEVTFkUEhXNjV6SlEwLzA1NzVySkdTM0pucTRpUlFxZ2pVTHZIQi9CSHlXeWlPRWE4MC9VcWNoZG1peld4MUhxK0l1V0hzY2lmTnZpRWdYQWxmMkJtZ293OFFHM212QXE4dnJzQXEyUEF6WFU0UmpZWFhFWXZ4ZW5Hby9CSnkzZ0RHb294VGZmMFVZV0dZaTVOK3gwSGd5WFVNWmpJZEgxMzVIcER0RkZqT3VFTDJ6MzZtejNuNjBIU2pDcldGcGhxcWF5LzRPd0s2enI4TlNLLzJONGpLTExoUkYvZXQ0MHhCWmlqZHM4eHh4T3ZGaENLM25lUnA2eVMzZzllMU9WdjEySVVpSDdoV1hEYllOMlFnTE01dGd1QU1za3lJNjhVRXZQQXpyWlFvbHhWZWh3VkVKcUtZRGVxQ2w0a2VQTlduQ2pEcVdxL3c1NXVGcFBTUVJxTFJsK2pteGhZWmZSekdtM2hvRWZNS2hQYm11TmRPa2g3eU5vYUQyNzNUSmExNHZoazlVNDhFQ1MvS3M3V1RrNXM2M0pxem1wUE96SjF1akF1dEFPYThnSTFtZW5iVlZvYm00TnFEQ0ttclZFcmVnRjZhQkJ0MU1iekFTaG1oRGEvalBmR0dINEZpS2dTei9UT1VjRnlpZUJwVmJ5d1hTTGxPNHNZS2thUU43WHlmSlhGRVhqYkhoeEoyMTF1VXJ3eWhTSURZRExES0prMXFOMDhQZlpFMTNwZ2FJYW5meXNYYkxDTmprNk9KRDVodlJMWU1rMGZiUEwyVkk1NjU2eGQ0aWZoa0RQbk41NERLcHh5c2FTa0tJL1hXK0JtSSsvS3JlOFA3TEl2MGJ3QUlUeExLK0RJRm5lNmZCdXpmd0k1YTJtRnVKMUE5bnBiRGF1djQxZUZuWWhmOEJDekpoRURtQWtIRlNTQ2FPV0FSTnpGSWRuSlpiU1g2RWNuNmZWTjFDSzFReGFVTHovSUxSTFY3WHZRU2VUVzc3OG1vL09Bb20rR2pWcXdkVWVvNE0xTkxZbTlzeEdaL3hIa3pRV3BTM1VPbDZMOERpVU1xN2tVMEFBbFE5WVRUd3NkYlFkZ3hBbUlSNHoya3lIS2dBaUd0dW0rRjd3WG42MEtWdGVDR2dCZXAwYVBoWlNLQ0ZqRHpBaWJKOVNSYkdvdjFaMDhZVXZvRVZtTkNxdTVxcjJzb2FVT3lNVGxPWG5WRjA3R3lPOEd5RVJ2TEZGWnhZRzZhZUw5WkRmdnNSS0NGb1QxWnRlK2Z6dDRJQmNZYVpycWV5MGR2UE1CWHMwNmk3Tjd1aEdkeXRsQllZZGJ5ZEpkV3JMeXNUOFkzc3lBOGUrSll1M21sTE5ubXlFcnJpVWdHUUN5bG4yczNoN3NrWjV1dUZnaklLYWx6VFFTYS9ZOHpyUzRwM1FPa1NuTDBzRGtOT0E0MHVRbE9EWkdJV241bzRlQkpyUy8yTG9XaUE1WW9WNVArVmkwQ2kxdXEzdVM2V0lIcjhEVlE5RHBRRTFkUFZaTi9lUktrTCtSR1lvU1ZLU3I0VkViblk3QXlmOHdlaW5NMlZLWWsyNW9ieG5XRTVCdmU3d05SVWRqeU9Kd0dlMW9aa2V1VXN6MldTdVFrVTRQT1l6VHlTWmxyTEdwTi8rRXgrcllBb3B1Vy9LREFNbVg0d1FpbjZNME9HdDFnanczQ1dURTRwcmxOem5ITzhHelRlMC8zSks5eTl3UWRheG1zdG5kTXpUTm5lbFBYN24yeC9HSFRPMlpqYXd0YUJ2RzhSVE5PRldIN2dJUXZ5M2xDdjU1dlhLSTZ3VnFFNWRvQW04aEY5V3F6b2RLZ0JLSGRoM1AwdEJYN3NUSStoTGxkMHR0OFF0Mnl1K3R5QUMxTTViM0ZXRXQwNFhMQ21GcWUreWpLSmRzemZQU0dYbTBxc1M0Snl3a2xCM0VNSDlMQWdidVZLS3BBc1dLVG4xZWIwMEhPc2dVWHlwdDlqZDBFZ1FWNW9WUFViYVd0WSt4dWtxY3RaN2hTUmZYWWhIRVV3UDczTGlaZ2ZURTNPNXJLdDdmYng5Y3l0bm0rMnIzb2tNMVl5YXhkdjFNSUJGMk5ldDBFMU56M3FxY0NQWHlCYmVweXUyenRsZFZLMElMdkNQZFFLNlYxa0F3L1FRZUE3NjJXNzlFWDI0d1BXS2JmeTQxUURoRjdsVEhxeW1PZVRta1cvRGpqcStQaElqbkxBL2lVcURkdTZ5amxtbnJXZDFaYnh4RGpLT2lTZVBnRzlSbEJvMVJzcUZ5bVVQUlVTYVVMNTVESWo2cGRRRExmQnNUejB6NUg2N0JGR1E1SzVYYlcrUy9wOEpMNTdHSUswUm12S2xQdzkyR21iY0JoM3VqYTJmajZpOFl1VTl5VitKanRWZEo1R2x1WG9ZWElEV0lEZiswOElEbU00NURUemJyZG0zbVdUWWZaUXJlWHlEcEVzbnJTVlU0ZFVWaWxBaUh3UlZmcGtSdXkwcnhOZnBYcSsrdlRIN2pyVEdpVkNhS0J0czBEaC95Z3B1eU0zNWZLMWVyYkQwRDh5bEJZbUxPTEpxVEd5dUdWSzBhOUJUcFhVZm9tdm9YdUU1UG5KSmZ1V2wycFhNWXNSWFc0SHdRSll3YU9VelhDcnhPdXByYU9tV1d0eWUxdnBZeE15WmcydXZxWUtNdGo4QWxzamR3dTZzR0pvLy9JZHJZcnhCRVRoc3FUWGRPK0FOVXc1eEhoenpkeFlxc0IraDBHTkN5ck85dHpUZSsrTDRhYWh4NzRRa2tLeXc5RFJjK1A3Rjl2WHVjQ1UveHBYNU14QmMzakRDRDFhYTI0MVBOa2RsVkdOam1MdWtDSmJRdmx3UHM0ODh3QzZuSzZCVXFld1JaU2gwNjdpa1haZUx5Q2ZvS0N3a3JYUWJBcDdpVDBZNEZwYS9RTzBVV3Zob0tQWDVtM2tuQzRsYnVJd1J3SlVBVTNzMzFuU2w1WTRnaVhXVW1vang0dzAyTGt5UElMZkpTUjdvanV4L1p1V2RDQm1uQXh1RUlidGZBeHdNRWhXK3NJQ1EwdEVtTzVjTEJ3Rk9wK2RQaVZEU1REM0xwRXhHUmV2ZE1PeExRbk44QjBvaE9ZamFHOGFJNEJvRVNnUzdNczlaMEZqOEp0eDlzeXhEZk9oWHVvTG9UTFM4WW01b09uRUJyWDB6QXNNazB0Ump3cURNSkc0SHk1cEFKd3d1WWhLaWc3Q2I4ZjRMTzVlZEw3aXJQVGJzeXF0aE83T0Iza0hEcTFXeUpOWUxVM0t6a09LVUgxWEpWczZuT0tkbTNmRHlsb0ROZ1E0d0tKYncvbWRlMndZY3R1NE5FYzRucWRrQkRveW9HWHJMd3BRRnFNRkxtUml0ZHZRMTVYQ1pXMVU3d0ZzblV6R0ZHK05MZkpKcVdEeWowSGFicDBzZkl0LzNKZDhZVW56ZTNpNDg5RnR3RitCS3A1QUNPdjZiVXR0SlcyQ3liY0Zvb01TSHR1NUtqdHdBVHVYWVJjcHoreDg4Q1JjRUJGY2VBLy80T0Y4Ri93UXBNU2YzdURvVzdDTGc1QmkxbXFhTmJ1NzE3YkRkQjFWbjUwT3d6WVR5RjRUUHR4bWo4VXBDVDgrNjhBd3NUajFMQlBDQkozdDY3NGlJU0tTbkZUN2ZIeG5IUlZhSkJIbEh4b3NEREVsQ1VwbVI0ZXJTd3lLVG01eWRDQnZ3djd1bzljanVDZW1JNFVnc1BwY3ZKVnVrNWh1TUZXelNGVWZ3OFBvUU5TQkRDN2FXNjJUTmVMVTM3ejlmWnRwY29pM2Y1YnN0SVMyaDEwNzdHRHA3WXlQZDBTZ3VBZWQ2ZkVWNjYyZUxidGtIMFBRdU5IQ1MrcjNzQTdjYWZSTHVRS0UzTmZwWkRBWXoxRW1IN3lyQWErZ3pqeHhLaDJJWWczTnFzYkFkdDEvSGRHMzFIUktPbHZpZ2VvRG4vMjhkQkhGQkttbzhGd1ZsaVRPcjV0Q1ZlakRIRitVa1dsNDRmcWpCejB5dlhHUmt6bkZiS3N6SG1PNnNEelFMT1FnQ1phUWVheDRyOVlXZ0xvejcyYjM1SkF0TXFaNlJVZkU5OFU2RTRvL0VkaGZ2Q3g3dE0rZ3RTV0hrWE9OK01HOGlDZ0VNellOLzV4WXhSOTRXVFBOaEFXTG5xOWo0U2xqR0xqVWNoeVJxQzYrT1kydUdoWG1EYWgyV1RXbUI4SFF0b25UOWJOUndnQm9sbjhwNktyMFZYaEc1ZUZJRU5nSW1ERGlIemhRR05wb2h3TmluRk5hL3FsZUIyYWJjSm05Nkt5YlZBejhjRC90c29UM3RWYjNXU2Z4a3YyQVcrbzRUc1ZnZGxMaWxmNWhPSEI2ek1OQ1kweW1la3dheGN0aHJTQmd6S3hDYlFZZkZtRWUrNXJzd1pYcVE0Q2xpVnRpS3lzbmYwbHo5bjFWZ1FnaXRIcGo5U0hjcDBpTnhERWFXM2JHR0luVEg5NVlEUkVrMXptbTVyd1doanBlaTFNelh3dGpGYnZOaWV4RUQ4MFdPaXN2MlJWbHVsMUdhcTllTkJCUi9sb2xrc0oyekNaN295bkl0dDlmL24vSml6cWk2UGsrVFhIR0hEZXBLNFlkYzUyMWM5R3RGYzlXVTRZWG8vdWNRZWNiSFJYYjQzcVNjRWQ1bDJQQzNLQ0JEUlpXUW41eWU0dVhCczF6WUUzK055K2ZqTmEybnR5bUl0d3p4ckl6NWtXbTloQU43Zkg4aVFsdmIxQ0dCZldkQkZNNGFpcjFqN2JnLzVUcDdxaERtRENQdFRvME5teldRZDBBTTVRYThaYmtSc2pRNXZScFpVaWVac3NuSE5yK3B3a1FwUFE1djJuVGhtbURyclM4VGFDZ2Rob2VmMzlGK1NxYThZVWJ1VGhyUUw1NDI3alpFUXFVMm5lVi8ramIxa2psVjBtQTRhdTBKaUN0MjdXMi9TV3ZYaTJMZng5aVc5ZGlDTUhZTkU2eVoyRmFVdFFUeThWTnJNSnd0bUltRTFBUkt6a0VNV2tmZERBSFEvYjFzTjJJb3dtK2daNEg5MnVmbGU2Y1QvcTI1Rzg4Y3Q4bFgxTDc3V3FTSUtsYkVHdWo0YVZwTmFvMGtuMkRiMkZUaTd6dmdYRTBpQnlpNnNjdnY2QUExUHF5eW5QV3hjTlYxZ3FVNzQ1Rmt2aE9TbU05cStpNW1YcGpOKzlFdGxoWSt5QkcrUTdlU0FZR1R5emU0Zkw0bmZ5V1FrUFAyZTJObWhFWVFQRXcyY1dKS2xvSW5zNjJrRENjemhYYUdWSVl1OVI0dlJNTlQ3Y3lkcTI0cW9TK1BTNHhmeXJvcnBXSVh0V0dmdy9VaHQxU3Vxcm03ek1PRWxtc010RWdsQ1VzUnJVeGJwa0dnQTNxTUd1WGlvQlk0RzNlQm1RN3UzYTZXQzduVi82MnhESnpBQ0pFcEhmZVZ4YW5WZjBOeWhlNSs0dGg2RGRsMUlSbStaVUVLWFlSeVZvNnNwV3Q4M25NM0hBTkF6TVhtRnZGNWRUL3M5ZWd0QzRBUUhYSTFZTHlwLzFrT1ZFaUxMR1R6TFpIbzE2bXJQRUZNYU4vSUU2YnFMd21iZUtIb0tET2NBMmFGRVp3ZFNXd29tNTZxSzhrVWJJTVhyTVZBUTM4aGNoZGV6QThSVUJpcVRralpxcmkyQktSODRUdXNpMVFtMTJ0OWJiSXlKeENCMURRSW5JV2FGVFFPL1VETERCY1hUUmxYQ253ZXY5Z0daYXJFRTlLVk95T05jVEZFa3JSZ3ZtYTdtWHVtSmdQYnB5TkdDWDM3VXVzbDVETnJXT1RNNWxpYjBLSUFrd3JmRXFNbzhyS2FpWDRNRDFHeE5IZ2U4Z3hsaUZ4OHNtbVNLU25MWnYyTUhsL2hDY3FhK3QyakhLZUR6c1NxUy90T3ZPK3VYM0dkcUFEc0d6Ny9JRlorMXM0RTZuN3pHeElmdU1HY3hiT0hsaU0vYVZOSkV5c3ovWWRLMFpLUDlwVUFDRWRmMzZPT3cydVVXd3NFZDF6bEV1c3JFazh3U2doSExJMENPaldsek9lNnV0YWsyUUl4R3VqeWFQaUFFR3dVN09YaHlCQXhZcTREcWF2Yml4V1FxcVhXbG85NmdYOVdmekIyL3FmakNYVGJZV2VwV2N4QjcvUTZ2dzQxWEZTN1RrZXdJdnNWU05XQW9xanNYNzdLcG5rWUZVZ1Rtd0tFai9CRFVBSUpmUnA4d2M2RFRna0J6QktxaGJEVXE5Y0NKRzVJQkRlMWNod1hENWZYdk9nWGhFcnpYSDM4QzdJV292akhic0FMS0kvODY5eHlSRDE3Q09POEtWS1d3N01WNmpiWEt6Um5scklHSTBFcjdJaVNUSDN3ZmRNc1FRYWthT0c0cTRkcEp1Yy8valppTUx2VVh5OVhZbjV1Sm93NkxyYk1pYkZjWFp4REdSY1BjcFh1cHBwTUYvK0o4SjRKK2lCVlJEYVg2cE1CbllaUGRIY3VTdVNaaEN1VkdIbkhIZ1JucElaYkNnV3lObUhrUXY3STBsc2NzY096aXBQdnMwalVPZlhPcVBONjJsbURUMm40RnFJbVRGREorbEpaZ0hoQnlXWUM3N3ljSXJvMTVtRzBucjdRTTN1RHYvWW9QK05qaGs1V3d2UWxZN3RPY3ZPd0YyOTVkaXFQb0dFRnhuS1U4N2lBVW8wTVEvYldxbjB0MmFudnRFSjNULzd3VTZuaVBsN2Q5ZkVTNWZWb0xmbzN6QkNzL3ZYUDdYTDFzUFM3aVBxakM2bXRYcWxId2hBbTZlYitCc1FTNUszZ3poaWRPaG9WUnd2L1llU01rSVZ2eGdUUDc0UFFhRldEL3lDRlVSZ1oyVXJMNmtUcGIycXUvdDkzdWt5cFgvTjVFaG1WU2hCck9YRnVhMUtpa21HdVJxUjhoUVZvSkhQQU90SmpPSnNuL1FJVDEyVHFob1hRM1BsTExQRXd5dWxNY3pkTTM1UForSmRzR0F5MDM3L2wrVGh4YytJYWJhTFFJV3IvT1M5RmdJZ2VYcjB5bC9FYUxNTUV6VVgwWWtRWjAvSkp1bnVONnEvY3M1MllzeFNsMVhJVXg4bDgwT2tPSjZFUEFIRXR1TnVhSU9MMHBrYXNBVUpYN3dEdDV4UnFsZXNaTGRlRm9hQzhJTUNvaEFQUmpTdXMyQUVFSloxSThMcGhTTXdkb0NGN0g3ZFpQUDZWREd4ck1rZnlIQVJtcnF5TTAyOCtMem01Q2taclhWN2NQcmJCanROdTd1Zi9uTzdZM3ZvV1FKNlhhMmE1c0Q0WjdweFNLRDVtRytrSDgyZjM1WElram8wdzE5REJuTkVZbVpRMVpsS0pxY1k2dVJyTFpqS1hzNTlGZ2RHWk1BbHdmUDNoelBEa3FnVVBhdHRjZ0Jxc2NjREdUTmY2Y1JnVEx2MmVrMktyR05SRkNoZ0liY3g5WTBaaGNnaHZKbEx0R05pN3c0dHI5a20wSjZDWmc0bDFiL2NOSy91d0dXWUhmdUQvVmZOOHZvTWZCNWYraFNlOE5wRmJYR1d0S2ljNjhnZlJEeVRvT0N3UTVXYVhoeGVEYmJMaUhrL0dSUjd6eGp2Q1EwUStUaW9zZWhDaEwrQzhETmhIQU9kcjJtaXJxQUxJTTNDUXdpenFPUlpWWHRzbzVKZG1FcFlGdW9xQndUa2FpMDdyUSt5dUxIZnplVGp5U0piQ0xrVk1xZnRLdk4yMDNiTlhmYytzZnk3MEx0akhtajlSNTRHeEFnREFaZ0hBblIyWDI3RzhKZGpYQUtkdlQzOVRza1ZxdllGWktLZEh3NU95dXQzS0tnRnI1Y1ZPSGlsUnBUV1hYUFhHaGp5QnBqNFE5UThMUnZQVkhIS3BONVpaMWFLQXdsa3JKNUpaOTM3anJnRFlhNmVnTTZST005SU1Bb2FRVEwvZEtXMHN1bDBwWnlmeU5ZWW9uU21tbFVKQzZyam9JRW4wQkNOTjlxNWJXWFZ3c2NaYlVXWTJ2a29vMmYrWEZIaUtNcnppcTJrZEJLQ1l3RFd2N3BNQlVvKzlXbmFveTYyd1VsUEowU2tsRlJXNk15Qnc5ZUNTdnVFN3BFNWN0WExQY3d0Vlo1c2tOanFnMmZWeDdlSlBUOC9MdEE0U3QxaTRwdm5NTERWNVQ1RThiU1ZrSEFEVGI2QU1iY0JSUU1JYVZEZUFIcE03UjE5bktiS0lpaVdyRTVYQnhoa1RNUWhiVnJkKzMyY0ZZdzFKemlkVnZyM2RLWk04R2pDd1FHSWVCSVNrODhmalhFVmNmVXNtcGYyaWRrVzZaM3ZSSXR3U2YzSGlzdnF1c2pUbFY5UUNaTnRoN3lHakx1bENNTjZSQ08wZ2J4MWROdjBsaUltTVhNTFpNNytlZDJidGhhSlZ3c3FpOC9BWXVTODJ2alFtZHhwWGdsV2hNTXFSMUZKWjBscUFBc0NtaHpISk9uQXd4NndhYWk4MEd3TnhUT1EwRGRITGZOdVNlZnVoRWhxdlhtWjgvRzh5eWdzck05NWJzM2kxQndXNDJISE0vU1hFOTQ5cDd0UjN4NU1FQm4yTFZNTFN1OGFkUEJkYTU2cXB3V3ZYdmJvZnJvYVBBVXBqU2RKVEpMdC9iRktEcUxSZ3N1eUNvcWh4b3pHdUNEKzdQQVVySkhCL2NOanhkdk0vV3BFN0dFdWlvT2FsT3FPcVZGNVJpb2tjbXhBV3VacU5YdFRjbnM0bzE3SDBBYTBwQXVRWSsrOERmUXZBeXV5Tjh6bWIvekNCTXJRTGFHWDZNa1JLTVloemp4dmk4UEdvUExSRGVFNGlta2pJYkFzNXFHQnF2ZkhTMnQ4cVo5V1VLTjhBM2x1dk5OWjV4UlYvVEYxVVVpK3lxN3VnTzZrR1k1RW9mUDdTMDM1Y0U4SmFyUDg2cmR1eTRHbFdPdlhWYUp0ZXpEa2syYWNxK2VTcTJpTTdOTGlTeWpFZGhBb0tzTTFrM2wzUFo3anZyd0xEeGNSb3lEMVhabWxiN0hNR2djTVkydUlYdEVEMWdYd1l2TVk3cThGcGVSWUZYTEF4bnZuRmt4WTZISjViVENBSTNscmsxWVlaNHFBU1NCNm9Jc29nRndsOEdkOElSMWtXWGMwRk9FOS9GNGplSStSWTE1M0xIQ3NYeTZwUGdLRGJGaFFTNEZWQ1pVNm1wZ3BmelV4WFU0Uko1Z0NDUldpSWl3MnNyWXAwbTdoMzByUTJ2OHExNXZkMzFESzlnSzZPN0pXelRWYXZJL0pMd3JWMVd1MVdhMGhJeUVRTGQwVUZZLzJ2Qk0wMHY2TE52MFB5NHdBUFFDWGUxbUN0b0FCQmZDd3k3dlZOT2x4dURZbU4zbkc3RUh4eHZmYmlxZkduRXQrOEloUys3SWVJUzJvanFMclNWd1dmWGZjV1lteE5lSGF4M3FsbkxndnNXazV2bHJ3bG5CZ0JpcEEvdEQrUEQwM3ZDbWtNeUR1L05nblZWQUovUnZydVJhZGJYNlBiQ3h3YWo5Ykx0ZkhoUjlUN0VHR1ZZZll2V2FzdUt1aXJkbmFUb2d3L3lBZ3pGcDhOR2R4LzBmaThWT3JiSjVMdlpQMmFMdlA3ekUvQXh4M2haWWkwZktUM3o0eW5uaUk5S2F5TmFJS2NvVjgvdzZqWmJ2bDBTNEpsMnQvcERMMkdDRVBaTENWcGtVNWRBNjFDV3hTZGQ2OGVubmljYVdIUzRhTDNLTmpyaDlBQ1VYdkYzQ2RYNGxPdEJxbVAybWxDYVR5YWw3MTI4UWVOUWUrdWQzU0JpU1N2aDZxMkRlSXh5WHlxVU9XM1dYSVdMSlVQNmhXZGtvQlR4VSt1NVdVYkNxSmVSblNudUgvbXNUemk5RUl1Vml0Y3p6Vm9vTEZNKzloODZpQ1E3aExYZHpjZHh0cTdIaHFoY1ZGWXU4cTFlNW1UMHp4alNaMFVHakl3eFR5Tkh0YklNZkV0UWIvTHlMbklDdWZQTUQ2M2tXbm42OURkWjU5cWt3ZjdpaTNGUURaUnJVMWVzMCs3ejJTaEdRbVVOUWFZaFVsZnRRMFZQRno0aHFVMEU2TzJCYWI5NWdYcjl3enc0UTJVVHNJWEdqYWx3MW9acFEwbmMzTjhQQ3dLd1UvU1ByZ0FZVUk5QXdZd1BFZklqRUEvUnpPQ3FGUVU2QnRIS2kxYUk3UlhlSlZ4ZjY3STV4UnRqd2pPVlY0OVAwc0EzWmFVWCtDYTVWYmxWc2xxLytvTXM4VC9ZZDVnZ2xKL3loK0hHRkZpTjVET3BaL3FoZ2pEOG1HSi9lYno3Q3NUbHNIT3pKK2xhNVRYZlEvQkszOGI2eTN4aFI1ZDNRZXZrZGtzbExSSW1FQ0Z1eUNpZkZxNFRMQk5POHdhZTFId0RIMFVkMHlabmhnVURmelJlY1ltT3h5WG95bjB5MjZHVFF2VjJlamgvL0djOU12bGpVUU9LUkhzQmtjVkM3TVdnTWtaL0I5dGQ1UDI1K2hHK0pod2lzcitmUVhYaXdYUi9LQ2dON2FDY3pDazdkWkFaWDllTlpRS3NFQ0tZZUlZc1BKV0F3RmdQNXNHa3ZrVXVrcTIySTE5MnR6aFo3Nis1eHRmSnZlNnV0cnFndFJtUVQ4RFN6QzA1Wk03WU1YTjFKcHE3d0FwTncycGExNWVBTUlCVDhPOHI0VUhhcWNZV3Q0cFg4aDJmNDY3WE9mTldLUVRzWGUvbWlsT1FrQ2daUmJXRjNaZFBxMHRxY3JjSlBhSHkwMWlHb1hqRmtkK3Rzd1E2aGpOVXVpRnROWTJhWGtCaHFOZUREa2kyR2ozSkFpYXBuMGk5VVBnMG1LR0lScFRQa2VUNjVRcFZKUHBWOEluNUlGWGNXWVcyK0k2enpabmNZOVN6U0F5TFg3dDkvV1JuNkhFZkRxWFlrS1dId1o3TDBzeklMOEdhcjF5VHVKZnY5a1FNdEMrUy9MMGFleHYwazhkMFU2THZza0FxTWhSK0lQQURHR0U3bXl2TnoyNTFTV0xTU0V1NTFzMVp1V0p3amhrOGNVRlNsbmtuc3U4cDBNZzRxaHhvbkNWaWwzM1o2ay82cjk5c0NFTFUzdUJRTXdIbFlteVQvcGdpN1hSNjlwUjArNUxKMlcxMFZrcVNCYUw3NzBTN0VzRW5LcE5Rc2UxL2ZOZWVwT1hmSVhrY1UycmpSaTJlWlcyTVZZdWFCaXZ1a3hSUGpFN3RxamRUdGNFdUZZR2lycmpZS1hqMHlCYmNsUmVLYXczV2lZa1dJbFAwL2pZRTZZa3V2RzJjQjBUZkpYQjRwVkZhUWVGenk4aXI0Y2xVQWJDRThDU1pkVDF2czh4K2E0RWlqVjZHeFJuU3FkTW12dVV4SFJyaVF1T1M5YzAydHE0Mk9kL0hUVzdmVXIwTjJ0K3hGYlkwS0tsK0pLL3Q5dFppTHVxcC85U3Jxdm81d1Q0Wi9VWllQMVArQTczb2tIcTlId3NqbHMweVNRUXd0WER3dG9kR0FBODJCTHdYS25KSXFrMUt0YTg0NXhUbkQ0eVNDUjhBK0VMZ1pKZXZoQ1AwamxyZUphUnkyYVFKc3I5dFdKemE0L1V5ZEpTaHROZ2psL2xYYmxzbzlmaVZ1QjJaaGs5K3ZGMjY4TXZjY0c3Z2JqV1ZFYk15cmR1NDZIOFMzY3RGU1NNTE5JM3pOdnYwTklZRFU2U3F2YXRZbW1vcHN1bXZ5Q3Z0S1ZjeEtvMHRCRC8vSXFVWkJFLzQ5cGNySFJ5VER4cTFtZm96bEYyaWc1em5OZ0lhamV0U2F0eUlKZDNHNjlUdHJVVnlqcUM3cFZDY0NXUzliQitMSDM2RHROMG9EdTlQeWpUcEhOZjh1WWFXdEwxbmMwV2tDVUJ6RlBtNVMwS0dOTlFic3VtdnlxR09scWdHa3lTV2doLy9tYzQyQ1VzMjhHc1JiYTdaYWRlakFXUStabFVxRGpDaHlseG1DdURDLzhvQ3NPTFptVFVsYnpvdUVZSlMrM2FtTTVuWU1tWGF4dzEzV2xXQ3lycWF6VHZDbzRzcDBCZGNHOWJLM2tVZ1JuSUhkMnlFL1FWMVVMM2hmVXUxczlrRzExeEpzUUVXdUREYTVoRDgxTy8rVTM3K1dQaUZoNFlYSGVzZENKbVpvMDRHbFRNeDZWaW9TQ3grdno2cnBMR1M0di92bmF5N1g4TkRRTUxDMGdmRnMvVGVNaFpaNlB1OEFlNzh0S0RkcVdLS3hzOWY0VDlzQ29CYWlTZHBQLzI2c0dmdXNuRWRqQmI5V0hSYXRtcCsvUVdNb2Z5M2VKenp6d09VbllsVGdLUm5mQWtjYjFHVmxEU280YXVIYjRGaURwaXl3MW8rbjQyRUZyYXZKNmNQcDhtSSs1OW9ObTJ2YWNMck15ZWYvRXdabXBHMnkrMElnWkNPcE4vR2kzdkExakQwYVF6YTl2Z2pQc2ZxOFNBamFPWFN4dWJYRkxMRHpqWnA1Yk1tU01rZmF3TDF4cXd6c2N1ZHlMbmVHYmFwOEc3RDNXRzBuQm5jejYzYi9OeXA2Kzh0TnZZMTlXSkpIMmZ3Njc3bkduclgvK2M1RmZSMzBJZXhsdFJueW4xK2RiZDczRXZqMGRUeFB5R3NRNExGdXliWnR4VXBleFk0ZEtCMmpzS1pxdE5Vd0NpdExsbTk4ckZlb21kMjBJUmNrUXNCQU80MDFYMjdwTGRDVXFZNEZoT1p4bytqcDlXSWtKMWp4cDF3Z3VPMnhRY0pBTXEzbFdXVGMzcHptQ2NWRFloRytUeUo0ZE1PRGpieUJqK3dpeWMrSWdxeW1PVDhnYytpUjFEMllGOWR2OElSc3BMdjNBRnBwMFFLMmpidkJaOFlNZWlMQ2UzU0poNnRnWDM2U3R5QXgwYTQ5UGQwOU5tYnRWZmprazJBWng1SVVyeEhGRERNZWQxdWJvN2lCNzNXMzNrNi95UjAzcW1MR01jWG1yRzFhNWs2WWxYSGRtR3BaMWpvRkRKSnhxZGQ3QVdzM2h0WmJlSENIZUQzSCtnMW9yellhYTBwTjh1WVhDbUtDaktIWlZtekMyditPRDZ1WlIvOEJvSkE5bncwUXRiaG4xM0UzbVpWYWt1TThLcXBNWG5pam9GSjFVbWxMWWU2T2xYN0hGVDg4ZFFsd1BhdjNja2xLeE5pN045aUpCY0VGNk11M2E4cGZQczhpYjhDVTZ5Vmp6UU85R25qM3BBc1RhMVlCcWpLVGRCbDVxUThqVFd6OXlWMmdhSlV6eWJackhoaTgxd0lpc2JDbFh2K0lEWVI5UEdLU1RmN3FjRGR2WnZJOXlHajFONEVlNk5YQ3dJVUNPbExGQ1RyYmZVd0pXTWk3NVozVWJua2RQVlA2Z0EveGREd3RZUEF1aHNTMytwaHZza05XdUxPenl5cHdDa2dQWW14MnlXeVpGdS9lSnNzSkVTWUJIU0VuRTJTVHFFelM1czA5VytlUnBYOHE1VUZsTU5UVjY2VmxFb0pmMTVQUWwwMWNsUWluYUpPNTh1U1Q0Vml5aVpMSWlDd05rWTZYUEZpNlIxUkxocUF1UlJ2VW9tZ1NFNk1FM01WZ2JMR3N5QitBeTNrZWhvS0dXaE5TeWxTZHlrNVZYdFZsSlNXQVliSURPV2xGdlNBWmxjL0tGcDhsVVlQaUdkR3djT0FiTE5taU1LbGd2U2xkQXEySE5wRHhMcDJCSjFQY0hEUEtiK0MzODFvZkt4eWxWekFUekFRcnhnaHRKbkk1WkRLdDdlUFdpZ2NrazVLeEU5akMyRk1MSWsrcEhXYjVTbkRWT2RLSGtpV3lwZEp4b0lwTVRwRFpPYlpjWWloa05mbGIxcGo4R0pLcEtUdXlKbUZMT05QM1NrMis1bFZiYmdrRk5hYUVKWEUvcXo4b1VkTjJ2YWQyT2M2QzNnS05DQmpINnBZdjNEVHN1Z3B6YkFKZ2tjazVLbUZWOFY3WEkvQ202UHRKRzRTUHM2bElzaGFySVBrS2h2em9jM215RnVOSzYzYmJ2V3d2Q2kvRVhiZ09aYmw1QWw2azY1VlV4QVR2Q0FoWEhtZzh2aVNwYXpjTm1ZYXEwVVNsVURCNVdqZ2xMN2lqUmRsaHhCMDZkVFIzbnNqVU1IL2ZiWlg3Q01IWHdONWNYN1ozRlpzRGtzcWR3cmZpcHlrRUJtMU9mVTJkTlFCNnlJblBJWXoveW9jSHhqNmFaUElhZnR6Zk1jK1FZRnVVbm9ETTVMeCtRNk9tT2tyVUw3Qk0vS2I1K1M0Mis1WGdPUFdyRjRSWTkva1hRK0ttaWxtcWNtVlNNU2FmcDYvamFldWJXNXNidE01cUtxUlBjR1V5YW1pNGV3UzRkZEVTRnI5L2o0Rm4rQ1BuOHp0aUJuV3VuS1ZqN1VTTWRiRjRURWxvbHdlQ0FiazhSdDVDOUc3ZWtLcjIzbWIrSlVHcjlaeVMvODJlTXBJTUNKOTNiWnpuc2laay9QdG9ITzkrWFZ3RzIwS1NNcjFJWmwzOWdobjR2ZWwzck9uanlnTnFZZFBoK1cxTXNXbkFSbWp5S1laVmoybXYvRFNzZmtvU0tiekxaM2ZPQWVvQ2xzSkoxRis5QmpJVFJjY1hwVGlMaVpYUlZ5MW12Snp3N1NnT3l5NHE2ejdyY0JkYi9EcFpXTjh0ZUxyN2xzVXZLNGtib2JpaEM4Yk1jZjMyV0gxbktFZ2lSQWowOElEUGwrdUFLN2tSVE56VTVjcjJ6OWRpdHpXVkRKVlptMnFzd0xmQkZRVzBGUUhGSmVFMXVyWXF1MmRpUUtDTkRjNjkwdTlJb2NzWnJIRElyVnVsMndYdHVQSkQyd1NadWtQOEF3bURnenpvaDhGb0p3NGpoTHpiNENiWC9CRzdOZHJzMUVtSkpPNVZNM1AzRituOU9MSytQYnVxRXRZMmxrL1krU2wxaGNpc0hOcElaNFF1c3BybGRyOUttaXJQNmFsK05JWm1vUzg5NXBtc2JFZlYwOEJWZ3FtcHVibkp4Q1JHT1d3aWJJM0NlM2hIS3BWSXFaTkxTNGVHd3JTSTRsSEx0Z2FlMnV0bmlGYXErTSsxa0JBZERqVFR0RjVHZUFxb0tLT2pCVXhtd2JiWFRyeGdZeTNHWFpXeWxPdDdyREhkL0FKeTlQWFphUkFOYTVxcjlQN3dUVXlPVG5wUzhGRGVWU25NemVZTDZFanBFVFRiNEl4QTkzdE5EeWRoVDl4NXB6OU5UaVg0UUNGSDdST3l6aGI4a2ZYNW5IRUZWR1FsKytQdTRCZ01iREFvTjJuNUJlaHpWWGtaWHgwaGIzZnF3NkM2S0dYV05YbG55czF0V1dldVFyb3RkSVh5bHRoNFFoTFhqUm5aL3M3Ynh3V0dQMlFWRHVCYk1pckhSSTZPRGd5T2xNa3hzUURFcVhrd1VFQkhSdU9qL0hyZEM1cXNmNTRvdUM5T2o2eGN1akpDcEdRa0VncFAxVEVqUGtBQWxGWTJ1WDVBTmVOUXhVTWFvOUVIM2NWQ0xwVW5yWHFvNVMzRG9FeDI4OFpPZ1Rnbm4wSEUyV3VDeW5lTVdJdVRialFRSTFubEV4cnE2dlJVcVlTS2MzR2tCejAwTVZIRVViS1J6RURML2l6SzZvMUo2NGpEbXNvWmJIZjRsZkFvcDVyOUZXdFFDWHFVL2RKT240UWhzZ1hVOUNFTDlRbHZmYWFjQmpESWZITExvNVo0ajBpUHBPOXBMVjlxMTJHbDVRSVl2NS9HS09UTndjSEsxajMwMVJpQ2l4L2R2QlBBOFRLOGgrZlhYRm0wU0dFUGtwZ2tkVVgrZGszZGtkWExWcytuTXJjVjJVNG1BdmE5K3VhTmdvY0EzK1A4Nnp3aWRRb0pyYS81K1QyeG9CcjNFK3QrV2dyUWhoenlqQTU0NUl0akk2SEZ5dFZBN0NycitiL29rRnlaeklCOXY5QkFXaUNTTEluT2wvWk00TzRmTjVCVzgrenYvWDFuK2hBWVlCRThqZlB3VWFKUUpFUVRLMEFJb3FJbUlWU3FZQy9NbzRsWkxFbHp4bEVBeUgxY3hOZTlaTE85cE9PTEhsZnp4Q0krbDN4NDk5UWFpbGpFNDVJMnp5OWFDeGdjSWRTeWhsYXUzb3JNNGdpUzVWTER1a0lMOGJ2VytTNTZERzNRaTFqODZ0ZVVtdmRkZkM2WmNDV0p2dTQxZldrL2ozUHVCSjVGOCtTd2pJZlpVZ3BJL2lMU0tBTDJRaWY0RmtGaHNwQVVzWURWUXFnOWFKdXRQcFp6TE83eWh1d3BsU3NxNml4NTg4dHZ0Q1hOdXM3a01VSFZxNk5OY1NOc1Q4RGtaL3lZamx5NFY1YmJ0N3lhNWJGNjNrSWJVRHNubTdPbjRjM2V2OTlZSjk1Y0ZKN2FBcGlkRFNxVVREOFBFeFFIVjY4cmJtSzUwamdxRGF1SytjbnBub3JDSml1SDk0TDg4R3RISzNGa0Z3cXE3aGV2b2R3cVBMWUd0VlkyTlZWYUVMc2dLVUNSSmx0SkdHRjBVZ3Q4QkRBZU4xcTI0S3hpUlIrRW1FclZ6b2dqNHpXa3ZCY29ZZHQxLzUzV2dGekZIRTcwSmVFV2tsUWlROWNSbVE2WVdqcHlDZHVrejZvK3hDY21mN3VLOU5HS2lockFPUkphQ000d3F3djgwS2tHWkF2SmRyTXhydWNvd0dDVjFVODRWbjQwaXM5WXdZQ0NZN0duZStFcWM1eXlnV3FEMEFZVDdBN2l1UlZlc3Q2ZUVwUGE2TW8xTWFpSDVqbTVGc00vbU8xbmhWVXFPYVZ1YlV6aUtFMUwzaU9oT1UyVEFPd0RqM2VyZ0xFNU5KWlNEdnJWNHJhUzlySXVUNithM1BuSmVCeFpYV0M1d2pzVFJobURuMVZ0SDZvQjRpVnRDTTRVdFpiM29zSDJWdGllVlU1RmpGUWg1cUNCTTg2QmhHaUdVcUZVTWxnVzJBSXNuVVBwUEJVVjVTcCt5akQrejhIb2ltVmlab1NLYjhLaEtPblVvaDIyZzdndHNUZTJ6bkh4c1RwV3FiMlNrK0I3ZFFhZEpISXVLM1lhcWlqL1dnczhKQkZTQ0tLZnFaWDZhMXRxNGt5enpCdVJGUnRyS0p1VnFLMHhqR1c0T0M2RnF3SXFGb3JUb3JTVmlRYkdCU2Q2a3lnUE52bTREOXlRdFBudnRSTlhyd2NEZTFUcDVxcGFpZVpIU2pEQWdwME44bk03NDZoUXM3SXMwS2EySllyS2lwMzFIYkMvdXF2TXVMTDdYaGVyUVJ1K1dNa0Znbk80VDA5WEI5RjBnMGt0UUFEbmpGNUxkTDNkcHJqNEtncGJVbTRLNDBVZHh3L1lWdWtHTG9vcVpOV3ErdFMvdm8vbzI4MDhCQTdyaW9XWUZ6ajIzNEVheEFXd01BdzE5bndocVFSckZNMkFjY0VIdEd1ZE1TdE5iNHFsYkpFS1k2MjRtcGZQdVlncGtsMEtzYWpTbVB4aEZTNDljdm1lalBnWnIrTGpOaUhQNVU3MnFzT0JQblZ4d2tuVktTdXJIYis1TlZteE9xMjFCQ3k0NW85VFlsZGRpeWVNRXk5L0k1MlZlTG1WTU9qUk04ejJaS2NSVUM2VTFVcWRRZjVBYkdkWU51Q3BhRmFXYVlKazFhMENPaEs0RUJMMFlVbU94UlRscjc4cWF2WHNqUEU2NWpJdmFGSk5OV21qNHIrYkhrR21oWEZJajhheHRsL3BIa0pqUzVjYi9ZNldkaXRRc3B0b054VDhOWFZjeUt1bzFqaVdwTEF4a0ttUE04a3RyMDMydlJINjZUVU1XWVhzZnVyMFEwZnJIcElwbHBuMVNWek16UmtYRUIxSEtseGxUaVZTOGU2U3VKcm1zU0ZQdlV6alV0ODRjT2VvU0hldm1RUlNDQ0N4OUdVZlUydjY2RE1lSnJVa3MzQTcrME9zTXJMbWd5bjUxQ2FtRWZrL0p2L216M2ZnTjNKUHE5bVk2bmVQR08xKzFnVzVBazI0RUtEUE9pRTNvMnM1WDNoWkRvTUpRcEsrQUpVcGt1MnlLRCtYa2tCd3Znejlsd0xYL0lnRWVPNmUrWisrVG1XUGZ5SkVyWUQyMmI5K2EzeHNYUHBmRGx2WGRNaFRBMy8rZk9SSm5mdHJscWtsZjI0Wld5UmFkeitDcWRPZ2s1czZaN0ZRY1ZxbGR3QUh3QjZWQkkrN0VUWHRLQlFYSExUUmNFUVVQRmJFM0dHOThlV0xlUDdkUkYyMWR6N0E0R2NuTFkrQW5aZUo1NnE5OE5mM1QzeXBQRUt1M0tWbHY0K2NOQzVTZThXcVNObXdBd3g2WlViOVQ3S2dZN2hNR2ZHSVowMFFmSjl3OGZwMXdSTFpCelBDQjVqM3pEN1NWcUVEUVZOYnhVYUpUUGI5Z1k4ODlybW5UYTlmejEwTkxCMm5yZ3JoNDR5ci94SWRqKzBUaEt6QVNCTFVuMG8xeHlNeUdYNmo4MStGTTdhWm12L1dvYXIyNlVYcVY4eVlJb2F0MTVYb1dYaDRtbzVpT2tPY1RqSXZLR1VnWGFWZThnVUVrRmVKeE1VZmRDaVJ3Q1VIL1gxY0lIdmxxVE5VYlptUjl1RGpNVkxEeHhBeThkQjBOaTRXQmdzdHNIenhzeDZtVXJmeHRBSmZ5N21xZzMxS1dTWklUVUFkWVRPQTNNc2d3N2x1REs5VWlLZ2hWanp5akVZRDRCUHVZWmF2bEdZbmZQVkVKUUhWV09vclVTTmNyKzNxZ2t1WnlhZWU5YU9kY1NFWlBHQlNRaU52RC9PQzcwbDRFYk1NL3JtUzNQd1haMkV6L2VGMm5DcXUwblBsU1AvdkF6WHZHT3IvaWVXdCtpZy9SRkV3c0pVL1hkRHJYcnNJSVNNTlc5L1pJTTZLcHZLZ1hLeldTaVRTaDJOZjFxamRFbVQ2MUdaQUxTMkNGd1IxSHJxSG5pNVBnYkxENzNlQVNCQlNnQjU1amMxMHZQN2hTa2ZBOU5KRFJYNngrclFKbFhqMHdhdnpiT2dla2dGMHZkTWxWdzM4VDR0dTRIdnZCL3c2WGlLZ1RQcUV1d3FUbTMyZ1BsRFFTSldwMzMwWHlTM09FdmcyOXp1UGNZUkFSKzRXcHlyb1IzQXZSaFZDcC85TXIxTTlXbyt0MXp5eVlyOU13bG9tbzFlQWM0a3R5cDFaYkhZbVpoMlEvb0Ivbm1WdW1IQ25tRmpJNzNpV2FjVWt0eWpFTTdHVUFYVzdyRVZoMm5aaFlTQ0ZxV0ZpVGFZaHNZSHpTV0xydDk2VUp0OUtoSmlxUDd5cXQ3bG9BMHcxZk5mZkkxdUdIbWNSbzhRdHQ3TzFHUzFPV2VEOW9QSVRIYzNCbjBKTUNSU2hackdIRmNLU2tQVTBpNElLd2ZSZWVyNkRydjFFZVZEQlQrOGplM3Nua1UyTWpHT1d5ZURTNkoyWXMrNDRjUDVrREN1dTRud0JWQXRhK3VvMDNZTHFTWEJXK1hIT0hRTytYYUF4Q1dRdG0xWUhQZysrTUltWEdzeDRHQ08zQVhwVjhacG9yamNjN25UcWlkZ0M1RmlidHpRcDBkbWxsT3JmTGFUMGgwdTBYM0NUeWFFS2Z2c1ZMOVIwMXVSUnlQeEcyQ0FMZUJTbVVDd2RnSTB5djFkaGZrUHd3WnNQQkd6VEh4YVkvOFo4dnNIME81eDZMMENsNGQwM0tsYUM2aDFDalNHSFpqRHJyMHY1ZFJlRE1jYnF6aHg0M2MrNUZVK1pIVWJGTFZuZ2VnVEJ0RHo5QkVSZEp5bFVITmtLamJtZkRnQUZsQlNKRnJIQTg1TVkwK0V5TG9yQkVoaTdUbUpqSCtOMTVIMDdpUzNVbXBLMUdOU1BvZ1p4dzcvTURMRDJwSWRaT0hJVW0rbXkvajlrRi9CWGdjUkxpY056VENNV3NuK1FOTXRMK3kvVE8rKytJOUIwOGhLSkk4ZndBdWU2TnYySDlMMXBQTGZBSFYycHVrcWFXbmdmbUxlT1JJZ1E1UjdUMXArT1NoblpiaFZHQm9SdFE2eVp4L1BiOE90YjFpOEhvaHVmbFBiNVEwRHlQeEl4UXZEK0pQTnEvaXVCU0dSYjBZVURSM3psTUV3aVBENFV4TFYzaEZVR2QvNys1WEwzajhjUGJKdjFzNWY4UFFpeUxaS2NoMEFxRDYxdEgvaDdLYVBOY28zMnhZdjNSbmMzVVlUNE9NbVJmNHJPb3UzOVV5WDN2dlFENGl6OWF3bWtOa3RxYTRTazVzNUZiVXYvSG9CYUxlalBucjMzTXMvclV6RllkS29jdUlLaUpBVVVuSU9RNjFFRWZBcDBnU2hVK0RHT2pyK2VrV1RFbU1uREpDWUREM2tXOHpRdnlvL3dLdDVqcFlCWFVNUUlnMFVNS1AxR1dGY0tYZGNoS05Uem93bXlrbHJRYkVKdWcyeXNGVHFFbEhUc3I4Y0RmT1E2eUJ4TEtwVDZoS2pyOUk0Q1I4aXppNlMrU2g0UUlGY2U2MWtTejJ2V0MyNkNOcUxZQWM0M3cwNmNBTnQ1UkszZDlrcDI3V0ZJTE5XdndSeHpBVnQ0K0hvL0krVHA3eGZYSGowdCtwR05OZGxnZFZIYTJRakdTRlFISno2UTk4cVNOT0MvWFQ2NU8vRXRiKzIyVmZIakdlNUtjRk1PNVJKK0pMeGtwdTdvODFaelhBMnpEZGNJZDkyOVpVS1dXWXUySWdQVlNMSmJlSDMrUWV1eS9DMGFIbDdHU0tISVB0QjBuY3dnNHdrNXdvbnA4ZHpqWkRvWmptUzV0NGErNmdDWjdGZUVpdjhZOS9NYVhvWnEwM2QxMXdXdVN1SlpnSHZkWldPdjZzQWJ5V3VvL3Z4Ry9DZ3QzSGQ5dFkrNmQ4S0RyYTYxdWNWYVJ1aUZnQkFtVlYyYmxYSER5U2kvSUdwblNkQWhXcEJ0YjVKTDU2U285cU5DajIzR1FLMEN3LysvR3E0ZDRvVFdIZ2lQYjJzOFlLQlZRNkg1SzRlc1BaNW1TbExVUlpLamZOcGNTRHJKeThSaHRLNTJUNDFyL1VwY09KemVadzBCU0JrdzdZRnExa3pJTFJFMWk0L0xyMG5yOUx4bFQzekRmOUMyRGhhdG5OMkg4L05aRVRXdzhOTEh2cmJ5Umx1TUNyNjl3T3BSUkJhbXBvZ2hSb254NWVKcnZUbHIxSjEySkpLdi9mS3FMajR6K1dlVWJkVjRpRnV6TkFZeXdGMWdGMmg2dzNiZzJYRW10YjlHL1ZseGxVSWRjN29ESmRrZkphRmlqVmRhcnd3NHk3eEJkVkthMnlsL01TTS8rekl5NThmVVRrczAvbDhxLzExWld3b2FnSklMc3Z0RjZYbTVEUW5aVWpGQ1NMdnA0bWpFMGo3YktaS0tYNzlxTmNWYlBHYWVSeU5sbjkzRW8rSFhEbTNqMGtFek9OOG12QlRUY2hWR3Blak5GTGZnai90RG04cmNkTWxFdmVNSUlzYVBGV0lsK1VIT0haK2YyQ1doaXBlczVIVW5COVIvR3dwcmYzZ2l6YkhMLzFyNUh1aW1JM1dNcEg5c0FRSHB4dUlvS0s5d1o5MWluMC9vOEptbzhrSzdtTEpDZFVYWkVuVmJuU3ZLcW5ZN1ZHdXFNcm0yclN6TldmbnBqLzVKRWw3algvUFF1VC9HZEZPdjh3eVhieEM3dUhjMzFYdDJYN29VREd4NW5XR3hXeGpGTlVlL0hBd2c2eGlHeVNGK0M3ZFptdmNSeFJJU1hiRjd0UUZkMEJEdUJEdUE0REVzSmFpNEY0TFkweGR2RGZ6WmN4RkFKNmVoUExwOW0rKzMxOUU5T3VhQ2JPZU9MQmd2TFJhd0ZmZUhldXFoOWJVMXRYcldWbE1McEFvRmpuTXJtRlRhdVNBMFI4SlJmcTNlL1FGRnF4bDdUdDJKb3RIMi81MXRnT2pvWjBoNU12bmtrLzd4L0pWcFFJWW9xNlNDSTFEQXp4S2FWQlpyaWR0aUR5Tk5XbUJrQzdxbjgzbTUvS3l5K2xaYjg5V2RBYkdUd3ZSN1U3Z0FLMVBmOXJ2SFNzWktCMGtjRXEzMXBST2FwTFp5Y2pmUm9SN2tkOWpiYmEzV3Yzd0tqT1A3M3lubDV0aVdlRWdCKzFrb0Z3S3d5TkNSWGxzWkNNUjJDRUpOMEZtSWw4MERZNjdXQjFObDRCV2g3UlhyY0VUa1h0QlkwQVprVUFVdVNHZVM1ZDUxd0JCWWdGRklRV3RCTXhERmJGTmdObC9iKzdUNFRXdllWZmt0R20rYjdMQjhhS1BlVTVRcmI1bC94K2FkZVdGTFVVN3YyUmpLMzRFbG1KeEJWN0JxT0pvSFNsY2s5RmxBUW01UFl0SE1rK3NLcnhqdWVxZUlkQUZhU240Y29oVjRLSmtpNlE5YTVMNTBrOGV0QUl1TjgyM0NLMTdwWFFhQkNTSzltT0xBeFYyeUsxUWtsdVVrZlV4S1V1U3NGQjVRU2lVOWovYlNmMzcwLzJvY1puZEZseFo2cisxU0NwMUZpNEorTzBrMW1YVUVhZG1TaEJoc08ycDlWQmVxRWY2czdYUmJWUVNMYXk4ck0rRmtmN2tOeTEwcUR1ZFlLR1pNby9Lb1VWUWVxQnJSM3Q3ZWJXV2lpRGFwL3RMUGhUMHByU3BUbmpCeVFuZDErVmc2c09qRlFSTEcxTXpBN3R4dkhwTENsUk1lRXFjZGpjbXlyajVMOHY4SGE0dWh1YWtXWW1sWlJJYzZUek9pV0M5cUVWT0R6cWszSHF6ZXN1YTZHbzBQRFVXbmdLa1dYY0xVWXhxQTRPaW9VVTJVcEx0aGhjY3RWZElxb3dHM2c5ZzhPbGpMNW0rWUhxOHVlNGNkU1phUkhOaEMwckt3bHhDTjZJeGxFdzZNbHExNi9KSmVvbE5oWnY1K3pwU1pHUnl6MEhUcVJKV2wxRkV0emxHUm1OZ09UbzE2aE1CN2UzdUttZGxNb3oxTzZ6TTJDM0NWZk1lY0JtMkhYSTYwd24ydTVKdUVKNkszdEVEOGtMK1JsMk9xQXF3TXlCQ2ZSbGtsMWJKaW5VSGxqWUl3UEltWGx6Q29mNkMzc2svTnY1SHEyMTgwcXRuUGJSejlaV0Ivd1FRNFR4NHlQWUtOVGpMSFVSZlZOVFc5OXVEOGxadWtUcEZkWXdtM2ZYOVdIaXNsUngxYzBvNUZUY0FmQUx1TjZXeHR5aGlxdTNFVUI0c1JER3hiVXhadWNRL0xBazFxZ3p4VVBHWnRNK2NXcHltZzlkQXpycTZpdkxzTHFHWEVobjFsVThraklXbS9OOUlHZWNxemd2ZGx5TGltaXVtRktwWTkzR1ExOUtRTzJ5U3BKd3RlMDR2Y3RhSzdTUml0S0szcnVxOWR0dnk5KzBYVktVay92emlNVkZmWmVVWUxCUTJrWWJad25ESGtkTlhHM05tUjRBaFpBMjFWeHhRaFRXSTMxbkgxQTBGYUdWSEh0K29SV1RvQzEwV1hLU08yZHZjQThQQnpnanB1eGlQR3IrQ3hEazRMRnhjV2E0VDZqVzAvL0xCVTE4dE5lMTM1T0FjcjZHSERtRnBZWWdUWWhiY05Pakx0MjNobUlXek8vRndVRUFmSi84OVpPUXlkeVFaMDUrc1hlOHVYTlIycThjek9lbXJyWmd1STVZMkhhajJMUGRjWW8xMnd2VDF5M0NuSmZIdytWT0M0akxRamZOd21xSHJpclJxeHVRdHlNdVFNVktCbDRyMFc5aThZcFY0aFZaaEVvakdsK0ZIQlBZZFB5ZG5ndFJpSkVCQkVZRHQ1eXNTNDYwMzlvNzV3QU5EOVVkSWcvRmFTY3F5MFNHTmZOUENMSThPNnN1YllTcXUwOGxxRDhHbHpsS2wrVUxVRHVuL1ZZUitHMlJ4bEtPNkhkaWpYZGQ0Wlk2M3JJZUZMYUZPemlhVmhZVjBjQ2RHRytuckRNcjVrZDd0QXpGaVlGcks1Wmg2aUc2RVNnOHdwdXBTNEZOakI1Y0VXSGxaeTNOaTZtT3ZRbmZTN2xKMTRBcUlobWMxcEFZT0xQL0pZTG00Q29Nejk0bEZjbDMzVW41WEZxNXA4MjN0N2JVWStTaEsvT0FEeTRaTWNwM0ZLUGVVZUtVdkxJbVZJZEU5T3o1ZDB6K0VCemV5MzNFZ3NUK1FSTmFQMUdsb05OSkFXNGhkTWpwbER5dkNLM1U4NVo3L25Sc29mUmhBSmhNeWxQR2JnZktQSm9ETVFFSU5yQm5Sbk80YjhCNDFGWkJrTTkxODlabjdLVmV0M1hEa0dIQ1VyZkF0VTNjcSszS0x5ejRENDVOUm5VanI2VCtIVjNBV0d1b1lDTG03ODB3QkxyOWs1VFIvZjNNZnBCLzRRU1Q2NUZmOUxwMjFvYm0xcDZEeXF5VE1sWFlJa2FJV2pidDNSMDl0anBvTWdmU3E1dTV0N2U1dEJuRU5CVHdoeHRicnBaMmxsYm1HUUdkVlhCSmxnb1RuNVd3Y1BqWThQN1Z4NElyVmhOendXcGhjcmVQbTdJRE9IaDhmR2h6cGZOQWhPdldkYTRlbG5rbmFiQVhOa05aVkgwcVBQRDJ4bDJhSVlndTBCNkJlZVVTTXJTZGNMc0xZT1BCK2xyOFpnbGFLTHRpQlFzUGRaT2ZBZHkrLytiNnFkci9NKzZ5RVJUNThpNXdJTEthcVVtbHBJKy81U29TZnBDRGoydi9ONy8xd0Y4SFFWbngwaTRnTWlqZ1p1WjhTOEY5WnVaOW1lR2lFWXNSYW4xM1lBaEMrYXEvT2R1MW8rZU41d3B4ZXBkVE94ZjEzQ1hWTDdRbDJ4YUNKRFRXR0QwY2dFb2RWZlBUTzhFVXMyN1piclB0Q0srV0x0QnpyZDExOUt2bjVDKzAvQWtXNC8yTUptYWY5NWRaMSs0QW9mYUo1VjBvNkhpVzRSNnRFdDFhOEJLT01oRWxrTE9tUC9PK1AvQmt6amlrcjNVMFdENDlUZml0VmZ3UkFWWTF1QUg2WXpmOXNqR0lLeUVMWXFTMXR5aG9oUEVIRWsrTWpqTEhaYWpmU29LNTZsNDVPRjhvL2wvQnlEWmVVaVZiNS92VUFwVzZGekptMjArNFpFeW1FSTFCVVJLOGlvbVMwR2JkRkxKLzRQTnFETHd3S2V3eDN2VlpFVFZYSE1UdFVxRTlXMko1OGFpeDgyWEU0SlhiV3RwVkhKbGxmTy93dTFnVDREQTdaWGRwcWZDTkoxeWg1T003LzU4VkJTOERFZU9kcTJ1SDY5cDdDUGp4UlU5WitLQ002Y1hpK3o5L1hhR1FvbHNGTzAvZlpIQTQwR1l6NVhUQjcvV0VaYlNtZEczRW05aDdDOHk4cEVyN3IvbmhOb2RKUCt5Wm5abWNtMFBnMzNza1BmeTZhM3o0Q1N5V2RaSklQUU1uR05ZL1gzdjhNTHJNRlVlNGhjZ0oxanF1QVVQNlVrMWJQbk5MeUtOaGVxeDl5Y1U4QzlHdEZmTjZ5blZJNkVVbHZ0cjFPelBBR3F1S0NxN3AzakpKeFBPOCtPa0kzV0hPODNNT1dtbTZTczlkZ3IyV2oyeDJwUmYzY1Y3WkFUWTROam5tcjdjTGNycnZSZ2o2Mlorc2M4ZU13aDBmdlowMERqWVRBRWpCYU1oaGdRQkF4ZVI5SVNmN3dvT25iRUYvRW14M3J2MDI5dnlKbG9YR0hwYUxOUUE5bXNuWVNCMU5nb0tHUmVuSVdNcmUxbWgwRW52ZXh6TkZDWjVaemxCUEdPVjNiVWM5QWRvMTRwMjJiMzV5VVJGSVlJVTZHaTl1b1B4blJ5Z216am9IN2VsM0JvbjRXdjNuNk1kYWx2WFU2TjgwQjZZWXFVUy9KbFVqYmpxY2YvZkZnb0hod2NQaG5oUFQwZjRnS0RaSlIxdnhFVTdITXZzUkRhYTV6cDJiMjN0Nk5PU2VLbVN1amV6dFU5VTZYWUpxdDFEeFpGSWE5SGpXSVFMNWZ5OWJsVVZJUVJGM01FV1QxeEJ5aFhvMTNTVjhwdnJQSkx4LzN4WnZSRTRrbzhWNG1iTGlrVStPN0VibTVVbVp4R3g1YTEyZlU0SGFzRHBHMGFtZFByZ1V5eVR6a0dQZUhxamVYSHpUWXQvVVloRHdLdjFiUytncGM1SWp1N1VXejVQTmorT1VqS1lBeU8vb0YrUUUvT2VxWCtpVi9iM0ZrNEtoVi94ZlBhb1E2Ym95TlFwQytjeEQxTUlnWUVNbUdWZjBkUG1JcDg2bzZJdjFOV29pK2ZzakxSdzhOREkwVWtSMDZqNDFOVFpTclpubEJtY1NnV0xlZHFUc0RZa1hlWWJVRnVlOE5zMTN1ak1qdTJPaDJRaVJROW96MDRLT1dIdmFPbHVjWE0wVE8zWHlxVWI4dWRxMlg4KzlYelNrWGhzVFFHdXFreWthalU4bUFnU21ZSzJTUzZXWWFaREl5Vzk1VjJYanhWd2tNeVlsaVlWbEdoWElldzhnemxtb2VJTzBxN3ZJTytnYzhJYU8zOENzZ0RWcXR2eFZKSlJOTjQ2aVdyNkVkMnBTakhqTVdPdjc2cy9pWFFIL25aZ1E2cGFrKys2QmVlaXRHUzNiaG5QbHhXOTVJa1dBOUl2NFpQdHNhZlBYWHpScmxTRjlrYWhteVBtOEx0MnlONk5BOTNYSWFHTkh3U3BKZ014dHVKeDBIZjVNZ2tNRWh1Q0ZGdjRMMlNlRW5zWFgvTkNpLzJqTnJ1emZSbGV0bjhYdExQREJydFhIbTdiSjNpa1M1ODFaaFNyeTdVdnc2MmpYRDVJajYrN2NlOE5ISkZWVFBRTkRwTnc4cithZ3FJeUJXd1JaeVFyODZ1Zkx1QjNiQjJ1b3RXYUR1a05XRXdLTk1sWkk4OTljaFFWOWZRb0NmNUloRXp2bXdzL01TSEYwMFhlM0E2Z1ZqYTlrdEJUbmtxcWJVTGJ4VGVteG9xUlltb25FcU1hVEh1Yy9QMzNYL2NqNkZVTWdpK3NSMFNFNGIwV25QSHRLaEVoSmtpT0xHTXpNd3NuaW5oamV6WUllY2lLVWpjRitxcEtkdEtWMHV2dUxJbHMwc1dpbFdBZ0JEQlZYQnpqMEhIcUdMWDVCVGV6Lzl1V3Y2ODlQeGovOXlMSWlycFNGelZTYnBMSXBWUzBScVVvZ25lMytMV2FGTnZmMTR2c2lnSkdmWUJCQVpCQUNDVUFCb0FrZmc2WWM0ckFnVVY4d1ZxRkZDdHB0cTRSdDduRnl3N3RZdjVVTTNQVUkxdDNPTVNLWUNCR2tVMXRzdEd0WTAvQjJkVVVFRUZGWFJqa3VVeURkUW9vQnJiSFc3TDF5TVB6ME5VeGFaOFE2dTFSbXQxRC9zczBqZ1lIUUNMZFZiRlZxdTFoajIydUhPM25sclZUQk5hclRYczhXVnFyNzF4amtvZzFxeFZXcTAxV3NzZTY5VXFyZFlhOXRob1ozV2M2bnRxVlBYSHRJY0VzL2JWb0gxcnZ6cE94Y1lGWVA1cHhKem1EQmU1VlArbEJuWWErdXRWOEd1Q1haN2xjLzZvdDBQS05YZ3M2TGVtc1Jaa2ZtaXlWS2lobGwzc1laOGQzSzY1TytXNCtQVnhxMVhtZGY5c1RGQTZGbnErbVpWazZ1cEF5TG5ML2RTd290VmFvN1c2aDMyZm1HOWtpVlkzMTVSRWVuMTZtMXBWUW81V2F3MTczSEZVVzJhcmJsYkZvbnhEcTdXR1BlN21ydmdTdWlWUzQxUHY3ZGx1Z3Y3SFBDaHhwK0Q0WXhWdm9kTEwyMnB1elZTL3RxdHh5NzlwaHdKemZuWjd1SmFka1ovVFBiNkdrdk94Wis3WUw5MnVjWWlDZnVYNDllNVFRd1pnQWZ5bGF4ZVV0TnVTTHlDSTNZM2tiMk1SZmdoNlhpVldUSWZ3NjYwUTNvU20zRmFwK1FMQ2xiV2hwdHhXeCthdEFiR1RQdG4zS0NRbkhiSTlQTDdxZC9qdU03VjhZQTVGdmNxdzdlRFFOV3dUMzdFQjhEdU0zL3hxdUZGMFgwYm03K2kydUxEdEZ2NEdyU3d2MWxYWlJIOWFtUlVnbWRKTzRPZ2FkVDBuSXQvSnlya2xSY2Q1dVRvMmF0M25ZeWxYUjYvdERQQWF6N0FqRWlGODlpMjFtS1AxQ01mKzVFYUY0TkpmREpVM2E0Y0tRcTI1c1JCbXplS1ZFQy9ZWklRSnNqNjJXQ0FJQzNxMzh2N0pXQWkyNjkzOFhEd2p3ZDR2bFp5T2c0ck1TRHQyNmMrUkQ2M2NyV2FyWG0rc3BQRmFkL1hLLzNLaEduU2ZmMWNQYTV2T0pJRGVOblVmYkEzUk1rV2VaUFRSeUk0N3liMFZHM0o3amhaZnpQb3RmdjA5UnBPN0hWcHplQ2oxOTlZMUN6aEN5M0RFMVgwTmNXQ0diSE8yeVM1QWovL3Q2SGlQVE5aNGNyTFpsc0MyOWlieGpyZys3L3U0NDFoUWVTUnlwUk1ROEhXK1ZPUEpyMnZEZXJIRzhYZGRhL1V3b1BGdGVldFNIOG55ZENmZEdjM0hBYkJqU0FmdFFsK0JNV0FtNTJzQjdFZllkVGcwL3cvLzNKa0VHYUgzQSs4MTRpS1NsM1NMWEUvK1AvbG1JY3FLRjdZVVhrUFpSRFZUWDZYTzB6YlM5ZlJyalA4eG0xa0MxaEgySUNmT2FlVk1jTlp5SHVZOHl6bkQ3ZUJlNWY3TTI4VG44UTE4THovTDcrUC9LL2hlMkM5Y0x0d3VQQ2ljRTE0VWZpbGFKZ2JFbHlVZGtpSEpCNUlmcEFWWjlpVkszazdTdDJSRHNwdnlEYUFFZkI0OEIxNEdiNEIvUVcwS2dXS2ZNcUpzVkk2cWtQVlgxZjlwWHRZK3JQUG85dWtQNjk4eVBHOE0rVitsT2hPcXZkZDB3UFNaMldmZWJiNWcvdHRpdFd5MzNJQTFjQzE4SFA3V3V0Mld0bU42enpqR25VSG5ENjVIM1hYdS80bzJGR3VMM3l4TmwzM2lXZXpGZW5mNU1yN3YvUThFeWdNZkJyNFAzQXJTZ29xZ0t4Z0xOZ2ZIZzNjRmR3U1BCYjhJb1VPcTBJclE1YkF6ZkU4a0YrVkc3NnQ0c2VLem1EN1dHOXNYeDhVbjRpOGwxSW4reElsa1JmTGp5bWNydjZyU1ZKVlVWVlY5VVIyb3ZqdGxUcjJkK2lldFNEK1cvaVlqeXVwenNocGJ6YSsxMkZwSDdWanR4M1c2dXFxNi85V0w2KytxUDk5Z2EzaWs0WVBHTlUzT0ptZHp0TVhTU200VHRuM1RmcWlEMnJFUmtRdFpPdGQzM1p0ZmtuK2Y4ejJ1KzZYdUwzc3U5eG5jRGZVOTAwL3ZIK3pmMW45aHdEcXdqYmZCWDRPdXdlbkJTME5MaGszRDEwY2VIaDBhWTQzOWIzeG1RalR4M3NTM0UvOU4waVlWays3SnhPU25VenVuWGRPSjZmYnBmbGRjdGFocTBlOHpoQm54RER3VG1tbFlySjlWekw0MysrMlM1NWIyTDEyK2RQdlNnMHZubGpVdUwxb0JyN2kyNHE4NzFPKzRzREt5aXVld3FoOEJvSmt6MVg5bS90c1VlWDhCZ05VQlRpK2dyK3NDQUt6YXhLRVhSdFpiY3RZOGcvSDE3NllOOGNmcFdjUndwV1l1WmVQenIyZjV2bjRqU1BRNktKK3YvbnRMR3pLaWZiNFE5QzBCTTMyUXROVmJ4WXBiemsyNGZQcnpGTDZVZ1dMN3gwSWk4eWN0czZpNWJ6WEN3bHZwaHMzWDV5c3k2elJuK0YxeWIwL1RBcWlZUzFqLyt2QVAxQTlmSEMrK0Fjbzd2K1hZZit5OGJmeE52V042V0hSV2RSK0NnS3EzQ28rZjFFVG52Z1hOOHErWGlwcitzRFhSYlA0YnExbGlQOTU2Z1NNcWlmeS9XelkzU2haa09BdXYzdSttYVB4WFhPQ002Qlh2bU5EWHdYcWpmNnlFS0NVU0JYT2IyTmJ6Unp5M2pydWF4Z0M1ZExFSC8xQ0xwRk5wTUNudnRPeExiMHlJNU1KTU1pR3FZdUdQYS9abnJxcG05cDg0MjZZMGlPQzdCeVU3dzB0QlFML2ZFc05uSGh4NC9XbUdNZHFqV044cWhmaUhXOHA0Mk8zN0tITCtDcUNxTVo5NW9DaVNSRmRUSkxnNklzR3QvTmVuNk81V1A4WVduQlVselhqME9qc21Kc0JmZ2lpZ0F2MnczZk8zSjBoby9PcERKbFNYV2IvNHBIUnowZzVhU3NFb2h3WUkvZjc4OEVUNVhnSzMrdjhIcmdrK2o5R2l4Uk04emFyWGUvYUNPTVNyYTc2Ni9tZTNGSElLcjhMT3hrSjdVdG02YmViK2pvS0dzMWhsa2tMeCtoOGRuRzJuT3JQUmRnbEVXQzRxTW01VmIzYmxXRFVNRm1kTTcyNWhtd2xraXpWL3NRNzBLUGI1aFZCRWFyVTgxU0lWZjM3UkFCSmZwQWJzbUJ6UkJlaVJVRjFkODZzR1JaOW95MHhPSVFxOGNsYjhycTVTcFNPWmRGRnlBSnU5czNGU0tXTHVmemxIdTRkTSs4cFhadkRnalp1SDNHWStHTmdZRGo1TWRvNEllSDZKQlNGM0h3Y2ZQQ1pOMU1IWG85ZmVESmd4am9zM3g1MjJEQ29BeDhDQ3FKa1JNak05L3pTMWUwb0NDb3RXRnBZTGJrM3JqdVRVUTl6ZXB4WU9kTkFCNlRNTVFWUzRjYlRJT1pUZmpIam1YeGFRREVleG5IdXlMV0FaUEZLMVJxbDM2NWtkditzSmxaRVlUcGk0VTNRZmJiYUNlV21wWjJaS05ZVkUrZ1YvcXpoV04vaVNQUTZaaVRzaHpjaURnQXlJa2Z5RUFoSTZFUFh5Qm9SVjc4Lzh5dWhBQ3dLU0dLYWFaemRRVzBVamIzOUpaaE1TeFE1bFRrakp6cnBwaGxUa1A3OEJKVnNpbWJ0ei91ZmhnR2tIbmR4STJRNlFmSkRScnp5Zlpsd1ozazhvRmlIRWp1b0x4M3BVQ2JwRU1tVE1aemd2QUN5TjhSQ1VGeXRtaC9yd3EyakE1WmFBbjdCM2U3RlEzeU9hdHV2VVZSVEZWeUEvTDE0NG4rcDNBd2lPRWorK3cySjRmZ2dibFJUZGZEaXg2MHZCdHFMNitqL1VEWnBURllpN3ZUYnRTcldobktTVzlFbGc0eG9OcXlEUlhFY2l5WkkzNzVGOGFTUUFXd3RJdWJ5bjgxS3RFenNYWVNaeXpwM2J2WnZkWTlJSmpGcis5Y05lQlpLUnBiZEpSL3Rtb0JlTmg0Mk1hZUdVNzVxMHpXcjIxcXNIQ3VuY2VYK3BnRFFlM0J6MVRCZ3R4UDl4Y0hoZVpxcGphVnJ5b0hGaUtTR0F3b1dsTVFQNFc2dnNIM3ZmUUlLU0o3UlFXQ1RBZE5mcmVGMkFnb0NXMHU0LzdGMmdBaVlpTUFGVzdzYWtFMjNraTcvcVM1WnUvelQzcDZLd0Y5STBVUmVuYzI5R0Y1eG5SMjZZeEVNSnh4OWNHbmdMRVUxWnh0T1JNSDV3WVdWaktlUzloditQeDhQdW4vWVdraUw1emo5QzRmRGMvL0VRTmplRE1xSVhrcU5QVDlDbExKOGUvUkF4eGhNc25ac2FJSkJBb1kwaE1LNnpIeDhXNkhUMzJhOGdnR2RaWkt3MHJBQXhnQ21nbFEwWXdPbm9vVk51ZWhnbXdHaXdkUXZBZVk1NCtaT1o5N1BSYVM4SUtXM09DOGpiTnlpanpoRkF6ZEcwcHNIZzZrTHl6aklnUmFhR29HcnViVGZsNDl3VFZCSGxNdkNoWXZVL1ljejczdzl6LytqeHNMZkVablBFYmhsMWtnQ3Fub3NjUjZ5TmtybVBZbmE5ODRyTHU1N1ZTU3JkdVNGSDkxNlVHdWExcnptZDBSRmVoNC8wd242ZjRTSTlGMUlwb2VMbWUwa2N5dXdQcWN4a1g3aFMwbXZvOWhzeE5La0hsaFU4Z1o0QkQyYTZsY1oyMjViWWh2TUdSL0lwZDhQZjVVY1FFSUVvTUFnSlpFNWswOVZWaUlhdXRUaGkwbHZMQVFlT2IxY3NFdmpXemNLK3pRbG1aa1FpTW80Z1A1bXhVUXNlQk1MTDlIY0hLdklyV3R6SnF3bGJ1WndiQzlyRk16eWRhYjdPY1lWRjVQVGRWVWE5MDlTR3Jya3VlZEkrSlJGUXZOZXp4RjU4bXZvWnArYXo3cjc0WFNwaUFlV2VaK21LSk1JT3VobFlDSXdMRWJWMTZKYWVYMncrK2JPdTNrMVo4dFkxU3h1QlVJempPQlRmc216VDdMb2prckJHZXlqUS9TZ0hFMWNJaTJ1RkcyZm1MNXVWWURMSHJwU0pVVVRhWDJrdlo4em9jZjcxbFlwamxhd01oakw5UExIQW1UQXZjYmJ4RDhGL3VoK2lVSWFuYkdSWWdWUUNwWnd5Q2hScUFFTW9SMWpMYy9kKzQrWkcvRmVRNkE4SFNHWGJQaHZ0dmh6TElKeHhMTDVmU0Zqd1piVDZaaE5GMFVCWEZUQ1l2Y0x1OTAxTzQzOEQwbXIwQThWc2kxQWpKTW1UWE9kcmg4b1VhOUZXSEh2MFFwL0lXQ0RvODVGN0NaZVdZTkZUOW0zMUEyWmJHQXQvbklCYkdFNFVHM0xmQ3Rqd2xicm9DMWN6aCsvenZhVXExL1BoMUFLRGhvSHBmY2FsZTZUZTEraUxIeGdtYTlSOFkvbTdDWUpCd2ZhRE5JZ3QwVTdqQ0htdHdmMyszNStaaE9LZG9yTzk1aUdWemZZc2xJT0UyK0dGRnNiN0xwVGRRVUNUQlhPSFU5Yk5FVFFLZ2IwRXlWNnJJaDdoOWRJTkEreGpyMGU3ekN5bDYwckVGdGtXYk9FOU9DaGorSG1jZDk1M2tnQStyZHE4M1RNamtaSjFIYWFzdjJEYmZ0TE4rTkxjYXlIbkt4S29kdklhK2ZqRHhMVzQxbUFXTWxwV3d5QUk3ZGpNaVMyU2xDQ0lhR0thQWdhTVo2WE1jd1VzbndiSDhZL3luMDQ3cnlVUG9VdTlaTHUrbzJlQ0ZUVFpVU0FVUnFLNko3K1NBTFdhT1JaYm1aVEJJeUszWGQxYVNySVVtRG9YalhGdnhVRFhOSml0YVZOVjJmaElNZUMyak5lU0dZYU94dE8wemgvcHArMFpXZHEvUDZzZXZYa1g0dmRkTFFNd3dFdDNWTTA0ZE95VzlJT1VLakxnK3JYMWRIcjZzbXBtd1kxbGxXbTBSODMvY1g4UkVoc2hFa2srU095THQ1UTlEWGhMSzhaNHlFMUtKdlRZenVYYU9neGw5c2U2dWZIeDBSaTNwdDgxdEdpaFdySjgydVBYY2JIT2ZucksrdFZQZmxIdmphOGl2cmFlbVRIUXcrcCtLUU9rV0s2Zmhkcis3N1ZweXVOQTQvNjdqbE9vUUpLUFVHWHNia1c4dTd3VTF6Yndud056Z240Umw4dXBhK29SOS9zOEluTGlNMHlCdVZxN2pkQ0lnRGhrclhIMG5yNHpZNDVRK2d1ajRwaVdtT1BjV2dJd2RRcXlFWHJjREs0ai9xRzEyZ3Y5Y3phTGRXd2VtTEU2SWdTSkgxbTdHblpvK1R5dGNRb1lQN3p6Wms5ZmF2clplVm4rMGNhOTB6Qmk3bThsSlFCVEorSFFCTityQ3NuS0FSK1NDM09mUndBWFkrdEZqWXdka00zUlRDWW1YT1craTJQeERSaFliVGxqVnRTQzR5S3lGM2tBd25MK1JEcU83K21tN1FVbXNXL1dtQWs1Y2w3ZmdsUDhqUVVTMFlCMGJkWjc3a3hLaHBkMHExellNK3Z5a0l2WTVHMVpsbVRCbW1yWmJQdDRlcjdMeVlwS1loYlhTM2c1ZENxQllPcmlBd21XMng2UVNkdHVXV1lIOXE1WG14SGd6WFdoWVo4NHhpNzlRclBVNmFQMDRpU0RIalZLYS9OSGRJdHE0R2ZMaUZTRWFlUFJOeDVKRlNoU09yNE9oak5WZVViM1JwWThWLzhYa0diaDg1OUpBcUlVZFB3NG9rcU91Z1huNXg5Y0JKNi9PVCtDWXFkZmJsOHBCb1hFWTMrWU5EbE9MNGdweGJYaWxySGpKV1FhSktvb2pQMEJtOWtXS1I3bHZjNG5wcDVkZ00yaXVxb0QwVmpudUQza1E5cGR2a0tEMHUzRVMzQXJKdThsK0VNaUxYbCsrdU4xYW5pTnIxdFRXNXREa2dDMm1TcmdWMS9oMHVBNkoxaUhXQVlUdGpiblRkY3VxK3h5dE5GODh4V0VjMHhmNG92SHdtcmgyR2Irckd5ZWJIWFlJTkx3SXJmdURqUVphWFRPeS92OThVclJrQ1Z2dkVtb2ZCUE1wWFdzdkxNa3N4TTFXa1lHZStrZnFHRzBPelA5N3ZjcHlaekZnV1F4L1hpY21xN2N1a29TZUlIZ3c1RnZwTUUySnhNanUrTDh4d051eExKUmV5SEVQY0R5T1ZWS2QrSUh4L0NKV2YzWFgzeHUwMkxneCtBbU9XVHJlMzgrL3hSYWhnTDFmd2l6OStZWjAwLzZrL242SlBBQWZqdm1UeEZ4NTZ4OVhNd1hudjhGVzNJU3Vmc01YSzlWMEc3OFlqSU43TWJvNHZybTV2WW15enIyRXhkTGt3TkFYRXpTbFhkWDN1N2tYSzdzQWg4VEhkbXRPOEx3MlVNOE55T3l1NDNvUVMrVXF6Ly9VL2svTW5kbXAzRithbmI5MUJCdWFvZkhIWm5Hd1RDWVhXWG1ZV0VrZWhpdWt4YWJJK1IraGEwTXk1dGxaYzNKMWVzbzNZTWlLMFhKMkw3NXJvdkYxc2lTTmxDUE9nNW0vdTZDZDEyWDJmQTlqSmhDV3NxbTV2MmhaVHFyN1VVdUNBWGdMYUhqd3ArcEJtdVRUN1BZWmVqNFc2ZUV6YjBxSnRTSHA1WGJsK3pyNzFTZnJKTjlGVHdRUUYrQ3NxTWdESC9oYmQ2dWJTSC9oS0tQTjF4enhleVhwM0lydzdRZWxzQ3p0UzZQbEpDRm1mZm5CaDc4aTcyZGNaRm9JVU8yeWZ1akIyaElPekh6YjhlbUNxYlZCM05WWW01RUR5MnNxVkkyKzE0cXNKYnFkRnl0eHc0L0xKWVNEQUV0NXhDVnZlTUNVZWVzUkZkek96ak9VbkNBRCtiZ2Y1T1o5OFBuakg4eE5QeDgyT3U0eVk1bGUwRnIvcEVGdnpvM3p0WXRrN3pPYmNTUjcvaC9FekJ6RWhhaDFmbWZuUmdoUFR5ejhTWUoySEh2aDQ0VmNtQXE2VjQwVVRQWHJFQjB0N1NOT1dmMjU3N0NuQkpQcHJOdEIvZkJYNTJSeHpOVm9PQVE5d0o1UDZSN3ZtSXdHT1dsM2N1ODQvaUpXRU5kYzZlSml6UC9lWTFCYUNKUVpkejFybDlnME1pRUxFSksvMERBd2ZqbTlJM2REZGR1Z2tpWnB6ZVFzeVltNDVMa2E2OWw3MzhLVkJvandzSURjR0ZDK0hLWFhNREM2dWRxUWNnMTF4L2RHVU1Rak9Fa3ZwTFdFYXNPakFta1oyZkRnMEFWQkhtV29XY2s1MnZXc2FQdEU4MmdRaVRlNXJlWklSTitkWWEzWlh0a3lIdExoQUxUZ3NOZmVYNmh1ellKRkN3WEVWVzlOV2g5Qm5jdWxBK0Y3S3A4NTBZMUZ5MlphWnRuSUpJUDRrS1dTcldqQXRpaUZWMU04Y2F1WkhjWnpTNFdPT2RWaDl4SVcxai81cUl0ZlFscTNmTmMrLzZHZG9qNDRDZEhrWEZWejM0V0RaQ282bWRqWTl0Y1cvbkV1dGQ1WlgvbW1tb3dwNWw2aXRsYzVUdDRVN0QzbTlsMUo3QkRod3Judm5JdWZyUjArN2EyQkFLYkVzRkdrV1l6TEZXQ281cC85d2pENGVTdFJUeVlIK0tRbllpa2lDeVpzY255TUl6aTFqWm0yT1Ywc25XMkdWZmtiTi9TTGRlbjF4cGtnSG5KQVVwZ3Y2MkFzZWg2UGsvbTMvVkhiUm50N2FscWVhNmpDeFJaczFKQnoxRGJOTlFORGcrNXVzRkVEc1RxM2thdUNJSmtlYTQyN0NxSU5rQjl5ekFLQXl4cy9HTmVNSXdEVTNjdjJYdGhEK2RDUWMzdmRNSk0zRk5YUWFzSWptR1ZLTVkvY3ZZQUxscFE3R2F4Q0hwRXBhR2x3YnpVYzk3QzR4a1BCd0tQSGRJUlQySmx0RkF5Z2tHcnZNcHFJeU9kYkpORXBlSVF0UTFXYTFsTnFuQjUvQlVra0h0TUtodExLMzQ3MFNwWXBGU3VOMmphQ2tjZXhnZm9BNFBYODlvbnBLRmswMGZFRzZCWjRTZUtIY3JJazlWeUhoK2VYUWg0cUZMWk10ZTFNRDZHZDlraSs5RVhKZXgvenZqajdVL2ZoSisvd1N5eSsrV0RpU0xSUnJyMzhHeVVNVzIrNFZoTjFDTk5DUTIzaWVUdXFsYU85aEN6dW5velNTNStUVEtEOXFMK3pWRWNqV0dYVXcvM1VCVHB1VDNXQU9hN3F0K3FsQnZRSmtZSkxvMWl5UjVlSzBCcDQzTytJSS9WMlJvTWlIRHBCaHpWLy8raUE2dURkNTRwRnYvZVVCbEU0c2NQUHRxbFo5QTczNXFmYy9RY3FSSTh4WlFJYTQxUnlydFcybFo0N1NaZjdmcHM3d0lINitZV1NRUy9XZWZpYXV0WkZaL2VCZWEraDA0cHk1T1BNQUhrSFpIQTVwbTRuZlo3Um9GaktzUlhkMU5JSkNyOS9OU0ZNR1NLN1hlbVIvT2Y3WXM4cjFVSjJmSGovc0JPdGpOMlNJblcrWU5mZk0vTGl1S1dvYnRsNFpXcjBKb1hFK0dKNXEyWXdGeldBb3pvR0dkdzhGdFNoYmtXMUJGc3kwa2xudXFRMnJ6Mjl0d0lnYzZvZFhVQkpTbEtETWFIVGpvOStlZ3IvcFZsZDR6S05sQ0MxNTNMWDV5eGZVcUd6YnUva0FTWnVsaXNrR2F5eXdJZGExVmpKcFFGVklaMjQxUlNCQm9uMFpaL0VIQTRBTWYyUjdneENhMFVSZFZVS3AvbVFiOVBPSHIvckltKzVQbmJoNU1sa1UyRlVOakg1ODM4QnFuZFdTSUprcUxVTU92MUI1TXVjWThqNE1mL3NZNHcxcFMyY2FOaWlYTXk0d2xaTCtiemRWYXpYZHZ5Z1BrZTRoMzNORWl0c0ZpRzR4SWdoVzh6STB4WUcxL2JTeWtnMXRJYUN4UnBLeXhjVmNGTS85U0xDaFNzQjN0bml1WmtjMjZZSTdPc1lXNjlrUnhrYnM0RHVRTWRWZFF4aFRhOEQ5UFJyeWFCb2xlRkdSOHdjSjZoUTJFVWZKb0J5VEdZLzlIeGVEVEtEUFJaWUVyZGRhbnd0bXRFZ0g1Ym1aNEpRa1lRbk5QYlZzTzJ0YkdmYWNEZ0ZLYnZESmp0MDgwVHM3dFdqY1AxUjlGSU1KZ1FpaWd2U3piZzZLRS8vUlVhTUV1dGpnK1N6V3dqR2Y2dmxWRHgweGQrU1hWbWc3WHJ0WXVzY004cHJjUmY1VUM2RUVQQXdOa2NOZjd2bDU0bkhNZTBjbStwd1VKSzlRODdzNWRzYmF1ei94UjdpQWdKSkR3QXovZ2gvRU1sU3BBRmRZSWZGNjI0S3l4NC9VRnMyK3lPci9VdWwwSFEzNnRZSkVVNS9VSGV6VDYrVW04bjZCNWFtaHhnZ3ZHVW9nVlZmbUhMcE9Gd2VyWER2VzZ4cDFSS25kVXk2bDI3YXgrZ3hqb05BZHo1VGlhZ3RURnFyQXYxWExsSjBFZUs0U2kza2JHRXNHQk9xMzJDK25xUGxpc1Q0Y09KeWxnbHlqVjZKWWtiRHFKdlVtWEJ1ZmFGQklnWFV4UUprMkx6TVBiWjJxYi9nMDgvWmFTb3FwM096OW5oSjRhYTNWSHVjOFBzMnUvZjExKzk2NWt5V2N1SXpMTmY1ODNPdVdzRWxKSDVsc1dlSW9LOHNtTElCdStQR3pUQ21IQXhuaWMyeHhKSUNUNnBiVWJkcis4emtzYmttbUpJemN3Zkg5Vy9YRU1oQ1dvdlZzQmNXTnJBWlZRL1pTc203QWMrVE42WVZuWVpYdGJZZktoT2w5ZlFFdzFKVWZXSnhBazBLeHR1NEc5TkdpaXNkZmMzS2pCM21nQzh5NE5XV3dNSzdZdFZ2Qld4VCtBWlJxSXh0RG1XTFhRTGcwTnllNnFtbThWdmV2R052cVZLWWYvNzNSU0VmYVBWSHl4OVBRbVdXYXArRjlPWEV2TEkwbDZBNzJiOG95UnlCUFZyTndWSjBwUFpPZHRmL1BSTnZ6K0NTaVVjY0p6ODJlUkJOUFFvc1ZjTGhOYktOWk00N2pIMVVPL0xsSlA2Rk1zK1NxY1JuR0sxT21NUGttNjlBeXlsaE9kQlZ4RVFDcG14WUN1ZEt1L3lMQTRSUk5MNGUzcU1ieUJyUlZzeFFmd1BFN3RjdmovZFZYVGRnSXhuM2lYa3ZjVDh6WDZPZGtHM0ZFMjRGMlhreVZTZldtV2ExOU9ZYzFpWVMyb2M5emJUaVI1MDFUNW85RWVOeHQwejNuYmo1cndSY1Q3OTNsSDdlbStSbUNtL3pwa2Q0SlRoTzB5RUs3MitDZ3lMVWoxdXplbHdSUElYamxzSjhmSmpDTG5ESVRmVFoxM3RYa3c3VWVQbUpqZ0pZYVZhNTM5R2VROGh2elgwR2VSSHhvOURGam1jSkYrQS9pKzBGUUJlUXloeHlUbzZNTFA5VXJEdEZ3OUdaYmxxczkzdzdPb3l1aGZBZkxzY3NPcGpweXlxNVcxODBERkFFRlVXZW5YTzBBZEdERUFTNUd3cldBZU9qQW9JdjZBZkNNYll2cm16RTFyeHhDbCt5SnoxajBKNEtiM3l5Ky9Qd3BDSW55YWYvN2NteFdqUGczN2tucnhnbkNmQWZDL09rcnF1ZTNlUVRpTnNUUjcrbzRNbWNjejZ6WjFkWDVqSWR5MGRRZUFKbHY0L2VNNG5ZZ2pzdlVHeEh6TU1jS29neVpOdGk5dHBKamlCRmgvclM2amdlNWhEL3prb3JRdys5MGYvWDFxMjR6ZmEvZEU2OHYrazR6a2FBL09ETlZaUzRBNXkxZnB4bmdBeHZSVHMySFhkNUt1enN5dGVicXY3L2I1RXhMbUFQWHo2MCsvSjRzOWJCR0VyK0ZGZ1pwRDZQbUxXbkovWnFOMnMxMjBJVDRrOFdMZFRZMmlybDV2USt3RzBTdGEwcUNsNGRSV0ZGK3JVaXp5bkR4ajZpNU9taGozYm4rSDV5VlhmVGlFTkpmRGZFUXFMY3AzdlgyYzRYdW1IOTMyOU9wS0ZqbThDeCs5d0hHdkUwWjFwM0IwdHNSMGJQcXhpTk1zTGJQQVcxWktFN1ZUMTc1Q1krdi9iU2F5dGhSMGpXTVFZblgzUFM5U0tqRGp0ZFZLMUgvbGYxRFA3T0Nqc3NrOVNzUHluVmV0K3A2MnZsekVFQjU2bGxIQjIrOGV5V041YVJDNHRkSjJDVk9EVWpWd3VXNmZJMzI0Rlh0Z1pHVG5jdTFkY0ZmTUZOdUNMdytxSEM3T3BMZXc5SDRxYmsvOG4rOGhzR01yWnNkbVYwMHpsVDczenUrVHhtUENEdkkrbDNmdEloei9LSWd5S2xmZFZQbDM1S1BBamZPckhuNERNampoYXJxQ0FGYkN1Vm5od2VTOHhLOU92SFFpOTM5eGsyeExkUXJpUWNWNWE3Wkt0K1haSm1UMVN2cGVnVGNQWmZIZEtwakw5dzRSU01pYk1zeEJHSkpJcDFuWlZWUGZlYzZxRkc3aFVXQ2g3TnpMTEpYZHcrZ2dEZ0g3aDNmRC94WWw3UnBjbEw0bGR2bU5iWEtNUmVkOHFmWEtzMnN4dUNjU0hPdkVBWlF2WllHS1orVUVpQ254VTJJWWtUNTA1Q1VXaGYzWk94Q3hSeUpWREpsNVF1V294ZUZxa2M5TmFKN2RtL01ZZWxkNWhEa1VxRmN0RWVFRnVLNzVzbmlreWVNdGUzdko3M0c1VWptWGdTT0VzWU81ZDVLRVNwUER0VWh0TW1COExMWWs2Q3NEeVViNnVVVDY3bmU4L2pydVNsM2wwY3lSUUNzYVUzdW1mRjUwd3MzaDA4K09mTC9HVnE0ZEh1WFVZOVRoZUZXSnJSejRVWi9QZHZudm5ESzZtR0xiZWtEcWJGcGxxK2lEbHFBWlR3TnhaeHR2WDhaajEzQ09XQ2RNWXlUeGZTdVp6eEZMMG8vVENzVlNyWUcwZEY2UTJpbVZ5Nkg4TDBLZ1JTV2paUmZ5RnI2azFJK29ocVM0Tjk0aWNxWkxWNlV0ZGxlaFVvM2l2TnB1cEZuVEJrSmFFLzAydk5xUnR4U1BuTzdjRUlQUEtwMEx5ZFNKNldNUDJtUFlMaGlJWi9xL1BuZ2EzQ0F2UGlqVFdQMDRTckNpdUVIZjJVM0ovc0Q4NlRyUFNiczhsY2U2dm9XRXZTTmRZU2p6SDRZSi84UU1YU2loeXZjMGZsZndxSWZtK1l5NUR5MG1raUhMUC8rRzk1NFpXQkpuWUZOQzZsTjBua3RvdmJ1NWtPZ3dOdFhKS1lkQnQ3bXhwNDJXTmlQY0lBckJOMS9DaW9nd1I5N2ZkNmxEcGY5NnpOT3dydngvbWR1ZSt1UmYycW5TTnBjYXArZDBTY2ZIZlhWamFFYTh3bGZRR1Z1a00reDRpczVFbnh2NXdUaXd5bXJuYnAvb0pEdkl4eVA2MnByelNoZmE5WWYrS0Ezbnc1S2RsUTR3YTZoODlyRm80WU5IMFZIbmo1ZUsxY3RuSzhKbklpQ3JFckR4TnRId2haRnp1dnd4YVRHdVp6QzNUZGx4UEMxNzNRN05IK3FVbCttSC91ZmVwNHA2cVdWV0lvSG5yaTBXS2tzb2hLQjZzYUFZVExwZU9sbWltbUc0aGZyYzdPNUsxT3RoZ0h3Q2JydFI5VmVjQk9hZG9qdkxoUTJ2a3M4Uk14SENjd0dBUm1qUVhlMWUxekFwWUhUSlltR0VCYzhiNnlOak4xRGhMMEhlR2VnbHJsaDY2a3NEUXhuSlBBaW43WmloVDJ0akN3WXdoalZwcDZrRlN5V2N2dTRmOGxZZkVhaUNkZ0ZuTnNPQ1BtYzlYc2VxdW9tcGF4NWlJNXBMVEhyYk9NSkZlWGJpZHMzUmdGODZLRjRGbHNsY0FiQnJKUXlzSkJRYlJ1VkYrSTVLMDBYamMvRGZIQzRJa1N5Qll4THUrN2d4bGJjTkM2TEdPVUNWc1R0R1lWVGw3TlhuZHdZNVNGcFgrQ1JUQUF3OWNCRTRmMXg3WFBoNzNCM1N3eUxGYlFub21NZXFMbVNkYVoyS3o2TGlHTnduSlU3dTRCbTJ1M2doT3VIaStRTER5N1RMSFZzQXE4bkd6cWh0MDgySmN4dllyS3AxcGlOMFZJeEtYdkNqU2NFQThQWWRoS1M3am9FUUwrMHlpNWEzd0dvR2pQQXcvcm5zRFlVWmNsR01ET0RqTGJ1T0xGZHZaRjFvMjFZS3grZEhscHFPV3ZtQW5JR2NVYjZ1VDFMa3dISFppUytaaDlvTVJnM2E2V1piMFZvS1BjRUxNalVSVlljdjFTNStCdFY2am1hYmxwVnYwS3VTZGkrcElaNkN6VTlOMkt0bmQ0YzF3Nkl5NFpObVlEVlBnTm5OckVlNVpMUVdkaUJ3VUR3MEhDbzh0QzNETnJRVE9HSnUzZFp1enR4dWVUSlJSTmRPdzRlTnl1YkFPdG1KTjBwMEZyUVpvU3hIRlk3emlkM3JHcThkTmxZY2RtNzE1YXFPYzQxaEFTOGhRR24vdWpZTnh5OG1IYUpTVUxPQnNGcnBRV3hDZ0gzQUlYT2FxZGhqRVVkTDZwOXlnYng0bnliMXhkYTkvUlFNU3UzU1dDQWxkTy9adFQ3V3ROczgzbW9KTWlXL3RxUEVrZlFRc1FDREJHbkRVSFJCKzFvQUs2WEt4R2Mzems0dGE0TVV5VWNVbjhIblRkS0dLczd6cUJINE9SMkZmVEJXcks2dzRlK1V2a0pnN0w1WVdUQVRKY1pVM1Y3R2xZQVhWbDZLVm1OU1BqTWRqMWFtSk5MSSt4ZE00K2oyWVBJK0tia1QvR0lmaGxvTDdyVWpFR3d4cS8xUkduNDluTGdONnpJbjFnd2orU1hrOTQvWEZjVEpqdFFrL0I1UlB2ZllsYXNMOXQwQTIvUERTckpSeFdJWlhWZmJmUDRWcDVsZFg1UEVYM1dUQmxjbjhGK1o4Q2ZNaDRuSzJvQmJRVXY3ZVVCZlk3OEhRNUlocnpUdFJkYUFJRDVlOVJXQjVwWXVuT1VRa1NZYnBpNWF1RmUvOUFkRUZtTzU0RjQ1YjhtaXB4bFJkWkx1WXNCRFJBV3Zyb3NLMldoWTVkSUJxcjUwTDNSRmVwOVBJSkpqUDNuOG1TZXhzOGhaQlppc09WS09UUG9kRGlmZ3BVdWI2Z21ocUpIR0lSRjFWZWx2MldBekJvZEhweGZIMi9laDdQWmQrMEdXTEhJMTBOc1Exb0Vnb1Y1a2daTmR4eVA5Y2UwKzZoNUgzVmFWeU9SM3Yvd3dhdmdvU2lmNTk0L0RUbHdqZ0h5VXU2YXlzeVU5T1RZM21HeHM5V25XZmVnRS83TFhmZU53cVAybW5ZejNpZlVyaUFJQUVEamp0VVlmOTBGK1NMY3pBL0w1MVRWdjZHelJsc3VlS2w0eHZQY3lPcG9RSVpqanlEa3B5Z2pva1EyNWtJcnFVemFZMjlhUE5LTHR3SThGcEdpRGNNZzJTdHR4QWRGQzExR1o5K3lDcmE0cEQ2RVplWDhZZ1hiVXQrNmtYRVhadCtiL2ZlZjNUWVlRYmpWcVQ0NkVMV3hLNUNoWGVtdXhxTGNSbStPMzFsbi9wdVVwV0I2YXE0LzMraUNEYldJdk5BOG5jdVQ5RWFEbXUycnIvZi9QbGdpMVJmS0IwNWRRbTlMajF0bXA1WVNjWEQ4ZEZwc2h6azBZREZKMTJkaHAxa0hvNlQvdUZHWTdFLzhXNW51dE85ZEUrdmhKcnJkbmNQay9ackh1MHFLcGpRU2dpRmhTUFYvSEtYc3J0SXdqeUZHUFkrVjAwUEI0VDFXWEtiVlVETG43dWRqa0xYZXRycCtBQXVxNk94R3dmZmdSeGE5dlY1TWl4eG40ZHA3MGg1cjR1a0NnUEo5WjBCLzhPWjZxaTRNUlRWRUd1b3drRkVRTzhMQ212UGJCd0Z1QTZ6Q1o3c3ErSmJUMkRBZHYxQm5IZHRoL0xEa0JWcHRwRFNjZVpwc0w5M25TRHhwRTRnb3lpeDAyOHNvck1hcStGVmdDYjlJUE91NC9JWS9xaUVZMUI1U29vSHRjRnhDa3Y4d3BPVlF3ZVNwLzlKZWpZWUphb3hTTzMxa1BBdGpESE9Ea2x1R3hIOGNIRkRRODlyblRTQUF6WXA3dGM0TlRCanAvcHBkdXRPM0NwcjV6a2xvdTdqTXo4VFY4bSs5N0JoaFVsVTJNVFNwUjBYZUw4MnBzSG1GL2RzUHFYL1BSNnM3QnExS2I1WDdoVlpHdWZvend6dkJoT2h2TmE2eDhlckd2amFlUTdiaEFoSHI4QkJodk10YURndlRLcUQxSUtXL283OGpmWENCekxLckNqVzVBbXlhVTl6SlNrenVGVnF3UnpFN0JSempQYmx5KzNaaWEvZE9wUG5GRTNzbVdXcGhELzRjdWZ1LzZpMm9MNXB4eThxL3AvajhzWE9iWXB4MkZOdCtkTWFEU2ZTL1NqQlo4WEg5bnBsaVJlUXI2UXplOTZsdnprZHYrcUFpZTMweWRGZWo2ZkFsLzJLREFocnlNZXdscHdTQU9FZjkzdWJmbEQ4b2M5a2lDVWhZR25SNXlFZkl1cDFqeHA0K0VQN3NCanNhTnp0dzZycm5GQWl4ODBRVEc5S091WDhjY1FnQzM5TFFrVVluTld5NmUwUXJtOFhDTTI2NFRxVnBDRVNZelA4Nm50d01Ea0RPL3FoVWppd0x1MmVQZDJCL0p6UFNXemptUWxPQ1kxMWFBV1FDeUxHdlJ4L3VOWHYveVVPa3l4WnQ3Znl4bFp3YkFWY1pqdkhYaUo3NWM3NndaWFEyRy9DeE53bUIzNVprZEVoRTRYUk42OUJOL01kTUZxMUdyRTNZNjhyVk1VelhBMFJkM2NRYm1LcU1jVW1BckxCbDMxVm9YdCs3dUZaTTFqRjIrbUZVdG5JYzQrQm83TUVPVXMyNnpUQzdCNDd1TkFHNngyRnpRN2pEZ005L2FLZ3JScnhEbDljeTlKWTg5RkgvaFVUNDIwbHdldnVCNHlXaEsxWWNoaEwzSFNTYnphS1l0bnR5aWs4cnhSTFIwZnNOai9OYXk5TWsxdUdPQVZGcmJSUCtHeGMyT0ZKT1dTSHJadWZmZ1Z2UzduTWp2QXgzRGdlb1ZaL3VOU1N0M1NWalR4SlZOdnAxUU91N0h2NG9zWDRTa08raWI4T2ZEeWFIZWp1QU5QRC9yZEpBdkYzWGNya2JPcHFHZ3Q5L2lFNzZmVFhhSExZaDlYeEthcVdzZzdZT1FtZllQQ2tHMHQwbzl2dzZXU1VYcGtNUjhac3FnMDB5K0tKREhmSk10UzhUNjV2S3BBSXhjWURYS003SFRqYzF6TEFyK2lrMS9Ec0cxM2JJNFBCSTJFSnFiVEpjWGppek1RZUxJWFJKbVBKOEg1ZVhUN1NabkVzTXJNaXNFMUtQVE10YU1pa0ZVdmUwalRuS2lRT1l2dG41OFRwYVBpdDBiNTJyTDJ3d256SmsxUXJHTWlRYmcxRGt5VHZlSGw1NDFDS2t1c09FeW8vSERTRWl2Uk44ODBTQ2kyNERzVitOYVl4NUJMYkVqQ2lYNjA2aWR3c0FnVzlTdE1zQ1hMRFF3RzYrcG9mRmlYSFJTNjFwektzOHFZeDVUREpIeG40alhpRU8vaXFJb0VKbVFOUDVocnRCSWFPSFJMbHJhT00wcDltV2Nva1IwSXV0YWNqK3lZeFR4Mk1OOWRmMXhXcGFUZTdLaUt4amxqbDV5dmVXM3ZaVkdBYllCbmR6MVZOVVZ2R0FrMzF5bmZKKzN3YXFORkJJalNVbEJHcDdPVHJYRlExU1diRlpUMlZNZlpFSGduRTRYQ2dXNVJrQnYzU0dRTWdMSFo3L1p0aG1OTkh5NVBLZDFXd3RURGtJSkwrNEQ5SFJwT1BncDBMZ0tmV2FpTWdveGgrSVVyWEtJUnM5VGtyVVZQVVRwN0gzamNXRGNVYktNLzRBWmRZeDc2MjA4WStuMG03bWRKTG5sMWVJOEJ0N2d2RlpQM3RMTzNLUUpjQk5JT25RSHc4VC81ZWl6a09DN0FkZ2NIUFVxbk9QOGxsZHZsR2R6Vlo3ODg2Nmk3NGsvTTZuNXJ4V3g0d1JRcU1XNDJHODlXOEh5ZnIrNG9pV1dMajFlanlsaGNDaG1LeVdrT1N3bEU3WHhaUmk3MjdVYVo0ekhpaGVvT0krMmdIeENZMnJLRWU3UG5MN2JNMVpTWFR2N1N2N1VEbFYvc0taL3R5VUYzcUtyWUowczZPSVRyY2VwQzh2RUp3MTdUeVlRY2RSc3BKR1pMQ1pwSkNpT0pMS3NsdzV0ZWR6QWlVTmlwOTM0Nllic0Z0SmRVVlpsbnR6amMzK2VFelY3a1ZlbWlxMWFCajR1dGN0a0sxR0I1OHdTK0xRbVY4MGVGWENNbzZDdndhdFFjSXpsZ1VPbEtNeTJVVzN5L0FITHRRN1FoNTVJdmJJalRkb25YUUFvQy9PRDAvdWJzU3JRTVBEUDE5QkZYV1hqankzaklFMHhTbkZ3ampnRXBwWlVNRXZaQzhmeEpaSHpDSDFwczJEamVnWUJCRGh1SndXQ2NkVGJLYlU0eWpSRHBRcWZ3NWU4TkRlRWhZMEZXRk93ZlB4Vlg1Mzk5dFpCZm5nclJOMndJczJHQlE2Y0Z0WmFSVlpHQ0VpV3VDRVNsbmFVTDZvaFBIdVg2dkd2OVhVRm1XbnFxVEdqbHZJdEZiWTNWL053OHFoOTg0Qkp2Vm1pSlk4bmZjcEE3SEFhRURsMnlNamZ1T0lhbVduRUlNR2xzZGlWSjdGb1Rnc3pFZEd0eTFvcG1HRjZVYnErZUNpb2FhMnlIM3V1aXk4V3JIN2dFZlpNMGJuNjNpZ2Z6OGU2eDJxK0Y1NGVOYkNxUllSdXlIWGRJaXB0UXhwSnh4UUp0ZTJqR3lVcGtLZDQwa1Y5bUVDQmpKRzBxMThaSTR4NDhzTFNCMkxnYUJObmE0RW5lOXNaa3VzMUNpWklrTW5qMS8zWVZnV1ZreTB2Uk1XTm9uU3gxWmFwaDhJKzNDMVV6L1hGMlB0Lzc2R2cvemtELzJxc2doWFZ0NmRicmVUdUluaVMxWWxHZTZBTVQyM1RUdTdCakltVW9kdjlDdnMrUWNJQnFUY0VrU2NGL3labTdEOFVTeXA3MFhiTlNyemlhZFVhRXJwbXdhSXFxNllaUitmdUNTQmlFWUpQMm5RRmw2cjFCYW9wTmpraG9jbzF6d2s1bVBqM3NmSFRtL1pQbDRFNlIrbmE5Tm5Na0pDRjFYUzhuU3JTbjJhRWR0QnVSTURzcTM1QVdMZG15MUF5YzFwL20xaWRlVUU2ZVo5NER5QktEdTZraXNTU2NhamdVNDJHaVd0bVI1c1E0UFlPcDd3aS9KbnQyVDJIa2NLQmhLenlYNGtvLy9ja3ZZZzVVZWtObEpBUGdXU1FITDZieG53OG16M0prVUhSNmVRR1daSFp1ZExENDJGRXJKL1prY3N1QkpVR3V6SFQ0RWdPd29KN05sTVV5V0FsM1hVdzRhNGJuVG83UmdpZ1c5NHNZeDh1S3dHS1ZUc284QS9zWXlRbzJrbmVHcFNjRG1hRTRwKytuMklZTzE1NGVDMlgyb0xWRFNLVzA5aGtSSmtFSGp4SkxqRWk3YW9jR2ttVDRjZ0Fzc1kxVWFpMk1zSUtzS1RKV3VmZWplMmZzWDM4N0tFaDF6MzZnWkRqTkphYzdYdlp4NFBWRGcvTlpRcUUvTVhCUnEwbzRBeFM1MWVGeUpTcDNVM1NZSGEzcTJWQXFJVTJoUFNlUjA1MEcyRjZ2NnZJUmpJRFJVMnp4UU4xeVhYNmJzMEcvWVVycldMNUZzU0hHU290SHkrV3JlQzJYMXF3MnJmb3RhcUxVaGJzalZ2VVBHWWJGaTFrbTVYVXNCVWQ0Z2tIRGpJUjYyMkpLbmZOdUg1NmUrckJ5dXRCK25IOXpaUXIvbDJHN3JwZnVPTVByMmdmZkRDN1B6YTdFMlR4S245NGJSWnRTS1BUQy9pMEc1dTZtcXBFdUYrT3M4VWhqS0p3SXVzK2dZVXFpS0g2b3lyWUl2QWp2YVlSck5jTWVIRTlEbjdUdEhiSzR3NWdQOW9McFpoaGF0SlBNZzlzSEtBeVdzMlUyVEJDdU5WTW5LM0xyN0JXRzFNQnluVlQ4cXg5TkkwdlYyRVUzT2JDRjNEK2pnY2NZY0xEU1QwMm1VMTlnNlZWazlEWjJXSGt0TWVhdXMyK3ZoVmdXVEJhOUZmeDd0V2h5M2plbzlrdlpnbnZFbnhoUHA0WFNHTVBMNS8xdVlGa2EzY0RGNEZKbE5iQU1IVjJ4VE1Nd25Yekg4T1dsWGJoYVBzcVpMVEdhb1E0d1BqVWFUUHk3NldZcW5VNVIyU1ozOVkxdS9yTXU4SEo1TVRGUDFNMkJXQzBFNE1USDlNNUt3OC9BZ0ZCWGJ4WUp1MEdXSGhpV3F5dkFXM3pNOGIrOWQrbWZ3ankzViswamVGMDJiSGFiY2pTNUVMa2ltWWN4eFNxWHp1T0F2MVVESklYditPd09DMkh4WkRtZkdsWVBPWWFCVE9oZFVSeXJ0WnpHaWtlNWxod05QNlY0NnJuTndaWEp3Ui9TelNIblVOL1hLczF1ekQyZHc3bE0zSUhrR0syWWp0UTZWS0x4T3Zmc29JZWJmNWFIMVQ0QUsraWVqTFNYV20rZGs4L1g5YWVtUFp1Q005OC9Mbjl1UEo2TzdDMzlxL3FXaUx4eTdWcytyOXNkSzVpOUh4U3lDMS85WGN3ZW1OOXJZNndNblhKOS90S3dITmRwM1NHQTVMcXZWWTZQaEp6YjNndThhRmloM2o1VVlnT3pQbGZDSVovNTNiN3Niczk3RGZYcDdJY3ptYWViN2Z5M1pHSlRpK2V3Rk40Z3prRTl2SEUrdU54c3RhMXExcUNiVjEwb2FVWVFLSmgwczlvYXdyZk01R2Mwa2taTTU3Q09QazM4UnBjZ0d5V1V0em85UDF4Y3poaXIySzJuTDd1MUFuTE5EUUhmTjVrTTI5V1FUUjlzN2V3RGIvTExIdU40cDY4bmdIQWpuU2dYZklONXRtSG16MS9nd01xVVpEL2RvT2I3aWt5Zk0wME5mZEJsRCs5c3JBNUx0T241MWUxdElBbUtLQlJvbTJSYlB3MSs2Ym1rZlJFY29tREwxVTNldm41d2x6d2Vnem0vWW9zbDdmczVDUGtTY0hRYXhRTVVTRWx0cDVvalBVRTZMeEpBMldDL3JWSU4vNXBCaWZZNTdhU0hYV1FWWm14bjNTQVE5aitpaGpuYm5uU3NwNjNmTktQbC9GV01BU1NqTXFWM2Q4OVFRTWs1RzZIdk8vVEpEU2dPaHNPUmFPeFhpQVd1TVdid21lNjlhZmFGMDE2YWRvMTExWlJIcXV2YlNIRWRaWG0yMnNEU0cyZHhCWU04Qkw0SWlpRFlLZ1cya1hZUjhLcjlBYWh5MlZQLzZQZUgyMzczbUhUNk52a1Ayc3ArK2cvOWNyZmtTKzFqWFZpWXdxVm43dHNTWi9pbmYvR0JlV2dVN0hQRkw2NXAwcWlIdFhoVzMzbzYrZHVQK1VsdUVZc0d2V0tmSmQ3WWFVQzlGVUZOajlEV3hCdk5CRzRpdk81d1J6QlJDbG1vMm5xbFFpT1g5RjkxZ3RpK3gxWEpoQ2NnRkNaRjd0VEJHRUZlZWtmam1XY1FYTUprTytxUDV4dTNhQVR3RWNZT2t2aVBYVmMvSmh1TTdMVngxVW03aWV1NE9vTnVXbmp0QW1tZDVKZG92ZUcvcXd0UXlZQVBMSms0aXZLU3hGSk5mN3N4MExjNVlERlhhaHFCRjNSNkZwWVlVdGlBWEMraG9kSzQzMjczVXdXSTBaS3kweHZVS0diaGlpT2tVY2dWdzlBTmJDQTNsbXgybDBxaWNPdUlEdnVZYnEwKyswK1ZUTzRjRHBQSTFTZ2J6eGZQNXV6ZnY0b0Ezdld1NTBML1djS0x3aWJKY0diTEh0QkIyZFREZmw3em9ZYzV0eXpiV2xxM1dyY1lrSHBjZzlMTHZsZ3VZWStpNFY0MXRDM2RrWlhKbEE5U293S01LazhTM1FuQnRPcWsyWEhzTy9XWGhyUDRzZ0swTFRsMjZIRmlQK3lqWExmemJCSGZRVzVrU0tyc2Nxb1RwM1YvV0NLN0hIRjZHZFk3VUxqTDBBbDlsZVdKZGxvaWlEbU80cExBWVZYZTN3c0dHOVBST2g4Rklpc1M1N1N1RzVNK0t3ZUNIdVhUcGFobHpPQVRWTEFwR3I2cU1PVENZR041SGJBeFVVWVVMRXZnVVJFNENCU3V3NXBaeFgwc0E3bkRzcGJkeTJCTFNpdHFEVmU4emFTektMcUQxblYvSzZvSExTUlZLRzAwWFBTbTlmbVlwSGtKak1oelhOdFdEcTdWTmtQRm03MkF4SmFVQnc2NE5TSEZOSGNUS3BXaWFBSXQ0VWVYdXV3NjJnRzVhZzhtSUtkbDk2Q1NaSXdQQXhHckhsREVaZXZOYU1KVmR4a1FhRmptSk1QeHVnaG9uc1JkWCtEUlo2MjRtNEo2RXdrd1NFVzlYaTFBQjVzMVFXaDF2SGk4NW5WSFZGRkQ3NVpYQmZVTmdheENSY1hDR3d1a0FUWTlYdGIxSk5GVjNsMklkc0xXTnNsZlAwK3N4bUh0UEx1SkpiSFpoNU81K2RVd3ZiSjVNUmtNK0hmYWcvNEIwbUpZVzYvYzFnNHp3U04rUVpiNHdxb215eXdjWHU2TDVoZllPZjRvSWdoQmhiSEo4VjMxaG9XM0M5U0NETllRTml2ejRlYzZVSHNDZmdPbVJWM1AvbkxxNjRkUms2T0NqbmovcjZSMFQwWUNhREd2UGptZnplWjZPeWxsaUVLSnRQMlVsVWdCTm4yb25namUwRlJGTkxwQ21CN2N4bkh5cHRYcWk5ZjNncGh5VzhwbE1kbHViK1RNSlZaTkhMbWs2KzN5NG9tMmRnblBrM0Zjb1RaTlpQVzV1NEZqQVI4eFN2ZVo0a3JQZE56djdpd2s2eDlXTE5rbHlmd0hYUDYwSy9BalQwSm1xZVBYRmdNQ2hvWDliNlRqK1BVZi9lTGhhQ0x1WmVNQ1ZFU2Z6ZDREaFlxSHdMc05tbE1NcjRrOFN4RDJCWTJlRkJYTnVkVnlWZkx2VngyMHhxNFBWSHV2TmJuZmovMHZKZS9KamlUYkR2SG9GYVZxK3N4b21yc081RzZKOVJ0OWdZWmtuVStBVWpoaFg1alNXQUoxcnN1eW9BMzNTYVBJbENSWjJXOXpxMkpaem95anBHVTYzZEhFdXNlUk1JZ3dnaWhKeWxCeGdLck03ZFgwV0ovVHhldUsvVkdabEpyM1pFOVlCNXBBVkRBaVppSTBEUWxmMERVN0dOQ1dXL2xRK040RnczWUdySS9sMEZzVm9TT3krUkdGalByb3ZXYWVKU3RPaXh3L0Z2SFQrVHVnMTBPT2QyVzFoTUEvcnh0NjNYSnFVV1h6N2xGT1V5VlZLNGQzVjZBQ2RYczFiWDVNb0lNMC80WCtIM3RoVU9TaWRZMWwxV1p4Tnl6VW05elVqUmM1Wmcrc3FDQUxxeHhOTENmbUVySEhDNXRUN2pFUkRmMlF2Vm9hUzNWcGVMei9ZOVdaL1UrMTNPaWZsNW1mbnJSa3RLWlE3R1E4ME5uV09xL3AxRUpONzVGWTNkbWw3dFdVdmRKUnFzNkNJbFp2dDV5cSt3WE1WcDNkTTVob1hFWXBRYnJ1OWUyUkJXbFFFdFBqS0FITHY3OTN1L0lRT21RYWM5YjJxZWZvOHMzKzIxb3UramZYQ2o4OTlYYk5PTzBQV2JZWXJwVFZ6K2w5WC9JblM4eVoyMDhkcHVtdzVkV3o2S2NodUJob2NlMm4yMU5SYWRqaHpuQ3NXV3U0L2owcEdpOWlURm43MXVaRE5TY3VaZE01czc2UEI1Y09HTGNYYWpvZnlJWWh3ZFpadkdXRUdNa0t1eDFDTWN6WHZXNFVSeDNxcUkycklHQi85aDN2SEdSM3NheTB4N3hmTVl6eExkOFpBZnVveWpvY0FFSlFra3BrZ0ZRbUN4aWw5YzhuY0VWTW0vOTQvK1daN0syOVkrLzVjdWRMRTVLOFUzNzIvc1EwRDIxK3J5d29BeUxTWTdPRmZLQ3lGRXlLa3hUeVJacWNBYnlGY3ltd2xkQ2xST2JDZzloR3RNUG1JamtmamNGS3RoMk41MnIraGRoS3I5Qll0VjVZeXFndFNPMzJoSVJ5WE1KZEtHRXk0b1ZUYmtaOGV4aThkVVl5dkppZXI3dFoybUVBMHRJaXZxWVBKcHlURUpQT2VzODMwb3dzMEJDc2toZXU5SHBwMnJVWGFQUzYwaVFUeGt5VXhaaEZxN245U3BvcHRXN3FrcCtHZ0xoSGo5SXA3STBMdzdWSWE3R3ZzWHNCY2o0YTF4K1g2NVZEaWF0dFg5ampsOHB6NUZFKzdhSmNoV2lEek1nRWlDVzFKMHV2cm9odjcrcDVGVXR6TlprZld4UG0zM1BodHZOS3ZXUWxaQ1pOQmVJaURMU3hRVnRpRGUzdi80U2hNL3Z0Q1VNeVVOdzUrM1dtYzU4Uk5UdTJjSVFxczVaRi9vKzJwMnd5NGZRU00xVVU0WE9SVWRKcHZJRjdRaU1SQ0tZWml0T2lxamZTVlZBOE9TVEZpYm1LRU00Q29iREIwU1JCYndiQmw3ZStwckhOSzA4Nm9jT2xqanEyOWVEWEJRcXErU3lJN3RjMVpxeGdpa2VtTjRnOFhBM0JLWnJ3WlgzZHFQQ25EQnZyV2k3M1ZsR3hSa0YzVWNpcVJNcG1KdXpLN2RBUGwxZ2dUSDNNMENlWEtydVM0VGEySk9qZCsxQTJKWHByOWVRU0NGSWh5QjkwQ1Vsdk1tWWRETlluRVZ4K3gxYjFJSmJUcURneEQ1bDlzckFVeG9vVmp1UjFNd3dnOEVLTDV1QXJqL3huV1NUQkJ3OWdiRGZkdnd4TnFsS2phc3ZzbXhqckxiTGxYdDY1UVpPQnNlNTBpOERWM1lGcEo0SEtmWm1HczZuY1Z2NHJVcnNmZlNub3FjNW1zcGxGTzN6SG9UaHZrTDVrNUc4L1plcGNjblY2aHdOeXJBaXBWWXl2eG4yTFBpZjhkckxDQkI2dVhSV1dKWm1aUklaQTZ4dzFWcHkySzQydGxRWmFrbExJYXZGMno1YktMQW5vZWlsSzNrcG1YcmVucVZTM280M3E5RVk3ZjJFcTcremMyYWpUcUJPbFllRngvUkVXTUd4dHdDL1RCRG1QeDVOTXFYaGl4Uk1JZG1SU1FZT3BkRFRvV2tHNjVTQlhWd0xCQVIxT1N4R0hXWW5HQjJaSUxURWpjb0hsMVBUUGZpVTNXRjMxUE11c1dweVloUW9Sa011TXkzYnBvNi9RVU9UcXowc0F1ajJyQWtDWlJkN0xicUM0NzduaWFpa3JHMDY3VVJtaVh0eXZIYldEbWRSWjRDRmZNRUJUUDZ3Y3JoODI4WG1jamRJdU44bFNMaDJWcE9uMkpReGt0T0JaMEJ5U1lOUm5CQ0F3aE83MkdyWm96aEFsS3ViNzl0RXQ5V1JxNktlQ0xjWUlSdVNwSkdTYlRkUjN4Z0xDK3Btb2RhWkFsL0Q3WUtNcHVNRnlhUTZENkhSKzZJdXVkUEZnQzlpcXIvSm9KNjFUQlBNWXpzYnpVSDFLN0dQcE90Y0dnL2JIdFFIUEZXMEo3ejFIcGRINzVKWWpnaXExK3ZzVUsyUXJuT01Yb24yRUwxbDJXdldjMmQvaW4zaGhtOEkwVWlTSVRoazVQSVloYkNtMTUvUFp4YVNyZ2FwZ1pDVWZEbndwQ21zYTNoYW9lR2dQdTB2Y1VWWUZ2ZHRJaHEwS2tSSHdJb1NiT1hVYnJXbjhDSFR2UmppQi90RlJrZDI3ZWo1WmNqUTlEcEp2cTAwNHR6VmR1QzJib2lUSU5oTUJwWGU3VDE4YTQzeStGdGlhckxxUk1VeTVDNXdqVUdnMjJsbWFabkhpb1dmYklmMW9hcjlhME9lWXlhSFJzalg1THBqQ04yQ1BQVERRQ2xvMVpVMFYzY0NqUDJiMVRjUEZmTDVZWUJMMmxuSksxWFFOMVlwaG04YlNRdzFjREZVNEFsdS9DRmJLcGNJK3h6QWMyNWdidnFLZW9zcTZaZnpNOWh3S29NQ20xc3ZLdmZGd01obDFYYXVGa1FXQjE0dkFoYWwwaG1rYmlqWjJYVk9CQzFkWFh6Z1dGVVVpSzVPRG9zZjlSMHJsU2VmTDZvYWx5NnFTN1RFTWdTRnVlZWRhWEVEZ1dRWnJPYW1xSDRTZFFwQVFIT2o5WXZ2L2V2bTg3b0tSZXFrQkwzd2szenBBQ2pBajdxdkNoKzZCRi82MGJuVTZjUmhZTWsyY1ZOZkRwdnFMR2RVRzlZTDRWNjdETTI4Wm10QkVnQmRrTGFvakJFVVI4eGNyVkZTeUF3R0RZSkRaVXBXbUtWazVWbFNOZ0lKQnRMbm4rUmJ6VTFXa3NOdDM4TkFZYkxNNERGV1FWMkd3a203d0xWWEM2YWJad1hUZDVMZ3ZueURKU2pkWi9BV2FKQ0gvUGM4UkpaR1RUemRRWEpPaTlKWHVlTXBaRmhPc0VBRElCbXdOamNwWXluS1pHaTFVU0hzMGNVd2pUMHlHTWFmcUdqdlZ4SGdFWmF6MktPRXUxQU42NjlTWURDc0ZqN3paMzdTRlFsRUVTSE1IQk0rRkp2VG1jWno3dFl2SExyaXVOSHRoQTBGT1ozdWtIa0JqWUJ6SkZDNk9jRjhWLzNWV0ZJdkVOb2FoSkpFZUdzWWxzTG5mejNtc0dmckwwVGZ6ZGpyMzkrNmFPT2c4ZHN5TGpqVjZ4bkZMZzlJN0JlMFZPRTB6L1pTczZrWmlDeFFoWW9kMlFMWFFSSGd3b0pFTzZPbkJRR3B6RlEwL3lUTU15L0hnR1BPWSt1bmFnajAxWFdJRVRaYllST2VHQWZzTHFna2xYRFc4aVRYL1c3L2ZrWEExQ05DL2ozK3VUYittWHVqZlhRaTZTYVo0UXlBRnRIT0dFZDZ3dEIyV21aNU5ZM1hGY3huV1lHejdFdjFSMkcwYmlIQWhjUU1Ed1YxYkY0RDlHVTZuSU5FRVhvTXB1Sk9nVlRTRzlEbWh1VDd1SExpWFFvREJQWXZWaXBmQWtyNnU5OEJqNlZNKzk0MVVRYUN0YzBkUGt2ektXYlp0S0NMSE1TeU1UM2tTcVl1WFVWQk41VjFiUlFtZHRvN0Zqc2tkWGtDcVkwa2NoNUh4Y1JNRjg1a2J6em92dTh0U3BPU3pMaThzRkgyOS9MSExwZFBVaHJxSENISnVRMEsvNCszMDcxZjNEZ3lEL2ZEU0xrbWU1aUwwdDZXRWtTQVNDY3pwU0NBbGp1UWJXM2lsU0xKdUNraWVWK1NDRkZVbjZuZUY5aXduWTVsR1V1TTg5cXZFM01LS0Z4aFpObXdaT1FLT2xUSXVvd1hsbjNCY1ZUclJFajBvRTlGYXZBWnhqZ2xFSlRkSXFMQTFEb3dsT1Y3UUM1VktGZkdBZDNxaWhSU0xZMXVpWUMvODNVeDNSMHdrVFh1dDE0Y1FHZDBLUXk5ZHNBU0drL2FDdEhtbXowZFJDS1c4RDJLMnNSTEY0Snp4L1dnd0xwNU5NcXhnU3JvKzIwenJNdXEwU3IxVEo5dmN1WS9ONEJVaVYwcWRXYzhRRFRuQXVzcEdkVjB3bmpqQ1M0cE12Tk0zeXR1SFM2L2lZdTg4dEVOd1dTdmI5TTdTOHlOZEVoV3Q0QUJzTnk0V3FCb3BwWkFIR0ZMeUovL1puLzYvODZwNVlUb1p2TnplK3dBN3ZKK1J5WlE4ZnU2Qi9UNkkyTm9VN043OVluM3hJYmVPUmpLRlo4UWZBKzlWemh0aG9qWEUyYTc0SnNvY2c0dVAzK0t2cHNNZ0I4YmZuRDg4YmxRcSsycjlZOE9jUUlwb3R0RVBSTStqQUpDNTRrRmc1QThCdGsrdFp0K0x4b3ZrZk9XNHQ0a3Q4TG56cDVsRGVmbkUvd2FYb3RGbllVRE5iUlVUM2o3MnhHbjE2KzdwVjJZS3QwNGZNWUNIM09FUkRib2thdTlIZGhlc3dkVUdtMnkwUkI3cHZjMGZtMHMzNC9KSncxelE4OVNJL2hOTG9YSll5RmR3cVFzQVlZQ2ZYZVdhcGp3NHhKUXJjME1PSFRvb1JxL1dFaDdFTFA0VUlseWxGMWM2bmVHWUFOWWE2NjBrajZJM0R3cGZYb09na044ZFFxUVd3OUhRTlBYN2JENm5jK0NQNDJPQnpYZ0hEYkU3Zno3TzRFN3o1c0xnRlJkUDlKVkdhekVhQzYrNW9uVHBIRllTYy9oS1BtUG01SFdrS1lmSGhFenlKTDU2Q0Q2Y1VpaXlYOERpQmNUaktsT0tmVWFWVlNmMnlzeTkxMmVIK1pwQ0E0d2oxQ2t6K0tndDhDenZQVjZQKysyMWc0eE9ONzhKVXUwenBJUnQ2RGRRZGFBTURpNFJrRVpyZUJJMjFXRU5FbG9rWWg4WmpxZTlIU3VLT29QeEpRWWd5ZHl3b0tTTytHdFlTTmRkU3pKMnlMTnhWajBQbWxNdk9lM1lhVFcxMkNjVytvV2oyWWJBeVYwbXRtNXlIQzZWaWZnYmkvdnkyZjZoUjNFMER5VUlQcHpKK0pGQ3BnMEdVeFNwcXMwa0RPNGIySmZOejhscXM5aytCMGwrMEp5ZW5kNlRRSUNJWUlIbE55Yk1aQ3BVVTNkRmhHYlRIQXA2M1dlTlk5S05zVU1VR2c4aHRua1BLUEdjRmJobVF3elBlT3MyQWtBcWU3cnNtZHZYaFNWdGxzbm5acjM5K1VSWHg2MWZLNGhjQ2wwc3g2TFloWldlNHpHenFhM1RRYUYyTGlQandSaEZXa283ZzlEc0twYW1HYVlPUnFJWlpEVmJxamsvS1hHdGZZUkpleWQxeHFiYnU1YlF1WUxzWnozL3g3TFQzbVdpUFppSVZ4MkxQVWZyTWRsWm93U2pKQktSWU10R1FZcEFFUlZGN2N2UmJESTVETHVZZUxVRVhkc2tFaVN4YXVNYjNjRFkrRU9MTGI0WkNvU3Vsb3RVVjRncWh1MFEzd016SjRFRXF5Qkk4engxM2VVdHVVZStJOUVVY1pKbU96cXo1VThuSGxnTXpTU0l0WGU5V2M4ZmJkcVFORmFpcHBrV0JSdVlPcWVXYmt3Wnp4RDhsTmhxdUxWN3Z6MFN5ZGVhTEt2YWFmYW8xKzNlRXlBMVgxbXlmbVFoaHl6cWg1STV0ZmV1OUxWbmJoNVhEOVBqUEFZOEVVYk9KUytqV3hPVllIZ1JIZytaQTYvc05ldWZIYzNvcXVzNFlUWmFNcUtxV253K3h2NlFkMVhCc1hpTTNyeXhLV1F5MTlsb1JaSFZja283aC9mMVVabjFCZ3ZNUFMyZlUvUjBXK29pcUdqN1NCUHdlK3FHS3o2NXBjRWpDaFRaelRsMFo1YnM4ZWZVc3lVUzA0MDRxNS9mVnBES1pHNldQM0d4dDM5KzlnT2ZreVNkL3ZqMDh1YjI5bkZpYy9RTENQK3ZpU0dnZTc2eE16U0lQN3krNmJ0MTcyWXZsK1Y2K0tmZW5KMGJsUU9VbThEY2kvS2xjSDdZbUZ6YlRtdDZnZEpMYTJQd0QvZUUzdk8vamk0ZjdxZkdpa2NjRkkzRmNMSkFzRTF0RGZPWEVnMkZwck1rSFA0Ty94cGMyQnN5NWRJWktjS2lrNDBuaGQ3Z2dmeTA1MXFHNlRXYVJudmtNUENJSmZNNDVNZ3QzWlpEMEtsblRvRHlZRG1jN2xqVmcyVnh4LysveVpoYkxobm5XY0o1V045SjRRUUQwZys4K0xpdWZnbXZwdWpERlZXV29Vc3Fma3NzaVlURWptYUtRSlJVWGUwS3hkbGs4bHdYUkpGOXBqYWplS3g0N0lLQW81eC9iRG4zVlZHNVMrZ0doUDFzdGtQak01ZHJ2UDkwQW5ERDlQd3FlVUFBdk14eU5MWXlrakNZZ1VpeVVXV0ppUk9samxiNmtCYlF4a2k1Y3ZaSDBuMW1rV2xpRUxEVUMvKzl0L3pLcFVFNlhkZ3l1bmRIalA5Zjk5R29rVE1Hcy9xdHJTdThMTk5Ndyt3SU9BeDhxVW5vU0NoZmlaSm1HYlAwWGxLRUF6b3pia2R2QlU3Z3plYVp0WnRXTG1XS3VEbnFyQ3J5YXdNVFI5dTlTTHprVkJabU9EekdzZFdoZ042YXA3d1pGYnhMQm9jSFRUSFJvVkYvU3hrUld5NnVGdnE3OE02SWoxb2wrekhhQlpZaXlJMEZmR0FZVkFwYW5ETitOdmZXT0xiZ05Sc01MSjhHQ2d1VmtBM3R2cWhLb3BhR2V6VVdzU0JoVjlnSnBkSWFLOVhUU2hBbHRxRjROWjFmaWFhdG1adDI4dHNtdmNLODluR3RnMm54N21sODA3dXNWMnZxNEc2eUkwQmxVU1phNGJQbVBsR0NPN1BZMDR3eHkxRDBZK3lOcFpXVmlRRjBmVm9rTGt3SC9vWGRNd0pBSVF3dGgwbXJYSDI3dUprS1pQYm9LVTIwdFFkZkJNMFZzajRpVmVpY05UcDlNMDVTNE0yR2RodGRKcjFRdUl4YWpaeDlDQVMvSTJidUUybkQ3eFlyMDNTalhpeThSNXRpZUdxWTI3d2ZYK1hZZzZvVkJvUkplMElzUmFka3J5cGlxWkpxY1BwZlJPVE1vQ2k2UDJ5WVEzZm41L3VIdy93bjIrNVFMQVJDQ2NaTzZOdnhnMU5ON1dudmFqeXJWOWl1NVRYSzlrTzdEU3lUMExON05DUDRaLzVSZXovVlJSTUFBOHMrTUJhRklqQ3VqR0s1dzhPbTRONy9QQ2JWNDl4WFNiYnlGUzBaVHNaZStkbGQwSWlvTkxQckhBUVpZejkrY0FZR0JwYi9kVTNuWEs5aXVVK0pBUjM2UnhVM045ZWsvVjd5ZTM4ZFdFMHhISzE4dTJnU1VWcDJwSVdOSWsybHpnS0JqYXVpb3RNNVZkL0RLVllyWHVLbVYzSFVmUGRuaWhrV1FSV1FMZjAyZmlXeGluS0w3aHlnRGdXOS9hbE53Ynl4OEllYjBlZ1FpZ3hrZlVweEs3Wk5XNExmSVQ4VUZlSklvVklwV0wwZUdkRlpPMmNGVGVQZzNVc1pUYWFna3QxVGpiWnp3anRuVFNZNDh2M1hucTRZQmxOWlM2TnQyNGxhZTVoa0FDOWFocmg0c3FyT2JyMzJFT2VLMHZjV25WY2ZjQ05pNWs2bU5oS2hmT1pVd1FoOFBTM28raWRYUG5lS1VtYmN5My83RVhTMDBYNlZrcmdqU0l5QWkvSWhGOHloNTJGMzJQaVlkeHNDOTBIWDlDZ0RFMnZ4N2Q0ZFRKa0ZmTlZ3SEpWVmlXYWtsQlpFc0hPS3dVN1BLc0dWZm5yaEdnTlduNWpHNXEyS2NDSmpmQU1tT0NZY2QzdEdpSnlySEJ3N1hCVk9zQzFlQ3kxdFM0RzNDYmR6b3JKTG85VXFhbmUxbFQvbFViKzZaQXViQWdJbVN4VmMxQmF1TVM1L1lMSEhGd1RRckVhNjhGUEV0aHQyZGtHVkwvcjl1bTQ2RVM1RGJQdURESWRCWXVwOUw1dzFPK09xU0g3WDBTc3NiSHVoay9paXh2N1FMMVZQVTUyc1lHbTNaVTB5NGp2ck1vWnQ0NEVadEpmUTdoMFBmMjJBdzBUUHdjdXRhSFNVaGtzVUZ6ZXFOUlJycm1XeHg1V0NpM29mVHlQaDNOb3czVEJZN3J3d25VeE9xNmhpWWMzemhlMDF3RDc5eVU5b1V1R3NobFg3TndkemJENi9jSEptdEh5Y2t5aTVHNmpCOEl3N3luWEFQTGg3bDBPbnZQYzhaZ3gxUlhINmpvdTc1QU1BS09rNDREZzJZa3RZSGl0dVZPNjdYcng4Um5oQWpFMEZjVUF4SUREYXFLSE5aMHlTM3hPd0ZGWXp5NEFoZzdtVjhQVks3LzlQeG9URzhZYm9YWHBEcWJMcUxuTGYxUlN4YjJTcHBBSTJGdmhHNy9PSTdBWjdyN2oza1VhQnBXNWE4S2F5U2traVdLWGU0Tld6NitaZm10WHhSR0pxU1RobXBORm1RUFY5QUJxeWZjMko1R0pnOVRsLzFHaU1rSnppalJBS0lrSXJBU0M1VnVjNmFaNDh5anBqTUFyZHlnMThadmxPUnliQW9GdnhaTG1RUDRMWHByRE9QRTJUT05veW5qbW1wRElWeFo0ekIvMDhTenVnYW1GdUN0Z01aYnFsVy80b2JVR0V2b0ljYVpuTEVNNHdRZSt3d3lITUpJRjhPUUo0cTdLUzNrajdQQjQvbXBZa3VmWU1WaTdoTzh2WGNLaGtpYkJZYXhoVUs4TWpWZXhJVDVJNDlDM0dLOTZPZFZ1M1dPNzFEOTk1dG5TVDNhbVBmOCsySUR3cWN0UWE5ZWhhU2lLQXBWcDFYVWVocTQxSmxrMmh3Nm04RndRKzN4T1FSYnpidzFBTHpnVmJZNklQN0EwZ210QUdsWjM5eW5WTk41Wm5xc21hMm1XQ1BLK2JJbTdwRlpmQTgzMHVHZTVJNkJHdmp0TVlDYVdLWTBpZ0IxZ3NjU3pRSXFwVnNuSnZSRDBUWDJ2OWRxZHJ4ZERNTk9LdlVxQ0djVmhySU9sWXRNNFovZmIrVUJaMHV5cEtLSlFTdEtEWUttdmpqS2tCMGlKNFN5UFpOSTcxbURmZFN6a0lvazk4TXBCVVRhYlBQckJsSHNyUXRKVW9DbngzOHdXR1lsV2pPL2pCbnhkWnN0ZHhPQUlEVXlSVmo4NC9DYjdXREUwUGg2UGhjR0NCTE5idEtDbDJqWHBSTG0wZjFWSVdaYWxaS1ZjcVZiNUhHdHhXKzZtM2xLRHBSZEVkbnB1MXlWSng1ZWh5ZEk5UERHSDVVVGZMaW1Jd25neDZtK2lOSkFMWXg0SnBqNHFwSk5NL29HUUppS3o2MFF6VlUycVY1cjdmOXRGc1kxS0xTSmdqUkVGS2wrRVlaeU5rclhsSE1EeS9iTFZNakVqQkRKTjViVk44S3MvenlXelJnMUpvczE5VWl6VW4zaXYxM1pSejZPbzd1YmZTdGo4aVNhSENSSThHSzVxaHFGSUNJaGZVM2tGd2lnTEt2K1hMbXlSamduVXJpYWdlYWFxdVY4VXVuYkxnaWpHQ2FqanNYTEd0V2NxYkdJbWpDQXhETVpaT2VBRXZJTFdwWG1Rcm9zSWlJeDdPbEY1SkdnZDBTWXZOeHdzeHpXQ1hpWGhZTkdobFpOV3g2NG1sRXF3Z1lWQk13bzZGSEhlNTRVdUtVTC8zVTFkS2kxL2RzNVltVUVqUHNjMEVOKzFudmNTTjhoR2VnM2IyTmttK0VIZDFMbzBQOE5jZUZ0OEdrWnhmWkMvWEJCL3hwQmNuNUlibGxhV2FyWEN3S2gyV0luRjRzdHZrMk85NWptVklqZ0tNaklaTjk1bTdrLzNpaUtVcEV1UHpiOCszY2FzZzZtUmtMNlZhQS9pTWxyTG5NVU54cjA1Q3lnemJUdzVpbmNlcTFVKzlRWmR5bVN5OEp0VWt2R0JaaHFidytwYkVtTXEwdlJaVm1MZC9zRGN4NTg2czZ1cFc4YjdxVlVwbjhPckQ1b2ZweEJQd015OUF4SmVuOXVLRjh2aUpsbjVjT212Mll2R21ibmd4cENKWmNqazdlbHczUEtkcGljaGQ3ZUgzYXliMzErSkt3OUxLOHFjdEE4aEIxcWkyQjRuV0tTMEhXUnBubVRvR3ZKbHd5WUlnUjk1KzJqZ3VSUjBjVmppT1JoNmM2allIUWx4VG56c1hxYmFDZlJLSC81c3Q4NS9sWnZOK1hCQWtoOGxSQmZFL09KckN5dzZhNm05cjdaOUZtdjZKL0dEZUc2bzBEandEVE1IQ1JRb1UwWGJXcFovaXRrRTlpZXQxSTZwYXYxbE9obEF5SkxCWWFtZ3RITHRUMXg5N1hjT0J6MHNHQ05FWU1Jd01Pb1FuNmJBbzNlUXZTM0xuV1MvcEQ0RjFXeUZidWROTitVYko1eUFJTHVORzJBMHFjajVmc3NzVVh1MnNBK05odkJLU2hXZmJqS1RLVDN5c29yaUh1TGF1NFZRaHhqbmMxa2trZ21UYVFwVnpraFNhWmsvaDF5Q3NRbWNBN0JYZG1KRVY1YWM4VmgzYXhWbFpsUTNuWGtqejFiMG5DVzJWWnh6VGdwMU5sN1ZGT1J2TWQ3Qnh1NUk4K0FXcllQVUc5UzRrRWVpWnRKcTI4VkN3N3NEdllGaXBXVDFEWWpMc1dSaXorNWhnMUhWdDI2RHd2T2M0dG1ON1lSU05pcTRqQ3VoS3daK1Y2aFdXRG5Lb1RGYjltVGVnVU5RcXNxUzJuWnhKbnQxTnBrL2ttaUphUkpoeUhGUmpndWxyYlNncEJ5MW9WYUNESzVaRmdBYk9QRHVHRzZadW1KYWgzZy95TGNUck1veVFFZ2VtV0t1d1Q0V2dPa2xhZzJndk13SFpXVWdQK24za1E4VmdQRjlnb3NoWGNrY1d4UkxDclpRK1BTbzJ2bHlwU0tjYStJeEtWcWFobDNhODc4c2I3aVZ2SVlQTmpHZDVab0hIc2VIaTBZMHQwam8rb0kzVmdqUXRzclJGTEZxcitJR3hJckVkVzQ2WTczb0ZMbXRtMi80cW1XdnkrYTdpWHBEbCtOaS81UHY5WGlwU1lHeGJRREZpQmRhQTFycVVNMUNkOXZFSkVyeDZtUTVyMHZIcHFkRXVLenRnNE1BT1ZSQ1lTSys5aXhNNGpDeHgwRm5YbFVuUUVzYUZLb3p6a1g3SWlHc09DY0d3dlJSdFd6cCtwbUx1YVU1b1dTcWJwcnZGYWVDcG9nSUtyd0pibittY1JNZCtoYUtzeW04c1VWNnRhSTFSd3B3UHR3ZWpBNTNGcGlCRGl0TkdQZ0dhVjdGSVNXS1pHa2F0T3FxZWtnVkE4MnRBeGRWa216dFdqUG95bjI5UTJ2K0c0WHFkYzV3ekpPc3ZHZ2pqY0tub3pjU0paRHFXYmxsMFpTT2NHK2ZZbEt6WDhIcXBGSHBhdkZaakpVV1cwdHM5ODVlcldIbDFKajUxN2IyR044WG91R2MyNnhqVXVVZEQ4RFU4VlBLckVYQk83dTk2bkU4OFBJdGtlQXpkYUhUYXdsYVgrS09va2xrVnpRcVNYbEVvSnc5eTUxN0s1VEhOOUhkMWRJOHNoNm1XZ0dOWEdpcGpxVUZ2OXJQVGhkWGxPWk94OTViQ0VSak9xRTRMZ1VwVncxd0NEN3JySzYwTGMwVnl5OURCbUtsRHFtdmFtZ1k4c3hMWjRjWWZuQnExYVM0eUZJbWlFSGRkQmhpVHB3MGp5YzBTTm9DWUN2YUEyakt0UURrSVcvOFVKd2dKQVBERnJXQm9KaHBkS1JaeU10UG0wTmNBZ2hORm0wdlJzdUdHaW03bGlPMkZPUzhic1VGcGVIVnBuRmtQNHlpSStzcGtBTzBaSFErYk9HRWFodFg2VkdUWUV6N05yQVVnckZXcnpDUk9acGEyb05DYUxFLzZsMDNZdE9RQnVnM1ZQVlBnTllJZnF2N1JCTkx6ZnNTekJpdVN3S3Q2MGtDaG1veHFLNW9wa3FoeVd3bVA4YXpTOWlUc21yb1dWWHcxTmRqeCsxTEJKaDgyMGNOT0dHWENna2x6OGdlcUJkU1dzTnNTUE5FRnAzbGVHSHVtZ05ZTXMrL1ljMGlPaEIzNjhER3VSbENLNndlK0xya3Z3OUtrRi9xeTNWcExmRWZobFhaMktXaGVONk1yK24zbTRiUFBqaGl5REVhZENyOFNWSVBQY1hkNVdCR1g3YmZoVXo1azRKMEp1SDQxWWxPUUpWdWZFU1RQczQxNnRFcGo2T1cyeGlwUGJOcUNQVzhDMTFGR1VnUmFYZkxTS1BTYVNicCthaVJEUkZEQmV0Y252QlZCUjlIc0NXOVdIbE40QVl3eDUyNGJmdEpEZWs0elZxeDlJeEFWaDdyeUpOTkh1Z0pGS3EyM2gvT3B3MGVIdFVoYTR4UFRkNDhOMXFIdjJkZUhvUVdVaDhwenVtMXhNQXBRMHR5YnRwYUhVdjRUaW9ydnl2dU50OFA5cnpmdThpVjE4OWg2NXVobDE3aGNjVVh1YTdhVzQ1aCtIOGU5bTQzM3dmM241c3NYbGZXamE5emhpNFJhUU1zQWpqU3NTTHlCbENqdlpwa3hGQ1NkU3lSY2VXU1U2Q3YwaHVzWmwveXRrOC9VL0N1ZTUwZnVxWDNuWUFQN29MTE9peG5ackhUYWpBSThMUnNSZTJYWVJWWGNTSHFEQkFjUUo3NUk0Q1M1SmJLbjRsYmROQS92TGRuMm9ubUJPcXBZWi9QdUc0dlRVL2RMZmR4aVJnUE9Deno5ZGZDR2ZLOVB4VEhCSkRuSkU0MTg4V2lkWjc0V0NiUjVueURKSmY4bk5FMFNqVkJUek1GR2ZITjBMQWt5ajVaVkw3aGNaeDI3bXpBWVprWjVqVFRsTy9NWlVlSUtqSkNqOHVjZ3N3SG9GWHJiZlk3TGZtVzUxWW55d2ZhazhQTFZzeWNFb0VLMmd0bEFIbWEyZHNsYjhpZGRLUTU5NmllVGx2anljNkMxMk44dy9GSk1lMUlNSlc2SitubUcvdGY2VEpSaDhvd0xVM1ZIUytKL1UrbDA5bGUzZGdOK0tkUjdsbmErMkxwQzdmQWxzSEtlbTNQVFEzVC9mS0VRTU5kZDR2ejljS1Q1YVN2TmQxLzhKZ0lzbE9jbEN0ZDkzdzlwaWttOVhLSSt4TkFUenByb3g3SGVTRkRaSm9UdzJiMGdvTjVkUDBpcnM3L016dHlLZzlOcWg5YytieTVVZHJVa2thUlNEVE1iMGxsOEMrcGJUcWIyNlB2R0RWU1JGSHNDcjhNSHZvWFZaSHJlVkJWSm9zdmo5a1pqVENLcUM0K3ZrdEI4YVFqejE4ZFFOS2w2U1dIcndKQVhobkhqcEl2eG5tU3lySEhsNmhqR3cyR1JsRExLWUt6NCtmaEExdjNST2J3MGJkREk5S0hnRlRzOWFaRHYzb3FaMWJZUlhjUGROdE5YTldOOUVEd0VkRVp2RW9JVjlYck1KYmFRYXNDaHZ4Y01lMm0zMjY1anF4TEFRdUliRW8zdzgydnAweXFucVovQzU0R2VLdzFYL0wyZWxtVEg3RFJKdGkvN3EzcTcyMDE3ZzRBK3pnY2xINCtUZmtucjJkbDRtNVZzZjRJejNpTnhvV216c0JTNE4vVXc2T2ZsYmZLdlAzOTBYSkJSMDF4NTFIOG1hSk16L3VXSks1djU0YURrSzNFcG02ODJKTWM5eGpxT3IwVGJ3ZWVIV0dHVFpETThyNVZCYmliQWt1amlpT1lyUVQ1ZmJ4bCtFcytqQTRWT0lwRWVrT05oSEllSFlIR2ZOem5EeUJXc29seXBnRmc2azdmWEtnV1Y5ekowT3BxSnRhc2NFYmZYZEZ5bnNWanhtZmNhZE1vQUpueVVmVUl5OVRvN1BsbDFtVG91bVR3T2hxcm5vY3YwMlZmYlQza0R3VkFJcE13YkxYQ2JpVTlwWHNxZlhmUlBLME9QcmhmK1gzSjhwVkZxdjlkN211YVkvZWFIUWY4cWRVU0JvVkF3NEV0cHpUeCtxRlRDYXNESnR4eGNPbFI0TE8wTVVlOXk3dW1EcHpCeGZyNjJrOFkxUjBma3J4N2ZQdDZhUFVVSTNORW5OOVZWenBMUC9mc04zZGpxV3dLSkZNczZ5OVpsN0d5MkE3U1lkK0N6TVM4RlFJakxidnhtRWlsUXZiU0VVVW9GUy81V1d6VU00clpxdDhpSTF3ZER1VzEveW5YaFM5dnNXbWxxWWM4V3NYYkZJZ2pyVGlZS0FFSVVHUzA1TzFtVkQvaW9YN2s4RGMvLzVkbnJVVEpmb211bkN0a0RLVk1sRi9NMWJkbzIvZjQ2UnplZzZrREJKSFNGK1FQTlU5QzZPbjJacGlyZEJIOEdYZW5DYTVSM1JzbGw4TGY5Vk9FcU9sUTRzUkFwU2RBMnR4VjNReEtEdzVhZTQ5aWhlSE5JaDZSbUwyL1RYd1RHZUdGL3k2ZDNQRlBGbW5RYXhqOTEzUW1IVlBEUy9KWkJZL1hpYnRtdFZFWm5DOTRNdTJtV3BsMjUzbXlMWHRLYkhNd0piWVFyUzJnaVFTNE9tNmgyTEZqaHAzRzd0U2d0YkZOc1QwY2ZhazdZQmNtMWVUc1JDYjQzdG1rZ2NTb3phMVUvaEk1R29YRFdjQ09SVkFPWEVvdE93T3FERTdQUGhlZ2Y1RU1BU284SXR0RHVwdTRIajVYOGJYNVhrbzNFR1VSVVYwMFdaUGM1N0xpb045a2I3N0VzbzVXb1VYZ2JmYUhuaEZnUDkweHJtSEVKOVE2VkxOZll4aVJ0bWdPUFpodm1jblJaK1ZzTlNTSHVQbDJIeWVwL3EvUG9tR0dNc1c1c3BQTjlsbU9ZU2dwaGUwcTY2NDVSZ0poK3JyQ0dZVXdJUmhzUnllNHF5a0M5K1cweTJOUzlLM2pKWTVYMk00bk1TNkRDUlRlMGFGL1lQNVRNMzE2QzBpaTVjZ2tsUXRQQjdxRHBHdi8vekhEVi96c01pVlN3RHc2NDZUNkpmdG85V3dYZnV5WndwVlh1b2Nwc0VwUDg2N3ZCMzlvZTdhR1JGTFVWcVczNnJKYWNFYXVxQUVTRUhnUmJTbGthQWcwZ2wxMmp6SHhJVWhRSlF6V3c2ancxSHExRkpmNG1mdnlXYlAzYWlTMUpGR21Ld05DajczblpzU2lqUDdGczFGVy83anAwaHM3c0pxSDZTYTFlcitXeVIwYnU2SUpsQnV0SWYySmFwaWxMb2lDTVN6c0VjdThLYmpKUC9QUmdnSGZxVFRkdVBlSTRGa1hTcVdUamNqY0p6ZVg5OXBjMEl0bHM0Tmh3N2pOQ0N6SzhPUVVmUFBYa2xUaDFBVjN0aWVlTy9mRnhmcjdBS1hxUExlQTlyVjNuYWcyU0pBRGczTUtJZEtCcmF3SVlzcTgrcy8vRVBJMmdHd2ZFb3ZBNmlsc0hUa0R4ZUhRclZneVJ4M1VDenpYZGtUTFA0VElSU3plM3plMXdMRVUwM0F2aHVVYmM5UUtOSmdncUhBNENrL282aHF4djY3ckwxQnMvWE52ZzhCUlVpaTZteDVMQUMwcmRWR1VIMmxlM0xRNHB5RkRoNDdVWEFsOWdPQXozdFB5L1MrNnBOQ29wbXQ3S3FZTmcvTmd4dkt4cDZxOU9Bd3Zia3F6cTlVcDRxMkJZbmxjTXgvYzlZSFl3Tkc0azZyaVExNSsxT25RLzNYODlQQldyTDhjRmxjaHJqb1dscFRWdkNBUWo5eEsyd3p1bUhiWTZldDczd2FkU0RVWnhzcWFwd095Z3pXNWtGUFk3N0xwU0hRWUZSb25FK2ZsMXM1VEVHd0VDcll2ejZlUDkzZDNWNmFqZmZrTEpyZmFVYkRZdzFGb1Ura2Nzd3hEdzlJRFlrdnJHUUtVNWxLb1NuV0FyNU05SGtJRm1vanpySklsWExPOGFON0U5SklERXNiMENUa3R1TDlQUGZlbVdCQjFvQWswYXQ2YnBiUlJCeXVOWmg5aVMrcVRyZGNTN3FEWWZTZjU4QkNtTGc5QUcycmhqMzV2cnFJcklzUzAxdTVKMkc5OXlKSjRYTS9YUE15emo2bFdwTFc4Wmt6dElubnJCMHh4TXg2MHluR0R3S3VjZEJtSGlSWmRvM1h6M0gzSWExd0JReEhHa3dOMVo1M2ZtSG9jdENUcjNERW1JTHNZdlhKeWRuZzdUVnV5SVByUjVjQmRKeDRKK3JHNWZpY01nc1BVV3REbmVsQ3Zqa0ZJakZMR0tYYS9MRGlnMG11ZjR2TEdtQkNBUWxTbWRjSStNWlhraHZIMHpYZWI5WXJKQWE3T1RJVUJaSnVYYVFZaURDdkx5SGV6Y3ExK05RNGtFVEhDQ0tKTkdvTkJrSWg2UE5wNllzTkNqVGlkeGxldzdUL20xYkl0RDN2YUUrc1R3dDhhOXdyZ1diNENsYkRaZktGYXVQRTRpZUkzSndxUWx1UGJ2N3JzLytsbHhoTExYYTFYem1VY1BRSk1wTjdxOUFXVE9Ua3pjbTJrb0hJckNMUERDUEtUYzFXeWJ3Ukp3N1pPWnRkYy9YRmxrTWdVY1lNYll1MkE0MDNHdDc3d0FWVFlCdVBNWExkUWhqTDBLRCsyTlI5L2hRTmdkWnNyTFZjaVVsdGFLZk9jVENSdTl2TWI0UXE1UnlWMTI2T1AvK0hQMUtKRWtyTjFqUnFBUm1YMnZpaGhZdFVSSDhjZ3ZvWTZhaHlMWHl6d0QxTE5YSUdCMDF6L25oQ2lDSUJXRlMwV3FIa2pqTU9kemt0R04vQnJoKzgvczh2ajlwZWhhMXovOXA5Zm5uaWF4TEMrSXlrcDE0bU5vS0t6MW9WcUp6eEdrT01TUDJKL2UwRzczMnFPMldxNFZtVkdOL204UEk5TTdhdXgvSjhaV1dzZFJJbE1Hd2VCN25qTWNJekRRclpqVENwOW1mdGsxWGg1dkdJY2JLOU4ySWhRSUowVEFKaythTVJDNDM4Z0FiN1ZORmxKbUM4alBGYWJEd253WW1IeHBQMTVuUnh6WTI2Y25OenBORzJWY1Z4V0pJNkE5R0c2RlV3Z0N6ekVVcDJtS0pQRFlodUNNU2oramgzb0psR0FsQmFra1dWRjFKKzdsYmVHSW9YenljaU5zUzVkbExka01Ud0k1MWRoM1pSKzFiVk1ZYW51bkJDbzJ4bGVLTHV1NjRYTFA2aXFLT3N4NE84ZVBSYWlaOW11bk5RMUxiVU5wa1BaRURrV1NaaTZybHZIL3FjM3U0SUtzeURLUFZwV1hhTDBaN3htR2FXaXFJdXQwRzY0NE1MUnBZS0xvNTdGR3RvY1F3TFcrWk51V3Jza0N5d3FxYWRLbmRSbjQwWEU2YW0remttWjRuWnk3VVFYclVFTU1SdFhROVdWajgrUVpXWkpWM1hJY1crRTRlMDdFQ1J4eTE5V3dXWm02UkVET2ZZdWpBaVhzUVNMSFNqSTNVUjFrQ29IVktpWjZuZlV1ekUvT0JsT2FsaXREQkU4Wm9XT29wczR3RE11eURJRmdGTitFU2xsNlVaSWxpYU0zMGJxekxxQVZhVVhYVFYwZzJxN3MyNDNwdGxvOXhKL0k2bm5aR2RlU1l0WVhnRWtNVXhNMjFhUXBWY2lQQ2w3cTNzV2x6aXJ0emJPLzB5RjRjSnBiSno3WldvdjhOU0RTVXUrQW5lUW9wMmVnVXhHdW8zQ3RXc29SOFpVZzhFdmkxRkh3WnVpVUdqT3pQbCtmRTJDcGFnWVA1V3pYdld2VEwvZkpab2FsQ2JUUXlaZWxMR3VLeUxJY3A0TFZxVUt5SDdTNDdSTDlKRUJjOTZRaXRhVEd5VmZlTG1QWm4wTlJjdk5kZi9hdXQwQlgvdmNWK3ZZNWxSemtWa0t4MjQrbTY3S1BGQTBFYVlTWC9EZ09zVSthR05hTXI0UkpFaE8zcVVhRGFpdHhtaHBQVGVpUHVyVzhmak9YNE1pOTZONks2cHNaK1NFODB0OTFEcTVuUmNHQ2h2LzNESDF0OXRkZVd5T3pLRnpSWjJNZisyMkJzK3U1YkMxRXZHT2JLbThxTW8rRDdPV2lYeFJaWUVSRWRmMzlQVWpId3I1UFNKbjZkcmlNbWNBYnloa2d6dE4vZ09yRmJiUnc5eVhiY1hRS3lnT2poNGs4VERqZlFuNWl4T3NoVkFMZlI2dmZXRWZmYnVmUkxzYlIzcmt2RDRLM3lWdFBxcHJWS1p4YklBaVQ0c1pMYjlXM1h1c2syVDNoazhUcDdGckk3M3E3OHRjUDlQclRjeTc2RjI5aWJLNnhQMG4zTGZXVng1RlU1NmRhVXFzaXJvWjhYK2ZOVkNJbnl1TE5rbUpNZEZaUGViSW9rZ1NTSnNITGZxK2YrQzhvaWlFYkpKbk55R3hHSWhXcWpuc1U5cklJWjlOdVc1S2Y0WjlqLzZ6N3oxN0hhRE5sU1NXY1lGeEdNakxJZEkxT0p3blE2UzFOdDc2QWQ5d3c5aFlsV1ZHSit0alZBWjRjSU9iK3hYNEt3SXpvQ3RLd2JXTjZ4VTc4WGx1R0g0eEpoN0hJL0lSUW14ZDNuRVJ0QjNOcE1sVTZsa1FlL2t2c243VlZqbEIzSDYrV3F6V3hpL3Q0Z21KWlBvbGNsVmVaZWlreUtQaUZNVHdkaHJHZWIvYWIrMkVrTk9Md2dQWTNtWmFkSGtpK2lzRWVTQ2xMVCtvOFJIcGg3d3BkcnlWK2Q5Sk5rSEVRTEZCT2JXd0czUklSNnBFVkcwTEpvU1ZvTWZ3ZjJTL0NKUy9Rak9UM2g3RkdOdUdBM2lZekVqWE5wTzl3T2RLUHI3dzBtTGFxUWxSVGw5SGMwNWh2WFB2YW9SM0V6TzdXVWhJdlZFbEZTaHduRnQvREV0ODhsS1hCdEtCanQyNUpRTFJwM1dkUlJxc3BzeGh6Vm9VemI2UHdYN1M0b3NNcmhqbmYvUW5Hc2xoS1lSdmFvT3lnRjM0OGNDZ29jcU1GS3ozRHdXYmxjbTY1NU5GOVl5djB2Qk94MFE4dWhvdE5kS0tHbDJSaUxkeEVFQWdDQzBlN0FjUHVtYkxnaXQxd1c5SnBZMnZ0RVVPU1NOUzNobG85Yzdzbjdock9qSXByYVk2V3g3SXM3WEkzUm1QUEk0VXc5SFZ1bXdoTnYySHJ1cXBzZlBvdW0waE9yeEJtdzVLTGJIVjN4SjUxQVJ6VkpRenN6NVozbDZIWDA5bnRDdHRoRHZhaTFza1Z0dkIxaXpwb3NNQlJxNEc4SGVBNG02ZU5pSkVUS0Z1cnU3TDU3Uy9KdWR1ZnZvR2dKd0x6NStBd2JFd1V4eDNWUHJpbytWVk1ueWZqVXgxa1ZYajdDNnpHYjdncEYxenRhdnlKZEJIUThwN2g3dkZqNjkvK3Nydjk4ZXVQeWVuWlJYNE93b0hzV20rVUhkSXdTeGJJZVZRTWp1NWdaL0pXZGE2NnJVdXptUlphVVpJV2pzQzA2aGZHeEJJcGVGQVBEVU13Uk1nSk5LUTkwWUthZUhUVVBtbldjVE5qMERTbEZzQ0JZcTNNeEVDTEN2Q21tQ3Z1bFRIQXhpS2hPSk5ucWEycFdBU3J1bDVMSXYxckRXRkVpOTNrUUhCQ09wMm9oUkV5NGFrR0JxMDZMejlLK3J6dVlFMjhNRXBydzlrZC9TVnlaRVRkWGZNTTF1eVBaSmxveHRieUhRRmhJdkpmbVNnU04yL0dMeDgvSkV3TjVCMmNYSnBzbEQxQnpzTFNvdjlhOW8zRW1Takxmd2hsa3RTdDNEczJNbGF6WVE1QlBmY2NEaVI0eEFWQk1JbHhINytKcDBHQTVhWW0yZ3hHLzUvRUdZc21sRXVwSXB3NXF6NDJ3NE5nYW14MFp2MDRsOHJBb2dvOG0wS003S1dQRXRHMEYwNFdzSG1yeWZQT0VGdm9wMWJOL3YxRUsyblhXNm9LV1Y4aWhRTVdhNXJhV0FXWXBUMHRISkxTc2hYbGI0NjYzUi9aS1FjYjlYdDltYkdCRWU2NjIrK3RXai9NZHBUdmZ4bHpzMVcrd0NjWFk0cWNjTUVwK01HWHNKSjVQQmhuK0ZaQXQwaUpXN0FoWGVrYXF0VWFnSjdVQlVUdmRwTWNSL3JlRVlza1pNNWs0eVdEM3IybC9JbnNCZWpwZGp4aVJ5ODYzRUhNZlZqQmFMWGgzQm9pdEs0bHNPeURvR0ZyNEIwY0p0eVBldEZFcDRxbEJacmo1S2djS1RrRUpUamQ4MXRkUFZLaGtUWmFyVjQ5TkpRQkl2d3ZWbG5kN1dKMVo5V2djZ09OSDc1VkpudUVIbDAwUFFIcExBNHNHbGZwVE01N1NNLys4S0FWVytBSFJ6WWE1QUVOZ1RVQkF1QkN4K0krVTl3aFNIMWQwWFNaaFVFSzVrbkpEWVBBQjFhWFJUMDZOS01VdmZ0RjkzY1VTMGZUSUhqTjN2ZnQ1ekh4LzN2dHd3WlQwWjRJZ2ZZMGpudG9WQjRDb0lkcFBNY0JiS0ZGakVpdTc1RFltbHVTSWx0bkE3TTFyK1lPQ2poaitUMTd4T0RXZVdmdnJMbGNDNlBUb05nUFY0QVlMZEtZMU5XRUNnaG5LZ3orMVZVUzQ2ZW5ueHVqZE5RWHV2Q1FvRnhhUlZjNkFzcnN6cExnOGtSblFQT0RuemFEbzVpQmdVQ1pmL3NRUnRQNVJUeVlINkdoWUN2eUJTblkwb3o5VmFlQU5MY0ZoVmRkMHg5NUwralk5R1Exb3NqcWRudFhMSHJpcFk5c0NEeTZsaUp3bGlVekkvNHE5MnpianhIRFE1b0JwdU1tMWtNVXlRNFJXV3AwcllTKzlaRWlWa1ZuaFBwMHh6YWkwZVNRSldrUk9hNEZHaWszYzU1aE9MKzM0YjMwMGNEMVBwZFFTM3FEbEw3dldDb0hOYUFpeUZzZHoyTm05Y2VqSWpCY2hZUDloVkRKbWlLTXc0WDhpUGVTREZSTGh0ZU5vbWxCemNrUDFZMFZMbWxMcnkvYTNNTEQwZ2h4T2xyM2YveWVmeGtaMUE1MERnVk5mK1J2TWFtelhWcU5pbGkzUFJFekJaVTRmbTdkZUFNQjUwakVlSHNyQTMvc2FpUUVUU25LdDlTMXRKakhwWTBaaW16Qi8zblZvSkZkQlQyUjZVUDk4YU9BaTR0MHZ5U3N6bDlaVTVlZm1nMEFkd1A3Z1ZwZ04zQ1EyVm1maW5sczFVN0duemUrR0orYVVWejhmczVESHpBUHRJR3dZYWdwcU9XUWpmK1JyNCtNRHZaTmZZZklhWmlyaTNZT1R5K2V5RGVIUFM0ckRNTm12VUlxbFVtREFXQUwwQXcwQXoxQXV3a2R2bElmd1N3YjlBTjNMR3lYOTZpNEQ0a2prYWFvQWlVeXVicmIzNzY4Qkk3ZFQ3U1ZzRlZ3MXAvSTJUZ1p2M0dLMEFHWEwxZG5mNzc4NXRuSkZVTGZZSVFDWU5FdVpTKzNDUVNoaDQ1TFZlVzRKVlVPS2xmakdZeE50TnVERzhRQ0treUJBYnB0WGlRQmt2QU53ZDhTYW42NmhjNDN1Q0hPV205ZUowaTUrSU1ER3JwMVdZNnpNQzRlNnVZbHdBaXJMT3JmSExqOStIcDRiMGMvVjNHbk1zRnhKekpGeGQ0dVhXdzZvTGxHajdvM2NSOWRlSHVINy9KeUUyN3ZJd2pUNFhOcDJyNWxRci9IUi91Yk14ZTNTVko2ZVArY1lid1k0Nmt2VUtvR1pOazQ0MitSdUtjdzFWVy9BNjBxb3k1bEp2R2JZUlJDeWVRWEIzbUlHdXVFa2hPQ1NhYjJQWEFwcExnTmc5bGZYdk45eis4VXMxMk81LzVBUHNRZ2pJQ2l1MmhGMFJWQlJaYllIcWswaGFDNzMzUWlWSTB3RGhlVnFvcTIxQXpLdEtRV2tBU1hZZTRXQ3d6SlNObDdyYnNwK2laZmxlUHRZZEdLWERod01samdLVnJiN3d0K21xU1ZaR21FY1lnQ0JuVlM4SlV3d2lla09nc1ZzOWxrdG1mM0h0TlJqdWlwQndOR2xUMFgwOVVMNTJ0WVRibnMzbEIvZERjMWNjejdDUGN5OTFia0pWQ3ZDRzJjOFF5cHdOa3p1OXk3S09yY1lhKy9jTVM0cGRQYjNYemRtOGlidU55SkhmbkdjOTNrY2x3emhNT1owTGxOYzYveHRvcmIzWHg1ajE0NnVpa2NQaTNRYTE1cW5HOGNDMndYZWh2MnNVTXZ5aldFY3g3blBjOTBDb1hEcVI2bER5Tk5rOFpqNDVscHpoTElZUDM2dnJZOTlBdzdCVi83MzFqZ0JJWVd6cktpb1VDVi9Iai9JQnJNTkxUTDRhSmNlczdZMjRmaGJzVjFLLy8rWlRBQ2xwTUJ2c2dxNXlnNXBSK29lR25STkh3UXptOStoQUJTWXhwQXJOeWwxN2tYUmRTSEJCSGM2SnFNbExtZVFlV3Jmd1N5L3FJR1dYUWl5K3ZjMnlIbnoreHJkNTRZQ3hmL0xXWUs4Ukh4cW9reDFicDh1RTBlSU9LNXVWclh5WTh1NFRNaitWZjBkMUdIaTVzN1F0M3hXdHNLM0MxM1MxMHVyaW9icmdSaWk4TXNFTGZ1MGwvQStmRTJLWC9rcGFPS1hQUHA4WC9LcXV0Nlp6b1haQnF2alJjQi9sUjdZcWMyMzM4WFJVbUtrYjU5NTJCNnVrTVNhOUJNNHhrU1Jma2VrNHk0aXpCdXZxb3lCY3I3MUxpTncwRm56Ny9TZGRFYkVHUmV4dERYd2E0U1ptMUQzY2U4Z3pYVzVVdnE1djg5Z1BaZVhxTHZmL291U2U3Y0FlWXdFc1JZQWNTRGRPOEpZWUl3OGxJK21TMTUwK1NSMnBUeWRHYUJnb3dCc1hkR3RuR3JEdGtjZmdMdlNLSlFZc3hvQlB6MVUycHNEQytJSWwvQUs0c3FIK2JNZkU1N3FwU3A1bkVrL2ZPQ1lydTlvMkIwaHdKTjk0cDZCbXcrT2w1YmJvSHpzM1Ird2M5MEdTMGR6c21QVjJQbkFNREQxc1FlbUY0ODRRdjd2U2NFZ0hyeG5mSENVK29nN3ZINGd1R05IeWlESlJMTmg1S1Z4UzN2L1A5UU1aK1JDRUxLNTh2cTRnWTFQS0lqQVJYSFFXeWZSSGtuWHVvZGlhSlV5NGxFRXo2K3NNRTJVblZUbE9UT1ZCYUN5WnJBVVdUaExCc1JMZFM1dTFicWJuMDc1WmtieVFJMWE3Unl5SUoxcHI3V2hBNVNhcmgwaHpaT0o0clpFbXVzUEhmMzhQUTAwY3NwMkRsK3ZJN3VwVUxBOUp5RCthY2M3alVuazFFL1BYbzNHWVpjd0U5YXhGT1V4Z1BpRWRFWlJ2Y0VTNW5JclZiSzFsQnFWUklZbDM5TzZJUnEyN1UzWHh2bjYzeWpYMXBham9VYmtTRFdDNSsvZE9Qa2xXR0ovT0s4TTdSU0dldEwwWXBTcHZMdklDaHltQnFzNW5XUFBHZmJ1c0xTbkNSUzFlTWpVVkswckxtaGRqcFJPMlRqMmM0Q0oybU93M2ZrQjY0aXk4RDVPNWdXbmhXMmp0UG5taTFsVFlHREEwcjNxTlZrRi9iQXRlbDNJb0VwMFNySzJ4aStMZ09IcVVQc25ub0UxUmtuaUlaWEgwTSt4aTJRajZ6VXh2cUpsVy96VEYwOXZpMUxkMFd1UVZ2ZHYvNTdJdk0wUEpHR09yMTE2ek5McXk1L0tKNjdtd1N2LzIvUGl4ZldqZTVnY241NXJpd2NlR3p0YUJOWkJGN2Q3dXZGQVZkVU54ekszYWs1T0dTUHBBK3E2OU9Yd1BFTkVNeit6TVVwYjdoeURJWVl4OS9NN1VBMmRrN0ZkTXNvUm9YQkU0aUpzKyttVnJFajA5RGIvcDhmWnZSZ2ViWnUrQ2Z4bFNDd05Ja2RST0I0ay9UUTRBS2VQY3hxaW16c1JDdU1wcW1oREJJV1dSWDJzSWRiVVRCekZIWUdZdi9iQnFQSzNZdkZ4ZWFxQ1NsYVRrOUZPSm9NSTFtM2x6djd6TnBJejJWSkRFV2dIVFdFem5GL0lBaTF6WndCVXp6akRwN1p2eXZRZkpwcGZlc2JUUXd2bTVVNkx0ajk2aGVlVFlkcEswUm43ZmJkWjV0bWNHb2Y5SHRXbHh5TDlLMnpoSm5OTjVGRmxKaGRaZ251eXZWZzVsb3NaNm83U2llK01UaU96c2pES1VPZU9jdHhNZ2R0OGJQY1pTbDhNN1A3OGtNZ2dwZHZXR1pvVVAwRFFzOFBLMnFVb0FoRFlaamVqazhJcm1paUtRNnFYMXdVRjVOa0lYQncrSk9uei9Pbkowb3pNUW5HbzJlcVNEdUJleU8rbUpSS0FmWUxwM2xaQjJ3TFU3VHhRKytrc2tzWkhqUlZvMDBuREUwejJnMGp4L0FIcnF0MXp2TWNYN21Wc1ZyTDNoR1pkYXNIS2FwcHFDeE9DRmp0a3lmWGFGbVVGVlhuS1NucHFrM0tpVGxxV3ZQTWRaVnpMQW9JYmd4NkcyK211U1k4V2ZZMnNlcklnTjMybnhFWUtsQ3VFN2ZYdm9MREN4aU5JMmhEbU5ZbmpJeHNqVGcwaGdQenU0c1FMZThvbEc2cDV5eEFuNWdsc00vd1Faa1hWOUswbHpZdGlZUmZ3ZU1UM0xvMThxN0g0M1o3ZkZGVU1JRlRDckdoT2RVK3VXczB3Z0d0MVBIbkxmTFkySmpoVUtVTW9oUkxLQjNYbDI0YStwYjBaRDAvREV4eFIzajFuWGhlalB0RkhzZ1UxYllpb0N1YTVRV3lScXBPZS9FZC81WXJBdnR1a3Q4ZTdsZU80VkJobFRiQzhPSHlJblRSeUF1YTJnSGZEeFVPaTR5WlU0TXh5ekUwMGJBL0JJblpycE55MVNYYkh0b3dCazZReUlZdU5YRnBmVmh0QkVJS1hHdGNqTmE2QzRtQ0o3T05kd1JoZ0NTaFhzcG1SdGgzTXpqcTBDQUsrcGZOVkNybUY4c2VSUE4wZjhGcU9KSEVzRU42cWZJdHo5L0xlT0E0Vi9YbzVEMktabGlPcXFTdGt2VDhOZXhGYVYwc29sZWJrZVJjeGhHSjNtL0R2Z3pvMElCYW9NZTY2d090Y3ppWmYvcDV5NWJCN1NjMVRkZC9hKzFxQWdadEEvL0hyR2xWTVYrK0hjZXRuWHR4Q3J4OGF5Vi8ySFRoeTBTcDh1Rnp0bU1qQWN6cm0weThvTGQ0QnhqUXhNV2pBQU5idi91NjAra1k1YzBaZlRyZmtlTlgrbGNZSVBEd1ZuSStIbHR6VzVaSWs2eHhmdjVlaFVPRUhIeDVzTS94Z29pdE1JR3RaVFc2VFJsRmVuKzZ6akVVcFc2NzNTMlY1MWYrSHh0RlRjYTNLYndQLzdjWnlLNkRqTXU4WUNlOTBaSVBWYm9PK2hZU1RkaVdkbWk0Zk5RbXhUMitXTlZGaEdDeFl6Nnl4UXd0Z1NlcFdrcWpVZE5nUmJBS1ZwK214SHg5N2FIQmxidDJYYi83WU9EeXh5WHA0ZTZlN3U2K3VsUWpiQVE1UU1GV0dyR3FxUHFFcmJJRURuaWdXOWR2ZXJpU2lJN29rbzM1L3FKRTByU3JTbmdHUnZpWnBYam1ZTEsyTXlIZjI1OTNNSmd4c2lVNkJWK3FobG9rbmRzNlZlVUxPZm4vUVQvd2pHK1hMclJtK1BNR0lvQlVCbk1hbFU2K2loWTYxWVQ1OEd6WmE1SXBNQUs0bDQ3YkE3Y25VVnQzUGVHMXBZRDdwcnBJTlV6OFVDOEdkay9QYUxlVHdCbkFrbmtMWjVHMzlBTXUrZW1mUlFCZGd2RVRISmN5bzU2eHR0WGtoOWdpemJaTVF5TmUrOUxVMUFpWnhqZTVGZ0dHb3JHcFRCcGFPRzFXVHlNNS84SHFqa0NQMVltbWgrT3JhYk1wamRFYVhiSUljbUt1c3o4ZU9odUN4RklBd3N0d3FHeks1R3o0U2R4WEFKbWNpclpIRkw1cSt0M1Z3RmJib01RMG9uaHRBSXF0VGdtb1BHNUtlSnJ0QjRMbjZ0TGRmSjExWWtwb2ZhLzF6c2NpTTB1Z29YWnU2dm45VHo3Qm0yV1RUaklXTEorWVFHeUtxZ2NVa3FEeVBKVW8xbEpzamt1Nm4ySWs3RTZoQ1JRc3BIY3lHSE1yYlg2aEYxY0lwbkc2ZjRleVVwcjRjbHdpWUpQdFNhM0duS3FhVXRMcFcwN3FzZWlQajNXZFB5V3hhNzBlZG93dXZOaS9Nak05WUhqTE9uZU1HTUhZRjArMUgrUEFhVHFNeG11TktCRzlySk1CRHg3VUpEek45Z1BCYzRlU3Uzb1dyUm0wUE42NmI2N2thVHFXU240czFGUDlIOS9acU10bTRjV28xY21KVk9xMWcxTHJKWUwzeEFZWnREL0llaCtickRiWmhrYW1oSEZaQjZPWURTYzJ3OGVkOW5VejUySlovQ25uK1p4Wkx1RVhha21QK2dBQ1dkaHcwSG51WTJzY1hobTZwak1SZkFPcnE3c01NSHFBWStXUlFqSU1yNGQ1YWRURS94MUpaRmVRdFZCOTU1bHlHYnRrdWIvaVlUWTJidEMxZ1NDUDZFbU10bXgwaTh1YkR3WUpZTXRvWG5KNDNoSE8zb2V2OUJHYTRiWUUvSjc3SXBlb200ZEh0VU14QlVKYnVDNjRMMzhEQ1hLWlp1U2xwREkrYS9QNi9lem5MMHZ1WFlqcDgzdVNycnU5dFpZWmJkSS9scVROY1RUVnFvK3hFNmtsaXJrenlmaHh2N2c4aEJsOXhrSTdleFRuSzVNbkdTaWJGUjRPRUxwYlJOZW4zZTZjdXUyUEdvUlNkTGtwWFZHcnlJTlNvMkZnWjB3R29PeXF1b2tXT1l4TVhwbzRjQ1c2a0ZJbFNUQ3d5SEtWSjNkRG5wQTdvOE96QlAzTzJINFo3MmtnVEtORWtBWDA3UFczazhsb0ttbjAzOTdpMkh6Rk9Rbk1ucXFLT1h1SUVOR2dRaEwyUUJTUytLRnFJdlZHN3Z1TEgrQ0RaYjAwK3liaXpZeWMyZTZ3VkpmMWxqd0ZwOC8rRWh3SWJlOHl4MU9PL0EySGoyVXVKZExTMXVZN3d6L29iTlhZZ2FsK1JWYy93MExlZ3FaSEwwbDF1RG8zTnlaTURhM25QN3owOGZWTG5YT3FhVmk2NEhPSWFUOExmeGZtYlMxQU1FbGl2WkNUN0NGZVRES3B1bjVlZko4NXdycnA2L1lMZTZ6QXgrb3hPZGkxZWcyc05yUTJ6TldQRmtURkgyeVBQZU5ZVllWbUhaaDVYamxWcEJtYzFVUFl1a2lXdHpFSW92VWFMb1hWbElaUjFOcnRxTFROOXV6NmozejU2ZFZsUDZ6VFZmMGYzNEFUU1hIRG5xZXRoNG1pc0xEU1h5R2RLWHlBMVVwR2dJR1pzNG94SzVTSkV6Um5oZXBheEQ1R0d1eTBqbEZ1NXBQRlc4Um5tTlZLaWg3MHI5d1lwc0x0MVN1dUQ0V3dpVzFPRUx2U0FGRUVTV1NvcldhQzJFRW9IVkpyNmR6UWRBZjQ0Q2lqdHJwdlJiS2x5Q3MzV2FQTFZmZDBCWWwrbjh3cHhoSGlnTkVxR0FOODhNZHA0WlcrOGFoSXUzVGI3YXMwUlZKdGxpTjJMdDRkOHRBQUZlNFF6cVRkeFRySmZTL011NTc5T1RndzJnaDBzMTJtNHVrOTMvNm5Hb3ptdmpwYXFuNFRERWhIMUhKRFByUm0xODRGMlhpaVA1UjVtaWFoWXI3MDJqcmZIT3FseXRBeXNtem1udW1HanNCditBOTVwV3JWWkpzWERuZVlKb1loK1YxZUVubStQTXk5Um1aNWVBYzJWWmJ2eWxTT2F4cEZPd0FPS2JJWXVGeERFMjBNSjRvemwrN0tlSFJnQStkdEYzOU1JNGdXekE1d1lkdWRMdkZJeEE4WmgwQW9LVW1KemxpKzlDUkZHNzQxNEZRZDhCcHg5SUFLbkF0eEQzcVBiNVRFemFHaGJMcEtxblhyUEo5dDBWSnVPS2RiVHZ3Z2RBMkRxMHRBRVZqd0lSQ2x4bjdPNzRmOFlhYndiWUNtQThmV3F0Ymd3RmFLVGgvQi8zb0daclExU3NiUmxFcXNZMC9BbSs0QjQwd29uMUJkYUFiVkp3U25hbytIZExOSGs2VXR5OWQwV1dBSTEzU244YVozQXFIZGdTVXFPTGZpU1ZhTTI4V2cwekZBNE9PS0sra1dnRjlGdmhrNmNLQzBpWmFNY0t6ck0yWHJBQWRmVFJRakRyVFRyUXhnU0h5YXBaZzRjb1BGUUs1b2pJczVxMGV1Z0pENE9QKzJDNWxNeStzUkppUktXVTFGb1RnVnRWZlJ0eDBpSkdPZElVOUlLMHZrOUM2bjExTk1OcEdJbUVsNXpsZUY0RTEva1loUnRROUlzdERzRHVYbU4vUTJKVTNiSVNiVTVTSy9MTzl4dlhhTUxQNW9KRTV6eVF4QXFBRm84VU1sQlc5TVlJYStEanFJQkdBWGtYQVVaU2MyN0w2SGY1U2JYc0lmZ0ZTV3JVcmlzRUhIZXhSZjZWQ2Z1UXVGOHpRaFpoaHJoaGFMRUgzSDRET0praFpFYlVSUUhaanJKQllIN2tGdmdBR3YvVEM1ajBNZ2VhSVpmbDlYOENLMUFvT2FqSmFtcnFXaUNhKzFkbkE1dVJyQkVzZGFFR0paa1hKSGsvbkxOZ1pTeERaZG9nQjM0VjRCREZ5bWp0WHBPNVU1QmE2c0xzRGQzS1RUcXhtU2FOTTNrMmE3OXJIVHl0Q2lDenBUMi9YVTBObnRhQUtINHRoQWdGNEpZV3cxQldYUWxrNllDQXFVa1ZSOXY1ckN0SzR4MXZxeERGWno5T2dtc2IrOE5ZeHRNbTd2RlNSRmtmZ0dQeVJNTkJISXhxSGQvcjFhcFZTakZGVWQwNnhLRWtWQkhNNUZJelk3VTEvNS9TeG9iRTd3UmlzTzlQNGdmY3hHUDJBZ0k5b04rd3pQZWtSRFlLbWIzaHNFU2pVRk1KWFQ3WFh1YUdoNFBmNEF0a3BRd2t4Vm1HblE3N1UycEd1aWxPT2pSWXM3MVdJRkl4RFVJb1F4YUpCa0NuNldaTjZYMTNDeHQwWGhQL0NmTXRNYWpTNFNsSVJFc1VxbXdGMnVVWlkvQWtXYVhxQ2JHV3NMT2V4T0ZNV0kzekdIOHpBbHowV2JoRS9aWmkvS214K1RkQ3lvcGNrdVEwL2txbVUzZFpiSU9CRzV1Wm1PQXF4a2JWM0pLUjZtaExXTktaY0d2R3hPQWw0MENxazJiK3A2bkFpV2VyTWhMOER6RGszeDlKTXNtZ01jTVArL2dCMXdjb0F3MW13dnpBWjZodzlEM1NpeTNSd2Z0aGRtQTlYeDc0cHc1RmNvNzhjdzNwTnN4RFZiVW0wWDlqaWFjbzJ6NWo2UkJwQVlXMnlSUDRwYURoU1hraVZ6cGsvUjFUV2RpYndzMkVBa0xPQit4MHJFZFRBZHdtZ1R6ckxXYll2bGtEY2p3ZCtmMGI4YmV0cGJJRldtbFlNdk9id3p1cWlzVXJ0M0VCc2gyNDE5dkZYTTNubVlnSm9Bd1ozeEpleU1aK0JZdExIcjE5S0RQUzVISzdnN2NUamhtTDBIRWU5RnRQMkxIb1FSTjF4cTI2THdtWWRGMG5pTXFoa1dUSlVZcG5IL0piNXlmanU5VnFaTTF3MnlHbEVTdFhhVnNDZjQxYTZmZmJkNktVaFJGeTV2NDE4anFmLzY2Y3ZSS3ZtMWQyS0Ivb25yemY3U2M0ZTY5dWFJZ3c4dnc4ajFUS0twUHdrcThjKzhNLzczR3dBd0pwZ2hsT3VqbFJpdVdBYVIzYzdlK2hFVDhTK24zRGFvNUVucmpHTWZCK1lEZm9nN2gva3FuWnRWenNDUGk5elg2Zlo5SVpRTHh0WGkxNE1KeGNqK0xIaFFOR0VEN1h1VCtkaUJ2Z2x4S1p3emVqYkxYSGVJbWd1U2sraC9mMGFQSEIzMTlqMnBkN2QzTlRiOW80UFN0MWlxdTMxQzVYSkgrc2EzcXRncmg2QTlKaEdKK05weEp2bG1MamJBOS9BcGlIY1ZLUjFmT3J1WlNhc0tnV2RacmdQVkhWT3lzNWI4THJyWThTNEExanQxUEUvTEtWVWR1WDFQcWt1WnV4cTk3UG5ndmZQSHE0dUxzLzhjSkdKeGJ5MjNVcUlOejhaUzh0Nk9LbnBGN0VEMC9CdXhEdS9KZXovU2sxNjNSSzJNUHpiWHFDaUtwbkd3bU10bU05YlJRTFVhRHhDb0VTYldFVW9Ld2NYNjRVMFJPSFpBSE5mQmFybVU1bkVVVVpzZmxhMmVPMVlHVWpnQnlhVWdoQkxzdGk4WTM3VE8rdHM0aXFHMXllNi95RWRkOHBGQk56RklxZGxLQ0trRUpORG1neFFSNk4yRnBaWHZlNTZqMHZEc2VGaFlqK0FEVlpHUVNrYUVtT0FTSkhpWmcvclhQNERoNHpkL3N6R2ZUeWZqd2FEcjZUcitmN1ZhdlE2M1NWeHdKRThNVDk0Mm1WRlhGQm9xQXdPWU55NjRsRWpzS0FlSk9lY3VibGpvVFJaUHA4d1ExcUZwdkhuR3paSloxbzFDUitYb2s5STdKRUVTVytmakNvN0VpRXNIOXQrR2t0bXpESkZFQU1hckZvS3pQWGNyRTN1emtyTzYzT3hsMUZhNDdpQVFiRWJBVE5FYnRFQkp4Um1OTncwcGJNLzBOUmg1MFJEcVVydWx5SFVjOHU1S1YxWGx6QXFTRGlWZlpXODAxM1RETkh4ZGJUOHE5UVl0c3U0OVNjTmhtcGxrbnNmZG5vbzhmOXpWTnV2RmFJYlF0SDBoWkppWEEzM2V3dDVrcUs1d2x2TVpyTWJoUzZkK0E2R1h2TVp6elgyell2azJldnZwKzZ2MCtKMWpwaXFxd2YwbzU3SDIwb25sc05GNFZDNlByNHhHMW1NVXBlQyttU05TZ1VIZ1ArSThMRUt0eFU0R0YrT1VEUFAvSkZBRVFUR01RclE5N2J1MTJuZ3Y3dERrdlI3YU9MWko3T0NpSlBpV2FycmhnSi82dEFod0xsQzZiWUF6LzltSWZlSUl3YVBkc3pIUGx1TW5YZitNSnNuN1BWUjRydVY2OXJUcHhKNXErZkZ3ZTlnb3Z6cW9mOGJGS2dFRWFHNEJ2ZFVIVitWTHFrK2xXNkIrM0pheWJnOHlBK0syenlVcVU4Mm9ubVUrTWZuSDdtOUlWckJzeHlzcGMrTmFBcyt4TkFtWW5sUXU2WUZTOTREMXRlYU5yZXNKWWpBU1BTTjh5QklXVEhWbW9HSzJhZDdBd0ZJd2dSalJacTcrdTZKcUZXNVNKZ2FhcWx3QkFJMDcyclBQRzVXTmI2ZUZUQjA5azBKZHBrNjF6bVBVTGlBN2FtTXFFeFd0YnEwMm1ya01nd2lHTTdKcFdzR1pheXdXcS9YR2kvbWVmZDdvZllGRTh5YU5ZbHNpUTVWYmZuYWQ2K2RzMjdMVWttMGFxdDdxWmpUbkRGQWxWRHJUZ0swTGFhRTByWGlKV3hvNnI1SEFWbUxQbmJHRDNiMVh5aGVLQUpNeWcxUVdod01LUGsrOUgzd1FJSm5VdGlkQzlGaVdCSzc4cUs2dXRyWmo3NFJ5azlpQTFMRzBsV1FRRk9mRTVzZlQyZGlENmlPQm9mSGlYbWRuUjhmUzVFcEpwNEgza0VKN3RQR3NrcFpndHhNenRiQzlxempGU0lNeDlGcVF1cWtzV0pxVzdYZUpNR0VvODhSd1o0T21pQUkzV3VPYk5DUnB6YUlRWWs2aUZRemZtcWp1aGlrZEpxYU0xMlM5bE5rbUFtTlVEUHRBK3pVZEwzcEpvcDVlVTljYWszVFZlcDJmOWdxQzVOVFVPa25oWDAyTTZ2cTNVQUFBbzRwQ2pjbnpvbzFSQ1d3eUcrN0I4dys0ZHhJakdhMW9rWnRjVmhOenoySFFBaThTNnl6blRSRERibkhwa1RRRitXeHllK0JlVjhsOGlWb1AzdVpjWnFZWENDV3RxUjY2Z1U3MC9XZWFSV2YzeUVReUtSOUdRN2t6VVEzWEVaQWgyUjdaNG9tVllsTzJuUGlLRVo3Ujh1UFFod0pmME9ydFBQR3hDTHFIekl3QlhySS9UVFR2MVZmRXJJYUoyL1AySzNkQ0EzeG1kalpLb3hjU1RrWGtoM2JWQytmT1VKc0R6ejQyVUpjQ05XOUdaTDlBUUtJQzdteWNqWnVmQ081aHRmMG9GSG9jR3FObysvZk5wQlRhcm12eXVBSm1VdFVwN1BpYzRSckphMXA0T2I5MGd6WDUvNThIdFpodDQ2bUNpMDJjTjdRaDJoaERGRjZBZDkwSVA4UEFqSnpMZGRwa2VHbmNPUHNZbWVvd3U4V095d2RabzFRbnhMSlh6aHhkM0F5bVVrWXNveDV2bUdKR3lwZjlwVkNTdFBuYTJkMWFvdTRqWFZqbnd0aDFwRVhabXJ6OUFHZ04zUkRhQ2pGSU4zQzFMT1JlOXE5bC9zemtuM0ZqSUYyYjM5RE9CbDlidzhKK1h5U0ZLK1U2eXhmM0dhOTExVjNnSUNSU3BLcEFSdTJLS3IvaEJVR2RiVXl6aXRMK3owOW9UTjFKQ29QUHYxU0hoSE9HZkFIMk5oRVNNMUtoOWtlNmxzakdRYXpwODhrTkNXd3c2NlRORDZZUzk4SGR6dGlEeUxJRmlYSjAzSzEvaUI1d2JycGRWQVNWMDBmYUZiL3JSY0FLdVB2MUZzNDBVaUZ1bDRUWHBlbW1NWkJpQzVyVVpwZUx6bFo0c2w3eG5INHUyUGtlOTdyKzdoeTJwVjV6SlRqczZobW4rZ2tuRUs1Y0xFdElGSkJWK2RvM0tOZWw2YWJabTJkQ2RWZGdaWmNUejlaSFV3aEFxTS8rcFRqS1diMmt1cTZwUkM4bHMwc0g1NXhZTDI0OFdqanpxODFNNUt6dmc0YjRXUXdWMGpOeExVMGl3WjZSc3ZvOVhsMm81L1BuQXhrS1Fqd3NxQmwvdjRJOFZLTnNjaUNxZFpRdzlJa2hBdFNsRlV4c04xWDVIRk91T2ZUbkY5eXI0dzRra05CNURoeHR4VDJ6QzZ2ZVVKeldDM3gxR1YxY2xBWlhPdXAxQXBIQWtjUlV0QzFiUDRHeWIva1dwWTJ5bXBFazlPODUwQi85VlpLS1hBUXYwTHg4UDFhL09ucytHVDh4Z0pCUmZneTY5NGtvbUk1N25veURNV3NPWVVMbzFTdGxaMkd4V25CdDlhNUduSmhxNVJCY3BVNTJZRzEwY1N1eVZPTkFYNmdkQ0tremJNMC9EUlpYR3F6a2piYUFFN0YyYXJHbm0xVmpxT2NkaWVpU0ordDVNenBwUHJ2Y2xVWTNFWW5LakZ1NWMxNm5iNHhMS2dXc0JhQTJOTG9zaTlwb1ovS1p0MGxpN3NEZGYzNXRBak55eVp0M1h5bmVUYnA0bWRtcVRjSFVvdkVuTW02Q0p2KzNhOEZLeGpWMWJYZmtQTDk0d2N2cUN6cXZqNDdJL3NYZWV1RlF2Smhkbi9XU0JFT2sxNDZSRHEyZzFRTjFRNm0rSm9GUFFnaDZOOTVwZ08wMjdEbEFrQ2dpOU8xcFNNOUVBeTRjV05abWk2eWVFMHRsdHcrckZNWExCbWJUV2ErbGtYZmhWbHN6eTVIUUNZTXZaTkhraXpBQTU1bW83T1M2eWh1L3BYcnhJaHBjWXFQOUZhdnQya2tzZVlyTWs4U09mVGVDcnRwRVc3a3d4OVp1c1JCbnRtM2JzdDNFcWpTeW8yNEd5dDZpQzQyZ3JZZE9oUGlBL2o5bDlIbUNBdFFiYTYwYjR1UFNwaER5eDNDU00xdEVmSFZvTmZlTjlsTkg2U0h1M0JTSXBrZEI5eU5mZzNJN2FDeldmNjRrWVNuQUVJZGxwQXkyWGpLL3VMQ0tLR0ROdGNxT2M4UENSUlplT1J0cFpybE10VnhxMjJ5TVNlUndaTmpJQkpCWUMrd3oxMWRYdDgvZStnbXE3dWlITmVWeDJENWN0VUErKzFQay9DNUgvUXZSSlBRWGtBTnYwRFhyNjloU0Zkc09RekdFb2Zrbk1idVZ1dlJWak1hZTRiSTlHS3poeVU0WjEwTlkrRTRyM3ZEajJFWXhKT1cyMXQzK0hxOFVNUm81ZFovQmE3aXNyYlpPYll1N2ZCc0VMZUg2K05LK2k5WEpqeDVvV0doem5zeVhEbXFUUFZQZ0dBS1hUYmg5Q3UzRjNPNmh3ODcwZytEYStGaE9iQUYvVG1IU0UzQ0o1YWlXM3FwZVNpWXNBSVVLVGkwaW9WSTV4ZDlhaURkS3JLSS9Mbk1NcTQ2YW5iYjNweGc1MXdsbEorZE51MGFvRS9FVE5zT0J2a0ptMzA2RmZpdWYxd1dhN0lyNGxhdXJpK0dvSStPVnNkaXllWXdEeVZZckM0ZERZUXRxNXgxMU9NMTlsS21LdlNBNVpWTU9GOFI4aFVsTXRWSm1QLzFkc1VKNlNxd2dseU5kODRuK1dsQ3RxdW9QNkJHM3g3dnROblF1Znc1WXFENHhCYWlTVVl2MUF2YjllV0g3NnlQL2VkbFh5M2ZUWjRhUHIvRGRXTDIrSThIOGZ6K0ZZdG51UXUyRUMzaHRNZ21zVFl3YzJWU0ZwOEpaUVZYSTJBTDJ5TzNQam9uQzNoUlpnb2N0Tk9LTG5SVjBuMGlXcmV3cjN5NENCb0FpRWRHOC9ZNHZmYVNCcXFKTEh1aGlXMjVaODAya2psZ2VBMStONTBPcmU5QU9uVnBibXViWXJnbzRON2ZQNHBMemM0TnY0RncvUXZYdnp0bkEyMG1ERTNUaFhhV1EwUndKY2RMcHpMYWhjUlNCSVZ2WFp2OEU1ZzYweFMrbEZQR0JyMXVWVUlPMzR3aS81bVVudWFkUWhoTVM0b015OW1CRlM0cGVDRzVHUWQ0aFdueGpLSXNUNTgxN2YzRi9OaDdQbG9TL1NGbDZmZXQ4dzhlV2R3NXMra0xCbllQR1lGUGQwS05MMmJJd2VnR0hIbHlUeW5LMkhCVzl5QXVpVGhDV3dsN0w3K0xKdThlODRaK1B4clAxU2NFdlJhcmdCYXNTZ1hDNVV2aTFMdkhjVVlVN1hFWW5idWhQZk41RDI4TGxJZ2EwdC9RVURtcnVGUFRHSTN4WG5UNFN1ZHE1YW40dkZldUNTaTRUMEltY2gwdWI2dEpldHppeVFtT2ZOZnl5dllxdjFjaUtEaFV2Uml3MHRkeHpQQnFSdHdNU0lHQm1MZWp6WXdhZDhGOFhIRWsvaTU0VWNEQ2JGMGZOL2N5MmMxOWk4OFdlbGpRZXZ6VmdqUjNkWHYzVHg0YmRwQWRGWjlaczl1WEFKR1crN2NpMTl0RWNUNC93VXJZSTlQSmlQMjVnTExFMFRjQUR3d05EcVVVZHI3OG5xSWFsZlhsTTFhZzRsSmhydnQxbTh0aW4zS3dGUTBjbDdaWTBXaTFiWmpNYW9hSXBOMUo2L3NvQmVvV3l1YU9xbXlvVms5SFF6bVZqYzMzKzhxQi94UUMremJWdHNuT3lxdnh0N0h4YWxJckNJaTNuSCt0bVZ6NzBIQ1JLRlRvMFpHdWRvbmlKWjIxSnFoVmRNV3pvRWd1SGtnTVlJcU5KMitjV1hUN1U0d0FibzZoZ0ZXMW1UbjErMWUxUjJoY1VnY2hnUGxMRGRISWd0VzJ5YkFDd1JVNmlsYWdDalgwNS84Yk9kNy9pUXg5SUcrZlZkOENrUDQ2VE9NWFNsQzF4STcvOGptVXplREkzQlo3QmZ5OEtwT3BJd0dndCs5NGcwSzZKWEYwSlIxek5YSjVqUXpUTDhLS3N5bHcxYTA1ZmFEYWRUNFBTb0gwZmtxRWVkQ05YRTh0WWFFQjYrbnVXd0UyNWZWZy9vTjFkS0hvUmFOamJkUlNXejFSZTI3TnQxQkhFdU9wNW9lY2FNbGswM1RUaGMxbGJMNW83a1cvM1RiQ2E5eThHZnFkajFSaWdaWmJwMjdHb0VOWXVSTU5Jd3BtREVUbEpSTGh2Nk9NcGRPRFBhRFB4S1lPeGs2bVhVWFYwSC91dlYyMWp2SzdmZUdhWFlpa1NLWk9sNXl2Y2cycmFTbElMcExRb2NReWM0dENHVis4WjREbUtxSnhQc3ZsNmgxRHcwUlNPM295Qlpqa1NTcDV1WXZYbmRYZG9GSW1kU3BuUVM1TDRuT1R5Vnp2QkYzbXg2eEV0cVlWK0RlRGNRbElmWXBTdEpXUEExMmFaejlGWXdGZ3I4V1NPUG1IckdSSis2aXNleC9HQ0pERlQ3UkFIdkl1QmQ4YTRtQk9kcTFzUU9UN1ErbU0rdGh4SDRoeUgvRWFQaGxvcjQzOTkrTXJvem5kNVFkWVkrRDNwMFVqWlJWN1pUSlZtTnBQU0wvdStxd1JMZUM0NGFxSFgvLy9YbzR5d1dpMHIzMzFKMVZRSi94S2FoM1JGYkJTc25NZUM3ZWJDN01xY3BZZmNpY2RGOWdGVmJHYnlHVjJTNVA5UkpVY2NNTVJwNDJVZHg0d1g0ZmI0V2wvSDdodnRIWVpDNmFHYmlRSkRNbmpEcm9IVjJPVnJ3M2ZrZTNERXJydkQvdm5OemYwenpNejYyNWdaeEYyL1RMbzEzY2IzQ28ydXd2QURNL2dDS0I4cUlMem1uT3VOaDRQaE1KQlp4RzAzZ3R2dVJ6NEtPRVpyOWRKaHp0d3d4bTdYckV6WEhKbGlsOWZ4RTgvOTlwdTJEMDYzdld6V3dScUNFNDlySUZySDgrMzNNRnk3ZjdZekdQVWlOeWgxREN4OU9RcTc4eVBkTmJZaC9xQVdCc2FlM2p2S212ZWF0ZkQvdk43cW1aRVJjZldOODU3Wmt5dWpyZ2lDZHhSTXZyaWFPY3YvbTl2RWo1RzV4U3JPRUxmZ2YvcHlNdWozZXYzWVZHV1pibExUTXpVYkJYdXJuS21VMHBKU0U5cWR3dEZWM1J3ZGY5d3hIZmxVMTc3OURmUFBEdHZYUkpyRTZ2bkRFemI0aDVLOWJKZ09YSGNZbFNVRU8remt3L2s2RTNEc3FEdVhKenhnZ3JtVzVvL3J4VkFLV1lhdUU3aUwvRTl2dmNvSFdmTzRlSGpwei9LNE01QWFIaFREcTJrQTVQQmdsenZQYkVoKy9Gc3lmcEFVZjhuVlZPdnVGd0J2c0JKRDgvTDh4Zy93WE45ckE4RVYraG1mODdncUpEQ2xxMFdVNWtSWk1HTHFTbGRKbW1KY1Z1Z2JZTkhqZ0E4eUVCTXpHWHo2TSt6OWFTaS9iMUNNZUwyQ29Gb2FOd0QweXhzbE9TdzBxSS9JY2I0WEJINWt0U2xRaDBZSE5yWm9vT1hzUno4UHZxdHgvQzYxVDlDK0NLbm1qSndxbTJ6bVNkZXBsWFgrRTErdXBQa2RBYmY3YXBwN2g4TUhFaXh6dWtjM1pQRzhLTm9weGI3VGJTMG5XeFN6bXN3UEtrMG9jTmdZVTYyRGlYNzYxZnQ3ZkZCSTlPNkxwYUpKbTVyRG8wSlVSaEc1ZyszME8yekE2UmN2YTFvbnMrRTFrZVo4N0FsdlNjUEJRQ28vOUFRNGJKczhWczdsanF3Y2Y0TEVuY0hMNTA0YkwvdUVUSnZMdHRwd1RlUG1CL0Y0NDhjdExqZ05vb0dQTUt4OStIeFhFZUdzN3Y5Wlc3S29UQjNjK2ZXOERPZFdXbmFqUDZ2bUJ3dWNyVXVoNmsyMWNzdzlQNE52TjBwYWY0eFpNUFY5ZG55K3hWY3NqaU93MlFPUFJBS0dFMUgvOG4xejliTVlLY29NZnBSUVhYTnRRNnZjVjczUTVSdWRXdlBYTEc3dmNtMGQ4STdDeVBRcjNVV0V0N3M5TGhUcy9MQW12M09RcHVHUXg0NVMrY3R1N2xFR01IbG13Qkc4OEUzMVFyL2J3a0o1QjltaU40cnI0Wm12RTRwQTJmV0I4cDRpR2NveGlpUndCS0psMktGTU1lWk5ybENZTFV0YTdjNE5IV1ByWFBTejdrSzMvYXBFWEMzTDhWN0ZrYWZpSVl0ektvOHQzNC9qNkw2UlZXV3h2U2pEUW52cDYyc2FTVE5JS3BTcDhNRjhZSkJUcVJYbjQvYktEWTl1L3QyN1RPS1pHaURUbFBObDlMeEl6bjk1QWY4UTZWOTdXeHpSS2dOS0Fjb1hjeERwREZtSjBQUFowbFpkTzJBdjBTOE9RZmNuNVd3VUVKa1UraFJSQlFHeHJYdlRmbXdxejFQbllLNkdsUm4wT0QvZG1MRVRRUUNQTFhoWnBMSDVibzVLUzVaaXJLR250VWtlRExyaWU4eW55VmdvdDJjTWZKTGFQL2Era3FzWHp1N2dFdmQrZE1pNnY5bWNqWUxEVkZLZFBFbEk1cnUzc3ZmY3NtZ1VHeERpQnRPTVhhNzZZd0IxMU5nd24razZLSUJBT2N5SXhZTnNMYnowZ2dXVUVzVDFmYlZ1WVZiVTYvcUcrUE9FTVRCZGFkczQybGhqMnhhem5UZzZjbld4d1Rpa1lyRFd5bWd5aDFBTWJreGo2Zm1tN2JJRmdVUGx2R2IwenV0T0JQZmMyd0F1a2FnS09lUW5tbmxmWkhmKzRDUjVNR3JxZ01kWEpZcGhXSkZCcTFiOUlMdWhDSGpoOWRMVDBQdTdEL1pUWnNIMDJCcHoyOENoNXI1UG5XN21GN1ZFdmt5cjQrcTZwbTFJYzhRd3VBRW1rQlpQVkRnUHJRYUFEYVNtbjFJd25uMnU4WFZOcGQ3cEc3bDNyb3RRaE5rT1hlR2p6c0Vna3Z5UUlCTXZUZ0h2RWlmOEJoQWF6bENmL0RBR1RQWFJJc2VkSEpFS3pEMU1DemxDem5CWDNVd1IyZjFpdzV0M1V1NlFGZExabzJEWUU0THp2elREMFJlR0twSmd4dHhxOFZFWlpHWHNUeG45SEhJeDIrZUlmZjlqTmhWeko1TVJWQzNES040Zy9BbmFhT0Q0YitENWtpdTBiekpRdW94aWVSN2tOSU8xNzd6NEtYTVdtYkg3cEEzZDg4Tm9IZStqdDJta3ZBTkhRdnB2bjF5aElEK1N6Rm4wU2RYRnlTdXhCK0d2ZkxFU0JyMkkyYVBUY1NLSVdWNlpuNTVLcGIwcmNtUWNIdHkwdG9pY3hNQ2JETUtWM1hUOWVhbFRKbDVhV2I1REcxS05RZ0xvMjgyQ2NBaGl2SjRxd1FDZmR4bE9yYmFDMkZOMEJkZUdWTWsrY0RXdmtmbmIvamIycEdNNWZvbzdYMVAvaFlCcnhSUmdmMzdSVXdvb3R1MnNWK29BSWhWRERVU2N2U0VCMGlzSHZMOU5RQUFPdlBVenZyTmF6MUdjLzZjZzZEUUF2dmp6TFRxUzFsMkE2cE1sWWVyb0hRQTF5SlFHczM4SE1lU3BEWjRKWjBhb0dyY1ZOLzZkeGdRTFg2RE1zZVREaXdzeEl4K0pZZFpQN2VXdWVEQUJ2L0xuNTZQeW5TQnRvU3VkSzVJbzJjb05yb01PNGxMOW9LKzB0dGg2NVZ3dEZFN0hkTFJnMldIR1pJM1RQMmx3SVd1OUhCYWlrL3REM21MREw2UForWTRmbjdtdnI1TDZ0WkNWdnlIQzVnUjhlOWo4WFlYV3JqdVBFS0NFeTE3M3RYRlFrcmcrajNDK1kwTXlTM1djak5vUExoWVZ6TUhXeEp2eHpySkh5Q3dreW9wRWtZemlCNC9tbk02T0NCZ1J5K3hrQVNVZTlvN1pzMEFXd2taWkxydk82dlZrblozUkU2dGhVZHJyZUxTajFYN0sxbmI4VTQvTFlXdlBXVE80bEtveW1LT3lSZ3RMdGtxdlpjQXhHdWNkRm1DUHVvUk5FZVlzelcvR2NwVlZuUStQSk9KaHYrUWpZWFYwSStKZ3BMTXJ5SXRJaGhyYlRqSFNyQ2Z3NG1UdGlscC9WK1dFR3l6c3JpaFZlVWR2V0xXZnMrWWxnUGwvb1lDbDBmRUp2Vnd0V0l0ZUYxRzluUWlPWkQvUy9DOTZtNlVnc05RR3NCd1d5QktaRFJNeGM2WVhyQjUzUk5vNmJGZllUbFVxZG9FOVpMMU1oOWt6SnR2TlFMUUpzQ29EbHV4bkgvTTZNWVBaUkNsTGdBRlEwdGwwMG5vL1dDNXJETGZ2aGZDeDQ1UXYrN0liSUh0N1dWVDIyUU1SdTYwTUZXallRK1ltdE9MT1c1cmZPUnFPWVpiZ1lSNWgzTVdScnM1U1diRmVHWW54YzltcHg1QnovKzBLQUc1S0R4SUg0S3Y3c1VySmFvN24xY1V1bVFvQU53TDRiU0FPSG9UQVlBQktoREVZWHJHRG81ZWlJZUdhb3d1cUE4ME1Zd0ExMzJaUnYySkNVRVdEd3FBSXdiallRaEdVa3lqWWxXZ1QxbFVrSHRPNkpnR3praWE5TWhuWURFUGI0STRnMjdFWVcxSlVzWjNZalc2VkdBKzVLZ1FUZXRsYkwvdXdtTmptTUpSOHhsSFVjb05qMFBLZGQvemhQZjE3b3RkV0oyRk9QSFlLU241QmpPYkVtTlBROHF3enNDWVUvMWtZRlFPNEs4ekI4Yk1YMmlaTmlsUzV1R0JtRm01U21aSWRLSyswMEdEUnBqS2RiRnNwUlVSSW5SQlVhRWRaTDBTY3R1YlhkU0d6UXpHT2FsMUNkVXhEUEt5Y2U4ZWo0ZXYwczR5RkQrUXEvUjhJSjVDZ1g0ZDRJaHA0QnlESUJGSTZYLzJFWGZ1S0NzcFFkMXpWVXgrNm1CaVQza25La2Y2QktKZTJIYXBtU01rVFdOWTlzQlVwUzFYa1UxcWxXRk8zcE15T2d1N1ZLeG1tY2tqaE5IQXJjeC92ME43WFZQaVNQT0x2VDl4WGlubkg5cTZXRXBQaTdCNVNLaGNEZThkak9sTTdOeEZLVjY2VHlTRWpQUlBWUi90RmNsbnJUa0hFdkZVNzVXV3pXM2tGdjNPVmo5M1oySVg4d3FlbmZ2Q0p3S200NjZpaTYxVzhZNVgyWVpnL2F2dGxvUXRnd0hkVHFQVFhFWUZnd05SVG5ucmlsbmdKbGxKYUpaL2FoWGxlcno3dFJOU0NyS0xOVXBhTTZvWVVlVy83amdHRGJrdFJVcVJ3T3ZmOTZoR3BWdXIzaXk3eC9lUnM5YzRobjRKREVyakRRN28wR2JKa3l1YkpTNDUxdkVWdGVZZ3BINDFGbFArSGMxR2VmQmxFVXExRmlnTGZVNUZDTzVVb0ZpcUlxRzJrTXFYS1ZTZ3ZVbnhVMDgzMnVPQzlpMDc5TFJodnowMmhRaHFrZzdQT1JVM1FGNm5oNjlSU01helJDK3JJZ1lFcDRhaFFXSlRwOFhxQTMzd25rK1QxamhxNUhzT0g2WG0vcmVIVldNTkRKQllKQ2pSd1d2eXUyVDNkZXJScHgvRHFhS0JnUU93SkdMOHd0b2VtY2tmRW1HWUMvNDg0djk1bFZ5eTFvcERQanJodkZwZUV6RDVsWGY5dHdGS3R4aVBIWTROWG5BUGNqWHJwbFlQZUdMUFBYdnRWaWUzeWRZTEV1ai9xRWY2d1hMNVFMSlVyMVZxOTBXeTFPOTFlZndBWmx1T0hnb2drV1ZFeDBYVER0S2p0dUo0ZmhGR2NETS9qQXNYb3VHMzdoT2pwaytaQ243N1loK01aamxpalNCcFhTS3Z1Z2tJMFkvOEROTU1CSkJCRmgzdktNd0pSaG5VYmdET2M4cG9NQk1sQ1ZOaFJHUTRnUWJJUVpTM1hXUVhlZ0YvRE1JaER0UmtGVkIzd3d2UEI4eUVwenFGcVp3K0dUMmFXM1RsQkdFWCt1bjJMRFlRR2t1WTI0UGJBNVBrUUtxeDc5K1p4Znp2OVhFR3pBcitDYjJIVDh3Y0M1QjhTbDZlSUM0UVNVdExOK3lUUWRQVkFWaUZMclpHZXN4RnZwYzhsR05DZXcwSUsxNTBoT0N2NXQ3YmRhY3VKVmJPU3lFcWM3Z3dyV1ptNWkyeSs2bjRUdVNrWkNwbE9oWjZRQlFjd3d1dndLSEZuTyt3Q0hFK1prVXkzUU84cVpDQ3RZRTIyTEpXTXRjRDN5NUJEdklRQmMzdDVIa3BRS3pQWHA1bllDRmNPOVRrL3NQTE5mSTVXL01MME1DTWlxSGNCdGErb0RXcUpSdVFSZFFSL2hsZGdmVnFQUVhzWGFQOUsyOUNXZE1RZWNlWmR6SHNkbTFlMDA5TERuMTk2S0htWXZ4RGZucGxVamdwa3VUdnppbVdKNUtTbE9EdE5NRy82L0N2eWFrcFlkMzVGYTd3REFBQUEiKSBmb3JtYXQoJ3dvZmYyLXZhcmlhdGlvbnMnKTsKICB1bmljb2RlLXJhbmdlOiBVKzAwMDAtMDBGRixVKzAxMzEsVSswMTUyLTAxNTMsVSswMkJCLTAyQkMsVSswMkM2LFUrMDJEQSxVKzAyREMsVSswMzA0LFUrMDMwOCxVKzAzMjksVSsyMDAwLTIwNkYsVSsyMEFDLFUrMjEyMixVKzIxOTEsVSsyMTkzLFUrMjIxMixVKzIyMTUsVStGRUZGLFUrRkZGRDsKfTwvc3R5bGU+PHN0eWxlPkBpbXBvcnQgdXJsKCJodHRwczovL2NkbmpzLmNsb3VkZmxhcmUuY29tL2FqYXgvbGlicy9mb250LWF3ZXNvbWUvNi4yLjAvY3NzL2FsbC5taW4uY3NzIik7IHAge21hcmdpbjogMDt9PC9zdHlsZT48c3R5bGU+I2V4cG9ydC1zdmd7Zm9udC1mYW1pbHk6IlJlY3Vyc2l2ZSBWYXJpYWJsZSIsYXJpYWwsc2Fucy1zZXJpZjtmb250LXNpemU6MTRweDtmaWxsOiMyODI1M0Q7fUBrZXlmcmFtZXMgZWRnZS1hbmltYXRpb24tZnJhbWV7ZnJvbXtzdHJva2UtZGFzaG9mZnNldDowO319QGtleWZyYW1lcyBkYXNoe3Rve3N0cm9rZS1kYXNob2Zmc2V0OjA7fX0jZXhwb3J0LXN2ZyAuZWRnZS1hbmltYXRpb24tc2xvd3tzdHJva2UtZGFzaGFycmF5OjksNSFpbXBvcnRhbnQ7c3Ryb2tlLWRhc2hvZmZzZXQ6OTAwO2FuaW1hdGlvbjpkYXNoIDUwcyBsaW5lYXIgaW5maW5pdGU7c3Ryb2tlLWxpbmVjYXA6cm91bmQ7fSNleHBvcnQtc3ZnIC5lZGdlLWFuaW1hdGlvbi1mYXN0e3N0cm9rZS1kYXNoYXJyYXk6OSw1IWltcG9ydGFudDtzdHJva2UtZGFzaG9mZnNldDo5MDA7YW5pbWF0aW9uOmRhc2ggMjBzIGxpbmVhciBpbmZpbml0ZTtzdHJva2UtbGluZWNhcDpyb3VuZDt9I2V4cG9ydC1zdmcgLmVycm9yLWljb257ZmlsbDojZmZmZmZmO30jZXhwb3J0LXN2ZyAuZXJyb3ItdGV4dHtmaWxsOiMwMDAwMDA7c3Ryb2tlOiMwMDAwMDA7fSNleHBvcnQtc3ZnIC5lZGdlLXRoaWNrbmVzcy1ub3JtYWx7c3Ryb2tlLXdpZHRoOjJweDt9I2V4cG9ydC1zdmcgLmVkZ2UtdGhpY2tuZXNzLXRoaWNre3N0cm9rZS13aWR0aDozLjVweDt9I2V4cG9ydC1zdmcgLmVkZ2UtcGF0dGVybi1zb2xpZHtzdHJva2UtZGFzaGFycmF5OjA7fSNleHBvcnQtc3ZnIC5lZGdlLXRoaWNrbmVzcy1pbnZpc2libGV7c3Ryb2tlLXdpZHRoOjA7ZmlsbDpub25lO30jZXhwb3J0LXN2ZyAuZWRnZS1wYXR0ZXJuLWRhc2hlZHtzdHJva2UtZGFzaGFycmF5OjM7fSNleHBvcnQtc3ZnIC5lZGdlLXBhdHRlcm4tZG90dGVke3N0cm9rZS1kYXNoYXJyYXk6Mjt9I2V4cG9ydC1zdmcgLm1hcmtlcntmaWxsOiMwMDAwMDA7c3Ryb2tlOiMwMDAwMDA7fSNleHBvcnQtc3ZnIC5tYXJrZXIuY3Jvc3N7c3Ryb2tlOiMwMDAwMDA7fSNleHBvcnQtc3ZnIHN2Z3tmb250LWZhbWlseToiUmVjdXJzaXZlIFZhcmlhYmxlIixhcmlhbCxzYW5zLXNlcmlmO2ZvbnQtc2l6ZToxNHB4O30jZXhwb3J0LXN2ZyBwe21hcmdpbjowO30jZXhwb3J0LXN2ZyAubGFiZWx7Zm9udC1mYW1pbHk6IlJlY3Vyc2l2ZSBWYXJpYWJsZSIsYXJpYWwsc2Fucy1zZXJpZjtjb2xvcjojMjgyNTNEO30jZXhwb3J0LXN2ZyAuY2x1c3Rlci1sYWJlbCB0ZXh0e2ZpbGw6IzAwMDAwMDt9I2V4cG9ydC1zdmcgLmNsdXN0ZXItbGFiZWwgc3Bhbntjb2xvcjojMDAwMDAwO30jZXhwb3J0LXN2ZyAuY2x1c3Rlci1sYWJlbCBzcGFuIHB7YmFja2dyb3VuZC1jb2xvcjp0cmFuc3BhcmVudDt9I2V4cG9ydC1zdmcgLmxhYmVsIHRleHQsI2V4cG9ydC1zdmcgc3BhbntmaWxsOiMyODI1M0Q7Y29sb3I6IzI4MjUzRDt9I2V4cG9ydC1zdmcgLm5vZGUgcmVjdCwjZXhwb3J0LXN2ZyAubm9kZSBjaXJjbGUsI2V4cG9ydC1zdmcgLm5vZGUgZWxsaXBzZSwjZXhwb3J0LXN2ZyAubm9kZSBwb2x5Z29uLCNleHBvcnQtc3ZnIC5ub2RlIHBhdGh7ZmlsbDojZmZmZmZmO3N0cm9rZTojMjgyNTNEO3N0cm9rZS13aWR0aDoycHg7fSNleHBvcnQtc3ZnIC5yb3VnaC1ub2RlIC5sYWJlbCB0ZXh0LCNleHBvcnQtc3ZnIC5ub2RlIC5sYWJlbCB0ZXh0LCNleHBvcnQtc3ZnIC5pbWFnZS1zaGFwZSAubGFiZWwsI2V4cG9ydC1zdmcgLmljb24tc2hhcGUgLmxhYmVse3RleHQtYW5jaG9yOm1pZGRsZTt9I2V4cG9ydC1zdmcgLm5vZGUgLmthdGV4IHBhdGh7ZmlsbDojMDAwO3N0cm9rZTojMDAwO3N0cm9rZS13aWR0aDoxcHg7fSNleHBvcnQtc3ZnIC5yb3VnaC1ub2RlIC5sYWJlbCwjZXhwb3J0LXN2ZyAubm9kZSAubGFiZWwsI2V4cG9ydC1zdmcgLmltYWdlLXNoYXBlIC5sYWJlbCwjZXhwb3J0LXN2ZyAuaWNvbi1zaGFwZSAubGFiZWx7dGV4dC1hbGlnbjpjZW50ZXI7fSNleHBvcnQtc3ZnIC5ub2RlLmNsaWNrYWJsZXtjdXJzb3I6cG9pbnRlcjt9I2V4cG9ydC1zdmcgLnJvb3QgLmFuY2hvciBwYXRoe2ZpbGw6IzAwMDAwMCFpbXBvcnRhbnQ7c3Ryb2tlLXdpZHRoOjA7c3Ryb2tlOiMwMDAwMDA7fSNleHBvcnQtc3ZnIC5hcnJvd2hlYWRQYXRoe2ZpbGw6IzAwMDAwMDt9I2V4cG9ydC1zdmcgLmVkZ2VQYXRoIC5wYXRoe3N0cm9rZTojMDAwMDAwO3N0cm9rZS13aWR0aDoycHg7fSNleHBvcnQtc3ZnIC5mbG93Y2hhcnQtbGlua3tzdHJva2U6IzAwMDAwMDtmaWxsOm5vbmU7fSNleHBvcnQtc3ZnIC5lZGdlTGFiZWx7YmFja2dyb3VuZC1jb2xvcjpoc2woLTEyMCwgMCUsIDgwJSk7dGV4dC1hbGlnbjpjZW50ZXI7fSNleHBvcnQtc3ZnIC5lZGdlTGFiZWwgcHtiYWNrZ3JvdW5kLWNvbG9yOmhzbCgtMTIwLCAwJSwgODAlKTt9I2V4cG9ydC1zdmcgLmVkZ2VMYWJlbCByZWN0e29wYWNpdHk6MC41O2JhY2tncm91bmQtY29sb3I6aHNsKC0xMjAsIDAlLCA4MCUpO2ZpbGw6aHNsKC0xMjAsIDAlLCA4MCUpO30jZXhwb3J0LXN2ZyAubGFiZWxCa2d7YmFja2dyb3VuZC1jb2xvcjpyZ2JhKDIwNCwgMjA0LCAyMDQsIDAuNSk7fSNleHBvcnQtc3ZnIC5jbHVzdGVyIHJlY3R7ZmlsbDojRjlGOUZCO3N0cm9rZTojQkRCQ0NDO3N0cm9rZS13aWR0aDoycHg7fSNleHBvcnQtc3ZnIC5jbHVzdGVyIHRleHR7ZmlsbDojMDAwMDAwO30jZXhwb3J0LXN2ZyAuY2x1c3RlciBzcGFue2NvbG9yOiMwMDAwMDA7fSNleHBvcnQtc3ZnIGRpdi5tZXJtYWlkVG9vbHRpcHtwb3NpdGlvbjphYnNvbHV0ZTt0ZXh0LWFsaWduOmNlbnRlcjttYXgtd2lkdGg6MjAwcHg7cGFkZGluZzoycHg7Zm9udC1mYW1pbHk6IlJlY3Vyc2l2ZSBWYXJpYWJsZSIsYXJpYWwsc2Fucy1zZXJpZjtmb250LXNpemU6MTJweDtiYWNrZ3JvdW5kOiNmZmZmZmY7Ym9yZGVyOjFweCBzb2xpZCBoc2woMCwgMCUsIDkwJSk7Ym9yZGVyLXJhZGl1czoycHg7cG9pbnRlci1ldmVudHM6bm9uZTt6LWluZGV4OjEwMDt9I2V4cG9ydC1zdmcgLmZsb3djaGFydFRpdGxlVGV4dHt0ZXh0LWFuY2hvcjptaWRkbGU7Zm9udC1zaXplOjE4cHg7ZmlsbDojMjgyNTNEO30jZXhwb3J0LXN2ZyByZWN0LnRleHR7ZmlsbDpub25lO3N0cm9rZS13aWR0aDowO30jZXhwb3J0LXN2ZyAuaWNvbi1zaGFwZSwjZXhwb3J0LXN2ZyAuaW1hZ2Utc2hhcGV7YmFja2dyb3VuZC1jb2xvcjpoc2woLTEyMCwgMCUsIDgwJSk7dGV4dC1hbGlnbjpjZW50ZXI7fSNleHBvcnQtc3ZnIC5pY29uLXNoYXBlIHAsI2V4cG9ydC1zdmcgLmltYWdlLXNoYXBlIHB7YmFja2dyb3VuZC1jb2xvcjpoc2woLTEyMCwgMCUsIDgwJSk7cGFkZGluZzoycHg7fSNleHBvcnQtc3ZnIC5pY29uLXNoYXBlIHJlY3QsI2V4cG9ydC1zdmcgLmltYWdlLXNoYXBlIHJlY3R7b3BhY2l0eTowLjU7YmFja2dyb3VuZC1jb2xvcjpoc2woLTEyMCwgMCUsIDgwJSk7ZmlsbDpoc2woLTEyMCwgMCUsIDgwJSk7fSNleHBvcnQtc3ZnIC5ub2RlIC5uZW8tbm9kZXtzdHJva2U6IzI4MjUzRDt9I2V4cG9ydC1zdmcgW2RhdGEtbG9vaz0ibmVvIl0ubm9kZSByZWN0LCNleHBvcnQtc3ZnIFtkYXRhLWxvb2s9Im5lbyJdLmNsdXN0ZXIgcmVjdCwjZXhwb3J0LXN2ZyBbZGF0YS1sb29rPSJuZW8iXS5ub2RlIHBvbHlnb257c3Ryb2tlOiMyODI1M0Q7ZmlsdGVyOnVybCgjZHJvcC1zaGFkb3cpO30jZXhwb3J0LXN2ZyBbZGF0YS1sb29rPSJuZW8iXS5ub2RlIHBhdGh7c3Ryb2tlOiMyODI1M0Q7c3Ryb2tlLXdpZHRoOjI7fSNleHBvcnQtc3ZnIFtkYXRhLWxvb2s9Im5lbyJdLm5vZGUgLm91dGVyLXBhdGh7ZmlsdGVyOnVybCgjZHJvcC1zaGFkb3cpO30jZXhwb3J0LXN2ZyBbZGF0YS1sb29rPSJuZW8iXS5ub2RlIC5uZW8tbGluZSBwYXRoe3N0cm9rZTojMjgyNTNEO2ZpbHRlcjpub25lO30jZXhwb3J0LXN2ZyBbZGF0YS1sb29rPSJuZW8iXS5ub2RlIGNpcmNsZXtzdHJva2U6IzI4MjUzRDtmaWx0ZXI6dXJsKCNkcm9wLXNoYWRvdyk7fSNleHBvcnQtc3ZnIFtkYXRhLWxvb2s9Im5lbyJdLm5vZGUgY2lyY2xlIC5zdGF0ZS1zdGFydHtmaWxsOiMwMDAwMDA7fSNleHBvcnQtc3ZnIFtkYXRhLWxvb2s9Im5lbyJdLnN0YXRlZGlhZ3JhbS1jbHVzdGVyIHJlY3R7ZmlsbDojRjlGOUZCO3N0cm9rZTojMjgyNTNEO3N0cm9rZS13aWR0aDoyO30jZXhwb3J0LXN2ZyBbZGF0YS1sb29rPSJuZW8iXS5pY29uLXNoYXBlIC5pY29ue2ZpbGw6IzI4MjUzRDtmaWx0ZXI6dXJsKCNkcm9wLXNoYWRvdyk7fSNleHBvcnQtc3ZnIFtkYXRhLWxvb2s9Im5lbyJdLmljb24tc2hhcGUgLmljb24tbmVvIHBhdGh7c3Ryb2tlOiMyODI1M0Q7ZmlsdGVyOnVybCgjZHJvcC1zaGFkb3cpO30jZXhwb3J0LXN2ZyA6cm9vdHstLW1lcm1haWQtZm9udC1mYW1pbHk6InRyZWJ1Y2hldCBtcyIsdmVyZGFuYSxhcmlhbCxzYW5zLXNlcmlmO308L3N0eWxlPjxnPjxtYXJrZXIgb3JpZW50PSJhdXRvIiBtYXJrZXJIZWlnaHQ9IjE0IiBtYXJrZXJXaWR0aD0iMTAuNSIgbWFya2VyVW5pdHM9InVzZXJTcGFjZU9uVXNlIiByZWZZPSI3IiByZWZYPSI3Ljc1IiB2aWV3Qm94PSIwIDAgMTEuNSAxNCIgY2xhc3M9Im1hcmtlciBmbG93Y2hhcnQtdjIiIGlkPSJleHBvcnQtc3ZnX2Zsb3djaGFydC12Mi1wb2ludEVuZCI+PHBhdGggc3R5bGU9InN0cm9rZS13aWR0aDogMDsgc3Ryb2tlLWRhc2hhcnJheTogMSwgMDsiIGNsYXNzPSJhcnJvd01hcmtlclBhdGgiIGQ9Ik0gMCAwIEwgMTEuNSA3IEwgMCAxNCB6Ii8+PC9tYXJrZXI+PG1hcmtlciBvcmllbnQ9ImF1dG8iIG1hcmtlckhlaWdodD0iMTQiIG1hcmtlcldpZHRoPSIxMS41IiBtYXJrZXJVbml0cz0idXNlclNwYWNlT25Vc2UiIHJlZlk9IjciIHJlZlg9IjQiIHZpZXdCb3g9IjAgMCAxMS41IDE0IiBjbGFzcz0ibWFya2VyIGZsb3djaGFydC12MiIgaWQ9ImV4cG9ydC1zdmdfZmxvd2NoYXJ0LXYyLXBvaW50U3RhcnQiPjxwb2x5Z29uIHN0eWxlPSJzdHJva2Utd2lkdGg6IDA7IHN0cm9rZS1kYXNoYXJyYXk6IDEsIDA7IiBjbGFzcz0iYXJyb3dNYXJrZXJQYXRoIiBwb2ludHM9IjAsNyAxMS41LDE0IDExLjUsMCIvPjwvbWFya2VyPjxtYXJrZXIgb3JpZW50PSJhdXRvIiBtYXJrZXJIZWlnaHQ9IjE0IiBtYXJrZXJXaWR0aD0iMTAuNSIgbWFya2VyVW5pdHM9InVzZXJTcGFjZU9uVXNlIiByZWZZPSI3IiByZWZYPSIxMS41IiB2aWV3Qm94PSIwIDAgMTEuNSAxNCIgY2xhc3M9Im1hcmtlciBmbG93Y2hhcnQtdjIiIGlkPSJleHBvcnQtc3ZnX2Zsb3djaGFydC12Mi1wb2ludEVuZC1tYXJnaW4iPjxwYXRoIHN0eWxlPSJzdHJva2Utd2lkdGg6IDA7IHN0cm9rZS1kYXNoYXJyYXk6IDEsIDA7IiBjbGFzcz0iYXJyb3dNYXJrZXJQYXRoIiBkPSJNIDAgMCBMIDExLjUgNyBMIDAgMTQgeiIvPjwvbWFya2VyPjxtYXJrZXIgb3JpZW50PSJhdXRvIiBtYXJrZXJIZWlnaHQ9IjE0IiBtYXJrZXJXaWR0aD0iMTEuNSIgbWFya2VyVW5pdHM9InVzZXJTcGFjZU9uVXNlIiByZWZZPSI3IiByZWZYPSIxIiB2aWV3Qm94PSIwIDAgMTEuNSAxNCIgY2xhc3M9Im1hcmtlciBmbG93Y2hhcnQtdjIiIGlkPSJleHBvcnQtc3ZnX2Zsb3djaGFydC12Mi1wb2ludFN0YXJ0LW1hcmdpbiI+PHBvbHlnb24gc3R5bGU9InN0cm9rZS13aWR0aDogMDsgc3Ryb2tlLWRhc2hhcnJheTogMSwgMDsiIGNsYXNzPSJhcnJvd01hcmtlclBhdGgiIHBvaW50cz0iMCw3IDExLjUsMTQgMTEuNSwwIi8+PC9tYXJrZXI+PG1hcmtlciBvcmllbnQ9ImF1dG8iIG1hcmtlckhlaWdodD0iMTQiIG1hcmtlcldpZHRoPSIxNCIgbWFya2VyVW5pdHM9InVzZXJTcGFjZU9uVXNlIiByZWZYPSIxMC43NSIgcmVmWT0iNSIgdmlld0JveD0iMCAwIDEwIDEwIiBjbGFzcz0ibWFya2VyIGZsb3djaGFydC12MiIgaWQ9ImV4cG9ydC1zdmdfZmxvd2NoYXJ0LXYyLWNpcmNsZUVuZCI+PGNpcmNsZSBzdHlsZT0ic3Ryb2tlLXdpZHRoOiAwOyBzdHJva2UtZGFzaGFycmF5OiAxLCAwOyIgY2xhc3M9ImFycm93TWFya2VyUGF0aCIgcj0iNSIgY3k9IjUiIGN4PSI1Ii8+PC9tYXJrZXI+PG1hcmtlciBvcmllbnQ9ImF1dG8iIG1hcmtlckhlaWdodD0iMTQiIG1hcmtlcldpZHRoPSIxNCIgbWFya2VyVW5pdHM9InVzZXJTcGFjZU9uVXNlIiByZWZZPSI1IiByZWZYPSIwIiB2aWV3Qm94PSIwIDAgMTAgMTAiIGNsYXNzPSJtYXJrZXIgZmxvd2NoYXJ0LXYyIiBpZD0iZXhwb3J0LXN2Z19mbG93Y2hhcnQtdjItY2lyY2xlU3RhcnQiPjxjaXJjbGUgc3R5bGU9InN0cm9rZS13aWR0aDogMDsgc3Ryb2tlLWRhc2hhcnJheTogMSwgMDsiIGNsYXNzPSJhcnJvd01hcmtlclBhdGgiIHI9IjUiIGN5PSI1IiBjeD0iNSIvPjwvbWFya2VyPjxtYXJrZXIgb3JpZW50PSJhdXRvIiBtYXJrZXJIZWlnaHQ9IjE0IiBtYXJrZXJXaWR0aD0iMTQiIG1hcmtlclVuaXRzPSJ1c2VyU3BhY2VPblVzZSIgcmVmWD0iMTIuMjUiIHJlZlk9IjUiIHZpZXdCb3g9IjAgMCAxMCAxMCIgY2xhc3M9Im1hcmtlciBmbG93Y2hhcnQtdjIiIGlkPSJleHBvcnQtc3ZnX2Zsb3djaGFydC12Mi1jaXJjbGVFbmQtbWFyZ2luIj48Y2lyY2xlIHN0eWxlPSJzdHJva2Utd2lkdGg6IDA7IHN0cm9rZS1kYXNoYXJyYXk6IDEsIDA7IiBjbGFzcz0iYXJyb3dNYXJrZXJQYXRoIiByPSI1IiBjeT0iNSIgY3g9IjUiLz48L21hcmtlcj48bWFya2VyIG9yaWVudD0iYXV0byIgbWFya2VySGVpZ2h0PSIxNCIgbWFya2VyV2lkdGg9IjE0IiBtYXJrZXJVbml0cz0idXNlclNwYWNlT25Vc2UiIHJlZlk9IjUiIHJlZlg9Ii0yIiB2aWV3Qm94PSIwIDAgMTAgMTAiIGNsYXNzPSJtYXJrZXIgZmxvd2NoYXJ0LXYyIiBpZD0iZXhwb3J0LXN2Z19mbG93Y2hhcnQtdjItY2lyY2xlU3RhcnQtbWFyZ2luIj48Y2lyY2xlIHN0eWxlPSJzdHJva2Utd2lkdGg6IDA7IHN0cm9rZS1kYXNoYXJyYXk6IDEsIDA7IiBjbGFzcz0iYXJyb3dNYXJrZXJQYXRoIiByPSI1IiBjeT0iNSIgY3g9IjUiLz48L21hcmtlcj48bWFya2VyIG9yaWVudD0iYXV0byIgbWFya2VySGVpZ2h0PSIxMiIgbWFya2VyV2lkdGg9IjEyIiBtYXJrZXJVbml0cz0idXNlclNwYWNlT25Vc2UiIHJlZlk9IjcuNSIgcmVmWD0iMTcuNyIgdmlld0JveD0iMCAwIDE1IDE1IiBjbGFzcz0ibWFya2VyIGNyb3NzIGZsb3djaGFydC12MiIgaWQ9ImV4cG9ydC1zdmdfZmxvd2NoYXJ0LXYyLWNyb3NzRW5kIj48cGF0aCBzdHlsZT0ic3Ryb2tlLXdpZHRoOiAyLjU7IiBjbGFzcz0iYXJyb3dNYXJrZXJQYXRoIiBkPSJNIDEsMSBMIDE0LDE0IE0gMSwxNCBMIDE0LDEiLz48L21hcmtlcj48bWFya2VyIG9yaWVudD0iYXV0byIgbWFya2VySGVpZ2h0PSIxMiIgbWFya2VyV2lkdGg9IjEyIiBtYXJrZXJVbml0cz0idXNlclNwYWNlT25Vc2UiIHJlZlk9IjcuNSIgcmVmWD0iLTMuNSIgdmlld0JveD0iMCAwIDE1IDE1IiBjbGFzcz0ibWFya2VyIGNyb3NzIGZsb3djaGFydC12MiIgaWQ9ImV4cG9ydC1zdmdfZmxvd2NoYXJ0LXYyLWNyb3NzU3RhcnQiPjxwYXRoIHN0eWxlPSJzdHJva2Utd2lkdGg6IDIuNTsgc3Ryb2tlLWRhc2hhcnJheTogMSwgMDsiIGNsYXNzPSJhcnJvd01hcmtlclBhdGgiIGQ9Ik0gMSwxIEwgMTQsMTQgTSAxLDE0IEwgMTQsMSIvPjwvbWFya2VyPjxtYXJrZXIgb3JpZW50PSJhdXRvIiBtYXJrZXJIZWlnaHQ9IjEyIiBtYXJrZXJXaWR0aD0iMTIiIG1hcmtlclVuaXRzPSJ1c2VyU3BhY2VPblVzZSIgcmVmWT0iNy41IiByZWZYPSIxNy43IiB2aWV3Qm94PSIwIDAgMTUgMTUiIGNsYXNzPSJtYXJrZXIgY3Jvc3MgZmxvd2NoYXJ0LXYyIiBpZD0iZXhwb3J0LXN2Z19mbG93Y2hhcnQtdjItY3Jvc3NFbmQtbWFyZ2luIj48cGF0aCBzdHlsZT0ic3Ryb2tlLXdpZHRoOiAyLjU7IiBjbGFzcz0iYXJyb3dNYXJrZXJQYXRoIiBkPSJNIDEsMSBMIDE0LDE0IE0gMSwxNCBMIDE0LDEiLz48L21hcmtlcj48bWFya2VyIG9yaWVudD0iYXV0byIgbWFya2VySGVpZ2h0PSIxMiIgbWFya2VyV2lkdGg9IjEyIiBtYXJrZXJVbml0cz0idXNlclNwYWNlT25Vc2UiIHJlZlk9IjcuNSIgcmVmWD0iLTMuNSIgdmlld0JveD0iMCAwIDE1IDE1IiBjbGFzcz0ibWFya2VyIGNyb3NzIGZsb3djaGFydC12MiIgaWQ9ImV4cG9ydC1zdmdfZmxvd2NoYXJ0LXYyLWNyb3NzU3RhcnQtbWFyZ2luIj48cGF0aCBzdHlsZT0ic3Ryb2tlLXdpZHRoOiAyLjU7IHN0cm9rZS1kYXNoYXJyYXk6IDEsIDA7IiBjbGFzcz0iYXJyb3dNYXJrZXJQYXRoIiBkPSJNIDEsMSBMIDE0LDE0IE0gMSwxNCBMIDE0LDEiLz48L21hcmtlcj48ZyBjbGFzcz0icm9vdCI+PGcgY2xhc3M9ImNsdXN0ZXJzIj48ZyBkYXRhLWxvb2s9Im5lbyIgZGF0YS1ldD0iY2x1c3RlciIgZGF0YS1pZD0i5YaN54++5oCn44GoR2l0566h55CGIiBpZD0i5YaN54++5oCn44GoR2l0566h55CGIiBjbGFzcz0iY2x1c3RlciI+PHJlY3QgaGVpZ2h0PSIxOTMuNzUiIHdpZHRoPSI0MzkuMTA5Mzc1IiB5PSIxMDcuNSIgeD0iMjI3NC4xNzE4NzUiIHN0eWxlPSIiLz48ZyB0cmFuc2Zvcm09InRyYW5zbGF0ZSgyNDQxLjIyNjU2MjUsIDEwNy41KSIgY2xhc3M9ImNsdXN0ZXItbGFiZWwiPjxmb3JlaWduT2JqZWN0IGhlaWdodD0iMjEiIHdpZHRoPSIxMDUiPjxkaXYgeG1sbnM9Imh0dHA6Ly93d3cudzMub3JnLzE5OTkveGh0bWwiIHN0eWxlPSJkaXNwbGF5OiB0YWJsZS1jZWxsOyB3aGl0ZS1zcGFjZTogbm9ybWFsOyBsaW5lLWhlaWdodDogMS41OyBtYXgtd2lkdGg6IDIwMHB4OyB0ZXh0LWFsaWduOiBjZW50ZXI7Ij48c3BhbiBjbGFzcz0ibm9kZUxhYmVsIj48cD7lho3nj77mgKfjgahHaXTnrqHnkIY8L3A+PC9zcGFuPjwvZGl2PjwvZm9yZWlnbk9iamVjdD48L2c+PC9nPjxnIGRhdGEtbG9vaz0ibmVvIiBkYXRhLWV0PSJjbHVzdGVyIiBkYXRhLWlkPSLoq5bmlofln7fnrYYiIGlkPSLoq5bmlofln7fnrYYiIGNsYXNzPSJjbHVzdGVyIj48cmVjdCBoZWlnaHQ9IjIzMS4yNSIgd2lkdGg9IjI0My40MjE4NzUiIHk9Ijk3LjUiIHg9IjE5ODAuNzUiIHN0eWxlPSIiLz48ZyB0cmFuc2Zvcm09InRyYW5zbGF0ZSgyMDc0LjQ2MDkzNzUsIDk3LjUpIiBjbGFzcz0iY2x1c3Rlci1sYWJlbCI+PGZvcmVpZ25PYmplY3QgaGVpZ2h0PSIyMSIgd2lkdGg9IjU2Ij48ZGl2IHhtbG5zPSJodHRwOi8vd3d3LnczLm9yZy8xOTk5L3hodG1sIiBzdHlsZT0iZGlzcGxheTogdGFibGUtY2VsbDsgd2hpdGUtc3BhY2U6IG5vcm1hbDsgbGluZS1oZWlnaHQ6IDEuNTsgbWF4LXdpZHRoOiAyMDBweDsgdGV4dC1hbGlnbjogY2VudGVyOyI+PHNwYW4gY2xhc3M9Im5vZGVMYWJlbCI+PHA+6KuW5paH5Z+3562GPC9wPjwvc3Bhbj48L2Rpdj48L2ZvcmVpZ25PYmplY3Q+PC9nPjwvZz48ZyBkYXRhLWxvb2s9Im5lbyIgZGF0YS1ldD0iY2x1c3RlciIgZGF0YS1pZD0i57WQ5p6c6Kej6YeI44Go5Y+v6KaW5YyWIiBpZD0i57WQ5p6c6Kej6YeI44Go5Y+v6KaW5YyWIiBjbGFzcz0iY2x1c3RlciI+PHJlY3QgaGVpZ2h0PSIyMjIuNSIgd2lkdGg9IjIwOCIgeT0iOTcuNSIgeD0iMTcyMi43NSIgc3R5bGU9IiIvPjxnIHRyYW5zZm9ybT0idHJhbnNsYXRlKDE3NzAuNzUsIDk3LjUpIiBjbGFzcz0iY2x1c3Rlci1sYWJlbCI+PGZvcmVpZ25PYmplY3QgaGVpZ2h0PSIyMSIgd2lkdGg9IjExMiI+PGRpdiB4bWxucz0iaHR0cDovL3d3dy53My5vcmcvMTk5OS94aHRtbCIgc3R5bGU9ImRpc3BsYXk6IHRhYmxlLWNlbGw7IHdoaXRlLXNwYWNlOiBub3JtYWw7IGxpbmUtaGVpZ2h0OiAxLjU7IG1heC13aWR0aDogMjAwcHg7IHRleHQtYWxpZ246IGNlbnRlcjsiPjxzcGFuIGNsYXNzPSJub2RlTGFiZWwiPjxwPue1kOaenOino+mHiOOBqOWPr+imluWMljwvcD48L3NwYW4+PC9kaXY+PC9mb3JlaWduT2JqZWN0PjwvZz48L2c+PGcgZGF0YS1sb29rPSJuZW8iIGRhdGEtZXQ9ImNsdXN0ZXIiIGRhdGEtaWQ9IuWIhuaekCIgaWQ9IuWIhuaekCIgY2xhc3M9ImNsdXN0ZXIiPjxyZWN0IGhlaWdodD0iMzYzLjUiIHdpZHRoPSI0NjIiIHk9IjgiIHg9IjEyMTAuNzUiIHN0eWxlPSIiLz48ZyB0cmFuc2Zvcm09InRyYW5zbGF0ZSgxNDI3Ljc1LCA4KSIgY2xhc3M9ImNsdXN0ZXItbGFiZWwiPjxmb3JlaWduT2JqZWN0IGhlaWdodD0iMjEiIHdpZHRoPSIyOCI+PGRpdiB4bWxucz0iaHR0cDovL3d3dy53My5vcmcvMTk5OS94aHRtbCIgc3R5bGU9ImRpc3BsYXk6IHRhYmxlLWNlbGw7IHdoaXRlLXNwYWNlOiBub3JtYWw7IGxpbmUtaGVpZ2h0OiAxLjU7IG1heC13aWR0aDogMjAwcHg7IHRleHQtYWxpZ246IGNlbnRlcjsiPjxzcGFuIGNsYXNzPSJub2RlTGFiZWwiPjxwPuWIhuaekDwvcD48L3NwYW4+PC9kaXY+PC9mb3JlaWduT2JqZWN0PjwvZz48L2c+PGcgZGF0YS1sb29rPSJuZW8iIGRhdGEtZXQ9ImNsdXN0ZXIiIGRhdGEtaWQ9IkxMTeWHpueQhiIgaWQ9IkxMTeWHpueQhiIgY2xhc3M9ImNsdXN0ZXIiPjxyZWN0IGhlaWdodD0iMzEyIiB3aWR0aD0iMjgyIiB5PSIyMiIgeD0iODc4Ljc1IiBzdHlsZT0iIi8+PGcgdHJhbnNmb3JtPSJ0cmFuc2xhdGUoOTkyLjQ0NTMxMjUsIDIyKSIgY2xhc3M9ImNsdXN0ZXItbGFiZWwiPjxmb3JlaWduT2JqZWN0IGhlaWdodD0iMjEiIHdpZHRoPSI1NC42MDkzNzUiPjxkaXYgeG1sbnM9Imh0dHA6Ly93d3cudzMub3JnLzE5OTkveGh0bWwiIHN0eWxlPSJkaXNwbGF5OiB0YWJsZS1jZWxsOyB3aGl0ZS1zcGFjZTogbm9ybWFsOyBsaW5lLWhlaWdodDogMS41OyBtYXgtd2lkdGg6IDIwMHB4OyB0ZXh0LWFsaWduOiBjZW50ZXI7Ij48c3BhbiBjbGFzcz0ibm9kZUxhYmVsIj48cD5MTE3lh6bnkIY8L3A+PC9zcGFuPjwvZGl2PjwvZm9yZWlnbk9iamVjdD48L2c+PC9nPjxnIGRhdGEtbG9vaz0ibmVvIiBkYXRhLWV0PSJjbHVzdGVyIiBkYXRhLWlkPSLjg4fjg7zjgr/liY3lh6bnkIYiIGlkPSLjg4fjg7zjgr/liY3lh6bnkIYiIGNsYXNzPSJjbHVzdGVyIj48cmVjdCBoZWlnaHQ9IjMwNSIgd2lkdGg9IjIzNC43NSIgeT0iODYuNSIgeD0iNTk0IiBzdHlsZT0iIi8+PGcgdHJhbnNmb3JtPSJ0cmFuc2xhdGUoNjY5LjM3NSwgODYuNSkiIGNsYXNzPSJjbHVzdGVyLWxhYmVsIj48Zm9yZWlnbk9iamVjdCBoZWlnaHQ9IjIxIiB3aWR0aD0iODQiPjxkaXYgeG1sbnM9Imh0dHA6Ly93d3cudzMub3JnLzE5OTkveGh0bWwiIHN0eWxlPSJkaXNwbGF5OiB0YWJsZS1jZWxsOyB3aGl0ZS1zcGFjZTogbm9ybWFsOyBsaW5lLWhlaWdodDogMS41OyBtYXgtd2lkdGg6IDIwMHB4OyB0ZXh0LWFsaWduOiBjZW50ZXI7Ij48c3BhbiBjbGFzcz0ibm9kZUxhYmVsIj48cD7jg4fjg7zjgr/liY3lh6bnkIY8L3A+PC9zcGFuPjwvZGl2PjwvZm9yZWlnbk9iamVjdD48L2c+PC9nPjxnIGRhdGEtbG9vaz0ibmVvIiBkYXRhLWV0PSJjbHVzdGVyIiBkYXRhLWlkPSLjg4fjg7zjgr/lj47pm4YiIGlkPSLjg4fjg7zjgr/lj47pm4YiIGNsYXNzPSJjbHVzdGVyIj48cmVjdCBoZWlnaHQ9IjMwNSIgd2lkdGg9IjIyMiIgeT0iODYuNSIgeD0iMzIyIiBzdHlsZT0iIi8+PGcgdHJhbnNmb3JtPSJ0cmFuc2xhdGUoMzk4LCA4Ni41KSIgY2xhc3M9ImNsdXN0ZXItbGFiZWwiPjxmb3JlaWduT2JqZWN0IGhlaWdodD0iMjEiIHdpZHRoPSI3MCI+PGRpdiB4bWxucz0iaHR0cDovL3d3dy53My5vcmcvMTk5OS94aHRtbCIgc3R5bGU9ImRpc3BsYXk6IHRhYmxlLWNlbGw7IHdoaXRlLXNwYWNlOiBub3JtYWw7IGxpbmUtaGVpZ2h0OiAxLjU7IG1heC13aWR0aDogMjAwcHg7IHRleHQtYWxpZ246IGNlbnRlcjsiPjxzcGFuIGNsYXNzPSJub2RlTGFiZWwiPjxwPuODh+ODvOOCv+WPjumbhjwvcD48L3NwYW4+PC9kaXY+PC9mb3JlaWduT2JqZWN0PjwvZz48L2c+PGcgZGF0YS1sb29rPSJuZW8iIGRhdGEtZXQ9ImNsdXN0ZXIiIGRhdGEtaWQ9Iua6luWCmSIgaWQ9Iua6luWCmSIgY2xhc3M9ImNsdXN0ZXIiPjxyZWN0IGhlaWdodD0iMjY4Ljc1IiB3aWR0aD0iMjY0IiB5PSIxMDQiIHg9IjgiIHN0eWxlPSIiLz48ZyB0cmFuc2Zvcm09InRyYW5zbGF0ZSgxMjYsIDEwNCkiIGNsYXNzPSJjbHVzdGVyLWxhYmVsIj48Zm9yZWlnbk9iamVjdCBoZWlnaHQ9IjIxIiB3aWR0aD0iMjgiPjxkaXYgeG1sbnM9Imh0dHA6Ly93d3cudzMub3JnLzE5OTkveGh0bWwiIHN0eWxlPSJkaXNwbGF5OiB0YWJsZS1jZWxsOyB3aGl0ZS1zcGFjZTogbm9ybWFsOyBsaW5lLWhlaWdodDogMS41OyBtYXgtd2lkdGg6IDIwMHB4OyB0ZXh0LWFsaWduOiBjZW50ZXI7Ij48c3BhbiBjbGFzcz0ibm9kZUxhYmVsIj48cD7mupblgpk8L3A+PC9zcGFuPjwvZGl2PjwvZm9yZWlnbk9iamVjdD48L2c+PC9nPjwvZz48ZyBjbGFzcz0iZWRnZVBhdGhzIj48cGF0aCBtYXJrZXItZW5kPSJ1cmwoI2V4cG9ydC1zdmdfZmxvd2NoYXJ0LXYyLXBvaW50RW5kLW1hcmdpbikiIGRhdGEtcG9pbnRzPSJXM3NpZUNJNk1UWXlMalF4TlRBNU5ETXpPVFl5TWpZMExDSjVJam95TlRSOUxIc2llQ0k2TWpjeUxDSjVJam94TkRSOUxIc2llQ0k2TWprM0xDSjVJam94TkRSOUxIc2llQ0k2TXpJeUxDSjVJam94TkRSOUxIc2llQ0k2TXpRM0xDSjVJam94TkRSOVhRPT0iIGRhdGEtaWQ9IkxfQTFfQjFfMCIgZGF0YS1ldD0iZWRnZSIgZGF0YS1lZGdlPSJ0cnVlIiBzdHlsZT0ic3Ryb2tlLWRhc2hhcnJheTogMCAwIDIxNi4wMDU3Njc4MjIyNjU2MiA5OyBzdHJva2UtZGFzaG9mZnNldDogMDs7IiBjbGFzcz0iZWRnZS10aGlja25lc3Mtbm9ybWFsIGVkZ2UtcGF0dGVybi1zb2xpZCBlZGdlLXRoaWNrbmVzcy1ub3JtYWwgZWRnZS1wYXR0ZXJuLXNvbGlkIGZsb3djaGFydC1saW5rIiBpZD0iTF9BMV9CMV8wIiBkPSJNMTYyLjQxNTA5NDMzOTYyMjY0LDI1NEwyNjMuMTc3ODg5NTcwMjA3OSwxNTIuODU1NTI3NTE0NzUzNFEyNzIsMTQ0IDI4NC41LDE0NEwyOTcsMTQ0TDMyMiwxNDRMMzQzLDE0NCIvPjxwYXRoIG1hcmtlci1lbmQ9InVybCgjZXhwb3J0LXN2Z19mbG93Y2hhcnQtdjItcG9pbnRFbmQtbWFyZ2luKSIgZGF0YS1wb2ludHM9Ilczc2llQ0k2TWpFNUxqSXNJbmtpT2pJMU5IMHNleUo0SWpveU56SXNJbmtpT2pJek9YMHNleUo0SWpveU9UY3NJbmtpT2pJek9YMHNleUo0SWpvek1qSXNJbmtpT2pJek9YMHNleUo0SWpvek5qRXNJbmtpT2pJek9YMWQiIGRhdGEtaWQ9IkxfQTFfQjJfMCIgZGF0YS1ldD0iZWRnZSIgZGF0YS1lZGdlPSJ0cnVlIiBzdHlsZT0ic3Ryb2tlLWRhc2hhcnJheTogMCAwIDEzMC43MzAxNDgzMTU0Mjk3IDk7IHN0cm9rZS1kYXNob2Zmc2V0OiAwOzsiIGNsYXNzPSJlZGdlLXRoaWNrbmVzcy1ub3JtYWwgZWRnZS1wYXR0ZXJuLXNvbGlkIGVkZ2UtdGhpY2tuZXNzLW5vcm1hbCBlZGdlLXBhdHRlcm4tc29saWQgZmxvd2NoYXJ0LWxpbmsiIGlkPSJMX0ExX0IyXzAiIGQ9Ik0yMTkuMiwyNTRMMjU5Ljk3NTgwODAzMTQ2NzcsMjQyLjQxNTk2MzYyNzQyMzkzUTI3MiwyMzkgMjg0LjUsMjM5TDI5NywyMzlMMzIyLDIzOUwzNTcsMjM5Ii8+PHBhdGggbWFya2VyLWVuZD0idXJsKCNleHBvcnQtc3ZnX2Zsb3djaGFydC12Mi1wb2ludEVuZC1tYXJnaW4pIiBkYXRhLXBvaW50cz0iVzNzaWVDSTZNVGt4TGpZMU1qRTNNemt4TXpBME16UTNMQ0o1SWpveU9UbDlMSHNpZUNJNk1qY3lMQ0o1SWpvek16UjlMSHNpZUNJNk1qazNMQ0o1SWpvek16UjlMSHNpZUNJNk16SXlMQ0o1SWpvek16UjlMSHNpZUNJNk16UTNMQ0o1SWpvek16UjlYUT09IiBkYXRhLWlkPSJMX0ExX0IzXzAiIGRhdGEtZXQ9ImVkZ2UiIGRhdGEtZWRnZT0idHJ1ZSIgc3R5bGU9InN0cm9rZS1kYXNoYXJyYXk6IDAgMCAxNDkuMjkwNDM1NzkxMDE1NjIgOTsgc3Ryb2tlLWRhc2hvZmZzZXQ6IDA7OyIgY2xhc3M9ImVkZ2UtdGhpY2tuZXNzLW5vcm1hbCBlZGdlLXBhdHRlcm4tc29saWQgZWRnZS10aGlja25lc3Mtbm9ybWFsIGVkZ2UtcGF0dGVybi1zb2xpZCBmbG93Y2hhcnQtbGluayIgaWQ9IkxfQTFfQjNfMCIgZD0iTTE5MS42NTIxNzM5MTMwNDM0NywyOTlMMjYwLjU0MDA3NzY2MzkxNDY0LDMyOS4wMDc5ODgzNzYzMjY0N1EyNzIsMzM0IDI4NC41LDMzNEwyOTcsMzM0TDMyMiwzMzRMMzQzLDMzNCIvPjxwYXRoIG1hcmtlci1lbmQ9InVybCgjZXhwb3J0LXN2Z19mbG93Y2hhcnQtdjItcG9pbnRFbmQtbWFyZ2luKSIgZGF0YS1wb2ludHM9Ilczc2llQ0k2TlRFNUxDSjVJam94TkRSOUxIc2llQ0k2TlRRMExDSjVJam94TkRSOUxIc2llQ0k2TlRZNUxDSjVJam94TkRSOUxIc2llQ0k2TlRrMExDSjVJam94TkRSOUxIc2llQ0k2TmpJMUxqVTNPREV5TlN3aWVTSTZNVFEwZlYwPSIgZGF0YS1pZD0iTF9CMV9DMV8wIiBkYXRhLWV0PSJlZGdlIiBkYXRhLWVkZ2U9InRydWUiIHN0eWxlPSJzdHJva2UtZGFzaGFycmF5OiAwIDAgOTMuNTc4MTI1IDk7IHN0cm9rZS1kYXNob2Zmc2V0OiAwOzsiIGNsYXNzPSJlZGdlLXRoaWNrbmVzcy1ub3JtYWwgZWRnZS1wYXR0ZXJuLXNvbGlkIGVkZ2UtdGhpY2tuZXNzLW5vcm1hbCBlZGdlLXBhdHRlcm4tc29saWQgZmxvd2NoYXJ0LWxpbmsiIGlkPSJMX0IxX0MxXzAiIGQ9Ik01MTksMTQ0TDU0NCwxNDRMNTY5LDE0NEw1OTQsMTQ0TDYyMS41NzgxMjUsMTQ0Ii8+PHBhdGggbWFya2VyLWVuZD0idXJsKCNleHBvcnQtc3ZnX2Zsb3djaGFydC12Mi1wb2ludEVuZC1tYXJnaW4pIiBkYXRhLXBvaW50cz0iVzNzaWVDSTZOVEExTENKNUlqb3lNemw5TEhzaWVDSTZOVFEwTENKNUlqb3lNemw5TEhzaWVDSTZOVFk1TENKNUlqb3lNemw5TEhzaWVDSTZOVGswTENKNUlqb3lNemw5TEhzaWVDSTZOakU1TENKNUlqb3lNemw5WFE9PSIgZGF0YS1pZD0iTF9CMl9DMl8wIiBkYXRhLWV0PSJlZGdlIiBkYXRhLWVkZ2U9InRydWUiIHN0eWxlPSJzdHJva2UtZGFzaGFycmF5OiAwIDAgMTAxIDk7IHN0cm9rZS1kYXNob2Zmc2V0OiAwOzsiIGNsYXNzPSJlZGdlLXRoaWNrbmVzcy1ub3JtYWwgZWRnZS1wYXR0ZXJuLXNvbGlkIGVkZ2UtdGhpY2tuZXNzLW5vcm1hbCBlZGdlLXBhdHRlcm4tc29saWQgZmxvd2NoYXJ0LWxpbmsiIGlkPSJMX0IyX0MyXzAiIGQ9Ik01MDUsMjM5TDU0NCwyMzlMNTY5LDIzOUw1OTQsMjM5TDYxNSwyMzkiLz48cGF0aCBtYXJrZXItZW5kPSJ1cmwoI2V4cG9ydC1zdmdfZmxvd2NoYXJ0LXYyLXBvaW50RW5kLW1hcmdpbikiIGRhdGEtcG9pbnRzPSJXM3NpZUNJNk5URTVMQ0o1SWpvek16UjlMSHNpZUNJNk5UUTBMQ0o1SWpvek16UjlMSHNpZUNJNk5UWTVMQ0o1SWpvek16UjlMSHNpZUNJNk5UazBMQ0o1SWpvek16UjlMSHNpZUNJNk5qUTJMak0zTlN3aWVTSTZNek0wZlYwPSIgZGF0YS1pZD0iTF9CM19DM18wIiBkYXRhLWV0PSJlZGdlIiBkYXRhLWVkZ2U9InRydWUiIHN0eWxlPSJzdHJva2UtZGFzaGFycmF5OiAwIDAgMTE0LjM3NSA5OyBzdHJva2UtZGFzaG9mZnNldDogMDs7IiBjbGFzcz0iZWRnZS10aGlja25lc3Mtbm9ybWFsIGVkZ2UtcGF0dGVybi1zb2xpZCBlZGdlLXRoaWNrbmVzcy1ub3JtYWwgZWRnZS1wYXR0ZXJuLXNvbGlkIGZsb3djaGFydC1saW5rIiBpZD0iTF9CM19DM18wIiBkPSJNNTE5LDMzNEw1NDQsMzM0TDU2OSwzMzRMNTk0LDMzNEw2NDIuMzc1LDMzNCIvPjxwYXRoIG1hcmtlci1lbmQ9InVybCgjZXhwb3J0LXN2Z19mbG93Y2hhcnQtdjItcG9pbnRFbmQtbWFyZ2luKSIgZGF0YS1wb2ludHM9Ilczc2llQ0k2TnprM0xqRTNNVGczTlN3aWVTSTZNVFEwZlN4N0luZ2lPamd5T0M0M05Td2llU0k2TVRRMGZTeDdJbmdpT2pnMU15NDNOU3dpZVNJNk1UUTBmU3g3SW5naU9qZzNPQzQzTlN3aWVTSTZNVFEwZlN4N0luZ2lPamt3TXk0M05Td2llU0k2TVRRMGZWMD0iIGRhdGEtaWQ9IkxfQzFfRDFfMCIgZGF0YS1ldD0iZWRnZSIgZGF0YS1lZGdlPSJ0cnVlIiBzdHlsZT0ic3Ryb2tlLWRhc2hhcnJheTogMCAwIDkzLjU3ODEyNSA5OyBzdHJva2UtZGFzaG9mZnNldDogMDs7IiBjbGFzcz0iZWRnZS10aGlja25lc3Mtbm9ybWFsIGVkZ2UtcGF0dGVybi1zb2xpZCBlZGdlLXRoaWNrbmVzcy1ub3JtYWwgZWRnZS1wYXR0ZXJuLXNvbGlkIGZsb3djaGFydC1saW5rIiBpZD0iTF9DMV9EMV8wIiBkPSJNNzk3LjE3MTg3NSwxNDRMODI4Ljc1LDE0NEw4NTMuNzUsMTQ0TDg3OC43NSwxNDRMODk5Ljc1LDE0NCIvPjxwYXRoIG1hcmtlci1lbmQ9InVybCgjZXhwb3J0LXN2Z19mbG93Y2hhcnQtdjItcG9pbnRFbmQtbWFyZ2luKSIgZGF0YS1wb2ludHM9Ilczc2llQ0k2TVRBNE9DNHhOelkwTnpBMU9EZ3lNelUwTENKNUlqb3hNVEY5TEhzaWVDSTZNVEUyTUM0M05Td2llU0k2TnpaOUxIc2llQ0k2TVRFNE5TNDNOU3dpZVNJNk56WjlMSHNpZUNJNk1USXhNQzQzTlN3aWVTSTZOelo5TEhzaWVDSTZNVEl6TlM0M05Td2llU0k2TnpaOVhRPT0iIGRhdGEtaWQ9IkxfRDFfRTFfMCIgZGF0YS1ldD0iZWRnZSIgZGF0YS1lZGdlPSJ0cnVlIiBzdHlsZT0ic3Ryb2tlLWRhc2hhcnJheTogMCAwIDE0Mi4xNTQ2MDIwNTA3ODEyNSA5OyBzdHJva2UtZGFzaG9mZnNldDogMDs7IiBjbGFzcz0iZWRnZS10aGlja25lc3Mtbm9ybWFsIGVkZ2UtcGF0dGVybi1zb2xpZCBlZGdlLXRoaWNrbmVzcy1ub3JtYWwgZWRnZS1wYXR0ZXJuLXNvbGlkIGZsb3djaGFydC1saW5rIiBpZD0iTF9EMV9FMV8wIiBkPSJNMTA4OC4xNzY0NzA1ODgyMzU0LDExMUwxMTQ5LjQ5MDk0OTM2NTk4MzQsODEuNDI5ODk2NzU5NjY3NjFRMTE2MC43NSw3NiAxMTczLjI1LDc2TDExODUuNzUsNzZMMTIxMC43NSw3NkwxMjMxLjc1LDc2Ii8+PHBhdGggbWFya2VyLWVuZD0idXJsKCNleHBvcnQtc3ZnX2Zsb3djaGFydC12Mi1wb2ludEVuZC1tYXJnaW4pIiBkYXRhLXBvaW50cz0iVzNzaWVDSTZNVEV6TlM0M05Td2llU0k2TVRjMExqZzFNVEEyTXpneU9UYzROekl5ZlN4N0luZ2lPakV4TmpBdU56VXNJbmtpT2pFNE1TNDFmU3g3SW5naU9qRXhPRFV1TnpVc0lua2lPakU0TVM0MWZTeDdJbmdpT2pFeU1UQXVOelVzSW5raU9qRTRNUzQxZlN4N0luZ2lPakV5TmpVdU1UZzNOU3dpZVNJNk1UZ3hMalY5WFE9PSIgZGF0YS1pZD0iTF9EMV9FMl8wIiBkYXRhLWV0PSJlZGdlIiBkYXRhLWVkZ2U9InRydWUiIHN0eWxlPSJzdHJva2UtZGFzaGFycmF5OiAwIDAgMTE3LjE2NjE4MzQ3MTY3OTY5IDk7IHN0cm9rZS1kYXNob2Zmc2V0OiAwOzsiIGNsYXNzPSJlZGdlLXRoaWNrbmVzcy1ub3JtYWwgZWRnZS1wYXR0ZXJuLXNvbGlkIGVkZ2UtdGhpY2tuZXNzLW5vcm1hbCBlZGdlLXBhdHRlcm4tc29saWQgZmxvd2NoYXJ0LWxpbmsiIGlkPSJMX0QxX0UyXzAiIGQ9Ik0xMTM1Ljc1LDE3NC44NTEwNjM4Mjk3ODcyMkwxMTQ4LjY2OTkzMjkzNTA0MzgsMTc4LjI4NzIxNjIwNjEyODY4UTExNjAuNzUsMTgxLjUgMTE3My4yNSwxODEuNUwxMTg1Ljc1LDE4MS41TDEyMTAuNzUsMTgxLjVMMTI2MS4xODc1LDE4MS41Ii8+PHBhdGggbWFya2VyLWVuZD0idXJsKCNleHBvcnQtc3ZnX2Zsb3djaGFydC12Mi1wb2ludEVuZC1tYXJnaW4pIiBkYXRhLXBvaW50cz0iVzNzaWVDSTZNVEEwTnk0eE1qQTFPRGd5TXpVeU9UUXNJbmtpT2pFM04zMHNleUo0SWpveE1UWXdMamMxTENKNUlqb3pNVFI5TEhzaWVDSTZNVEU0TlM0M05Td2llU0k2TXpFMGZTeDdJbmdpT2pFeU1UQXVOelVzSW5raU9qTXhOSDBzZXlKNElqb3hNamt6TGpjMUxDSjVJam96TVRSOVhRPT0iIGRhdGEtaWQ9IkxfRDFfRTNfMCIgZGF0YS1ldD0iZWRnZSIgZGF0YS1lZGdlPSJ0cnVlIiBzdHlsZT0ic3Ryb2tlLWRhc2hhcnJheTogMCAwIDI5Ni41MTc3MDAxOTUzMTI1IDk7IHN0cm9rZS1kYXNob2Zmc2V0OiAwOzsiIGNsYXNzPSJlZGdlLXRoaWNrbmVzcy1ub3JtYWwgZWRnZS1wYXR0ZXJuLXNvbGlkIGVkZ2UtdGhpY2tuZXNzLW5vcm1hbCBlZGdlLXBhdHRlcm4tc29saWQgZmxvd2NoYXJ0LWxpbmsiIGlkPSJMX0QxX0UzXzAiIGQ9Ik0xMDQ3LjEyMDU4ODIzNTI5NCwxNzdMMTE1My4yNDMwMTg2NzUwOTIsMzA0Ljk0OTAyOTYwODI2NjdRMTE2MC43NSwzMTQgMTE3Mi41MDkwMzIwMDI4NzE0LDMxNEwxMTg1Ljc1LDMxNEwxMjEwLjc1LDMxNEwxMjg5Ljc1LDMxNCIvPjxwYXRoIG1hcmtlci1lbmQ9InVybCgjZXhwb3J0LXN2Z19mbG93Y2hhcnQtdjItcG9pbnRFbmQtbWFyZ2luKSIgZGF0YS1wb2ludHM9Ilczc2llQ0k2TVRRMk55NDNOU3dpZVNJNk56WjlMSHNpZUNJNk1UUTVNaTQzTlN3aWVTSTZOelo5TEhzaWVDSTZNVFUyTUM0ek1USXpNalk0TmprNE1EWXlMQ0o1SWpveE5ETXVOelY5WFE9PSIgZGF0YS1pZD0iTF9FMV9FNF8wIiBkYXRhLWV0PSJlZGdlIiBkYXRhLWVkZ2U9InRydWUiIHN0eWxlPSJzdHJva2UtZGFzaGFycmF5OiAwIDAgMTA2LjQxNzU1Njc2MjY5NTMxIDk7IHN0cm9rZS1kYXNob2Zmc2V0OiAwOzsiIGNsYXNzPSJlZGdlLXRoaWNrbmVzcy1ub3JtYWwgZWRnZS1wYXR0ZXJuLXNvbGlkIGVkZ2UtdGhpY2tuZXNzLW5vcm1hbCBlZGdlLXBhdHRlcm4tc29saWQgZmxvd2NoYXJ0LWxpbmsiIGlkPSJMX0UxX0U0XzAiIGQ9Ik0xNDY3Ljc1LDc2TDE0ODAuMjUsNzZRMTQ5Mi43NSw3NiAxNTAxLjU3NjU2NzE0MjMzNCw4NC44NTEwODUzODQzOTYwNkwxNTU3LjQ4NzgyNTM4NDI1OTIsMTQwLjkxNzY1MjY3Njk5MzI3Ii8+PHBhdGggbWFya2VyLWVuZD0idXJsKCNleHBvcnQtc3ZnX2Zsb3djaGFydC12Mi1wb2ludEVuZC1tYXJnaW4pIiBkYXRhLXBvaW50cz0iVzNzaWVDSTZNVFF6T0M0ek1USTFMQ0o1SWpveE9ERXVOWDBzZXlKNElqb3hORGt5TGpjMUxDSjVJam94T0RFdU5YMHNleUo0SWpveE5URTNMamMxTENKNUlqb3hOemN1TWpZek9EZzRPRGc0T0RnNE9EbDlYUT09IiBkYXRhLWlkPSJMX0UyX0U0XzAiIGRhdGEtZXQ9ImVkZ2UiIGRhdGEtZWRnZT0idHJ1ZSIgc3R5bGU9InN0cm9rZS1kYXNoYXJyYXk6IDAgMCA2Ni43NDM4NTA3MDgwMDc4MSA5OyBzdHJva2UtZGFzaG9mZnNldDogMDs7IiBjbGFzcz0iZWRnZS10aGlja25lc3Mtbm9ybWFsIGVkZ2UtcGF0dGVybi1zb2xpZCBlZGdlLXRoaWNrbmVzcy1ub3JtYWwgZWRnZS1wYXR0ZXJuLXNvbGlkIGZsb3djaGFydC1saW5rIiBpZD0iTF9FMl9FNF8wIiBkPSJNMTQzOC4zMTI1LDE4MS41TDE0ODIuMDcxODIzNTAxMTMzMiwxODEuNVExNDkyLjc1LDE4MS41IDE1MDMuMjc4MTA3NTkwODQ4MywxNzkuNzE2MDcwNjU4MjE3MzVMMTUxMy44MDYyMTUxODE2OTY5LDE3Ny45MzIxNDEzMTY0MzQ3MiIvPjxwYXRoIG1hcmtlci1lbmQ9InVybCgjZXhwb3J0LXN2Z19mbG93Y2hhcnQtdjItcG9pbnRFbmQtbWFyZ2luKSIgZGF0YS1wb2ludHM9Ilczc2llQ0k2TVRRd09TNDNOU3dpZVNJNk16RTBmU3g3SW5naU9qRTBPVEl1TnpVc0lua2lPak14Tkgwc2V5SjRJam94TlRZNUxqQTBORFF4TmpJME16WTFORGNzSW5raU9qRTRPQzQzTlgxZCIgZGF0YS1pZD0iTF9FM19FNF8wIiBkYXRhLWV0PSJlZGdlIiBkYXRhLWVkZ2U9InRydWUiIHN0eWxlPSJzdHJva2UtZGFzaGFycmF5OiAwIDAgMjE0LjkzNzMzMjE1MzMyMDMgOTsgc3Ryb2tlLWRhc2hvZmZzZXQ6IDA7OyIgY2xhc3M9ImVkZ2UtdGhpY2tuZXNzLW5vcm1hbCBlZGdlLXBhdHRlcm4tc29saWQgZWRnZS10aGlja25lc3Mtbm9ybWFsIGVkZ2UtcGF0dGVybi1zb2xpZCBmbG93Y2hhcnQtbGluayIgaWQ9IkxfRTNfRTRfMCIgZD0iTTE0MDkuNzUsMzE0TDE0ODIuNTQxNDMxOTQ4NDg1OCwzMTRRMTQ5Mi43NSwzMTQgMTQ5OC4wNjA3MjE0ODMwNTQsMzA1LjI4MTU2NTU2NTMxOTQ1TDE1NjYuOTYzNTI4MzI0MzA4OCwxOTIuMTY2MTI0MzM0MjU5NTQiLz48cGF0aCBtYXJrZXItZW5kPSJ1cmwoI2V4cG9ydC1zdmdfZmxvd2NoYXJ0LXYyLXBvaW50RW5kLW1hcmdpbikiIGRhdGEtcG9pbnRzPSJXM3NpZUNJNk1UWTBOeTQzTlN3aWVTSTZNVFkyTGpJMWZTeDdJbmdpT2pFMk56SXVOelVzSW5raU9qRTJOaTR5Tlgwc2V5SjRJam94TmprM0xqYzFMQ0o1SWpveE5qWXVNalY5TEhzaWVDSTZNVGN5TWk0M05Td2llU0k2TVRZMkxqSTFmU3g3SW5naU9qRTNORGN1TnpVc0lua2lPakUyTmk0eU5YMWQiIGRhdGEtaWQ9IkxfRTRfRjFfMCIgZGF0YS1ldD0iZWRnZSIgZGF0YS1lZGdlPSJ0cnVlIiBzdHlsZT0ic3Ryb2tlLWRhc2hhcnJheTogMCAwIDg3IDk7IHN0cm9rZS1kYXNob2Zmc2V0OiAwOzsiIGNsYXNzPSJlZGdlLXRoaWNrbmVzcy1ub3JtYWwgZWRnZS1wYXR0ZXJuLXNvbGlkIGVkZ2UtdGhpY2tuZXNzLW5vcm1hbCBlZGdlLXBhdHRlcm4tc29saWQgZmxvd2NoYXJ0LWxpbmsiIGlkPSJMX0U0X0YxXzAiIGQ9Ik0xNjQ3Ljc1LDE2Ni4yNUwxNjcyLjc1LDE2Ni4yNUwxNjk3Ljc1LDE2Ni4yNUwxNzIyLjc1LDE2Ni4yNUwxNzQzLjc1LDE2Ni4yNSIvPjxwYXRoIG1hcmtlci1lbmQ9InVybCgjZXhwb3J0LXN2Z19mbG93Y2hhcnQtdjItcG9pbnRFbmQtbWFyZ2luKSIgZGF0YS1wb2ludHM9Ilczc2llQ0k2TVRZd05DNHdOalUzT0RrME56TTJPRFF5TENKNUlqb3hPRGd1TnpWOUxIc2llQ0k2TVRZM01pNDNOU3dpZVNJNk1qWXhMakkxZlN4N0luZ2lPakUyT1RjdU56VXNJbmtpT2pJMk1TNHlOWDBzZXlKNElqb3hOekl5TGpjMUxDSjVJam95TmpFdU1qVjlMSHNpZUNJNk1UYzBOeTQzTlN3aWVTSTZNall4TGpJMWZWMD0iIGRhdGEtaWQ9IkxfRTRfRjJfMCIgZGF0YS1ldD0iZWRnZSIgZGF0YS1lZGdlPSJ0cnVlIiBzdHlsZT0ic3Ryb2tlLWRhc2hhcnJheTogMCAwIDE2MC41MjQyNjE0NzQ2MDkzOCA5OyBzdHJva2UtZGFzaG9mZnNldDogMDs7IiBjbGFzcz0iZWRnZS10aGlja25lc3Mtbm9ybWFsIGVkZ2UtcGF0dGVybi1zb2xpZCBlZGdlLXRoaWNrbmVzcy1ub3JtYWwgZWRnZS1wYXR0ZXJuLXNvbGlkIGZsb3djaGFydC1saW5rIiBpZD0iTF9FNF9GMl8wIiBkPSJNMTYwNC4wNjU3ODk0NzM2ODQyLDE4OC43NUwxNjY0LjE1MzE5MTkwMTExNTIsMjUyLjE3NTU5MTQ1MTE3NzE4UTE2NzIuNzUsMjYxLjI1IDE2ODUuMjUsMjYxLjI1TDE2OTcuNzUsMjYxLjI1TDE3MjIuNzUsMjYxLjI1TDE3NDMuNzUsMjYxLjI1Ii8+PHBhdGggbWFya2VyLWVuZD0idXJsKCNleHBvcnQtc3ZnX2Zsb3djaGFydC12Mi1wb2ludEVuZC1tYXJnaW4pIiBkYXRhLXBvaW50cz0iVzNzaWVDSTZNVGt3TlM0M05Td2llU0k2TVRVeExqQTFOelk1TWpNd056WTVNak15ZlN4N0luZ2lPakU1TXpBdU56VXNJbmtpT2pFME5pNHlOWDBzZXlKNElqb3hPVFUxTGpjMUxDSjVJam94TkRZdU1qVjlMSHNpZUNJNk1UazRNQzQzTlN3aWVTSTZNVFEyTGpJMWZTeDdJbmdpT2pJd01EVXVOelVzSW5raU9qRTBPQzR6TURRd05EY3hNVFEzTURVM2ZWMD0iIGRhdGEtaWQ9IkxfRjFfRzFfMCIgZGF0YS1ldD0iZWRnZSIgZGF0YS1lZGdlPSJ0cnVlIiBzdHlsZT0ic3Ryb2tlLWRhc2hhcnJheTogMCAwIDg3LjQ1NTQ1OTU5NDcyNjU2IDk7IHN0cm9rZS1kYXNob2Zmc2V0OiAwOzsiIGNsYXNzPSJlZGdlLXRoaWNrbmVzcy1ub3JtYWwgZWRnZS1wYXR0ZXJuLXNvbGlkIGVkZ2UtdGhpY2tuZXNzLW5vcm1hbCBlZGdlLXBhdHRlcm4tc29saWQgZmxvd2NoYXJ0LWxpbmsiIGlkPSJMX0YxX0cxXzAiIGQ9Ik0xOTA1Ljc1LDE1MS4wNTc2OTIzMDc2OTIzMkwxOTE4LjQ3NDkxOTQxMjc0MTksMTQ4LjYxMDU5MjQyMDYyNjU3UTE5MzAuNzUsMTQ2LjI1IDE5NDMuMjUsMTQ2LjI1TDE5NTUuNzUsMTQ2LjI1TDE5NzAuMjA3ODc5ODY4NzI0MSwxNDYuMjVRMTk4MC43NSwxNDYuMjUgMTk5MS4yNTY3MTY1ODg3MTYyLDE0Ny4xMTMyNTE2MzU3NjMzTDIwMDEuNzYzNDMzMTc3NDMyNSwxNDcuOTc2NTAzMjcxNTI2NjQiLz48cGF0aCBtYXJrZXItZW5kPSJ1cmwoI2V4cG9ydC1zdmdfZmxvd2NoYXJ0LXYyLXBvaW50RW5kLW1hcmdpbikiIGRhdGEtcG9pbnRzPSJXM3NpZUNJNk1UZzJOeTQwTkRVMk5USXhOek01TVRNc0lua2lPakU0T0M0M05YMHNleUo0SWpveE9UTXdMamMxTENKNUlqb3lNak11TnpWOUxIc2llQ0k2TVRrMU5TNDNOU3dpZVNJNk1qSXpMamMxZlN4N0luZ2lPakU1T0RBdU56VXNJbmtpT2pJeU15NDNOWDBzZXlKNElqb3lNRFEwTGpnd09ETTRPREUxTnpnNU5EZ3NJbmtpT2pJME9DNDNOWDFkIiBkYXRhLWlkPSJMX0YxX0cyXzAiIGRhdGEtZXQ9ImVkZ2UiIGRhdGEtZWRnZT0idHJ1ZSIgc3R5bGU9InN0cm9rZS1kYXNoYXJyYXk6IDAgMCAxNzcuMjg1NzY2NjAxNTYyNSA5OyBzdHJva2UtZGFzaG9mZnNldDogMDs7IiBjbGFzcz0iZWRnZS10aGlja25lc3Mtbm9ybWFsIGVkZ2UtcGF0dGVybi1zb2xpZCBlZGdlLXRoaWNrbmVzcy1ub3JtYWwgZWRnZS1wYXR0ZXJuLXNvbGlkIGZsb3djaGFydC1saW5rIiBpZD0iTF9GMV9HMl8wIiBkPSJNMTg2Ny40NDU2NTIxNzM5MTMsMTg4Ljc1TDE5MTkuODEwNjUyODQ2MjU5NywyMTcuNzAxODAzMjU2MzQ1NVExOTMwLjc1LDIyMy43NSAxOTQzLjI1LDIyMy43NUwxOTU1Ljc1LDIyMy43NUwxOTY4LjI1LDIyMy43NVExOTgwLjc1LDIyMy43NSAxOTkyLjM5NDYyMTQ1NDY0MzEsMjI4LjI5NDUzNDIwOTE0MjQzTDIwNDEuMDgyMTA5MjkyNDA5LDI0Ny4yOTU3NDkwNTMwNzQ0MiIvPjxwYXRoIG1hcmtlci1lbmQ9InVybCgjZXhwb3J0LXN2Z19mbG93Y2hhcnQtdjItcG9pbnRFbmQtbWFyZ2luKSIgZGF0YS1wb2ludHM9Ilczc2llQ0k2TVRnMk55NDBORFUyTlRJeE56TTVNVE1zSW5raU9qSXpPQzQzTlgwc2V5SjRJam94T1RNd0xqYzFMQ0o1SWpveU1ETXVOelY5TEhzaWVDSTZNVGsxTlM0M05Td2llU0k2TWpBekxqYzFmU3g3SW5naU9qRTVPREF1TnpVc0lua2lPakl3TXk0M05YMHNleUo0SWpveU1EUTBMamd3T0RNNE9ERTFOemc1TkRnc0lua2lPakUzT0M0M05YMWQiIGRhdGEtaWQ9IkxfRjJfRzFfMCIgZGF0YS1ldD0iZWRnZSIgZGF0YS1lZGdlPSJ0cnVlIiBzdHlsZT0ic3Ryb2tlLWRhc2hhcnJheTogMCAwIDE3Ny4yODU3NjY2MDE1NjI1IDk7IHN0cm9rZS1kYXNob2Zmc2V0OiAwOzsiIGNsYXNzPSJlZGdlLXRoaWNrbmVzcy1ub3JtYWwgZWRnZS1wYXR0ZXJuLXNvbGlkIGVkZ2UtdGhpY2tuZXNzLW5vcm1hbCBlZGdlLXBhdHRlcm4tc29saWQgZmxvd2NoYXJ0LWxpbmsiIGlkPSJMX0YyX0cxXzAiIGQ9Ik0xODY3LjQ0NTY1MjE3MzkxMywyMzguNzVMMTkxOS44MTA2NTI4NDYyNTk3LDIwOS43OTgxOTY3NDM2NTQ1UTE5MzAuNzUsMjAzLjc1IDE5NDMuMjUsMjAzLjc1TDE5NTUuNzUsMjAzLjc1TDE5NjguMjUsMjAzLjc1UTE5ODAuNzUsMjAzLjc1IDE5OTIuMzk0NjIxNDU0NjQzMSwxOTkuMjA1NDY1NzkwODU3NTdMMjA0MS4wODIxMDkyOTI0MDksMTgwLjIwNDI1MDk0NjkyNTU4Ii8+PHBhdGggbWFya2VyLWVuZD0idXJsKCNleHBvcnQtc3ZnX2Zsb3djaGFydC12Mi1wb2ludEVuZC1tYXJnaW4pIiBkYXRhLXBvaW50cz0iVzNzaWVDSTZNVGt3TlM0M05Td2llU0k2TWpjMkxqUTBNak13TnpZNU1qTXdOemQ5TEhzaWVDSTZNVGt6TUM0M05Td2llU0k2TWpneExqSTFmU3g3SW5naU9qRTVOVFV1TnpVc0lua2lPakk0TVM0eU5YMHNleUo0SWpveE9UZ3dMamMxTENKNUlqb3lPREV1TWpWOUxIc2llQ0k2TWpBeE5pNDBOakE1TXpjMUxDSjVJam95TnpndU16RTFPVEl5TURjME5UZzNObjFkIiBkYXRhLWlkPSJMX0YyX0cyXzAiIGRhdGEtZXQ9ImVkZ2UiIGRhdGEtZWRnZT0idHJ1ZSIgc3R5bGU9InN0cm9rZS1kYXNoYXJyYXk6IDAgMCA5OC4yMDAzMDIxMjQwMjM0NCA5OyBzdHJva2UtZGFzaG9mZnNldDogMDs7IiBjbGFzcz0iZWRnZS10aGlja25lc3Mtbm9ybWFsIGVkZ2UtcGF0dGVybi1zb2xpZCBlZGdlLXRoaWNrbmVzcy1ub3JtYWwgZWRnZS1wYXR0ZXJuLXNvbGlkIGZsb3djaGFydC1saW5rIiBpZD0iTF9GMl9HMl8wIiBkPSJNMTkwNS43NSwyNzYuNDQyMzA3NjkyMzA3N0wxOTE4LjQ3NDkxOTQxMjc0MTksMjc4Ljg4OTQwNzU3OTM3MzRRMTkzMC43NSwyODEuMjUgMTk0My4yNSwyODEuMjVMMTk1NS43NSwyODEuMjVMMTk2OC4yNSwyODEuMjVRMTk4MC43NSwyODEuMjUgMTk5My4yMDgwMjEzMjA1MjM0LDI4MC4yMjY0MjU0OTAwNjU1TDIwMTIuNDc0MzcwNjc3NDMyNSwyNzguNjQzNDY1OTE3NzY2NjYiLz48cGF0aCBtYXJrZXItZW5kPSJ1cmwoI2V4cG9ydC1zdmdfZmxvd2NoYXJ0LXYyLXBvaW50RW5kLW1hcmdpbikiIGRhdGEtcG9pbnRzPSJXM3NpZUNJNk1qRTVPUzR4TnpFNE56VXNJbmtpT2pFMU5pNHlOWDBzZXlKNElqb3lNakkwTGpFM01UZzNOU3dpZVNJNk1UVTJMakkxZlN4N0luZ2lPakl5TkRrdU1UY3hPRGMxTENKNUlqb3hOVFl1TWpWOUxIc2llQ0k2TWpJM05DNHhOekU0TnpVc0lua2lPakUxTmk0eU5YMHNleUo0SWpveU1qazVMakUzTVRnM05Td2llU0k2TVRVNExqQTRNRGMyT0RNMU1EVTVNakUwZlYwPSIgZGF0YS1pZD0iTF9HMV9IMV8wIiBkYXRhLWV0PSJlZGdlIiBkYXRhLWVkZ2U9InRydWUiIHN0eWxlPSJzdHJva2UtZGFzaGFycmF5OiAwIDAgODcuMDU3NjQwMDc1NjgzNiA5OyBzdHJva2UtZGFzaG9mZnNldDogMDs7IiBjbGFzcz0iZWRnZS10aGlja25lc3Mtbm9ybWFsIGVkZ2UtcGF0dGVybi1zb2xpZCBlZGdlLXRoaWNrbmVzcy1ub3JtYWwgZWRnZS1wYXR0ZXJuLXNvbGlkIGZsb3djaGFydC1saW5rIiBpZD0iTF9HMV9IMV8wIiBkPSJNMjE5OS4xNzE4NzUsMTU2LjI1TDIyMjQuMTcxODc1LDE1Ni4yNUwyMjQ5LjE3MTg3NSwxNTYuMjVMMjI2My42Mzg0MDI2ODgyOTA2LDE1Ni4yNVEyMjc0LjE3MTg3NSwxNTYuMjUgMjI4NC42NzcyMTYyNjcxMDg2LDE1Ny4wMTkzMTM4NTIxNTk3TDIyOTUuMTgyNTU3NTM0MjE3NywxNTcuNzg4NjI3NzA0MzE5NCIvPjxwYXRoIG1hcmtlci1lbmQ9InVybCgjZXhwb3J0LXN2Z19mbG93Y2hhcnQtdjItcG9pbnRFbmQtbWFyZ2luKSIgZGF0YS1wb2ludHM9Ilczc2llQ0k2TWpFNE9DNDBOakE1TXpjMUxDSjVJam95TnpFdU1qVjlMSHNpZUNJNk1qSXlOQzR4TnpFNE56VXNJbmtpT2pJM01TNHlOWDBzZXlKNElqb3lNalE1TGpFM01UZzNOU3dpZVNJNk1qY3hMakkxZlN4N0luZ2lPakl5TnpRdU1UY3hPRGMxTENKNUlqb3lOekV1TWpWOUxIc2llQ0k2TWpNNE1TNDBOalE0TkRNM05Td2llU0k2TVRnNExqYzFmVjA9IiBkYXRhLWlkPSJMX0cyX0gxXzAiIGRhdGEtZXQ9ImVkZ2UiIGRhdGEtZWRnZT0idHJ1ZSIgc3R5bGU9InN0cm9rZS1kYXNoYXJyYXk6IDAgMCAyMDcuMTcyODk3MzM4ODY3MiA5OyBzdHJva2UtZGFzaG9mZnNldDogMDs7IiBjbGFzcz0iZWRnZS10aGlja25lc3Mtbm9ybWFsIGVkZ2UtcGF0dGVybi1zb2xpZCBlZGdlLXRoaWNrbmVzcy1ub3JtYWwgZWRnZS1wYXR0ZXJuLXNvbGlkIGZsb3djaGFydC1saW5rIiBpZD0iTF9HMl9IMV8wIiBkPSJNMjE4OC40NjA5Mzc1LDI3MS4yNUwyMjI0LjE3MTg3NSwyNzEuMjVMMjI0OS4xNzE4NzUsMjcxLjI1TDIyNjEuNjcxODc1LDI3MS4yNVEyMjc0LjE3MTg3NSwyNzEuMjUgMjI4NC4wODExNDk5NDY2NDQ1LDI2My42MzA1MzM0ODExNTQ1NEwyMzc4LjI5Mzg3NTc2NzA3MzYsMTkxLjE4ODIyOTI4NjAzMDU1Ii8+PHBhdGggbWFya2VyLWVuZD0idXJsKCNleHBvcnQtc3ZnX2Zsb3djaGFydC12Mi1wb2ludEVuZC1tYXJnaW4pIiBkYXRhLXBvaW50cz0iVzNzaWVDSTZNalV5TWk0eU9ERXlOU3dpZVNJNk1UWTJMakkxZlN4N0luZ2lPakkxTkRjdU1qZ3hNalVzSW5raU9qRTJOaTR5Tlgwc2V5SjRJam95TlRjeUxqSTRNVEkxTENKNUlqb3hOall1TWpWOVhRPT0iIGRhdGEtaWQ9IkxfSDFfSDJfMCIgZGF0YS1ldD0iZWRnZSIgZGF0YS1lZGdlPSJ0cnVlIiBzdHlsZT0ic3Ryb2tlLWRhc2hhcnJheTogMCAwIDM3IDk7IHN0cm9rZS1kYXNob2Zmc2V0OiAwOzsiIGNsYXNzPSJlZGdlLXRoaWNrbmVzcy1ub3JtYWwgZWRnZS1wYXR0ZXJuLXNvbGlkIGVkZ2UtdGhpY2tuZXNzLW5vcm1hbCBlZGdlLXBhdHRlcm4tc29saWQgZmxvd2NoYXJ0LWxpbmsiIGlkPSJMX0gxX0gyXzAiIGQ9Ik0yNTIyLjI4MTI1LDE2Ni4yNUwyNTQ3LjI4MTI1LDE2Ni4yNUwyNTY4LjI4MTI1LDE2Ni4yNSIvPjwvZz48ZyBjbGFzcz0iZWRnZUxhYmVscyI+PGcgY2xhc3M9ImVkZ2VMYWJlbCI+PGcgdHJhbnNmb3JtPSJ0cmFuc2xhdGUoMCwgMCkiIGRhdGEtaWQ9IkxfQTFfQjFfMCIgY2xhc3M9ImxhYmVsIj48Zm9yZWlnbk9iamVjdCBoZWlnaHQ9IjAiIHdpZHRoPSIwIj48ZGl2IHhtbG5zPSJodHRwOi8vd3d3LnczLm9yZy8xOTk5L3hodG1sIiBjbGFzcz0ibGFiZWxCa2ciIHN0eWxlPSJkaXNwbGF5OiB0YWJsZS1jZWxsOyB3aGl0ZS1zcGFjZTogbm9ybWFsOyBsaW5lLWhlaWdodDogMS41OyBtYXgtd2lkdGg6IDIwMHB4OyB0ZXh0LWFsaWduOiBjZW50ZXI7Ij48c3BhbiBjbGFzcz0iZWRnZUxhYmVsIj48L3NwYW4+PC9kaXY+PC9mb3JlaWduT2JqZWN0PjwvZz48L2c+PGcgY2xhc3M9ImVkZ2VMYWJlbCI+PGcgdHJhbnNmb3JtPSJ0cmFuc2xhdGUoMCwgMCkiIGRhdGEtaWQ9IkxfQTFfQjJfMCIgY2xhc3M9ImxhYmVsIj48Zm9yZWlnbk9iamVjdCBoZWlnaHQ9IjAiIHdpZHRoPSIwIj48ZGl2IHhtbG5zPSJodHRwOi8vd3d3LnczLm9yZy8xOTk5L3hodG1sIiBjbGFzcz0ibGFiZWxCa2ciIHN0eWxlPSJkaXNwbGF5OiB0YWJsZS1jZWxsOyB3aGl0ZS1zcGFjZTogbm9ybWFsOyBsaW5lLWhlaWdodDogMS41OyBtYXgtd2lkdGg6IDIwMHB4OyB0ZXh0LWFsaWduOiBjZW50ZXI7Ij48c3BhbiBjbGFzcz0iZWRnZUxhYmVsIj48L3NwYW4+PC9kaXY+PC9mb3JlaWduT2JqZWN0PjwvZz48L2c+PGcgY2xhc3M9ImVkZ2VMYWJlbCI+PGcgdHJhbnNmb3JtPSJ0cmFuc2xhdGUoMCwgMCkiIGRhdGEtaWQ9IkxfQTFfQjNfMCIgY2xhc3M9ImxhYmVsIj48Zm9yZWlnbk9iamVjdCBoZWlnaHQ9IjAiIHdpZHRoPSIwIj48ZGl2IHhtbG5zPSJodHRwOi8vd3d3LnczLm9yZy8xOTk5L3hodG1sIiBjbGFzcz0ibGFiZWxCa2ciIHN0eWxlPSJkaXNwbGF5OiB0YWJsZS1jZWxsOyB3aGl0ZS1zcGFjZTogbm9ybWFsOyBsaW5lLWhlaWdodDogMS41OyBtYXgtd2lkdGg6IDIwMHB4OyB0ZXh0LWFsaWduOiBjZW50ZXI7Ij48c3BhbiBjbGFzcz0iZWRnZUxhYmVsIj48L3NwYW4+PC9kaXY+PC9mb3JlaWduT2JqZWN0PjwvZz48L2c+PGcgY2xhc3M9ImVkZ2VMYWJlbCI+PGcgdHJhbnNmb3JtPSJ0cmFuc2xhdGUoMCwgMCkiIGRhdGEtaWQ9IkxfQjFfQzFfMCIgY2xhc3M9ImxhYmVsIj48Zm9yZWlnbk9iamVjdCBoZWlnaHQ9IjAiIHdpZHRoPSIwIj48ZGl2IHhtbG5zPSJodHRwOi8vd3d3LnczLm9yZy8xOTk5L3hodG1sIiBjbGFzcz0ibGFiZWxCa2ciIHN0eWxlPSJkaXNwbGF5OiB0YWJsZS1jZWxsOyB3aGl0ZS1zcGFjZTogbm9ybWFsOyBsaW5lLWhlaWdodDogMS41OyBtYXgtd2lkdGg6IDIwMHB4OyB0ZXh0LWFsaWduOiBjZW50ZXI7Ij48c3BhbiBjbGFzcz0iZWRnZUxhYmVsIj48L3NwYW4+PC9kaXY+PC9mb3JlaWduT2JqZWN0PjwvZz48L2c+PGcgY2xhc3M9ImVkZ2VMYWJlbCI+PGcgdHJhbnNmb3JtPSJ0cmFuc2xhdGUoMCwgMCkiIGRhdGEtaWQ9IkxfQjJfQzJfMCIgY2xhc3M9ImxhYmVsIj48Zm9yZWlnbk9iamVjdCBoZWlnaHQ9IjAiIHdpZHRoPSIwIj48ZGl2IHhtbG5zPSJodHRwOi8vd3d3LnczLm9yZy8xOTk5L3hodG1sIiBjbGFzcz0ibGFiZWxCa2ciIHN0eWxlPSJkaXNwbGF5OiB0YWJsZS1jZWxsOyB3aGl0ZS1zcGFjZTogbm9ybWFsOyBsaW5lLWhlaWdodDogMS41OyBtYXgtd2lkdGg6IDIwMHB4OyB0ZXh0LWFsaWduOiBjZW50ZXI7Ij48c3BhbiBjbGFzcz0iZWRnZUxhYmVsIj48L3NwYW4+PC9kaXY+PC9mb3JlaWduT2JqZWN0PjwvZz48L2c+PGcgY2xhc3M9ImVkZ2VMYWJlbCI+PGcgdHJhbnNmb3JtPSJ0cmFuc2xhdGUoMCwgMCkiIGRhdGEtaWQ9IkxfQjNfQzNfMCIgY2xhc3M9ImxhYmVsIj48Zm9yZWlnbk9iamVjdCBoZWlnaHQ9IjAiIHdpZHRoPSIwIj48ZGl2IHhtbG5zPSJodHRwOi8vd3d3LnczLm9yZy8xOTk5L3hodG1sIiBjbGFzcz0ibGFiZWxCa2ciIHN0eWxlPSJkaXNwbGF5OiB0YWJsZS1jZWxsOyB3aGl0ZS1zcGFjZTogbm9ybWFsOyBsaW5lLWhlaWdodDogMS41OyBtYXgtd2lkdGg6IDIwMHB4OyB0ZXh0LWFsaWduOiBjZW50ZXI7Ij48c3BhbiBjbGFzcz0iZWRnZUxhYmVsIj48L3NwYW4+PC9kaXY+PC9mb3JlaWduT2JqZWN0PjwvZz48L2c+PGcgY2xhc3M9ImVkZ2VMYWJlbCI+PGcgdHJhbnNmb3JtPSJ0cmFuc2xhdGUoMCwgMCkiIGRhdGEtaWQ9IkxfQzFfRDFfMCIgY2xhc3M9ImxhYmVsIj48Zm9yZWlnbk9iamVjdCBoZWlnaHQ9IjAiIHdpZHRoPSIwIj48ZGl2IHhtbG5zPSJodHRwOi8vd3d3LnczLm9yZy8xOTk5L3hodG1sIiBjbGFzcz0ibGFiZWxCa2ciIHN0eWxlPSJkaXNwbGF5OiB0YWJsZS1jZWxsOyB3aGl0ZS1zcGFjZTogbm9ybWFsOyBsaW5lLWhlaWdodDogMS41OyBtYXgtd2lkdGg6IDIwMHB4OyB0ZXh0LWFsaWduOiBjZW50ZXI7Ij48c3BhbiBjbGFzcz0iZWRnZUxhYmVsIj48L3NwYW4+PC9kaXY+PC9mb3JlaWduT2JqZWN0PjwvZz48L2c+PGcgY2xhc3M9ImVkZ2VMYWJlbCI+PGcgdHJhbnNmb3JtPSJ0cmFuc2xhdGUoMCwgMCkiIGRhdGEtaWQ9IkxfRDFfRTFfMCIgY2xhc3M9ImxhYmVsIj48Zm9yZWlnbk9iamVjdCBoZWlnaHQ9IjAiIHdpZHRoPSIwIj48ZGl2IHhtbG5zPSJodHRwOi8vd3d3LnczLm9yZy8xOTk5L3hodG1sIiBjbGFzcz0ibGFiZWxCa2ciIHN0eWxlPSJkaXNwbGF5OiB0YWJsZS1jZWxsOyB3aGl0ZS1zcGFjZTogbm9ybWFsOyBsaW5lLWhlaWdodDogMS41OyBtYXgtd2lkdGg6IDIwMHB4OyB0ZXh0LWFsaWduOiBjZW50ZXI7Ij48c3BhbiBjbGFzcz0iZWRnZUxhYmVsIj48L3NwYW4+PC9kaXY+PC9mb3JlaWduT2JqZWN0PjwvZz48L2c+PGcgY2xhc3M9ImVkZ2VMYWJlbCI+PGcgdHJhbnNmb3JtPSJ0cmFuc2xhdGUoMCwgMCkiIGRhdGEtaWQ9IkxfRDFfRTJfMCIgY2xhc3M9ImxhYmVsIj48Zm9yZWlnbk9iamVjdCBoZWlnaHQ9IjAiIHdpZHRoPSIwIj48ZGl2IHhtbG5zPSJodHRwOi8vd3d3LnczLm9yZy8xOTk5L3hodG1sIiBjbGFzcz0ibGFiZWxCa2ciIHN0eWxlPSJkaXNwbGF5OiB0YWJsZS1jZWxsOyB3aGl0ZS1zcGFjZTogbm9ybWFsOyBsaW5lLWhlaWdodDogMS41OyBtYXgtd2lkdGg6IDIwMHB4OyB0ZXh0LWFsaWduOiBjZW50ZXI7Ij48c3BhbiBjbGFzcz0iZWRnZUxhYmVsIj48L3NwYW4+PC9kaXY+PC9mb3JlaWduT2JqZWN0PjwvZz48L2c+PGcgY2xhc3M9ImVkZ2VMYWJlbCI+PGcgdHJhbnNmb3JtPSJ0cmFuc2xhdGUoMCwgMCkiIGRhdGEtaWQ9IkxfRDFfRTNfMCIgY2xhc3M9ImxhYmVsIj48Zm9yZWlnbk9iamVjdCBoZWlnaHQ9IjAiIHdpZHRoPSIwIj48ZGl2IHhtbG5zPSJodHRwOi8vd3d3LnczLm9yZy8xOTk5L3hodG1sIiBjbGFzcz0ibGFiZWxCa2ciIHN0eWxlPSJkaXNwbGF5OiB0YWJsZS1jZWxsOyB3aGl0ZS1zcGFjZTogbm9ybWFsOyBsaW5lLWhlaWdodDogMS41OyBtYXgtd2lkdGg6IDIwMHB4OyB0ZXh0LWFsaWduOiBjZW50ZXI7Ij48c3BhbiBjbGFzcz0iZWRnZUxhYmVsIj48L3NwYW4+PC9kaXY+PC9mb3JlaWduT2JqZWN0PjwvZz48L2c+PGcgY2xhc3M9ImVkZ2VMYWJlbCI+PGcgdHJhbnNmb3JtPSJ0cmFuc2xhdGUoMCwgMCkiIGRhdGEtaWQ9IkxfRTFfRTRfMCIgY2xhc3M9ImxhYmVsIj48Zm9yZWlnbk9iamVjdCBoZWlnaHQ9IjAiIHdpZHRoPSIwIj48ZGl2IHhtbG5zPSJodHRwOi8vd3d3LnczLm9yZy8xOTk5L3hodG1sIiBjbGFzcz0ibGFiZWxCa2ciIHN0eWxlPSJkaXNwbGF5OiB0YWJsZS1jZWxsOyB3aGl0ZS1zcGFjZTogbm9ybWFsOyBsaW5lLWhlaWdodDogMS41OyBtYXgtd2lkdGg6IDIwMHB4OyB0ZXh0LWFsaWduOiBjZW50ZXI7Ij48c3BhbiBjbGFzcz0iZWRnZUxhYmVsIj48L3NwYW4+PC9kaXY+PC9mb3JlaWduT2JqZWN0PjwvZz48L2c+PGcgY2xhc3M9ImVkZ2VMYWJlbCI+PGcgdHJhbnNmb3JtPSJ0cmFuc2xhdGUoMCwgMCkiIGRhdGEtaWQ9IkxfRTJfRTRfMCIgY2xhc3M9ImxhYmVsIj48Zm9yZWlnbk9iamVjdCBoZWlnaHQ9IjAiIHdpZHRoPSIwIj48ZGl2IHhtbG5zPSJodHRwOi8vd3d3LnczLm9yZy8xOTk5L3hodG1sIiBjbGFzcz0ibGFiZWxCa2ciIHN0eWxlPSJkaXNwbGF5OiB0YWJsZS1jZWxsOyB3aGl0ZS1zcGFjZTogbm9ybWFsOyBsaW5lLWhlaWdodDogMS41OyBtYXgtd2lkdGg6IDIwMHB4OyB0ZXh0LWFsaWduOiBjZW50ZXI7Ij48c3BhbiBjbGFzcz0iZWRnZUxhYmVsIj48L3NwYW4+PC9kaXY+PC9mb3JlaWduT2JqZWN0PjwvZz48L2c+PGcgY2xhc3M9ImVkZ2VMYWJlbCI+PGcgdHJhbnNmb3JtPSJ0cmFuc2xhdGUoMCwgMCkiIGRhdGEtaWQ9IkxfRTNfRTRfMCIgY2xhc3M9ImxhYmVsIj48Zm9yZWlnbk9iamVjdCBoZWlnaHQ9IjAiIHdpZHRoPSIwIj48ZGl2IHhtbG5zPSJodHRwOi8vd3d3LnczLm9yZy8xOTk5L3hodG1sIiBjbGFzcz0ibGFiZWxCa2ciIHN0eWxlPSJkaXNwbGF5OiB0YWJsZS1jZWxsOyB3aGl0ZS1zcGFjZTogbm9ybWFsOyBsaW5lLWhlaWdodDogMS41OyBtYXgtd2lkdGg6IDIwMHB4OyB0ZXh0LWFsaWduOiBjZW50ZXI7Ij48c3BhbiBjbGFzcz0iZWRnZUxhYmVsIj48L3NwYW4+PC9kaXY+PC9mb3JlaWduT2JqZWN0PjwvZz48L2c+PGcgY2xhc3M9ImVkZ2VMYWJlbCI+PGcgdHJhbnNmb3JtPSJ0cmFuc2xhdGUoMCwgMCkiIGRhdGEtaWQ9IkxfRTRfRjFfMCIgY2xhc3M9ImxhYmVsIj48Zm9yZWlnbk9iamVjdCBoZWlnaHQ9IjAiIHdpZHRoPSIwIj48ZGl2IHhtbG5zPSJodHRwOi8vd3d3LnczLm9yZy8xOTk5L3hodG1sIiBjbGFzcz0ibGFiZWxCa2ciIHN0eWxlPSJkaXNwbGF5OiB0YWJsZS1jZWxsOyB3aGl0ZS1zcGFjZTogbm9ybWFsOyBsaW5lLWhlaWdodDogMS41OyBtYXgtd2lkdGg6IDIwMHB4OyB0ZXh0LWFsaWduOiBjZW50ZXI7Ij48c3BhbiBjbGFzcz0iZWRnZUxhYmVsIj48L3NwYW4+PC9kaXY+PC9mb3JlaWduT2JqZWN0PjwvZz48L2c+PGcgY2xhc3M9ImVkZ2VMYWJlbCI+PGcgdHJhbnNmb3JtPSJ0cmFuc2xhdGUoMCwgMCkiIGRhdGEtaWQ9IkxfRTRfRjJfMCIgY2xhc3M9ImxhYmVsIj48Zm9yZWlnbk9iamVjdCBoZWlnaHQ9IjAiIHdpZHRoPSIwIj48ZGl2IHhtbG5zPSJodHRwOi8vd3d3LnczLm9yZy8xOTk5L3hodG1sIiBjbGFzcz0ibGFiZWxCa2ciIHN0eWxlPSJkaXNwbGF5OiB0YWJsZS1jZWxsOyB3aGl0ZS1zcGFjZTogbm9ybWFsOyBsaW5lLWhlaWdodDogMS41OyBtYXgtd2lkdGg6IDIwMHB4OyB0ZXh0LWFsaWduOiBjZW50ZXI7Ij48c3BhbiBjbGFzcz0iZWRnZUxhYmVsIj48L3NwYW4+PC9kaXY+PC9mb3JlaWduT2JqZWN0PjwvZz48L2c+PGcgY2xhc3M9ImVkZ2VMYWJlbCI+PGcgdHJhbnNmb3JtPSJ0cmFuc2xhdGUoMCwgMCkiIGRhdGEtaWQ9IkxfRjFfRzFfMCIgY2xhc3M9ImxhYmVsIj48Zm9yZWlnbk9iamVjdCBoZWlnaHQ9IjAiIHdpZHRoPSIwIj48ZGl2IHhtbG5zPSJodHRwOi8vd3d3LnczLm9yZy8xOTk5L3hodG1sIiBjbGFzcz0ibGFiZWxCa2ciIHN0eWxlPSJkaXNwbGF5OiB0YWJsZS1jZWxsOyB3aGl0ZS1zcGFjZTogbm9ybWFsOyBsaW5lLWhlaWdodDogMS41OyBtYXgtd2lkdGg6IDIwMHB4OyB0ZXh0LWFsaWduOiBjZW50ZXI7Ij48c3BhbiBjbGFzcz0iZWRnZUxhYmVsIj48L3NwYW4+PC9kaXY+PC9mb3JlaWduT2JqZWN0PjwvZz48L2c+PGcgY2xhc3M9ImVkZ2VMYWJlbCI+PGcgdHJhbnNmb3JtPSJ0cmFuc2xhdGUoMCwgMCkiIGRhdGEtaWQ9IkxfRjFfRzJfMCIgY2xhc3M9ImxhYmVsIj48Zm9yZWlnbk9iamVjdCBoZWlnaHQ9IjAiIHdpZHRoPSIwIj48ZGl2IHhtbG5zPSJodHRwOi8vd3d3LnczLm9yZy8xOTk5L3hodG1sIiBjbGFzcz0ibGFiZWxCa2ciIHN0eWxlPSJkaXNwbGF5OiB0YWJsZS1jZWxsOyB3aGl0ZS1zcGFjZTogbm9ybWFsOyBsaW5lLWhlaWdodDogMS41OyBtYXgtd2lkdGg6IDIwMHB4OyB0ZXh0LWFsaWduOiBjZW50ZXI7Ij48c3BhbiBjbGFzcz0iZWRnZUxhYmVsIj48L3NwYW4+PC9kaXY+PC9mb3JlaWduT2JqZWN0PjwvZz48L2c+PGcgY2xhc3M9ImVkZ2VMYWJlbCI+PGcgdHJhbnNmb3JtPSJ0cmFuc2xhdGUoMCwgMCkiIGRhdGEtaWQ9IkxfRjJfRzFfMCIgY2xhc3M9ImxhYmVsIj48Zm9yZWlnbk9iamVjdCBoZWlnaHQ9IjAiIHdpZHRoPSIwIj48ZGl2IHhtbG5zPSJodHRwOi8vd3d3LnczLm9yZy8xOTk5L3hodG1sIiBjbGFzcz0ibGFiZWxCa2ciIHN0eWxlPSJkaXNwbGF5OiB0YWJsZS1jZWxsOyB3aGl0ZS1zcGFjZTogbm9ybWFsOyBsaW5lLWhlaWdodDogMS41OyBtYXgtd2lkdGg6IDIwMHB4OyB0ZXh0LWFsaWduOiBjZW50ZXI7Ij48c3BhbiBjbGFzcz0iZWRnZUxhYmVsIj48L3NwYW4+PC9kaXY+PC9mb3JlaWduT2JqZWN0PjwvZz48L2c+PGcgY2xhc3M9ImVkZ2VMYWJlbCI+PGcgdHJhbnNmb3JtPSJ0cmFuc2xhdGUoMCwgMCkiIGRhdGEtaWQ9IkxfRjJfRzJfMCIgY2xhc3M9ImxhYmVsIj48Zm9yZWlnbk9iamVjdCBoZWlnaHQ9IjAiIHdpZHRoPSIwIj48ZGl2IHhtbG5zPSJodHRwOi8vd3d3LnczLm9yZy8xOTk5L3hodG1sIiBjbGFzcz0ibGFiZWxCa2ciIHN0eWxlPSJkaXNwbGF5OiB0YWJsZS1jZWxsOyB3aGl0ZS1zcGFjZTogbm9ybWFsOyBsaW5lLWhlaWdodDogMS41OyBtYXgtd2lkdGg6IDIwMHB4OyB0ZXh0LWFsaWduOiBjZW50ZXI7Ij48c3BhbiBjbGFzcz0iZWRnZUxhYmVsIj48L3NwYW4+PC9kaXY+PC9mb3JlaWduT2JqZWN0PjwvZz48L2c+PGcgY2xhc3M9ImVkZ2VMYWJlbCI+PGcgdHJhbnNmb3JtPSJ0cmFuc2xhdGUoMCwgMCkiIGRhdGEtaWQ9IkxfRzFfSDFfMCIgY2xhc3M9ImxhYmVsIj48Zm9yZWlnbk9iamVjdCBoZWlnaHQ9IjAiIHdpZHRoPSIwIj48ZGl2IHhtbG5zPSJodHRwOi8vd3d3LnczLm9yZy8xOTk5L3hodG1sIiBjbGFzcz0ibGFiZWxCa2ciIHN0eWxlPSJkaXNwbGF5OiB0YWJsZS1jZWxsOyB3aGl0ZS1zcGFjZTogbm9ybWFsOyBsaW5lLWhlaWdodDogMS41OyBtYXgtd2lkdGg6IDIwMHB4OyB0ZXh0LWFsaWduOiBjZW50ZXI7Ij48c3BhbiBjbGFzcz0iZWRnZUxhYmVsIj48L3NwYW4+PC9kaXY+PC9mb3JlaWduT2JqZWN0PjwvZz48L2c+PGcgY2xhc3M9ImVkZ2VMYWJlbCI+PGcgdHJhbnNmb3JtPSJ0cmFuc2xhdGUoMCwgMCkiIGRhdGEtaWQ9IkxfRzJfSDFfMCIgY2xhc3M9ImxhYmVsIj48Zm9yZWlnbk9iamVjdCBoZWlnaHQ9IjAiIHdpZHRoPSIwIj48ZGl2IHhtbG5zPSJodHRwOi8vd3d3LnczLm9yZy8xOTk5L3hodG1sIiBjbGFzcz0ibGFiZWxCa2ciIHN0eWxlPSJkaXNwbGF5OiB0YWJsZS1jZWxsOyB3aGl0ZS1zcGFjZTogbm9ybWFsOyBsaW5lLWhlaWdodDogMS41OyBtYXgtd2lkdGg6IDIwMHB4OyB0ZXh0LWFsaWduOiBjZW50ZXI7Ij48c3BhbiBjbGFzcz0iZWRnZUxhYmVsIj48L3NwYW4+PC9kaXY+PC9mb3JlaWduT2JqZWN0PjwvZz48L2c+PGcgY2xhc3M9ImVkZ2VMYWJlbCI+PGcgdHJhbnNmb3JtPSJ0cmFuc2xhdGUoMCwgMCkiIGRhdGEtaWQ9IkxfSDFfSDJfMCIgY2xhc3M9ImxhYmVsIj48Zm9yZWlnbk9iamVjdCBoZWlnaHQ9IjAiIHdpZHRoPSIwIj48ZGl2IHhtbG5zPSJodHRwOi8vd3d3LnczLm9yZy8xOTk5L3hodG1sIiBjbGFzcz0ibGFiZWxCa2ciIHN0eWxlPSJkaXNwbGF5OiB0YWJsZS1jZWxsOyB3aGl0ZS1zcGFjZTogbm9ybWFsOyBsaW5lLWhlaWdodDogMS41OyBtYXgtd2lkdGg6IDIwMHB4OyB0ZXh0LWFsaWduOiBjZW50ZXI7Ij48c3BhbiBjbGFzcz0iZWRnZUxhYmVsIj48L3NwYW4+PC9kaXY+PC9mb3JlaWduT2JqZWN0PjwvZz48L2c+PC9nPjxnIGNsYXNzPSJub2RlcyI+PGcgdHJhbnNmb3JtPSJ0cmFuc2xhdGUoMTQwLCAyNzYuNSkiIGRhdGEtbG9vaz0ibmVvIiBkYXRhLWV0PSJub2RlIiBkYXRhLW5vZGU9InRydWUiIGRhdGEtaWQ9IkExIiBpZD0iZmxvd2NoYXJ0LUExLTAiIGNsYXNzPSJub2RlIGRlZmF1bHQiPjxyZWN0IHN0cm9rZT0idXJsKCNncmFkaWVudCkiIGhlaWdodD0iNDUiIHdpZHRoPSIyMTQiIHk9Ii0yMi41IiB4PSItMTA3IiBkYXRhLWlkPSJBMSIgc3R5bGU9IiIgY2xhc3M9ImJhc2ljIGxhYmVsLWNvbnRhaW5lciIvPjxnIHRyYW5zZm9ybT0idHJhbnNsYXRlKC05MSwgLTEwLjUpIiBzdHlsZT0iIiBjbGFzcz0ibGFiZWwiPjxyZWN0Lz48Zm9yZWlnbk9iamVjdCBoZWlnaHQ9IjIxIiB3aWR0aD0iMTgyIj48ZGl2IHhtbG5zPSJodHRwOi8vd3d3LnczLm9yZy8xOTk5L3hodG1sIiBzdHlsZT0iZGlzcGxheTogdGFibGUtY2VsbDsgd2hpdGUtc3BhY2U6IG5vcm1hbDsgbGluZS1oZWlnaHQ6IDEuNTsgbWF4LXdpZHRoOiAyMDBweDsgdGV4dC1hbGlnbjogY2VudGVyOyI+PHNwYW4gY2xhc3M9Im5vZGVMYWJlbCI+PHA+44Oq44K144O844OB44O756CU56m26KiI55S744Gu5piO56K65YyWPC9wPjwvc3Bhbj48L2Rpdj48L2ZvcmVpZ25PYmplY3Q+PC9nPjwvZz48ZyB0cmFuc2Zvcm09InRyYW5zbGF0ZSg0MzMsIDE0NCkiIGRhdGEtbG9vaz0ibmVvIiBkYXRhLWV0PSJub2RlIiBkYXRhLW5vZGU9InRydWUiIGRhdGEtaWQ9IkIxIiBpZD0iZmxvd2NoYXJ0LUIxLTEiIGNsYXNzPSJub2RlIGRlZmF1bHQiPjxyZWN0IHN0cm9rZT0idXJsKCNncmFkaWVudCkiIGhlaWdodD0iNDUiIHdpZHRoPSIxNzIiIHk9Ii0yMi41IiB4PSItODYiIGRhdGEtaWQ9IkIxIiBzdHlsZT0iIiBjbGFzcz0iYmFzaWMgbGFiZWwtY29udGFpbmVyIi8+PGcgdHJhbnNmb3JtPSJ0cmFuc2xhdGUoLTcwLCAtMTAuNSkiIHN0eWxlPSIiIGNsYXNzPSJsYWJlbCI+PHJlY3QvPjxmb3JlaWduT2JqZWN0IGhlaWdodD0iMjEiIHdpZHRoPSIxNDAiPjxkaXYgeG1sbnM9Imh0dHA6Ly93d3cudzMub3JnLzE5OTkveGh0bWwiIHN0eWxlPSJkaXNwbGF5OiB0YWJsZS1jZWxsOyB3aGl0ZS1zcGFjZTogbm9ybWFsOyBsaW5lLWhlaWdodDogMS41OyBtYXgtd2lkdGg6IDIwMHB4OyB0ZXh0LWFsaWduOiBjZW50ZXI7Ij48c3BhbiBjbGFzcz0ibm9kZUxhYmVsIj48cD7mnInkvqHoqLzliLjloLHlkYrmm7jjga7lj5blvpc8L3A+PC9zcGFuPjwvZGl2PjwvZm9yZWlnbk9iamVjdD48L2c+PC9nPjxnIHRyYW5zZm9ybT0idHJhbnNsYXRlKDQzMywgMjM5KSIgZGF0YS1sb29rPSJuZW8iIGRhdGEtZXQ9Im5vZGUiIGRhdGEtbm9kZT0idHJ1ZSIgZGF0YS1pZD0iQjIiIGlkPSJmbG93Y2hhcnQtQjItMiIgY2xhc3M9Im5vZGUgZGVmYXVsdCI+PHJlY3Qgc3Ryb2tlPSJ1cmwoI2dyYWRpZW50KSIgaGVpZ2h0PSI0NSIgd2lkdGg9IjE0NCIgeT0iLTIyLjUiIHg9Ii03MiIgZGF0YS1pZD0iQjIiIHN0eWxlPSIiIGNsYXNzPSJiYXNpYyBsYWJlbC1jb250YWluZXIiLz48ZyB0cmFuc2Zvcm09InRyYW5zbGF0ZSgtNTYsIC0xMC41KSIgc3R5bGU9IiIgY2xhc3M9ImxhYmVsIj48cmVjdC8+PGZvcmVpZ25PYmplY3QgaGVpZ2h0PSIyMSIgd2lkdGg9IjExMiI+PGRpdiB4bWxucz0iaHR0cDovL3d3dy53My5vcmcvMTk5OS94aHRtbCIgc3R5bGU9ImRpc3BsYXk6IHRhYmxlLWNlbGw7IHdoaXRlLXNwYWNlOiBub3JtYWw7IGxpbmUtaGVpZ2h0OiAxLjU7IG1heC13aWR0aDogMjAwcHg7IHRleHQtYWxpZ246IGNlbnRlcjsiPjxzcGFuIGNsYXNzPSJub2RlTGFiZWwiPjxwPuagquS+oeODh+ODvOOCv+OBruWPluW+lzwvcD48L3NwYW4+PC9kaXY+PC9mb3JlaWduT2JqZWN0PjwvZz48L2c+PGcgdHJhbnNmb3JtPSJ0cmFuc2xhdGUoNDMzLCAzMzQpIiBkYXRhLWxvb2s9Im5lbyIgZGF0YS1ldD0ibm9kZSIgZGF0YS1ub2RlPSJ0cnVlIiBkYXRhLWlkPSJCMyIgaWQ9ImZsb3djaGFydC1CMy0zIiBjbGFzcz0ibm9kZSBkZWZhdWx0Ij48cmVjdCBzdHJva2U9InVybCgjZ3JhZGllbnQpIiBoZWlnaHQ9IjQ1IiB3aWR0aD0iMTcyIiB5PSItMjIuNSIgeD0iLTg2IiBkYXRhLWlkPSJCMyIgc3R5bGU9IiIgY2xhc3M9ImJhc2ljIGxhYmVsLWNvbnRhaW5lciIvPjxnIHRyYW5zZm9ybT0idHJhbnNsYXRlKC03MCwgLTEwLjUpIiBzdHlsZT0iIiBjbGFzcz0ibGFiZWwiPjxyZWN0Lz48Zm9yZWlnbk9iamVjdCBoZWlnaHQ9IjIxIiB3aWR0aD0iMTQwIj48ZGl2IHhtbG5zPSJodHRwOi8vd3d3LnczLm9yZy8xOTk5L3hodG1sIiBzdHlsZT0iZGlzcGxheTogdGFibGUtY2VsbDsgd2hpdGUtc3BhY2U6IG5vcm1hbDsgbGluZS1oZWlnaHQ6IDEuNTsgbWF4LXdpZHRoOiAyMDBweDsgdGV4dC1hbGlnbjogY2VudGVyOyI+PHNwYW4gY2xhc3M9Im5vZGVMYWJlbCI+PHA+5LyB5qWt5bGe5oCn44OH44O844K/44Gu5Y+W5b6XPC9wPjwvc3Bhbj48L2Rpdj48L2ZvcmVpZ25PYmplY3Q+PC9nPjwvZz48ZyB0cmFuc2Zvcm09InRyYW5zbGF0ZSg3MTEuMzc1LCAxNDQpIiBkYXRhLWxvb2s9Im5lbyIgZGF0YS1ldD0ibm9kZSIgZGF0YS1ub2RlPSJ0cnVlIiBkYXRhLWlkPSJDMSIgaWQ9ImZsb3djaGFydC1DMS0xMCIgY2xhc3M9Im5vZGUgZGVmYXVsdCI+PHJlY3Qgc3Ryb2tlPSJ1cmwoI2dyYWRpZW50KSIgaGVpZ2h0PSI0NSIgd2lkdGg9IjE3MS41OTM3NSIgeT0iLTIyLjUiIHg9Ii04NS43OTY4NzUiIGRhdGEtaWQ9IkMxIiBzdHlsZT0iIiBjbGFzcz0iYmFzaWMgbGFiZWwtY29udGFpbmVyIi8+PGcgdHJhbnNmb3JtPSJ0cmFuc2xhdGUoLTY5Ljc5Njg3NSwgLTEwLjUpIiBzdHlsZT0iIiBjbGFzcz0ibGFiZWwiPjxyZWN0Lz48Zm9yZWlnbk9iamVjdCBoZWlnaHQ9IjIxIiB3aWR0aD0iMTM5LjU5Mzc1Ij48ZGl2IHhtbG5zPSJodHRwOi8vd3d3LnczLm9yZy8xOTk5L3hodG1sIiBzdHlsZT0iZGlzcGxheTogdGFibGUtY2VsbDsgd2hpdGUtc3BhY2U6IG5vcm1hbDsgbGluZS1oZWlnaHQ6IDEuNTsgbWF4LXdpZHRoOiAyMDBweDsgdGV4dC1hbGlnbjogY2VudGVyOyI+PHNwYW4gY2xhc3M9Im5vZGVMYWJlbCI+PHA+5pyJ5aCx44Oq44K544Kv5oOF5aCx44Gu5oq95Ye6PC9wPjwvc3Bhbj48L2Rpdj48L2ZvcmVpZ25PYmplY3Q+PC9nPjwvZz48ZyB0cmFuc2Zvcm09InRyYW5zbGF0ZSg3MTEuMzc1LCAyMzkpIiBkYXRhLWxvb2s9Im5lbyIgZGF0YS1ldD0ibm9kZSIgZGF0YS1ub2RlPSJ0cnVlIiBkYXRhLWlkPSJDMiIgaWQ9ImZsb3djaGFydC1DMi0xMSIgY2xhc3M9Im5vZGUgZGVmYXVsdCI+PHJlY3Qgc3Ryb2tlPSJ1cmwoI2dyYWRpZW50KSIgaGVpZ2h0PSI0NSIgd2lkdGg9IjE4NC43NSIgeT0iLTIyLjUiIHg9Ii05Mi4zNzUiIGRhdGEtaWQ9IkMyIiBzdHlsZT0iIiBjbGFzcz0iYmFzaWMgbGFiZWwtY29udGFpbmVyIi8+PGcgdHJhbnNmb3JtPSJ0cmFuc2xhdGUoLTc2LjM3NSwgLTEwLjUpIiBzdHlsZT0iIiBjbGFzcz0ibGFiZWwiPjxyZWN0Lz48Zm9yZWlnbk9iamVjdCBoZWlnaHQ9IjIxIiB3aWR0aD0iMTUyLjc1Ij48ZGl2IHhtbG5zPSJodHRwOi8vd3d3LnczLm9yZy8xOTk5L3hodG1sIiBzdHlsZT0iZGlzcGxheTogdGFibGUtY2VsbDsgd2hpdGUtc3BhY2U6IG5vcm1hbDsgbGluZS1oZWlnaHQ6IDEuNTsgbWF4LXdpZHRoOiAyMDBweDsgdGV4dC1hbGlnbjogY2VudGVyOyI+PHNwYW4gY2xhc3M9Im5vZGVMYWJlbCI+PHA+5qCq5L6h5pW05YKZ44Go44Oq44K/44O844Oz566X5Ye6PC9wPjwvc3Bhbj48L2Rpdj48L2ZvcmVpZ25PYmplY3Q+PC9nPjwvZz48ZyB0cmFuc2Zvcm09InRyYW5zbGF0ZSg3MTEuMzc1LCAzMzQpIiBkYXRhLWxvb2s9Im5lbyIgZGF0YS1ldD0ibm9kZSIgZGF0YS1ub2RlPSJ0cnVlIiBkYXRhLWlkPSJDMyIgaWQ9ImZsb3djaGFydC1DMy0xMiIgY2xhc3M9Im5vZGUgZGVmYXVsdCI+PHJlY3Qgc3Ryb2tlPSJ1cmwoI2dyYWRpZW50KSIgaGVpZ2h0PSI0NSIgd2lkdGg9IjEzMCIgeT0iLTIyLjUiIHg9Ii02NSIgZGF0YS1pZD0iQzMiIHN0eWxlPSIiIGNsYXNzPSJiYXNpYyBsYWJlbC1jb250YWluZXIiLz48ZyB0cmFuc2Zvcm09InRyYW5zbGF0ZSgtNDksIC0xMC41KSIgc3R5bGU9IiIgY2xhc3M9ImxhYmVsIj48cmVjdC8+PGZvcmVpZ25PYmplY3QgaGVpZ2h0PSIyMSIgd2lkdGg9Ijk4Ij48ZGl2IHhtbG5zPSJodHRwOi8vd3d3LnczLm9yZy8xOTk5L3hodG1sIiBzdHlsZT0iZGlzcGxheTogdGFibGUtY2VsbDsgd2hpdGUtc3BhY2U6IG5vcm1hbDsgbGluZS1oZWlnaHQ6IDEuNTsgbWF4LXdpZHRoOiAyMDBweDsgdGV4dC1hbGlnbjogY2VudGVyOyI+PHNwYW4gY2xhc3M9Im5vZGVMYWJlbCI+PHA+5LyB5qWt5bGe5oCn44Gu5pW05YKZPC9wPjwvc3Bhbj48L2Rpdj48L2ZvcmVpZ25PYmplY3Q+PC9nPjwvZz48ZyB0cmFuc2Zvcm09InRyYW5zbGF0ZSgxMDE5Ljc1LCAxNDQpIiBkYXRhLWxvb2s9Im5lbyIgZGF0YS1ldD0ibm9kZSIgZGF0YS1ub2RlPSJ0cnVlIiBkYXRhLWlkPSJEMSIgaWQ9ImZsb3djaGFydC1EMS0xOSIgY2xhc3M9Im5vZGUgZGVmYXVsdCI+PHJlY3Qgc3Ryb2tlPSJ1cmwoI2dyYWRpZW50KSIgaGVpZ2h0PSI2NiIgd2lkdGg9IjIzMiIgeT0iLTMzIiB4PSItMTE2IiBkYXRhLWlkPSJEMSIgc3R5bGU9IiIgY2xhc3M9ImJhc2ljIGxhYmVsLWNvbnRhaW5lciIvPjxnIHRyYW5zZm9ybT0idHJhbnNsYXRlKC0xMDAsIC0yMSkiIHN0eWxlPSIiIGNsYXNzPSJsYWJlbCI+PHJlY3QvPjxmb3JlaWduT2JqZWN0IGhlaWdodD0iNDIiIHdpZHRoPSIyMDAiPjxkaXYgeG1sbnM9Imh0dHA6Ly93d3cudzMub3JnLzE5OTkveGh0bWwiIHN0eWxlPSJkaXNwbGF5OiB0YWJsZTsgd2hpdGUtc3BhY2U6IGJyZWFrLXNwYWNlczsgbGluZS1oZWlnaHQ6IDEuNTsgbWF4LXdpZHRoOiAyMDBweDsgdGV4dC1hbGlnbjogY2VudGVyOyB3aWR0aDogMjAwcHg7Ij48c3BhbiBjbGFzcz0ibm9kZUxhYmVsIj48cD7mlrDopo/mgKfjgrnjgrPjgqLjga7nlJ/miJDvvIhHUFTjg7tCRVJU77yJPC9wPjwvc3Bhbj48L2Rpdj48L2ZvcmVpZ25PYmplY3Q+PC9nPjwvZz48ZyB0cmFuc2Zvcm09InRyYW5zbGF0ZSgxMzUxLjc1LCA3NikiIGRhdGEtbG9vaz0ibmVvIiBkYXRhLWV0PSJub2RlIiBkYXRhLW5vZGU9InRydWUiIGRhdGEtaWQ9IkUxIiBpZD0iZmxvd2NoYXJ0LUUxLTIyIiBjbGFzcz0ibm9kZSBkZWZhdWx0Ij48cmVjdCBzdHJva2U9InVybCgjZ3JhZGllbnQpIiBoZWlnaHQ9IjY2IiB3aWR0aD0iMjMyIiB5PSItMzMiIHg9Ii0xMTYiIGRhdGEtaWQ9IkUxIiBzdHlsZT0iIiBjbGFzcz0iYmFzaWMgbGFiZWwtY29udGFpbmVyIi8+PGcgdHJhbnNmb3JtPSJ0cmFuc2xhdGUoLTEwMCwgLTIxKSIgc3R5bGU9IiIgY2xhc3M9ImxhYmVsIj48cmVjdC8+PGZvcmVpZ25PYmplY3QgaGVpZ2h0PSI0MiIgd2lkdGg9IjIwMCI+PGRpdiB4bWxucz0iaHR0cDovL3d3dy53My5vcmcvMTk5OS94aHRtbCIgc3R5bGU9ImRpc3BsYXk6IHRhYmxlOyB3aGl0ZS1zcGFjZTogYnJlYWstc3BhY2VzOyBsaW5lLWhlaWdodDogMS41OyBtYXgtd2lkdGg6IDIwMHB4OyB0ZXh0LWFsaWduOiBjZW50ZXI7IHdpZHRoOiAyMDBweDsiPjxzcGFuIGNsYXNzPSJub2RlTGFiZWwiPjxwPuOCpOODmeODs+ODiOOCueOCv+ODh+OCoyBDQVLjg7tDQVbnrpflh7o8L3A+PC9zcGFuPjwvZGl2PjwvZm9yZWlnbk9iamVjdD48L2c+PC9nPjxnIHRyYW5zZm9ybT0idHJhbnNsYXRlKDEzNTEuNzUsIDE4MS41KSIgZGF0YS1sb29rPSJuZW8iIGRhdGEtZXQ9Im5vZGUiIGRhdGEtbm9kZT0idHJ1ZSIgZGF0YS1pZD0iRTIiIGlkPSJmbG93Y2hhcnQtRTItMjMiIGNsYXNzPSJub2RlIGRlZmF1bHQiPjxyZWN0IHN0cm9rZT0idXJsKCNncmFkaWVudCkiIGhlaWdodD0iNDUiIHdpZHRoPSIxNzMuMTI1IiB5PSItMjIuNSIgeD0iLTg2LjU2MjUiIGRhdGEtaWQ9IkUyIiBzdHlsZT0iIiBjbGFzcz0iYmFzaWMgbGFiZWwtY29udGFpbmVyIi8+PGcgdHJhbnNmb3JtPSJ0cmFuc2xhdGUoLTcwLjU2MjUsIC0xMC41KSIgc3R5bGU9IiIgY2xhc3M9ImxhYmVsIj48cmVjdC8+PGZvcmVpZ25PYmplY3QgaGVpZ2h0PSIyMSIgd2lkdGg9IjE0MS4xMjUiPjxkaXYgeG1sbnM9Imh0dHA6Ly93d3cudzMub3JnLzE5OTkveGh0bWwiIHN0eWxlPSJkaXNwbGF5OiB0YWJsZS1jZWxsOyB3aGl0ZS1zcGFjZTogbm9ybWFsOyBsaW5lLWhlaWdodDogMS41OyBtYXgtd2lkdGg6IDIwMHB4OyB0ZXh0LWFsaWduOiBjZW50ZXI7Ij48c3BhbiBjbGFzcz0ibm9kZUxhYmVsIj48cD5OQ1NLRVfjg7tEVVZPTOeul+WHujwvcD48L3NwYW4+PC9kaXY+PC9mb3JlaWduT2JqZWN0PjwvZz48L2c+PGcgdHJhbnNmb3JtPSJ0cmFuc2xhdGUoMTM1MS43NSwgMzE0KSIgZGF0YS1sb29rPSJuZW8iIGRhdGEtZXQ9Im5vZGUiIGRhdGEtbm9kZT0idHJ1ZSIgZGF0YS1pZD0iRTMiIGlkPSJmbG93Y2hhcnQtRTMtMjQiIGNsYXNzPSJub2RlIGRlZmF1bHQiPjxyZWN0IHN0cm9rZT0idXJsKCNncmFkaWVudCkiIGhlaWdodD0iNDUiIHdpZHRoPSIxMTYiIHk9Ii0yMi41IiB4PSItNTgiIGRhdGEtaWQ9IkUzIiBzdHlsZT0iIiBjbGFzcz0iYmFzaWMgbGFiZWwtY29udGFpbmVyIi8+PGcgdHJhbnNmb3JtPSJ0cmFuc2xhdGUoLTQyLCAtMTAuNSkiIHN0eWxlPSIiIGNsYXNzPSJsYWJlbCI+PHJlY3QvPjxmb3JlaWduT2JqZWN0IGhlaWdodD0iMjEiIHdpZHRoPSI4NCI+PGRpdiB4bWxucz0iaHR0cDovL3d3dy53My5vcmcvMTk5OS94aHRtbCIgc3R5bGU9ImRpc3BsYXk6IHRhYmxlLWNlbGw7IHdoaXRlLXNwYWNlOiBub3JtYWw7IGxpbmUtaGVpZ2h0OiAxLjU7IG1heC13aWR0aDogMjAwcHg7IHRleHQtYWxpZ246IGNlbnRlcjsiPjxzcGFuIGNsYXNzPSJub2RlTGFiZWwiPjxwPuWHuuadpemrmOOBruWIhuaekDwvcD48L3NwYW4+PC9kaXY+PC9mb3JlaWduT2JqZWN0PjwvZz48L2c+PGcgdHJhbnNmb3JtPSJ0cmFuc2xhdGUoMTU4Mi43NSwgMTY2LjI1KSIgZGF0YS1sb29rPSJuZW8iIGRhdGEtZXQ9Im5vZGUiIGRhdGEtbm9kZT0idHJ1ZSIgZGF0YS1pZD0iRTQiIGlkPSJmbG93Y2hhcnQtRTQtMjUiIGNsYXNzPSJub2RlIGRlZmF1bHQiPjxyZWN0IHN0cm9rZT0idXJsKCNncmFkaWVudCkiIGhlaWdodD0iNDUiIHdpZHRoPSIxMzAiIHk9Ii0yMi41IiB4PSItNjUiIGRhdGEtaWQ9IkU0IiBzdHlsZT0iIiBjbGFzcz0iYmFzaWMgbGFiZWwtY29udGFpbmVyIi8+PGcgdHJhbnNmb3JtPSJ0cmFuc2xhdGUoLTQ5LCAtMTAuNSkiIHN0eWxlPSIiIGNsYXNzPSJsYWJlbCI+PHJlY3QvPjxmb3JlaWduT2JqZWN0IGhlaWdodD0iMjEiIHdpZHRoPSI5OCI+PGRpdiB4bWxucz0iaHR0cDovL3d3dy53My5vcmcvMTk5OS94aHRtbCIgc3R5bGU9ImRpc3BsYXk6IHRhYmxlLWNlbGw7IHdoaXRlLXNwYWNlOiBub3JtYWw7IGxpbmUtaGVpZ2h0OiAxLjU7IG1heC13aWR0aDogMjAwcHg7IHRleHQtYWxpZ246IGNlbnRlcjsiPjxzcGFuIGNsYXNzPSJub2RlTGFiZWwiPjxwPuWbnuW4sOWIhuaekOOBruWun+ihjDwvcD48L3NwYW4+PC9kaXY+PC9mb3JlaWduT2JqZWN0PjwvZz48L2c+PGcgdHJhbnNmb3JtPSJ0cmFuc2xhdGUoMTgyNi43NSwgMTY2LjI1KSIgZGF0YS1sb29rPSJuZW8iIGRhdGEtZXQ9Im5vZGUiIGRhdGEtbm9kZT0idHJ1ZSIgZGF0YS1pZD0iRjEiIGlkPSJmbG93Y2hhcnQtRjEtMzgiIGNsYXNzPSJub2RlIGRlZmF1bHQiPjxyZWN0IHN0cm9rZT0idXJsKCNncmFkaWVudCkiIGhlaWdodD0iNDUiIHdpZHRoPSIxNTgiIHk9Ii0yMi41IiB4PSItNzkiIGRhdGEtaWQ9IkYxIiBzdHlsZT0iIiBjbGFzcz0iYmFzaWMgbGFiZWwtY29udGFpbmVyIi8+PGcgdHJhbnNmb3JtPSJ0cmFuc2xhdGUoLTYzLCAtMTAuNSkiIHN0eWxlPSIiIGNsYXNzPSJsYWJlbCI+PHJlY3QvPjxmb3JlaWduT2JqZWN0IGhlaWdodD0iMjEiIHdpZHRoPSIxMjYiPjxkaXYgeG1sbnM9Imh0dHA6Ly93d3cudzMub3JnLzE5OTkveGh0bWwiIHN0eWxlPSJkaXNwbGF5OiB0YWJsZS1jZWxsOyB3aGl0ZS1zcGFjZTogbm9ybWFsOyBsaW5lLWhlaWdodDogMS41OyBtYXgtd2lkdGg6IDIwMHB4OyB0ZXh0LWFsaWduOiBjZW50ZXI7Ij48c3BhbiBjbGFzcz0ibm9kZUxhYmVsIj48cD7lm7Pooajjg7vjgrDjg6njg5Xjga7nlJ/miJA8L3A+PC9zcGFuPjwvZGl2PjwvZm9yZWlnbk9iamVjdD48L2c+PC9nPjxnIHRyYW5zZm9ybT0idHJhbnNsYXRlKDE4MjYuNzUsIDI2MS4yNSkiIGRhdGEtbG9vaz0ibmVvIiBkYXRhLWV0PSJub2RlIiBkYXRhLW5vZGU9InRydWUiIGRhdGEtaWQ9IkYyIiBpZD0iZmxvd2NoYXJ0LUYyLTM5IiBjbGFzcz0ibm9kZSBkZWZhdWx0Ij48cmVjdCBzdHJva2U9InVybCgjZ3JhZGllbnQpIiBoZWlnaHQ9IjQ1IiB3aWR0aD0iMTU4IiB5PSItMjIuNSIgeD0iLTc5IiBkYXRhLWlkPSJGMiIgc3R5bGU9IiIgY2xhc3M9ImJhc2ljIGxhYmVsLWNvbnRhaW5lciIvPjxnIHRyYW5zZm9ybT0idHJhbnNsYXRlKC02MywgLTEwLjUpIiBzdHlsZT0iIiBjbGFzcz0ibGFiZWwiPjxyZWN0Lz48Zm9yZWlnbk9iamVjdCBoZWlnaHQ9IjIxIiB3aWR0aD0iMTI2Ij48ZGl2IHhtbG5zPSJodHRwOi8vd3d3LnczLm9yZy8xOTk5L3hodG1sIiBzdHlsZT0iZGlzcGxheTogdGFibGUtY2VsbDsgd2hpdGUtc3BhY2U6IG5vcm1hbDsgbGluZS1oZWlnaHQ6IDEuNTsgbWF4LXdpZHRoOiAyMDBweDsgdGV4dC1hbGlnbjogY2VudGVyOyI+PHNwYW4gY2xhc3M9Im5vZGVMYWJlbCI+PHA+57WQ5p6c6KaB57SE44Go6ICD5a+f44Oh44OiPC9wPjwvc3Bhbj48L2Rpdj48L2ZvcmVpZ25PYmplY3Q+PC9nPjwvZz48ZyB0cmFuc2Zvcm09InRyYW5zbGF0ZSgyMTAyLjQ2MDkzNzUsIDE1Ni4yNSkiIGRhdGEtbG9vaz0ibmVvIiBkYXRhLWV0PSJub2RlIiBkYXRhLW5vZGU9InRydWUiIGRhdGEtaWQ9IkcxIiBpZD0iZmxvd2NoYXJ0LUcxLTQ0IiBjbGFzcz0ibm9kZSBkZWZhdWx0Ij48cmVjdCBzdHJva2U9InVybCgjZ3JhZGllbnQpIiBoZWlnaHQ9IjQ1IiB3aWR0aD0iMTkzLjQyMTg3NSIgeT0iLTIyLjUiIHg9Ii05Ni43MTA5Mzc1IiBkYXRhLWlkPSJHMSIgc3R5bGU9IiIgY2xhc3M9ImJhc2ljIGxhYmVsLWNvbnRhaW5lciIvPjxnIHRyYW5zZm9ybT0idHJhbnNsYXRlKC04MC43MTA5Mzc1LCAtMTAuNSkiIHN0eWxlPSIiIGNsYXNzPSJsYWJlbCI+PHJlY3QvPjxmb3JlaWduT2JqZWN0IGhlaWdodD0iMjEiIHdpZHRoPSIxNjEuNDIxODc1Ij48ZGl2IHhtbG5zPSJodHRwOi8vd3d3LnczLm9yZy8xOTk5L3hodG1sIiBzdHlsZT0iZGlzcGxheTogdGFibGUtY2VsbDsgd2hpdGUtc3BhY2U6IG5vcm1hbDsgbGluZS1oZWlnaHQ6IDEuNTsgbWF4LXdpZHRoOiAyMDBweDsgdGV4dC1hbGlnbjogY2VudGVyOyI+PHNwYW4gY2xhc3M9Im5vZGVMYWJlbCI+PHA+6Iux6Kqe6KuW5paH44Gu5Z+3562GIE92ZXJsZWFmPC9wPjwvc3Bhbj48L2Rpdj48L2ZvcmVpZ25PYmplY3Q+PC9nPjwvZz48ZyB0cmFuc2Zvcm09InRyYW5zbGF0ZSgyMTAyLjQ2MDkzNzUsIDI3MS4yNSkiIGRhdGEtbG9vaz0ibmVvIiBkYXRhLWV0PSJub2RlIiBkYXRhLW5vZGU9InRydWUiIGRhdGEtaWQ9IkcyIiBpZD0iZmxvd2NoYXJ0LUcyLTQ1IiBjbGFzcz0ibm9kZSBkZWZhdWx0Ij48cmVjdCBzdHJva2U9InVybCgjZ3JhZGllbnQpIiBoZWlnaHQ9IjQ1IiB3aWR0aD0iMTcyIiB5PSItMjIuNSIgeD0iLTg2IiBkYXRhLWlkPSJHMiIgc3R5bGU9IiIgY2xhc3M9ImJhc2ljIGxhYmVsLWNvbnRhaW5lciIvPjxnIHRyYW5zZm9ybT0idHJhbnNsYXRlKC03MCwgLTEwLjUpIiBzdHlsZT0iIiBjbGFzcz0ibGFiZWwiPjxyZWN0Lz48Zm9yZWlnbk9iamVjdCBoZWlnaHQ9IjIxIiB3aWR0aD0iMTQwIj48ZGl2IHhtbG5zPSJodHRwOi8vd3d3LnczLm9yZy8xOTk5L3hodG1sIiBzdHlsZT0iZGlzcGxheTogdGFibGUtY2VsbDsgd2hpdGUtc3BhY2U6IG5vcm1hbDsgbGluZS1oZWlnaHQ6IDEuNTsgbWF4LXdpZHRoOiAyMDBweDsgdGV4dC1hbGlnbjogY2VudGVyOyI+PHNwYW4gY2xhc3M9Im5vZGVMYWJlbCI+PHA+5Zuz6KGo44Gu6YWN572u44Go5byV55So5pW055CGPC9wPjwvc3Bhbj48L2Rpdj48L2ZvcmVpZ25PYmplY3Q+PC9nPjwvZz48ZyB0cmFuc2Zvcm09InRyYW5zbGF0ZSgyNDEwLjcyNjU2MjUsIDE2Ni4yNSkiIGRhdGEtbG9vaz0ibmVvIiBkYXRhLWV0PSJub2RlIiBkYXRhLW5vZGU9InRydWUiIGRhdGEtaWQ9IkgxIiBpZD0iZmxvd2NoYXJ0LUgxLTU0IiBjbGFzcz0ibm9kZSBkZWZhdWx0Ij48cmVjdCBzdHJva2U9InVybCgjZ3JhZGllbnQpIiBoZWlnaHQ9IjQ1IiB3aWR0aD0iMjIzLjEwOTM3NSIgeT0iLTIyLjUiIHg9Ii0xMTEuNTU0Njg3NSIgZGF0YS1pZD0iSDEiIHN0eWxlPSIiIGNsYXNzPSJiYXNpYyBsYWJlbC1jb250YWluZXIiLz48ZyB0cmFuc2Zvcm09InRyYW5zbGF0ZSgtOTUuNTU0Njg3NSwgLTEwLjUpIiBzdHlsZT0iIiBjbGFzcz0ibGFiZWwiPjxyZWN0Lz48Zm9yZWlnbk9iamVjdCBoZWlnaHQ9IjIxIiB3aWR0aD0iMTkxLjEwOTM3NSI+PGRpdiB4bWxucz0iaHR0cDovL3d3dy53My5vcmcvMTk5OS94aHRtbCIgc3R5bGU9ImRpc3BsYXk6IHRhYmxlLWNlbGw7IHdoaXRlLXNwYWNlOiBub3JtYWw7IGxpbmUtaGVpZ2h0OiAxLjU7IG1heC13aWR0aDogMjAwcHg7IHRleHQtYWxpZ246IGNlbnRlcjsiPjxzcGFuIGNsYXNzPSJub2RlTGFiZWwiPjxwPuOCs+ODvOODieOBqOODh+ODvOOCv+OBrueuoeeQhiBHaXRIdWI8L3A+PC9zcGFuPjwvZGl2PjwvZm9yZWlnbk9iamVjdD48L2c+PC9nPjxnIHRyYW5zZm9ybT0idHJhbnNsYXRlKDI2MzAuMjgxMjUsIDE2Ni4yNSkiIGRhdGEtbG9vaz0ibmVvIiBkYXRhLWV0PSJub2RlIiBkYXRhLW5vZGU9InRydWUiIGRhdGEtaWQ9IkgyIiBpZD0iZmxvd2NoYXJ0LUgyLTU1IiBjbGFzcz0ibm9kZSBkZWZhdWx0Ij48cmVjdCBzdHJva2U9InVybCgjZ3JhZGllbnQpIiBoZWlnaHQ9IjQ1IiB3aWR0aD0iMTE2IiB5PSItMjIuNSIgeD0iLTU4IiBkYXRhLWlkPSJIMiIgc3R5bGU9IiIgY2xhc3M9ImJhc2ljIGxhYmVsLWNvbnRhaW5lciIvPjxnIHRyYW5zZm9ybT0idHJhbnNsYXRlKC00MiwgLTEwLjUpIiBzdHlsZT0iIiBjbGFzcz0ibGFiZWwiPjxyZWN0Lz48Zm9yZWlnbk9iamVjdCBoZWlnaHQ9IjIxIiB3aWR0aD0iODQiPjxkaXYgeG1sbnM9Imh0dHA6Ly93d3cudzMub3JnLzE5OTkveGh0bWwiIHN0eWxlPSJkaXNwbGF5OiB0YWJsZS1jZWxsOyB3aGl0ZS1zcGFjZTogbm9ybWFsOyBsaW5lLWhlaWdodDogMS41OyBtYXgtd2lkdGg6IDIwMHB4OyB0ZXh0LWFsaWduOiBjZW50ZXI7Ij48c3BhbiBjbGFzcz0ibm9kZUxhYmVsIj48cD7lho3nj77mgKfjga7norroqo08L3A+PC9zcGFuPjwvZGl2PjwvZm9yZWlnbk9iamVjdD48L2c+PC9nPjwvZz48L2c+PC9nPjxkZWZzPjxmaWx0ZXIgd2lkdGg9IjEzMCUiIGhlaWdodD0iMTMwJSIgaWQ9ImRyb3Atc2hhZG93Ij48ZmVEcm9wU2hhZG93IGZsb29kLWNvbG9yPSIjMDAwMDAwIiBmbG9vZC1vcGFjaXR5PSIwLjA2IiBzdGREZXZpYXRpb249IjAiIGR5PSI0IiBkeD0iNCIvPjwvZmlsdGVyPjwvZGVmcz48ZGVmcz48ZmlsdGVyIHdpZHRoPSIxNTAlIiBoZWlnaHQ9IjE1MCUiIGlkPSJkcm9wLXNoYWRvdy1zbWFsbCI+PGZlRHJvcFNoYWRvdyBmbG9vZC1jb2xvcj0iIzAwMDAwMCIgZmxvb2Qtb3BhY2l0eT0iMC4wNiIgc3RkRGV2aWF0aW9uPSIwIiBkeT0iMiIgZHg9IjIiLz48L2ZpbHRlcj48L2RlZnM+PC9zdmc+;" vertex="1" parent="1">
                    <mxGeometry y="120" width="1200" height="176" as="geometry"/>
                </mxCell>
            </root>
        </mxGraphModel>
    </diagram>
</mxfile>